M48
; DRILL file {KiCad (5.1.12)-1} date 02/12/22 22:16:29
; FORMAT={-:-/ absolute / metric / decimal}
; #@! TF.CreationDate,2022-02-12T22:16:29+01:00
; #@! TF.GenerationSoftware,Kicad,Pcbnew,(5.1.12)-1
; #@! TF.FileFunction,Plated,1,4,PTH
FMAT,2
METRIC
T1C0.400
T2C0.500
T3C0.600
T4C0.762
T5C1.000
%
G90
G05
T1
X151.165Y-124.446
X151.7Y-150.114
X151.889Y-142.494
X151.889Y-157.734
X152.85Y-127.165
X152.85Y-134.874
X152.959Y-123.081
X153.283Y-120.631
X154.356Y-52.629
X155.402Y-86.403
X155.575Y-62.255
X155.671Y-103.726
X156.259Y-85.608
X156.82Y-51.333
X156.972Y-101.702
X157.099Y-56.363
X157.328Y-59.17
X157.62Y-117.335
X157.988Y-57.379
X158.67Y-122.744
X158.876Y-134.874
X158.913Y-142.494
X158.913Y-150.114
X158.951Y-84.19
X158.962Y-157.734
X159.013Y-127.165
X159.588Y-63.424
X159.923Y-66.11
X159.969Y-102.083
X160.128Y-52.978
X160.172Y-103.937
X160.477Y-106.375
X161.195Y-70.7
X161.265Y-97.001
X162.103Y-61.163
X162.433Y-65.024
X162.636Y-55.016
X162.75Y-70.719
X163.115Y-99.715
X163.115Y-103.402
X163.115Y-108.83
X163.17Y-66.243
X163.431Y-101.822
X163.441Y-57.879
X163.491Y-64.666
X164.224Y-117.316
X164.236Y-56.351
X164.277Y-124.446
X165.039Y-134.874
X165.453Y-70.159
X165.477Y-98.147
X165.557Y-75.946
X165.811Y-102.565
X166.066Y-79.474
X166.446Y-53.746
X166.528Y-100.68
X166.553Y-120.7
X166.591Y-89.29
X166.615Y-97.877
X166.656Y-84.876
X166.786Y-142.547
X166.786Y-150.167
X166.786Y-157.787
X167.275Y-128.695
X167.767Y-51.74
X168.509Y-111.952
X169.174Y-117.197
X169.213Y-110.081
X170.064Y-119.532
X170.643Y-89.545
X170.663Y-73.635
X170.739Y-75.895
X170.794Y-84.38
X171.029Y-124.446
X172.136Y-69.418
X172.441Y-50.394
X172.54Y-150.114
X172.847Y-91.237
X173.126Y-97.587
X173.237Y-120.423
X173.352Y-134.756
X173.352Y-142.547
X173.355Y-53.188
X173.461Y-155.855
X173.814Y-133.082
X173.856Y-128.695
X173.914Y-131.089
X174.117Y-125.463
X174.447Y-140.284
X174.6Y-69.494
X174.727Y-53.696
X175.006Y-90.449
X175.006Y-150.444
X175.082Y-145.872
X175.362Y-85.954
X175.387Y-72.834
X175.387Y-81.229
X175.921Y-126.217
X176.201Y-124.208
X176.429Y-148.351
X176.479Y-55.27
X176.497Y-119.074
X177.292Y-69.672
X177.418Y-124.446
X177.418Y-153.034
X177.432Y-117.295
X177.973Y-66.772
X178.422Y-142.494
X178.482Y-122.867
X178.5Y-150.114
X178.627Y-134.874
X178.673Y-157.734
X178.773Y-65.972
X179.07Y-54.915
X179.68Y-81.229
X180.209Y-84.552
X180.265Y-87.388
X181.229Y-92.939
X181.231Y-103.76
X181.305Y-58.064
X181.381Y-55.753
X181.386Y-100.717
X181.483Y-89.941
X181.585Y-81.178
X181.701Y-129.817
X182.091Y-62.001
X182.681Y-79.449
X182.832Y-88.034
X183.413Y-75.997
X183.808Y-101.611
X183.856Y-84.292
X183.967Y-124.446
X184.2Y-82.376
X184.201Y-62.789
X184.201Y-65.786
X184.378Y-60.147
X184.586Y-153.057
X184.836Y-107.417
X185.02Y-127.165
X185.02Y-134.874
X185.02Y-150.114
X185.04Y-100.694
X185.086Y-122.744
X185.42Y-84.324
X185.445Y-81.026
X186.136Y-157.787
X186.36Y-55.855
X186.433Y-142.547
X186.512Y-65.43
X188.519Y-122.657
X188.519Y-124.739
X188.678Y-61.722
X189.742Y-133.8
X190.055Y-105.993
X190.5Y-68.91
X190.525Y-76.606
X190.64Y-117.312
X190.854Y-124.446
X191.475Y-111.465
X192.229Y-134.874
X192.38Y-69.469
X193.185Y-78.799
X193.759Y-120.388
X193.759Y-142.547
X193.759Y-150.167
X194.177Y-128.695
X195.051Y-114.109
X195.25Y-122.479
X195.28Y-96.616
X195.885Y-72.847
X195.969Y-78.791
X196.19Y-104.867
X197.053Y-67.158
X197.315Y-124.446
X198.164Y-78.801
X198.292Y-134.874
X198.292Y-142.494
X198.292Y-150.114
X198.294Y-122.867
X199.775Y-70.353
X200.805Y-70.676
X200.914Y-65.71
X200.965Y-76.53
X201.355Y-116.908
X201.391Y-129.817
X201.876Y-114.534
X202.025Y-69.631
X202.998Y-155.205
X203.073Y-70.684
X203.343Y-79.242
X203.656Y-124.446
X203.797Y-103.085
X204.381Y-134.874
X204.775Y-127.165
X204.898Y-122.867
X205.409Y-99.486
X205.605Y-142.494
X205.868Y-111.25
X206.07Y-65.409
X206.28Y-157.787
X206.33Y-150.167
X206.93Y-53.708
X207.823Y-122.778
X208.001Y-119.126
X208.356Y-116.992
X210.544Y-124.446
X210.579Y-157.787
X211.493Y-134.874
X211.53Y-122.867
X211.62Y-150.114
X213.351Y-142.547
X213.351Y-157.787
X213.812Y-128.695
T4
X187.389Y-101.93
X187.389Y-104.47
X187.389Y-107.01
X187.389Y-109.55
X187.389Y-112.09
X187.389Y-114.63
T5
X151.638Y-95.631
X154.178Y-95.631
X156.718Y-95.631
X159.258Y-95.631
X189.89Y-60.452
X189.89Y-62.992
X189.89Y-65.532
X192.43Y-60.452
X192.43Y-62.992
X192.43Y-65.532
X204.47Y-95.25
X204.597Y-84.963
X204.597Y-90.424
X207.01Y-95.25
X207.137Y-84.963
X207.137Y-90.424
X208.686Y-99.517
X209.55Y-95.25
X209.677Y-84.963
X209.677Y-90.424
X211.226Y-99.517
X212.09Y-95.25
X212.217Y-84.963
X212.217Y-90.424
T2
G00X209.11Y-102.36
M15
G01X207.91Y-102.36
M16
G05
G00X209.11Y-111.0
M15
G01X207.91Y-111.0
M16
G05
T3
G00X212.99Y-102.36
M15
G01X212.39Y-102.36
M16
G05
G00X212.99Y-111.0
M15
G01X212.39Y-111.0
M16
G05
T0
M30
