%TF.GenerationSoftware,KiCad,Pcbnew,(5.1.12)-1*%
%TF.CreationDate,2022-02-12T22:16:26+01:00*%
%TF.ProjectId,MemoryBrakout,4d656d6f-7279-4427-9261-6b6f75742e6b,rev?*%
%TF.SameCoordinates,Original*%
%TF.FileFunction,Legend,Top*%
%TF.FilePolarity,Positive*%
%FSLAX46Y46*%
G04 Gerber Fmt 4.6, Leading zero omitted, Abs format (unit mm)*
G04 Created by KiCad (PCBNEW (5.1.12)-1) date 2022-02-12 22:16:26*
%MOMM*%
%LPD*%
G01*
G04 APERTURE LIST*
%ADD10C,0.120000*%
%ADD11C,0.150000*%
%ADD12C,0.100000*%
%ADD13C,0.125000*%
%ADD14C,0.200000*%
%ADD15C,0.127000*%
G04 APERTURE END LIST*
D10*
X193548000Y-155194000D02*
X176784000Y-155194000D01*
X193548000Y-160528000D02*
X193548000Y-155194000D01*
X176784000Y-160528000D02*
X193548000Y-160528000D01*
X176784000Y-155194000D02*
X176784000Y-160528000D01*
D11*
X200622504Y-152173215D02*
X200660000Y-152210710D01*
X200622504Y-152248205D01*
X200585009Y-152210710D01*
X200622504Y-152173215D01*
X200622504Y-152248205D01*
X200472523Y-151498299D02*
X200547514Y-151460803D01*
X200734990Y-151460803D01*
X200809981Y-151498299D01*
X200847476Y-151573289D01*
X200847476Y-151648280D01*
X200809981Y-151723271D01*
X200772486Y-151760766D01*
X200697495Y-151798261D01*
X200660000Y-151835757D01*
X200622504Y-151910747D01*
X200622504Y-151948243D01*
X194393458Y-151423308D02*
X193718542Y-152435682D01*
X187198000Y-152173215D02*
X187235495Y-152210710D01*
X187198000Y-152248205D01*
X187160504Y-152210710D01*
X187198000Y-152173215D01*
X187198000Y-152248205D01*
X180631495Y-152210710D02*
X180631495Y-152248205D01*
X180594000Y-152323196D01*
X180556504Y-152360691D01*
X207047495Y-144094803D02*
X206972504Y-144244785D01*
X200256018Y-144094803D02*
X200256018Y-144244785D01*
X200555981Y-144094803D02*
X200555981Y-144244785D01*
X193802000Y-144807215D02*
X193839495Y-144844710D01*
X193802000Y-144882205D01*
X193764504Y-144844710D01*
X193802000Y-144807215D01*
X193802000Y-144882205D01*
X193802000Y-144394766D02*
X193839495Y-144432261D01*
X193802000Y-144469757D01*
X193764504Y-144432261D01*
X193802000Y-144394766D01*
X193802000Y-144469757D01*
X187235495Y-144844710D02*
X187235495Y-144882205D01*
X187198000Y-144957196D01*
X187160504Y-144994691D01*
X187198000Y-144394766D02*
X187235495Y-144432261D01*
X187198000Y-144469757D01*
X187160504Y-144432261D01*
X187198000Y-144394766D01*
X187198000Y-144469757D01*
X212466285Y-131247428D02*
X213237714Y-132404571D01*
X206248000Y-132533142D02*
X206248000Y-131247428D01*
X187152037Y-122605196D02*
X187751962Y-122605196D01*
X194010037Y-122117757D02*
X194609962Y-122117757D01*
X194609962Y-122342729D02*
X194010037Y-122342729D01*
X206860018Y-122576168D02*
X206897514Y-122576168D01*
X206972504Y-122538673D01*
X207010000Y-122463682D01*
X207010000Y-122088729D01*
X207047495Y-122013738D01*
X207122486Y-121976243D01*
X207047495Y-121938747D01*
X207010000Y-121863757D01*
X207010000Y-121488803D01*
X206972504Y-121413813D01*
X206897514Y-121376317D01*
X206860018Y-121376317D01*
X200555981Y-122576168D02*
X200518486Y-122576168D01*
X200443495Y-122538673D01*
X200406000Y-122463682D01*
X200406000Y-122088729D01*
X200368504Y-122013738D01*
X200293514Y-121976243D01*
X200368504Y-121938747D01*
X200406000Y-121863757D01*
X200406000Y-121488803D01*
X200443495Y-121413813D01*
X200518486Y-121376317D01*
X200555981Y-121376317D01*
X205822571Y-117547142D02*
X206036857Y-117547142D01*
X206036857Y-116261428D01*
X205822571Y-116261428D01*
X199561428Y-117547142D02*
X199347142Y-117547142D01*
X199347142Y-116261428D01*
X199561428Y-116261428D01*
X192443142Y-117158285D02*
X193128857Y-117158285D01*
X192786000Y-117501142D02*
X192786000Y-116815428D01*
X185839142Y-117158285D02*
X186524857Y-117158285D01*
X212426571Y-124956000D02*
X212469428Y-124913142D01*
X212555142Y-124784571D01*
X212598000Y-124698857D01*
X212640857Y-124570285D01*
X212683714Y-124356000D01*
X212683714Y-124184571D01*
X212640857Y-123970285D01*
X212598000Y-123841714D01*
X212555142Y-123756000D01*
X212469428Y-123627428D01*
X212426571Y-123584571D01*
X206165428Y-124956000D02*
X206122571Y-124913142D01*
X206036857Y-124784571D01*
X205994000Y-124698857D01*
X205951142Y-124570285D01*
X205908285Y-124356000D01*
X205908285Y-124184571D01*
X205951142Y-123970285D01*
X205994000Y-123841714D01*
X206036857Y-123756000D01*
X206122571Y-123627428D01*
X206165428Y-123584571D01*
X199390000Y-123967142D02*
X199390000Y-124181428D01*
X199175714Y-124095714D02*
X199390000Y-124181428D01*
X199604285Y-124095714D01*
X199261428Y-124352857D02*
X199390000Y-124181428D01*
X199518571Y-124352857D01*
X193171714Y-124613142D02*
X193128857Y-124613142D01*
X193043142Y-124570285D01*
X192914571Y-124441714D01*
X192700285Y-124184571D01*
X192614571Y-124056000D01*
X192571714Y-123927428D01*
X192571714Y-123841714D01*
X192614571Y-123756000D01*
X192700285Y-123713142D01*
X192743142Y-123713142D01*
X192828857Y-123756000D01*
X192871714Y-123841714D01*
X192871714Y-123884571D01*
X192828857Y-123970285D01*
X192786000Y-124013142D01*
X192528857Y-124184571D01*
X192486000Y-124227428D01*
X192443142Y-124313142D01*
X192443142Y-124441714D01*
X192486000Y-124527428D01*
X192528857Y-124570285D01*
X192614571Y-124613142D01*
X192743142Y-124613142D01*
X192828857Y-124570285D01*
X192871714Y-124527428D01*
X193000285Y-124356000D01*
X193043142Y-124227428D01*
X193043142Y-124141714D01*
X186010571Y-123798857D02*
X186182000Y-123670285D01*
X186353428Y-123798857D01*
X179235142Y-124613142D02*
X179920857Y-123713142D01*
X179363714Y-123713142D02*
X179449428Y-123756000D01*
X179492285Y-123841714D01*
X179449428Y-123927428D01*
X179363714Y-123970285D01*
X179278000Y-123927428D01*
X179235142Y-123841714D01*
X179278000Y-123756000D01*
X179363714Y-123713142D01*
X179878000Y-124570285D02*
X179920857Y-124484571D01*
X179878000Y-124398857D01*
X179792285Y-124356000D01*
X179706571Y-124398857D01*
X179663714Y-124484571D01*
X179706571Y-124570285D01*
X179792285Y-124613142D01*
X179878000Y-124570285D01*
X172716857Y-124570285D02*
X172845428Y-124613142D01*
X173059714Y-124613142D01*
X173145428Y-124570285D01*
X173188285Y-124527428D01*
X173231142Y-124441714D01*
X173231142Y-124356000D01*
X173188285Y-124270285D01*
X173145428Y-124227428D01*
X173059714Y-124184571D01*
X172888285Y-124141714D01*
X172802571Y-124098857D01*
X172759714Y-124056000D01*
X172716857Y-123970285D01*
X172716857Y-123884571D01*
X172759714Y-123798857D01*
X172802571Y-123756000D01*
X172888285Y-123713142D01*
X173102571Y-123713142D01*
X173231142Y-123756000D01*
X172974000Y-123584571D02*
X172974000Y-124741714D01*
X166091428Y-124013142D02*
X166734285Y-124013142D01*
X166348571Y-123627428D02*
X166091428Y-124784571D01*
X166648571Y-124398857D02*
X166005714Y-124398857D01*
X166391428Y-124784571D02*
X166648571Y-123627428D01*
X159958857Y-124184571D02*
X159916000Y-124141714D01*
X159830285Y-124098857D01*
X159744571Y-124098857D01*
X159658857Y-124141714D01*
X159616000Y-124184571D01*
X159573142Y-124270285D01*
X159573142Y-124356000D01*
X159616000Y-124441714D01*
X159658857Y-124484571D01*
X159744571Y-124527428D01*
X159830285Y-124527428D01*
X159916000Y-124484571D01*
X159958857Y-124441714D01*
X159958857Y-124098857D02*
X159958857Y-124441714D01*
X160001714Y-124484571D01*
X160044571Y-124484571D01*
X160130285Y-124441714D01*
X160173142Y-124356000D01*
X160173142Y-124141714D01*
X160087428Y-124013142D01*
X159958857Y-123927428D01*
X159787428Y-123884571D01*
X159616000Y-123927428D01*
X159487428Y-124013142D01*
X159401714Y-124141714D01*
X159358857Y-124313142D01*
X159401714Y-124484571D01*
X159487428Y-124613142D01*
X159616000Y-124698857D01*
X159787428Y-124741714D01*
X159958857Y-124698857D01*
X160087428Y-124613142D01*
X153162000Y-124527428D02*
X153204857Y-124570285D01*
X153162000Y-124613142D01*
X153119142Y-124570285D01*
X153162000Y-124527428D01*
X153162000Y-124613142D01*
X153162000Y-124270285D02*
X153119142Y-123756000D01*
X153162000Y-123713142D01*
X153204857Y-123756000D01*
X153162000Y-124270285D01*
X153162000Y-123713142D01*
X207891333Y-161878171D02*
X207858000Y-161835314D01*
X207791333Y-161792457D01*
X207724666Y-161792457D01*
X207658000Y-161835314D01*
X207624666Y-161878171D01*
X207591333Y-161963885D01*
X207591333Y-162049600D01*
X207624666Y-162135314D01*
X207658000Y-162178171D01*
X207724666Y-162221028D01*
X207791333Y-162221028D01*
X207858000Y-162178171D01*
X207891333Y-162135314D01*
X207891333Y-161792457D02*
X207891333Y-162135314D01*
X207924666Y-162178171D01*
X207958000Y-162178171D01*
X208024666Y-162135314D01*
X208058000Y-162049600D01*
X208058000Y-161835314D01*
X207991333Y-161706742D01*
X207891333Y-161621028D01*
X207758000Y-161578171D01*
X207624666Y-161621028D01*
X207524666Y-161706742D01*
X207458000Y-161835314D01*
X207424666Y-162006742D01*
X207458000Y-162178171D01*
X207524666Y-162306742D01*
X207624666Y-162392457D01*
X207758000Y-162435314D01*
X207891333Y-162392457D01*
X207991333Y-162306742D01*
X208324666Y-162263885D02*
X208391333Y-162306742D01*
X208524666Y-162306742D01*
X208591333Y-162263885D01*
X208624666Y-162178171D01*
X208624666Y-162135314D01*
X208591333Y-162049600D01*
X208524666Y-162006742D01*
X208424666Y-162006742D01*
X208358000Y-161963885D01*
X208324666Y-161878171D01*
X208324666Y-161835314D01*
X208358000Y-161749600D01*
X208424666Y-161706742D01*
X208524666Y-161706742D01*
X208591333Y-161749600D01*
X209224666Y-161706742D02*
X209224666Y-162306742D01*
X208924666Y-161706742D02*
X208924666Y-162178171D01*
X208958000Y-162263885D01*
X209024666Y-162306742D01*
X209124666Y-162306742D01*
X209191333Y-162263885D01*
X209224666Y-162221028D01*
X209658000Y-162306742D02*
X209591333Y-162263885D01*
X209558000Y-162178171D01*
X209558000Y-161406742D01*
X209824666Y-161706742D02*
X210091333Y-161706742D01*
X209924666Y-162306742D02*
X209924666Y-161535314D01*
X209958000Y-161449600D01*
X210024666Y-161406742D01*
X210091333Y-161406742D01*
X210624666Y-161706742D02*
X210624666Y-162306742D01*
X210324666Y-161706742D02*
X210324666Y-162178171D01*
X210358000Y-162263885D01*
X210424666Y-162306742D01*
X210524666Y-162306742D01*
X210591333Y-162263885D01*
X210624666Y-162221028D01*
X210958000Y-162306742D02*
X210958000Y-161706742D01*
X210958000Y-161878171D02*
X210991333Y-161792457D01*
X211024666Y-161749600D01*
X211091333Y-161706742D01*
X211158000Y-161706742D01*
X211491333Y-162306742D02*
X211424666Y-162263885D01*
X211391333Y-162221028D01*
X211358000Y-162135314D01*
X211358000Y-161878171D01*
X211391333Y-161792457D01*
X211424666Y-161749600D01*
X211491333Y-161706742D01*
X211591333Y-161706742D01*
X211658000Y-161749600D01*
X211691333Y-161792457D01*
X211724666Y-161878171D01*
X211724666Y-162135314D01*
X211691333Y-162221028D01*
X211658000Y-162263885D01*
X211591333Y-162306742D01*
X211491333Y-162306742D01*
X212024666Y-162306742D02*
X212024666Y-161706742D01*
X212024666Y-161406742D02*
X211991333Y-161449600D01*
X212024666Y-161492457D01*
X212058000Y-161449600D01*
X212024666Y-161406742D01*
X212024666Y-161492457D01*
X212658000Y-162306742D02*
X212658000Y-161406742D01*
X212658000Y-162263885D02*
X212591333Y-162306742D01*
X212458000Y-162306742D01*
X212391333Y-162263885D01*
X212358000Y-162221028D01*
X212324666Y-162135314D01*
X212324666Y-161878171D01*
X212358000Y-161792457D01*
X212391333Y-161749600D01*
X212458000Y-161706742D01*
X212591333Y-161706742D01*
X212658000Y-161749600D01*
X150489666Y-162459142D02*
X150489666Y-161559142D01*
X150656333Y-161559142D01*
X150756333Y-161602000D01*
X150823000Y-161687714D01*
X150856333Y-161773428D01*
X150889666Y-161944857D01*
X150889666Y-162073428D01*
X150856333Y-162244857D01*
X150823000Y-162330571D01*
X150756333Y-162416285D01*
X150656333Y-162459142D01*
X150489666Y-162459142D01*
X151189666Y-162459142D02*
X151189666Y-161859142D01*
X151189666Y-162030571D02*
X151223000Y-161944857D01*
X151256333Y-161902000D01*
X151323000Y-161859142D01*
X151389666Y-161859142D01*
X152556333Y-162373428D02*
X152523000Y-162416285D01*
X152423000Y-162459142D01*
X152356333Y-162459142D01*
X152256333Y-162416285D01*
X152189666Y-162330571D01*
X152156333Y-162244857D01*
X152123000Y-162073428D01*
X152123000Y-161944857D01*
X152156333Y-161773428D01*
X152189666Y-161687714D01*
X152256333Y-161602000D01*
X152356333Y-161559142D01*
X152423000Y-161559142D01*
X152523000Y-161602000D01*
X152556333Y-161644857D01*
X152823000Y-162202000D02*
X153156333Y-162202000D01*
X152756333Y-162459142D02*
X152989666Y-161559142D01*
X153223000Y-162459142D01*
X153456333Y-162459142D02*
X153456333Y-161559142D01*
X153623000Y-161559142D01*
X153723000Y-161602000D01*
X153789666Y-161687714D01*
X153823000Y-161773428D01*
X153856333Y-161944857D01*
X153856333Y-162073428D01*
X153823000Y-162244857D01*
X153789666Y-162330571D01*
X153723000Y-162416285D01*
X153623000Y-162459142D01*
X153456333Y-162459142D01*
X154156333Y-162459142D02*
X154156333Y-161559142D01*
X154889666Y-162373428D02*
X154856333Y-162416285D01*
X154756333Y-162459142D01*
X154689666Y-162459142D01*
X154589666Y-162416285D01*
X154523000Y-162330571D01*
X154489666Y-162244857D01*
X154456333Y-162073428D01*
X154456333Y-161944857D01*
X154489666Y-161773428D01*
X154523000Y-161687714D01*
X154589666Y-161602000D01*
X154689666Y-161559142D01*
X154756333Y-161559142D01*
X154856333Y-161602000D01*
X154889666Y-161644857D01*
X155723000Y-162459142D02*
X155723000Y-161559142D01*
X155989666Y-161559142D01*
X156056333Y-161602000D01*
X156089666Y-161644857D01*
X156123000Y-161730571D01*
X156123000Y-161859142D01*
X156089666Y-161944857D01*
X156056333Y-161987714D01*
X155989666Y-162030571D01*
X155723000Y-162030571D01*
X156423000Y-162459142D02*
X156423000Y-161559142D01*
X156723000Y-162459142D02*
X156723000Y-161987714D01*
X156689666Y-161902000D01*
X156623000Y-161859142D01*
X156523000Y-161859142D01*
X156456333Y-161902000D01*
X156423000Y-161944857D01*
X157056333Y-162459142D02*
X157056333Y-161859142D01*
X157056333Y-161559142D02*
X157023000Y-161602000D01*
X157056333Y-161644857D01*
X157089666Y-161602000D01*
X157056333Y-161559142D01*
X157056333Y-161644857D01*
X157489666Y-162459142D02*
X157423000Y-162416285D01*
X157389666Y-162330571D01*
X157389666Y-161559142D01*
X157756333Y-162459142D02*
X157756333Y-161859142D01*
X157756333Y-161559142D02*
X157723000Y-161602000D01*
X157756333Y-161644857D01*
X157789666Y-161602000D01*
X157756333Y-161559142D01*
X157756333Y-161644857D01*
X158089666Y-161859142D02*
X158089666Y-162759142D01*
X158089666Y-161902000D02*
X158156333Y-161859142D01*
X158289666Y-161859142D01*
X158356333Y-161902000D01*
X158389666Y-161944857D01*
X158423000Y-162030571D01*
X158423000Y-162287714D01*
X158389666Y-162373428D01*
X158356333Y-162416285D01*
X158289666Y-162459142D01*
X158156333Y-162459142D01*
X158089666Y-162416285D01*
X158723000Y-161859142D02*
X158723000Y-162759142D01*
X158723000Y-161902000D02*
X158789666Y-161859142D01*
X158923000Y-161859142D01*
X158989666Y-161902000D01*
X159023000Y-161944857D01*
X159056333Y-162030571D01*
X159056333Y-162287714D01*
X159023000Y-162373428D01*
X158989666Y-162416285D01*
X158923000Y-162459142D01*
X158789666Y-162459142D01*
X158723000Y-162416285D01*
X159623000Y-162416285D02*
X159556333Y-162459142D01*
X159423000Y-162459142D01*
X159356333Y-162416285D01*
X159323000Y-162330571D01*
X159323000Y-161987714D01*
X159356333Y-161902000D01*
X159423000Y-161859142D01*
X159556333Y-161859142D01*
X159623000Y-161902000D01*
X159656333Y-161987714D01*
X159656333Y-162073428D01*
X159323000Y-162159142D01*
X160489666Y-162116285D02*
X161023000Y-162116285D01*
X161856333Y-161559142D02*
X161856333Y-161730571D01*
X162123000Y-161559142D02*
X162123000Y-161730571D01*
X162389666Y-162416285D02*
X162489666Y-162459142D01*
X162656333Y-162459142D01*
X162723000Y-162416285D01*
X162756333Y-162373428D01*
X162789666Y-162287714D01*
X162789666Y-162202000D01*
X162756333Y-162116285D01*
X162723000Y-162073428D01*
X162656333Y-162030571D01*
X162523000Y-161987714D01*
X162456333Y-161944857D01*
X162423000Y-161902000D01*
X162389666Y-161816285D01*
X162389666Y-161730571D01*
X162423000Y-161644857D01*
X162456333Y-161602000D01*
X162523000Y-161559142D01*
X162689666Y-161559142D01*
X162789666Y-161602000D01*
X163089666Y-162459142D02*
X163089666Y-161559142D01*
X163089666Y-161987714D02*
X163489666Y-161987714D01*
X163489666Y-162459142D02*
X163489666Y-161559142D01*
X163789666Y-162202000D02*
X164123000Y-162202000D01*
X163723000Y-162459142D02*
X163956333Y-161559142D01*
X164189666Y-162459142D01*
X164823000Y-162459142D02*
X164589666Y-162030571D01*
X164423000Y-162459142D02*
X164423000Y-161559142D01*
X164689666Y-161559142D01*
X164756333Y-161602000D01*
X164789666Y-161644857D01*
X164823000Y-161730571D01*
X164823000Y-161859142D01*
X164789666Y-161944857D01*
X164756333Y-161987714D01*
X164689666Y-162030571D01*
X164423000Y-162030571D01*
X165123000Y-162459142D02*
X165123000Y-161559142D01*
X165389666Y-161559142D01*
X165456333Y-161602000D01*
X165489666Y-161644857D01*
X165523000Y-161730571D01*
X165523000Y-161859142D01*
X165489666Y-161944857D01*
X165456333Y-161987714D01*
X165389666Y-162030571D01*
X165123000Y-162030571D01*
X165823000Y-162459142D02*
X165823000Y-161559142D01*
X166156333Y-162459142D02*
X166156333Y-161559142D01*
X166556333Y-162459142D02*
X166256333Y-161944857D01*
X166556333Y-161559142D02*
X166156333Y-162073428D01*
X166856333Y-161987714D02*
X167089666Y-161987714D01*
X167189666Y-162459142D02*
X166856333Y-162459142D01*
X166856333Y-161559142D01*
X167189666Y-161559142D01*
X167489666Y-161987714D02*
X167723000Y-161987714D01*
X167823000Y-162459142D02*
X167489666Y-162459142D01*
X167489666Y-161559142D01*
X167823000Y-161559142D01*
X168356333Y-161987714D02*
X168456333Y-162030571D01*
X168489666Y-162073428D01*
X168523000Y-162159142D01*
X168523000Y-162287714D01*
X168489666Y-162373428D01*
X168456333Y-162416285D01*
X168389666Y-162459142D01*
X168123000Y-162459142D01*
X168123000Y-161559142D01*
X168356333Y-161559142D01*
X168423000Y-161602000D01*
X168456333Y-161644857D01*
X168489666Y-161730571D01*
X168489666Y-161816285D01*
X168456333Y-161902000D01*
X168423000Y-161944857D01*
X168356333Y-161987714D01*
X168123000Y-161987714D01*
X168956333Y-161559142D02*
X169089666Y-161559142D01*
X169156333Y-161602000D01*
X169223000Y-161687714D01*
X169256333Y-161859142D01*
X169256333Y-162159142D01*
X169223000Y-162330571D01*
X169156333Y-162416285D01*
X169089666Y-162459142D01*
X168956333Y-162459142D01*
X168889666Y-162416285D01*
X168823000Y-162330571D01*
X168789666Y-162159142D01*
X168789666Y-161859142D01*
X168823000Y-161687714D01*
X168889666Y-161602000D01*
X168956333Y-161559142D01*
X170489666Y-162373428D02*
X170456333Y-162416285D01*
X170356333Y-162459142D01*
X170289666Y-162459142D01*
X170189666Y-162416285D01*
X170123000Y-162330571D01*
X170089666Y-162244857D01*
X170056333Y-162073428D01*
X170056333Y-161944857D01*
X170089666Y-161773428D01*
X170123000Y-161687714D01*
X170189666Y-161602000D01*
X170289666Y-161559142D01*
X170356333Y-161559142D01*
X170456333Y-161602000D01*
X170489666Y-161644857D01*
X170889666Y-162459142D02*
X170823000Y-162416285D01*
X170789666Y-162373428D01*
X170756333Y-162287714D01*
X170756333Y-162030571D01*
X170789666Y-161944857D01*
X170823000Y-161902000D01*
X170889666Y-161859142D01*
X170989666Y-161859142D01*
X171056333Y-161902000D01*
X171089666Y-161944857D01*
X171123000Y-162030571D01*
X171123000Y-162287714D01*
X171089666Y-162373428D01*
X171056333Y-162416285D01*
X170989666Y-162459142D01*
X170889666Y-162459142D01*
X171423000Y-162459142D02*
X171423000Y-161859142D01*
X171423000Y-161944857D02*
X171456333Y-161902000D01*
X171523000Y-161859142D01*
X171623000Y-161859142D01*
X171689666Y-161902000D01*
X171723000Y-161987714D01*
X171723000Y-162459142D01*
X171723000Y-161987714D02*
X171756333Y-161902000D01*
X171823000Y-161859142D01*
X171923000Y-161859142D01*
X171989666Y-161902000D01*
X172023000Y-161987714D01*
X172023000Y-162459142D01*
X172356333Y-161859142D02*
X172356333Y-162759142D01*
X172356333Y-161902000D02*
X172423000Y-161859142D01*
X172556333Y-161859142D01*
X172623000Y-161902000D01*
X172656333Y-161944857D01*
X172689666Y-162030571D01*
X172689666Y-162287714D01*
X172656333Y-162373428D01*
X172623000Y-162416285D01*
X172556333Y-162459142D01*
X172423000Y-162459142D01*
X172356333Y-162416285D01*
X173289666Y-161859142D02*
X173289666Y-162459142D01*
X172989666Y-161859142D02*
X172989666Y-162330571D01*
X173023000Y-162416285D01*
X173089666Y-162459142D01*
X173189666Y-162459142D01*
X173256333Y-162416285D01*
X173289666Y-162373428D01*
X173523000Y-161859142D02*
X173789666Y-161859142D01*
X173623000Y-161559142D02*
X173623000Y-162330571D01*
X173656333Y-162416285D01*
X173723000Y-162459142D01*
X173789666Y-162459142D01*
X174289666Y-162416285D02*
X174223000Y-162459142D01*
X174089666Y-162459142D01*
X174023000Y-162416285D01*
X173989666Y-162330571D01*
X173989666Y-161987714D01*
X174023000Y-161902000D01*
X174089666Y-161859142D01*
X174223000Y-161859142D01*
X174289666Y-161902000D01*
X174323000Y-161987714D01*
X174323000Y-162073428D01*
X173989666Y-162159142D01*
X174623000Y-162459142D02*
X174623000Y-161859142D01*
X174623000Y-162030571D02*
X174656333Y-161944857D01*
X174689666Y-161902000D01*
X174756333Y-161859142D01*
X174823000Y-161859142D01*
X175589666Y-162116285D02*
X176123000Y-162116285D01*
X176889666Y-161559142D02*
X177123000Y-162459142D01*
X177356333Y-161559142D01*
X177956333Y-162459142D02*
X177556333Y-162459142D01*
X177756333Y-162459142D02*
X177756333Y-161559142D01*
X177689666Y-161687714D01*
X177623000Y-161773428D01*
X177556333Y-161816285D01*
X178256333Y-162373428D02*
X178289666Y-162416285D01*
X178256333Y-162459142D01*
X178223000Y-162416285D01*
X178256333Y-162373428D01*
X178256333Y-162459142D01*
X178956333Y-162459142D02*
X178556333Y-162459142D01*
X178756333Y-162459142D02*
X178756333Y-161559142D01*
X178689666Y-161687714D01*
X178623000Y-161773428D01*
X178556333Y-161816285D01*
X179223000Y-161559142D02*
X179223000Y-161730571D01*
X179489666Y-161559142D02*
X179489666Y-161730571D01*
X208185733Y-96738342D02*
X208319066Y-96738342D01*
X208385733Y-96781200D01*
X208452400Y-96866914D01*
X208485733Y-97038342D01*
X208485733Y-97338342D01*
X208452400Y-97509771D01*
X208385733Y-97595485D01*
X208319066Y-97638342D01*
X208185733Y-97638342D01*
X208119066Y-97595485D01*
X208052400Y-97509771D01*
X208019066Y-97338342D01*
X208019066Y-97038342D01*
X208052400Y-96866914D01*
X208119066Y-96781200D01*
X208185733Y-96738342D01*
X208785733Y-97038342D02*
X208785733Y-97638342D01*
X208785733Y-97124057D02*
X208819066Y-97081200D01*
X208885733Y-97038342D01*
X208985733Y-97038342D01*
X209052400Y-97081200D01*
X209085733Y-97166914D01*
X209085733Y-97638342D01*
X209919066Y-96695485D02*
X209319066Y-97852628D01*
X210285733Y-96738342D02*
X210419066Y-96738342D01*
X210485733Y-96781200D01*
X210552400Y-96866914D01*
X210585733Y-97038342D01*
X210585733Y-97338342D01*
X210552400Y-97509771D01*
X210485733Y-97595485D01*
X210419066Y-97638342D01*
X210285733Y-97638342D01*
X210219066Y-97595485D01*
X210152400Y-97509771D01*
X210119066Y-97338342D01*
X210119066Y-97038342D01*
X210152400Y-96866914D01*
X210219066Y-96781200D01*
X210285733Y-96738342D01*
X210785733Y-97038342D02*
X211052400Y-97038342D01*
X210885733Y-97638342D02*
X210885733Y-96866914D01*
X210919066Y-96781200D01*
X210985733Y-96738342D01*
X211052400Y-96738342D01*
X211185733Y-97038342D02*
X211452400Y-97038342D01*
X211285733Y-97638342D02*
X211285733Y-96866914D01*
X211319066Y-96781200D01*
X211385733Y-96738342D01*
X211452400Y-96738342D01*
D10*
X202692000Y-102362000D02*
X203708000Y-100076000D01*
X204724000Y-102362000D02*
X202692000Y-102362000D01*
X203708000Y-100076000D02*
X204724000Y-102362000D01*
X153416000Y-116332000D02*
X150622000Y-116332000D01*
X153416000Y-117602000D02*
X153416000Y-116332000D01*
X150622000Y-117602000D02*
X153416000Y-117602000D01*
X150622000Y-116332000D02*
X150622000Y-117602000D01*
X212852000Y-116332000D02*
X210058000Y-116332000D01*
X212852000Y-117602000D02*
X212852000Y-116332000D01*
X210058000Y-117602000D02*
X212852000Y-117602000D01*
X210058000Y-116332000D02*
X210058000Y-117602000D01*
X213360000Y-138684000D02*
X210058000Y-138684000D01*
X213360000Y-139954000D02*
X213360000Y-138684000D01*
X210058000Y-139954000D02*
X213360000Y-139954000D01*
X210058000Y-138684000D02*
X210058000Y-139954000D01*
X213106000Y-146304000D02*
X210058000Y-146304000D01*
X213106000Y-147574000D02*
X213106000Y-146304000D01*
X210058000Y-147574000D02*
X213106000Y-147574000D01*
X210058000Y-146304000D02*
X210058000Y-147574000D01*
X213614000Y-153924000D02*
X209550000Y-153924000D01*
X213614000Y-155194000D02*
X213614000Y-153924000D01*
X209550000Y-155194000D02*
X213614000Y-155194000D01*
X209550000Y-153924000D02*
X209550000Y-155194000D01*
X206756000Y-153924000D02*
X202692000Y-153924000D01*
X206756000Y-155194000D02*
X206756000Y-153924000D01*
X202692000Y-155194000D02*
X206756000Y-155194000D01*
X202692000Y-153924000D02*
X202692000Y-155194000D01*
X163830000Y-153924000D02*
X163830000Y-155194000D01*
X166624000Y-153924000D02*
X163830000Y-153924000D01*
X166624000Y-155194000D02*
X166624000Y-153924000D01*
X163830000Y-155194000D02*
X166624000Y-155194000D01*
X160528000Y-153924000D02*
X156718000Y-153924000D01*
X160528000Y-155194000D02*
X160528000Y-153924000D01*
X156718000Y-155194000D02*
X160528000Y-155194000D01*
X156718000Y-153924000D02*
X156718000Y-155194000D01*
X153416000Y-155194000D02*
X153416000Y-153924000D01*
X150368000Y-155194000D02*
X153416000Y-155194000D01*
X150368000Y-153924000D02*
X150368000Y-155194000D01*
X153416000Y-153924000D02*
X150368000Y-153924000D01*
D12*
G36*
X163068000Y-115316000D02*
G01*
X161544000Y-114300000D01*
X164592000Y-114300000D01*
X163068000Y-115316000D01*
G37*
X163068000Y-115316000D02*
X161544000Y-114300000D01*
X164592000Y-114300000D01*
X163068000Y-115316000D01*
G36*
X174244000Y-106426000D02*
G01*
X172720000Y-108712000D01*
X172720000Y-103886000D01*
X174244000Y-106426000D01*
G37*
X174244000Y-106426000D02*
X172720000Y-108712000D01*
X172720000Y-103886000D01*
X174244000Y-106426000D01*
G36*
X153416000Y-108712000D02*
G01*
X151892000Y-106172000D01*
X153416000Y-103886000D01*
X153416000Y-108712000D01*
G37*
X153416000Y-108712000D02*
X151892000Y-106172000D01*
X153416000Y-103886000D01*
X153416000Y-108712000D01*
G36*
X164338000Y-98298000D02*
G01*
X161544000Y-98298000D01*
X163068000Y-97282000D01*
X164338000Y-98298000D01*
G37*
X164338000Y-98298000D02*
X161544000Y-98298000D01*
X163068000Y-97282000D01*
X164338000Y-98298000D01*
D10*
X189484000Y-105410000D02*
X190246000Y-105410000D01*
X189484000Y-106934000D02*
X189484000Y-105410000D01*
X191008000Y-106934000D02*
X189484000Y-106934000D01*
X191008000Y-105410000D02*
X191008000Y-106934000D01*
X190246000Y-105410000D02*
X191008000Y-105410000D01*
X203454000Y-111506000D02*
X202946000Y-112268000D01*
X203962000Y-112268000D02*
X203454000Y-111506000D01*
X203454000Y-111506000D02*
X203962000Y-112268000D01*
X202946000Y-110744000D02*
X203454000Y-111506000D01*
X203454000Y-111506000D02*
X202946000Y-110744000D01*
X203962000Y-110744000D02*
X203454000Y-111506000D01*
X203454000Y-111506000D02*
X203962000Y-110744000D01*
X212877151Y-106426000D02*
G75*
G03*
X212877151Y-106426000I-1295151J0D01*
G01*
D11*
X205651142Y-146873142D02*
X206336857Y-147130285D01*
X205651142Y-147387428D01*
X204304857Y-146873142D02*
X203619142Y-147130285D01*
X204304857Y-147387428D01*
X203680285Y-116601142D02*
X203851714Y-116601142D01*
X203937428Y-116644000D01*
X204023142Y-116729714D01*
X204066000Y-116901142D01*
X204066000Y-117201142D01*
X204023142Y-117372571D01*
X203937428Y-117458285D01*
X203851714Y-117501142D01*
X203680285Y-117501142D01*
X203594571Y-117458285D01*
X203508857Y-117372571D01*
X203466000Y-117201142D01*
X203466000Y-116901142D01*
X203508857Y-116729714D01*
X203594571Y-116644000D01*
X203680285Y-116601142D01*
X204451714Y-117501142D02*
X204451714Y-116601142D01*
X204966000Y-117501142D02*
X204580285Y-116986857D01*
X204966000Y-116601142D02*
X204451714Y-117115428D01*
D13*
X211768571Y-92970000D02*
X211720952Y-92934285D01*
X211649523Y-92934285D01*
X211578095Y-92970000D01*
X211530476Y-93041428D01*
X211506666Y-93112857D01*
X211482857Y-93255714D01*
X211482857Y-93362857D01*
X211506666Y-93505714D01*
X211530476Y-93577142D01*
X211578095Y-93648571D01*
X211649523Y-93684285D01*
X211697142Y-93684285D01*
X211768571Y-93648571D01*
X211792380Y-93612857D01*
X211792380Y-93362857D01*
X211697142Y-93362857D01*
X212006666Y-93184285D02*
X212006666Y-93684285D01*
X212006666Y-93255714D02*
X212030476Y-93220000D01*
X212078095Y-93184285D01*
X212149523Y-93184285D01*
X212197142Y-93220000D01*
X212220952Y-93291428D01*
X212220952Y-93684285D01*
X212673333Y-93684285D02*
X212673333Y-92934285D01*
X212673333Y-93648571D02*
X212625714Y-93684285D01*
X212530476Y-93684285D01*
X212482857Y-93648571D01*
X212459047Y-93612857D01*
X212435238Y-93541428D01*
X212435238Y-93327142D01*
X212459047Y-93255714D01*
X212482857Y-93220000D01*
X212530476Y-93184285D01*
X212625714Y-93184285D01*
X212673333Y-93220000D01*
X209228571Y-92970000D02*
X209180952Y-92934285D01*
X209109523Y-92934285D01*
X209038095Y-92970000D01*
X208990476Y-93041428D01*
X208966666Y-93112857D01*
X208942857Y-93255714D01*
X208942857Y-93362857D01*
X208966666Y-93505714D01*
X208990476Y-93577142D01*
X209038095Y-93648571D01*
X209109523Y-93684285D01*
X209157142Y-93684285D01*
X209228571Y-93648571D01*
X209252380Y-93612857D01*
X209252380Y-93362857D01*
X209157142Y-93362857D01*
X209466666Y-93184285D02*
X209466666Y-93684285D01*
X209466666Y-93255714D02*
X209490476Y-93220000D01*
X209538095Y-93184285D01*
X209609523Y-93184285D01*
X209657142Y-93220000D01*
X209680952Y-93291428D01*
X209680952Y-93684285D01*
X210133333Y-93684285D02*
X210133333Y-92934285D01*
X210133333Y-93648571D02*
X210085714Y-93684285D01*
X209990476Y-93684285D01*
X209942857Y-93648571D01*
X209919047Y-93612857D01*
X209895238Y-93541428D01*
X209895238Y-93327142D01*
X209919047Y-93255714D01*
X209942857Y-93220000D01*
X209990476Y-93184285D01*
X210085714Y-93184285D01*
X210133333Y-93220000D01*
X204112857Y-92934285D02*
X204422380Y-92934285D01*
X204255714Y-93220000D01*
X204327142Y-93220000D01*
X204374761Y-93255714D01*
X204398571Y-93291428D01*
X204422380Y-93362857D01*
X204422380Y-93541428D01*
X204398571Y-93612857D01*
X204374761Y-93648571D01*
X204327142Y-93684285D01*
X204184285Y-93684285D01*
X204136666Y-93648571D01*
X204112857Y-93612857D01*
X204589047Y-93184285D02*
X204708095Y-93684285D01*
X204827142Y-93184285D01*
X206652857Y-92934285D02*
X206962380Y-92934285D01*
X206795714Y-93220000D01*
X206867142Y-93220000D01*
X206914761Y-93255714D01*
X206938571Y-93291428D01*
X206962380Y-93362857D01*
X206962380Y-93541428D01*
X206938571Y-93612857D01*
X206914761Y-93648571D01*
X206867142Y-93684285D01*
X206724285Y-93684285D01*
X206676666Y-93648571D01*
X206652857Y-93612857D01*
X207129047Y-93184285D02*
X207248095Y-93684285D01*
X207367142Y-93184285D01*
X158662761Y-94029571D02*
X158734190Y-94065285D01*
X158853238Y-94065285D01*
X158900857Y-94029571D01*
X158924666Y-93993857D01*
X158948476Y-93922428D01*
X158948476Y-93851000D01*
X158924666Y-93779571D01*
X158900857Y-93743857D01*
X158853238Y-93708142D01*
X158758000Y-93672428D01*
X158710380Y-93636714D01*
X158686571Y-93601000D01*
X158662761Y-93529571D01*
X158662761Y-93458142D01*
X158686571Y-93386714D01*
X158710380Y-93351000D01*
X158758000Y-93315285D01*
X158877047Y-93315285D01*
X158948476Y-93351000D01*
X159448476Y-93993857D02*
X159424666Y-94029571D01*
X159353238Y-94065285D01*
X159305619Y-94065285D01*
X159234190Y-94029571D01*
X159186571Y-93958142D01*
X159162761Y-93886714D01*
X159138952Y-93743857D01*
X159138952Y-93636714D01*
X159162761Y-93493857D01*
X159186571Y-93422428D01*
X159234190Y-93351000D01*
X159305619Y-93315285D01*
X159353238Y-93315285D01*
X159424666Y-93351000D01*
X159448476Y-93386714D01*
X159900857Y-94065285D02*
X159662761Y-94065285D01*
X159662761Y-93315285D01*
X156110857Y-94029571D02*
X156182285Y-94065285D01*
X156301333Y-94065285D01*
X156348952Y-94029571D01*
X156372761Y-93993857D01*
X156396571Y-93922428D01*
X156396571Y-93851000D01*
X156372761Y-93779571D01*
X156348952Y-93743857D01*
X156301333Y-93708142D01*
X156206095Y-93672428D01*
X156158476Y-93636714D01*
X156134666Y-93601000D01*
X156110857Y-93529571D01*
X156110857Y-93458142D01*
X156134666Y-93386714D01*
X156158476Y-93351000D01*
X156206095Y-93315285D01*
X156325142Y-93315285D01*
X156396571Y-93351000D01*
X156610857Y-94065285D02*
X156610857Y-93315285D01*
X156729904Y-93315285D01*
X156801333Y-93351000D01*
X156848952Y-93422428D01*
X156872761Y-93493857D01*
X156896571Y-93636714D01*
X156896571Y-93743857D01*
X156872761Y-93886714D01*
X156848952Y-93958142D01*
X156801333Y-94029571D01*
X156729904Y-94065285D01*
X156610857Y-94065285D01*
X157087047Y-93851000D02*
X157325142Y-93851000D01*
X157039428Y-94065285D02*
X157206095Y-93315285D01*
X157372761Y-94065285D01*
X154094666Y-94065285D02*
X153928000Y-93708142D01*
X153808952Y-94065285D02*
X153808952Y-93315285D01*
X153999428Y-93315285D01*
X154047047Y-93351000D01*
X154070857Y-93386714D01*
X154094666Y-93458142D01*
X154094666Y-93565285D01*
X154070857Y-93636714D01*
X154047047Y-93672428D01*
X153999428Y-93708142D01*
X153808952Y-93708142D01*
X154261333Y-93315285D02*
X154594666Y-94065285D01*
X154594666Y-93315285D02*
X154261333Y-94065285D01*
X151257047Y-93315285D02*
X151542761Y-93315285D01*
X151399904Y-94065285D02*
X151399904Y-93315285D01*
X151661809Y-93315285D02*
X151995142Y-94065285D01*
X151995142Y-93315285D02*
X151661809Y-94065285D01*
D10*
%TO.C,R102*%
X196454500Y-101576724D02*
X196454500Y-101067276D01*
X197499500Y-101576724D02*
X197499500Y-101067276D01*
%TO.C,R104*%
X170283276Y-97677500D02*
X170792724Y-97677500D01*
X170283276Y-96632500D02*
X170792724Y-96632500D01*
%TO.C,R110*%
X170283276Y-94092500D02*
X170792724Y-94092500D01*
X170283276Y-95137500D02*
X170792724Y-95137500D01*
D14*
%TO.C,U101*%
X179664292Y-89211199D02*
X183524497Y-89196712D01*
X177488212Y-96172910D02*
X177490225Y-96357215D01*
X184672765Y-88793194D02*
X184672765Y-90685462D01*
X185739963Y-91625547D02*
X177472862Y-91625547D01*
X177468975Y-91642031D02*
X177468975Y-95510622D01*
X185743861Y-91642031D02*
X177468975Y-91642031D01*
X185721197Y-96161693D02*
X185648603Y-96219387D01*
X185493197Y-96440215D02*
X185493357Y-96231873D01*
X184654020Y-90584385D02*
X178617511Y-90584385D01*
X184654020Y-88793194D02*
X184654020Y-90584385D01*
X184672765Y-90685462D02*
X184654020Y-90584385D01*
X183948270Y-89559537D02*
X183946076Y-89545110D01*
X185715353Y-96374812D02*
X185716473Y-96180178D01*
X178599195Y-90685462D02*
X178617511Y-90584385D01*
X184672765Y-90685462D02*
X178599195Y-90685462D01*
X183522699Y-89182623D02*
X183524497Y-89196712D01*
X177733796Y-96451164D02*
X177732785Y-96243713D01*
X178617511Y-90584385D02*
X178617511Y-88793194D01*
X179245956Y-89559390D02*
X179243754Y-89573830D01*
X179242419Y-90584385D02*
X179238874Y-89639821D01*
X185743861Y-95535826D02*
X185743861Y-91642031D01*
X185648603Y-96219387D02*
X185493357Y-96231873D01*
X177493944Y-96193317D02*
X177495849Y-96387246D01*
X178316829Y-96481257D02*
X184994927Y-96468726D01*
X178599195Y-90685462D02*
X178599195Y-88793194D01*
X177468975Y-91642031D02*
X177472862Y-91625547D01*
X179666101Y-89197097D02*
X179664292Y-89211199D01*
X178599195Y-88793194D02*
X184672765Y-88793194D01*
X185743861Y-91642031D02*
X185739963Y-91625547D01*
X185721040Y-96185021D02*
X185721197Y-96161693D01*
X179666101Y-89197097D02*
X183522699Y-89182623D01*
X183953119Y-89622129D02*
X183956731Y-90584385D01*
X177555665Y-95683118D02*
X185698550Y-95667838D01*
X185223949Y-96450507D02*
X185022446Y-96468008D01*
X185022446Y-96468008D02*
X185005169Y-96468579D01*
X185173009Y-96243329D02*
X185070910Y-96250593D01*
X185719951Y-96347373D02*
X185659718Y-96419791D01*
X184826870Y-96333944D02*
X184876655Y-96155715D01*
X185717694Y-96044326D02*
X185721154Y-96161693D01*
X185714795Y-95890078D02*
X185717694Y-96044326D01*
X178463389Y-96225247D02*
X178450433Y-96238290D01*
X178420537Y-96253155D02*
X178382034Y-96262080D01*
X185712655Y-95711374D02*
X185714795Y-95890078D01*
X177492562Y-95724761D02*
X177492380Y-95603770D01*
X177556628Y-96433259D02*
X177490225Y-96357215D01*
X185659718Y-96419791D02*
X185493197Y-96440215D01*
X185070910Y-96250593D02*
X185000558Y-96253457D01*
X184895325Y-96243162D02*
X184861098Y-96227890D01*
X178450433Y-96238290D02*
X178420537Y-96253155D01*
X177717298Y-95728424D02*
X177925348Y-95728902D01*
X177925348Y-95728902D02*
X178017041Y-95753704D01*
X185712188Y-95640376D02*
X185712655Y-95711374D01*
X177491912Y-95901804D02*
X177492562Y-95724761D01*
X184861098Y-96227890D02*
X184851800Y-96218582D01*
X177567988Y-96233296D02*
X177488212Y-96172913D01*
X177490413Y-96055217D02*
X177491912Y-95901804D01*
X177488212Y-96172910D02*
X177490413Y-96055217D01*
X185493197Y-96440215D02*
X185288440Y-96445434D01*
X185288440Y-96445434D02*
X185223949Y-96450507D01*
X178014190Y-96246817D02*
X177905292Y-96242363D01*
X184937718Y-96251060D02*
X184895325Y-96243162D01*
X177733796Y-96451164D02*
X177556628Y-96433259D01*
X185017667Y-95955375D02*
X185178015Y-95832731D01*
X185178015Y-95832731D02*
X185240024Y-95802961D01*
X185511599Y-95757453D02*
X185616605Y-95737460D01*
X177556071Y-95682600D02*
X177716928Y-95726448D01*
X184876655Y-96155715D02*
X184989938Y-95985295D01*
X184989938Y-95985295D02*
X185017667Y-95955375D01*
X185000558Y-96253457D02*
X184937718Y-96251060D01*
X178116838Y-96253845D02*
X178014190Y-96246817D01*
X178274423Y-96265021D02*
X178199596Y-96260336D01*
X178279906Y-96480130D02*
X178074928Y-96460626D01*
X178074928Y-96460626D02*
X178031468Y-96456750D01*
X185616605Y-95737460D02*
X185697826Y-95667308D01*
X178485668Y-96338572D02*
X178435417Y-96456052D01*
X178269193Y-95913782D02*
X178394614Y-96073165D01*
X178394614Y-96073165D02*
X178429400Y-96137200D01*
X178017041Y-95753704D02*
X178199004Y-95852925D01*
X178199004Y-95852925D02*
X178269193Y-95913782D01*
X184870055Y-96440965D02*
X184826870Y-96333944D01*
X185240024Y-95802961D02*
X185441686Y-95757930D01*
X185441686Y-95757930D02*
X185511263Y-95760790D01*
X185005169Y-96468579D02*
X184870055Y-96440965D01*
X177732785Y-96243713D02*
X177567988Y-96233296D01*
X185279847Y-96236356D02*
X185173009Y-96243329D01*
X185387198Y-96232139D02*
X185279847Y-96236356D01*
X185493357Y-96231873D02*
X185387198Y-96232139D01*
X177819638Y-96241571D02*
X177732778Y-96243700D01*
X178435417Y-96456052D02*
X178279906Y-96480130D01*
X177905292Y-96242363D02*
X177819638Y-96241571D01*
X178382034Y-96262080D02*
X178332360Y-96265870D01*
X178031468Y-96456750D02*
X177828289Y-96448380D01*
X177828289Y-96448380D02*
X177733784Y-96451146D01*
X178199596Y-96260336D02*
X178116838Y-96253845D01*
X178332360Y-96265870D02*
X178274423Y-96265021D01*
X178429400Y-96137200D02*
X178485520Y-96333315D01*
X178485520Y-96333315D02*
X178485668Y-96338572D01*
X150240052Y-92570143D02*
X213032439Y-92570143D01*
X150626327Y-49944308D02*
X150626327Y-90392660D01*
X150626327Y-90392660D02*
X212699788Y-90392660D01*
X213032439Y-49630006D02*
X150240052Y-49630006D01*
X150240052Y-49630006D02*
X150240052Y-92570143D01*
X213032439Y-92570143D02*
X213032439Y-49630006D01*
X212699788Y-49944308D02*
X150626327Y-49944308D01*
X212699788Y-90392660D02*
X212699788Y-49944308D01*
X179238875Y-89639820D02*
G75*
G02*
X179664292Y-89211199I427019J1602D01*
G01*
X185743861Y-95535826D02*
G75*
G02*
X185698550Y-95667838I-214960J0D01*
G01*
X177555666Y-95683117D02*
G75*
G02*
X177468975Y-95510622I128268J172495D01*
G01*
X183524498Y-89196712D02*
G75*
G02*
X183953119Y-89622129I1602J-427019D01*
G01*
X179245956Y-89559390D02*
G75*
G02*
X179666101Y-89197097I421746J-64328D01*
G01*
X183522699Y-89182623D02*
G75*
G02*
X183946076Y-89545110I1601J-426621D01*
G01*
D10*
%TO.C,D101*%
X180328000Y-99120000D02*
X177843000Y-99120000D01*
X177843000Y-99120000D02*
X177843000Y-100490000D01*
X177843000Y-100490000D02*
X180328000Y-100490000D01*
%TO.C,D102*%
X177843000Y-103555000D02*
X180328000Y-103555000D01*
X177843000Y-102185000D02*
X177843000Y-103555000D01*
X180328000Y-102185000D02*
X177843000Y-102185000D01*
%TO.C,D103*%
X184138000Y-99120000D02*
X181653000Y-99120000D01*
X181653000Y-99120000D02*
X181653000Y-100490000D01*
X181653000Y-100490000D02*
X184138000Y-100490000D01*
%TO.C,D104*%
X181653000Y-103555000D02*
X184138000Y-103555000D01*
X181653000Y-102185000D02*
X181653000Y-103555000D01*
X184138000Y-102185000D02*
X181653000Y-102185000D01*
%TO.C,R14*%
X179225276Y-106862500D02*
X179734724Y-106862500D01*
X179225276Y-107907500D02*
X179734724Y-107907500D01*
%TO.C,R15*%
X183675276Y-107957500D02*
X184184724Y-107957500D01*
X183675276Y-106912500D02*
X184184724Y-106912500D01*
%TO.C,R116*%
X179225276Y-109372500D02*
X179734724Y-109372500D01*
X179225276Y-110417500D02*
X179734724Y-110417500D01*
%TO.C,R117*%
X183575276Y-110467500D02*
X184084724Y-110467500D01*
X183575276Y-109422500D02*
X184084724Y-109422500D01*
D15*
%TO.C,Ky1*%
G36*
X153389000Y-129640000D02*
G01*
X153389000Y-128740000D01*
X152489000Y-129640000D01*
X153389000Y-129640000D01*
G37*
X153389000Y-129640000D02*
X153389000Y-128740000D01*
X152489000Y-129640000D01*
X153389000Y-129640000D01*
G36*
X153389000Y-124975000D02*
G01*
X152489000Y-124975000D01*
X153389000Y-125875000D01*
X153389000Y-124975000D01*
G37*
X153389000Y-124975000D02*
X152489000Y-124975000D01*
X153389000Y-125875000D01*
X153389000Y-124975000D01*
G36*
X150489000Y-124975000D02*
G01*
X150489000Y-125875000D01*
X151389000Y-124975000D01*
X150489000Y-124975000D01*
G37*
X150489000Y-124975000D02*
X150489000Y-125875000D01*
X151389000Y-124975000D01*
X150489000Y-124975000D01*
G36*
X150489000Y-129640000D02*
G01*
X151389000Y-129640000D01*
X150489000Y-128740000D01*
X150489000Y-129640000D01*
G37*
X150489000Y-129640000D02*
X151389000Y-129640000D01*
X150489000Y-128740000D01*
X150489000Y-129640000D01*
X153389000Y-129640000D02*
X150489000Y-129640000D01*
X153389000Y-124975000D02*
X153389000Y-129640000D01*
X150489000Y-124975000D02*
X153389000Y-124975000D01*
X150489000Y-129640000D02*
X150489000Y-124975000D01*
X152789000Y-126975000D02*
X152789000Y-127640000D01*
X150989000Y-127640000D02*
X150989000Y-126975000D01*
X150989000Y-126975000D02*
G75*
G02*
X152789000Y-126975000I900000J0D01*
G01*
X152789000Y-127640000D02*
G75*
G02*
X150989000Y-127640000I-900000J0D01*
G01*
%TO.C,Ky2*%
X157621000Y-127640000D02*
X157621000Y-126975000D01*
X159421000Y-126975000D02*
X159421000Y-127640000D01*
X157121000Y-129640000D02*
X157121000Y-124975000D01*
X157121000Y-124975000D02*
X160021000Y-124975000D01*
X160021000Y-124975000D02*
X160021000Y-129640000D01*
X160021000Y-129640000D02*
X157121000Y-129640000D01*
G36*
X157121000Y-129640000D02*
G01*
X158021000Y-129640000D01*
X157121000Y-128740000D01*
X157121000Y-129640000D01*
G37*
X157121000Y-129640000D02*
X158021000Y-129640000D01*
X157121000Y-128740000D01*
X157121000Y-129640000D01*
G36*
X157121000Y-124975000D02*
G01*
X157121000Y-125875000D01*
X158021000Y-124975000D01*
X157121000Y-124975000D01*
G37*
X157121000Y-124975000D02*
X157121000Y-125875000D01*
X158021000Y-124975000D01*
X157121000Y-124975000D01*
G36*
X160021000Y-124975000D02*
G01*
X159121000Y-124975000D01*
X160021000Y-125875000D01*
X160021000Y-124975000D01*
G37*
X160021000Y-124975000D02*
X159121000Y-124975000D01*
X160021000Y-125875000D01*
X160021000Y-124975000D01*
G36*
X160021000Y-129640000D02*
G01*
X160021000Y-128740000D01*
X159121000Y-129640000D01*
X160021000Y-129640000D01*
G37*
X160021000Y-129640000D02*
X160021000Y-128740000D01*
X159121000Y-129640000D01*
X160021000Y-129640000D01*
X159421000Y-127640000D02*
G75*
G02*
X157621000Y-127640000I-900000J0D01*
G01*
X157621000Y-126975000D02*
G75*
G02*
X159421000Y-126975000I900000J0D01*
G01*
%TO.C,Ky3*%
G36*
X166653000Y-129640000D02*
G01*
X166653000Y-128740000D01*
X165753000Y-129640000D01*
X166653000Y-129640000D01*
G37*
X166653000Y-129640000D02*
X166653000Y-128740000D01*
X165753000Y-129640000D01*
X166653000Y-129640000D01*
G36*
X166653000Y-124975000D02*
G01*
X165753000Y-124975000D01*
X166653000Y-125875000D01*
X166653000Y-124975000D01*
G37*
X166653000Y-124975000D02*
X165753000Y-124975000D01*
X166653000Y-125875000D01*
X166653000Y-124975000D01*
G36*
X163753000Y-124975000D02*
G01*
X163753000Y-125875000D01*
X164653000Y-124975000D01*
X163753000Y-124975000D01*
G37*
X163753000Y-124975000D02*
X163753000Y-125875000D01*
X164653000Y-124975000D01*
X163753000Y-124975000D01*
G36*
X163753000Y-129640000D02*
G01*
X164653000Y-129640000D01*
X163753000Y-128740000D01*
X163753000Y-129640000D01*
G37*
X163753000Y-129640000D02*
X164653000Y-129640000D01*
X163753000Y-128740000D01*
X163753000Y-129640000D01*
X166653000Y-129640000D02*
X163753000Y-129640000D01*
X166653000Y-124975000D02*
X166653000Y-129640000D01*
X163753000Y-124975000D02*
X166653000Y-124975000D01*
X163753000Y-129640000D02*
X163753000Y-124975000D01*
X166053000Y-126975000D02*
X166053000Y-127640000D01*
X164253000Y-127640000D02*
X164253000Y-126975000D01*
X164253000Y-126975000D02*
G75*
G02*
X166053000Y-126975000I900000J0D01*
G01*
X166053000Y-127640000D02*
G75*
G02*
X164253000Y-127640000I-900000J0D01*
G01*
%TO.C,Ky4*%
X170886000Y-127640000D02*
X170886000Y-126975000D01*
X172686000Y-126975000D02*
X172686000Y-127640000D01*
X170386000Y-129640000D02*
X170386000Y-124975000D01*
X170386000Y-124975000D02*
X173286000Y-124975000D01*
X173286000Y-124975000D02*
X173286000Y-129640000D01*
X173286000Y-129640000D02*
X170386000Y-129640000D01*
G36*
X170386000Y-129640000D02*
G01*
X171286000Y-129640000D01*
X170386000Y-128740000D01*
X170386000Y-129640000D01*
G37*
X170386000Y-129640000D02*
X171286000Y-129640000D01*
X170386000Y-128740000D01*
X170386000Y-129640000D01*
G36*
X170386000Y-124975000D02*
G01*
X170386000Y-125875000D01*
X171286000Y-124975000D01*
X170386000Y-124975000D01*
G37*
X170386000Y-124975000D02*
X170386000Y-125875000D01*
X171286000Y-124975000D01*
X170386000Y-124975000D01*
G36*
X173286000Y-124975000D02*
G01*
X172386000Y-124975000D01*
X173286000Y-125875000D01*
X173286000Y-124975000D01*
G37*
X173286000Y-124975000D02*
X172386000Y-124975000D01*
X173286000Y-125875000D01*
X173286000Y-124975000D01*
G36*
X173286000Y-129640000D02*
G01*
X173286000Y-128740000D01*
X172386000Y-129640000D01*
X173286000Y-129640000D01*
G37*
X173286000Y-129640000D02*
X173286000Y-128740000D01*
X172386000Y-129640000D01*
X173286000Y-129640000D01*
X172686000Y-127640000D02*
G75*
G02*
X170886000Y-127640000I-900000J0D01*
G01*
X170886000Y-126975000D02*
G75*
G02*
X172686000Y-126975000I900000J0D01*
G01*
%TO.C,Ky5*%
G36*
X179918000Y-129640000D02*
G01*
X179918000Y-128740000D01*
X179018000Y-129640000D01*
X179918000Y-129640000D01*
G37*
X179918000Y-129640000D02*
X179918000Y-128740000D01*
X179018000Y-129640000D01*
X179918000Y-129640000D01*
G36*
X179918000Y-124975000D02*
G01*
X179018000Y-124975000D01*
X179918000Y-125875000D01*
X179918000Y-124975000D01*
G37*
X179918000Y-124975000D02*
X179018000Y-124975000D01*
X179918000Y-125875000D01*
X179918000Y-124975000D01*
G36*
X177018000Y-124975000D02*
G01*
X177018000Y-125875000D01*
X177918000Y-124975000D01*
X177018000Y-124975000D01*
G37*
X177018000Y-124975000D02*
X177018000Y-125875000D01*
X177918000Y-124975000D01*
X177018000Y-124975000D01*
G36*
X177018000Y-129640000D02*
G01*
X177918000Y-129640000D01*
X177018000Y-128740000D01*
X177018000Y-129640000D01*
G37*
X177018000Y-129640000D02*
X177918000Y-129640000D01*
X177018000Y-128740000D01*
X177018000Y-129640000D01*
X179918000Y-129640000D02*
X177018000Y-129640000D01*
X179918000Y-124975000D02*
X179918000Y-129640000D01*
X177018000Y-124975000D02*
X179918000Y-124975000D01*
X177018000Y-129640000D02*
X177018000Y-124975000D01*
X179318000Y-126975000D02*
X179318000Y-127640000D01*
X177518000Y-127640000D02*
X177518000Y-126975000D01*
X177518000Y-126975000D02*
G75*
G02*
X179318000Y-126975000I900000J0D01*
G01*
X179318000Y-127640000D02*
G75*
G02*
X177518000Y-127640000I-900000J0D01*
G01*
%TO.C,Ky6*%
X184150000Y-127640000D02*
X184150000Y-126975000D01*
X185950000Y-126975000D02*
X185950000Y-127640000D01*
X183650000Y-129640000D02*
X183650000Y-124975000D01*
X183650000Y-124975000D02*
X186550000Y-124975000D01*
X186550000Y-124975000D02*
X186550000Y-129640000D01*
X186550000Y-129640000D02*
X183650000Y-129640000D01*
G36*
X183650000Y-129640000D02*
G01*
X184550000Y-129640000D01*
X183650000Y-128740000D01*
X183650000Y-129640000D01*
G37*
X183650000Y-129640000D02*
X184550000Y-129640000D01*
X183650000Y-128740000D01*
X183650000Y-129640000D01*
G36*
X183650000Y-124975000D02*
G01*
X183650000Y-125875000D01*
X184550000Y-124975000D01*
X183650000Y-124975000D01*
G37*
X183650000Y-124975000D02*
X183650000Y-125875000D01*
X184550000Y-124975000D01*
X183650000Y-124975000D01*
G36*
X186550000Y-124975000D02*
G01*
X185650000Y-124975000D01*
X186550000Y-125875000D01*
X186550000Y-124975000D01*
G37*
X186550000Y-124975000D02*
X185650000Y-124975000D01*
X186550000Y-125875000D01*
X186550000Y-124975000D01*
G36*
X186550000Y-129640000D02*
G01*
X186550000Y-128740000D01*
X185650000Y-129640000D01*
X186550000Y-129640000D01*
G37*
X186550000Y-129640000D02*
X186550000Y-128740000D01*
X185650000Y-129640000D01*
X186550000Y-129640000D01*
X185950000Y-127640000D02*
G75*
G02*
X184150000Y-127640000I-900000J0D01*
G01*
X184150000Y-126975000D02*
G75*
G02*
X185950000Y-126975000I900000J0D01*
G01*
%TO.C,Ky7*%
G36*
X193182000Y-129640000D02*
G01*
X193182000Y-128740000D01*
X192282000Y-129640000D01*
X193182000Y-129640000D01*
G37*
X193182000Y-129640000D02*
X193182000Y-128740000D01*
X192282000Y-129640000D01*
X193182000Y-129640000D01*
G36*
X193182000Y-124975000D02*
G01*
X192282000Y-124975000D01*
X193182000Y-125875000D01*
X193182000Y-124975000D01*
G37*
X193182000Y-124975000D02*
X192282000Y-124975000D01*
X193182000Y-125875000D01*
X193182000Y-124975000D01*
G36*
X190282000Y-124975000D02*
G01*
X190282000Y-125875000D01*
X191182000Y-124975000D01*
X190282000Y-124975000D01*
G37*
X190282000Y-124975000D02*
X190282000Y-125875000D01*
X191182000Y-124975000D01*
X190282000Y-124975000D01*
G36*
X190282000Y-129640000D02*
G01*
X191182000Y-129640000D01*
X190282000Y-128740000D01*
X190282000Y-129640000D01*
G37*
X190282000Y-129640000D02*
X191182000Y-129640000D01*
X190282000Y-128740000D01*
X190282000Y-129640000D01*
X193182000Y-129640000D02*
X190282000Y-129640000D01*
X193182000Y-124975000D02*
X193182000Y-129640000D01*
X190282000Y-124975000D02*
X193182000Y-124975000D01*
X190282000Y-129640000D02*
X190282000Y-124975000D01*
X192582000Y-126975000D02*
X192582000Y-127640000D01*
X190782000Y-127640000D02*
X190782000Y-126975000D01*
X190782000Y-126975000D02*
G75*
G02*
X192582000Y-126975000I900000J0D01*
G01*
X192582000Y-127640000D02*
G75*
G02*
X190782000Y-127640000I-900000J0D01*
G01*
%TO.C,Ky8*%
X197415000Y-127640000D02*
X197415000Y-126975000D01*
X199215000Y-126975000D02*
X199215000Y-127640000D01*
X196915000Y-129640000D02*
X196915000Y-124975000D01*
X196915000Y-124975000D02*
X199815000Y-124975000D01*
X199815000Y-124975000D02*
X199815000Y-129640000D01*
X199815000Y-129640000D02*
X196915000Y-129640000D01*
G36*
X196915000Y-129640000D02*
G01*
X197815000Y-129640000D01*
X196915000Y-128740000D01*
X196915000Y-129640000D01*
G37*
X196915000Y-129640000D02*
X197815000Y-129640000D01*
X196915000Y-128740000D01*
X196915000Y-129640000D01*
G36*
X196915000Y-124975000D02*
G01*
X196915000Y-125875000D01*
X197815000Y-124975000D01*
X196915000Y-124975000D01*
G37*
X196915000Y-124975000D02*
X196915000Y-125875000D01*
X197815000Y-124975000D01*
X196915000Y-124975000D01*
G36*
X199815000Y-124975000D02*
G01*
X198915000Y-124975000D01*
X199815000Y-125875000D01*
X199815000Y-124975000D01*
G37*
X199815000Y-124975000D02*
X198915000Y-124975000D01*
X199815000Y-125875000D01*
X199815000Y-124975000D01*
G36*
X199815000Y-129640000D02*
G01*
X199815000Y-128740000D01*
X198915000Y-129640000D01*
X199815000Y-129640000D01*
G37*
X199815000Y-129640000D02*
X199815000Y-128740000D01*
X198915000Y-129640000D01*
X199815000Y-129640000D01*
X199215000Y-127640000D02*
G75*
G02*
X197415000Y-127640000I-900000J0D01*
G01*
X197415000Y-126975000D02*
G75*
G02*
X199215000Y-126975000I900000J0D01*
G01*
%TO.C,Ky9*%
G36*
X206447000Y-129640000D02*
G01*
X206447000Y-128740000D01*
X205547000Y-129640000D01*
X206447000Y-129640000D01*
G37*
X206447000Y-129640000D02*
X206447000Y-128740000D01*
X205547000Y-129640000D01*
X206447000Y-129640000D01*
G36*
X206447000Y-124975000D02*
G01*
X205547000Y-124975000D01*
X206447000Y-125875000D01*
X206447000Y-124975000D01*
G37*
X206447000Y-124975000D02*
X205547000Y-124975000D01*
X206447000Y-125875000D01*
X206447000Y-124975000D01*
G36*
X203547000Y-124975000D02*
G01*
X203547000Y-125875000D01*
X204447000Y-124975000D01*
X203547000Y-124975000D01*
G37*
X203547000Y-124975000D02*
X203547000Y-125875000D01*
X204447000Y-124975000D01*
X203547000Y-124975000D01*
G36*
X203547000Y-129640000D02*
G01*
X204447000Y-129640000D01*
X203547000Y-128740000D01*
X203547000Y-129640000D01*
G37*
X203547000Y-129640000D02*
X204447000Y-129640000D01*
X203547000Y-128740000D01*
X203547000Y-129640000D01*
X206447000Y-129640000D02*
X203547000Y-129640000D01*
X206447000Y-124975000D02*
X206447000Y-129640000D01*
X203547000Y-124975000D02*
X206447000Y-124975000D01*
X203547000Y-129640000D02*
X203547000Y-124975000D01*
X205847000Y-126975000D02*
X205847000Y-127640000D01*
X204047000Y-127640000D02*
X204047000Y-126975000D01*
X204047000Y-126975000D02*
G75*
G02*
X205847000Y-126975000I900000J0D01*
G01*
X205847000Y-127640000D02*
G75*
G02*
X204047000Y-127640000I-900000J0D01*
G01*
%TO.C,Ky10*%
X210679000Y-127640000D02*
X210679000Y-126975000D01*
X212479000Y-126975000D02*
X212479000Y-127640000D01*
X210179000Y-129640000D02*
X210179000Y-124975000D01*
X210179000Y-124975000D02*
X213079000Y-124975000D01*
X213079000Y-124975000D02*
X213079000Y-129640000D01*
X213079000Y-129640000D02*
X210179000Y-129640000D01*
G36*
X210179000Y-129640000D02*
G01*
X211079000Y-129640000D01*
X210179000Y-128740000D01*
X210179000Y-129640000D01*
G37*
X210179000Y-129640000D02*
X211079000Y-129640000D01*
X210179000Y-128740000D01*
X210179000Y-129640000D01*
G36*
X210179000Y-124975000D02*
G01*
X210179000Y-125875000D01*
X211079000Y-124975000D01*
X210179000Y-124975000D01*
G37*
X210179000Y-124975000D02*
X210179000Y-125875000D01*
X211079000Y-124975000D01*
X210179000Y-124975000D01*
G36*
X213079000Y-124975000D02*
G01*
X212179000Y-124975000D01*
X213079000Y-125875000D01*
X213079000Y-124975000D01*
G37*
X213079000Y-124975000D02*
X212179000Y-124975000D01*
X213079000Y-125875000D01*
X213079000Y-124975000D01*
G36*
X213079000Y-129640000D02*
G01*
X213079000Y-128740000D01*
X212179000Y-129640000D01*
X213079000Y-129640000D01*
G37*
X213079000Y-129640000D02*
X213079000Y-128740000D01*
X212179000Y-129640000D01*
X213079000Y-129640000D01*
X212479000Y-127640000D02*
G75*
G02*
X210679000Y-127640000I-900000J0D01*
G01*
X210679000Y-126975000D02*
G75*
G02*
X212479000Y-126975000I900000J0D01*
G01*
%TO.C,Ky11*%
G36*
X202030000Y-103605000D02*
G01*
X202030000Y-102705000D01*
X201130000Y-103605000D01*
X202030000Y-103605000D01*
G37*
X202030000Y-103605000D02*
X202030000Y-102705000D01*
X201130000Y-103605000D01*
X202030000Y-103605000D01*
G36*
X202030000Y-98940000D02*
G01*
X201130000Y-98940000D01*
X202030000Y-99840000D01*
X202030000Y-98940000D01*
G37*
X202030000Y-98940000D02*
X201130000Y-98940000D01*
X202030000Y-99840000D01*
X202030000Y-98940000D01*
G36*
X199130000Y-98940000D02*
G01*
X199130000Y-99840000D01*
X200030000Y-98940000D01*
X199130000Y-98940000D01*
G37*
X199130000Y-98940000D02*
X199130000Y-99840000D01*
X200030000Y-98940000D01*
X199130000Y-98940000D01*
G36*
X199130000Y-103605000D02*
G01*
X200030000Y-103605000D01*
X199130000Y-102705000D01*
X199130000Y-103605000D01*
G37*
X199130000Y-103605000D02*
X200030000Y-103605000D01*
X199130000Y-102705000D01*
X199130000Y-103605000D01*
X202030000Y-103605000D02*
X199130000Y-103605000D01*
X202030000Y-98940000D02*
X202030000Y-103605000D01*
X199130000Y-98940000D02*
X202030000Y-98940000D01*
X199130000Y-103605000D02*
X199130000Y-98940000D01*
X201430000Y-100940000D02*
X201430000Y-101605000D01*
X199630000Y-101605000D02*
X199630000Y-100940000D01*
X199630000Y-100940000D02*
G75*
G02*
X201430000Y-100940000I900000J0D01*
G01*
X201430000Y-101605000D02*
G75*
G02*
X199630000Y-101605000I-900000J0D01*
G01*
%TO.C,Ky12*%
X199630000Y-111765000D02*
X199630000Y-111100000D01*
X201430000Y-111100000D02*
X201430000Y-111765000D01*
X199130000Y-113765000D02*
X199130000Y-109100000D01*
X199130000Y-109100000D02*
X202030000Y-109100000D01*
X202030000Y-109100000D02*
X202030000Y-113765000D01*
X202030000Y-113765000D02*
X199130000Y-113765000D01*
G36*
X199130000Y-113765000D02*
G01*
X200030000Y-113765000D01*
X199130000Y-112865000D01*
X199130000Y-113765000D01*
G37*
X199130000Y-113765000D02*
X200030000Y-113765000D01*
X199130000Y-112865000D01*
X199130000Y-113765000D01*
G36*
X199130000Y-109100000D02*
G01*
X199130000Y-110000000D01*
X200030000Y-109100000D01*
X199130000Y-109100000D01*
G37*
X199130000Y-109100000D02*
X199130000Y-110000000D01*
X200030000Y-109100000D01*
X199130000Y-109100000D01*
G36*
X202030000Y-109100000D02*
G01*
X201130000Y-109100000D01*
X202030000Y-110000000D01*
X202030000Y-109100000D01*
G37*
X202030000Y-109100000D02*
X201130000Y-109100000D01*
X202030000Y-110000000D01*
X202030000Y-109100000D01*
G36*
X202030000Y-113765000D02*
G01*
X202030000Y-112865000D01*
X201130000Y-113765000D01*
X202030000Y-113765000D01*
G37*
X202030000Y-113765000D02*
X202030000Y-112865000D01*
X201130000Y-113765000D01*
X202030000Y-113765000D01*
X201430000Y-111765000D02*
G75*
G02*
X199630000Y-111765000I-900000J0D01*
G01*
X199630000Y-111100000D02*
G75*
G02*
X201430000Y-111100000I900000J0D01*
G01*
%TO.C,Ky13*%
G36*
X153389000Y-137260000D02*
G01*
X153389000Y-136360000D01*
X152489000Y-137260000D01*
X153389000Y-137260000D01*
G37*
X153389000Y-137260000D02*
X153389000Y-136360000D01*
X152489000Y-137260000D01*
X153389000Y-137260000D01*
G36*
X153389000Y-132595000D02*
G01*
X152489000Y-132595000D01*
X153389000Y-133495000D01*
X153389000Y-132595000D01*
G37*
X153389000Y-132595000D02*
X152489000Y-132595000D01*
X153389000Y-133495000D01*
X153389000Y-132595000D01*
G36*
X150489000Y-132595000D02*
G01*
X150489000Y-133495000D01*
X151389000Y-132595000D01*
X150489000Y-132595000D01*
G37*
X150489000Y-132595000D02*
X150489000Y-133495000D01*
X151389000Y-132595000D01*
X150489000Y-132595000D01*
G36*
X150489000Y-137260000D02*
G01*
X151389000Y-137260000D01*
X150489000Y-136360000D01*
X150489000Y-137260000D01*
G37*
X150489000Y-137260000D02*
X151389000Y-137260000D01*
X150489000Y-136360000D01*
X150489000Y-137260000D01*
X153389000Y-137260000D02*
X150489000Y-137260000D01*
X153389000Y-132595000D02*
X153389000Y-137260000D01*
X150489000Y-132595000D02*
X153389000Y-132595000D01*
X150489000Y-137260000D02*
X150489000Y-132595000D01*
X152789000Y-134595000D02*
X152789000Y-135260000D01*
X150989000Y-135260000D02*
X150989000Y-134595000D01*
X150989000Y-134595000D02*
G75*
G02*
X152789000Y-134595000I900000J0D01*
G01*
X152789000Y-135260000D02*
G75*
G02*
X150989000Y-135260000I-900000J0D01*
G01*
%TO.C,Ky14*%
G36*
X160021000Y-137260000D02*
G01*
X160021000Y-136360000D01*
X159121000Y-137260000D01*
X160021000Y-137260000D01*
G37*
X160021000Y-137260000D02*
X160021000Y-136360000D01*
X159121000Y-137260000D01*
X160021000Y-137260000D01*
G36*
X160021000Y-132595000D02*
G01*
X159121000Y-132595000D01*
X160021000Y-133495000D01*
X160021000Y-132595000D01*
G37*
X160021000Y-132595000D02*
X159121000Y-132595000D01*
X160021000Y-133495000D01*
X160021000Y-132595000D01*
G36*
X157121000Y-132595000D02*
G01*
X157121000Y-133495000D01*
X158021000Y-132595000D01*
X157121000Y-132595000D01*
G37*
X157121000Y-132595000D02*
X157121000Y-133495000D01*
X158021000Y-132595000D01*
X157121000Y-132595000D01*
G36*
X157121000Y-137260000D02*
G01*
X158021000Y-137260000D01*
X157121000Y-136360000D01*
X157121000Y-137260000D01*
G37*
X157121000Y-137260000D02*
X158021000Y-137260000D01*
X157121000Y-136360000D01*
X157121000Y-137260000D01*
X160021000Y-137260000D02*
X157121000Y-137260000D01*
X160021000Y-132595000D02*
X160021000Y-137260000D01*
X157121000Y-132595000D02*
X160021000Y-132595000D01*
X157121000Y-137260000D02*
X157121000Y-132595000D01*
X159421000Y-134595000D02*
X159421000Y-135260000D01*
X157621000Y-135260000D02*
X157621000Y-134595000D01*
X157621000Y-134595000D02*
G75*
G02*
X159421000Y-134595000I900000J0D01*
G01*
X159421000Y-135260000D02*
G75*
G02*
X157621000Y-135260000I-900000J0D01*
G01*
%TO.C,Ky15*%
X164253000Y-135260000D02*
X164253000Y-134595000D01*
X166053000Y-134595000D02*
X166053000Y-135260000D01*
X163753000Y-137260000D02*
X163753000Y-132595000D01*
X163753000Y-132595000D02*
X166653000Y-132595000D01*
X166653000Y-132595000D02*
X166653000Y-137260000D01*
X166653000Y-137260000D02*
X163753000Y-137260000D01*
G36*
X163753000Y-137260000D02*
G01*
X164653000Y-137260000D01*
X163753000Y-136360000D01*
X163753000Y-137260000D01*
G37*
X163753000Y-137260000D02*
X164653000Y-137260000D01*
X163753000Y-136360000D01*
X163753000Y-137260000D01*
G36*
X163753000Y-132595000D02*
G01*
X163753000Y-133495000D01*
X164653000Y-132595000D01*
X163753000Y-132595000D01*
G37*
X163753000Y-132595000D02*
X163753000Y-133495000D01*
X164653000Y-132595000D01*
X163753000Y-132595000D01*
G36*
X166653000Y-132595000D02*
G01*
X165753000Y-132595000D01*
X166653000Y-133495000D01*
X166653000Y-132595000D01*
G37*
X166653000Y-132595000D02*
X165753000Y-132595000D01*
X166653000Y-133495000D01*
X166653000Y-132595000D01*
G36*
X166653000Y-137260000D02*
G01*
X166653000Y-136360000D01*
X165753000Y-137260000D01*
X166653000Y-137260000D01*
G37*
X166653000Y-137260000D02*
X166653000Y-136360000D01*
X165753000Y-137260000D01*
X166653000Y-137260000D01*
X166053000Y-135260000D02*
G75*
G02*
X164253000Y-135260000I-900000J0D01*
G01*
X164253000Y-134595000D02*
G75*
G02*
X166053000Y-134595000I900000J0D01*
G01*
%TO.C,Ky16*%
X170886000Y-135260000D02*
X170886000Y-134595000D01*
X172686000Y-134595000D02*
X172686000Y-135260000D01*
X170386000Y-137260000D02*
X170386000Y-132595000D01*
X170386000Y-132595000D02*
X173286000Y-132595000D01*
X173286000Y-132595000D02*
X173286000Y-137260000D01*
X173286000Y-137260000D02*
X170386000Y-137260000D01*
G36*
X170386000Y-137260000D02*
G01*
X171286000Y-137260000D01*
X170386000Y-136360000D01*
X170386000Y-137260000D01*
G37*
X170386000Y-137260000D02*
X171286000Y-137260000D01*
X170386000Y-136360000D01*
X170386000Y-137260000D01*
G36*
X170386000Y-132595000D02*
G01*
X170386000Y-133495000D01*
X171286000Y-132595000D01*
X170386000Y-132595000D01*
G37*
X170386000Y-132595000D02*
X170386000Y-133495000D01*
X171286000Y-132595000D01*
X170386000Y-132595000D01*
G36*
X173286000Y-132595000D02*
G01*
X172386000Y-132595000D01*
X173286000Y-133495000D01*
X173286000Y-132595000D01*
G37*
X173286000Y-132595000D02*
X172386000Y-132595000D01*
X173286000Y-133495000D01*
X173286000Y-132595000D01*
G36*
X173286000Y-137260000D02*
G01*
X173286000Y-136360000D01*
X172386000Y-137260000D01*
X173286000Y-137260000D01*
G37*
X173286000Y-137260000D02*
X173286000Y-136360000D01*
X172386000Y-137260000D01*
X173286000Y-137260000D01*
X172686000Y-135260000D02*
G75*
G02*
X170886000Y-135260000I-900000J0D01*
G01*
X170886000Y-134595000D02*
G75*
G02*
X172686000Y-134595000I900000J0D01*
G01*
%TO.C,Ky17*%
G36*
X179918000Y-137260000D02*
G01*
X179918000Y-136360000D01*
X179018000Y-137260000D01*
X179918000Y-137260000D01*
G37*
X179918000Y-137260000D02*
X179918000Y-136360000D01*
X179018000Y-137260000D01*
X179918000Y-137260000D01*
G36*
X179918000Y-132595000D02*
G01*
X179018000Y-132595000D01*
X179918000Y-133495000D01*
X179918000Y-132595000D01*
G37*
X179918000Y-132595000D02*
X179018000Y-132595000D01*
X179918000Y-133495000D01*
X179918000Y-132595000D01*
G36*
X177018000Y-132595000D02*
G01*
X177018000Y-133495000D01*
X177918000Y-132595000D01*
X177018000Y-132595000D01*
G37*
X177018000Y-132595000D02*
X177018000Y-133495000D01*
X177918000Y-132595000D01*
X177018000Y-132595000D01*
G36*
X177018000Y-137260000D02*
G01*
X177918000Y-137260000D01*
X177018000Y-136360000D01*
X177018000Y-137260000D01*
G37*
X177018000Y-137260000D02*
X177918000Y-137260000D01*
X177018000Y-136360000D01*
X177018000Y-137260000D01*
X179918000Y-137260000D02*
X177018000Y-137260000D01*
X179918000Y-132595000D02*
X179918000Y-137260000D01*
X177018000Y-132595000D02*
X179918000Y-132595000D01*
X177018000Y-137260000D02*
X177018000Y-132595000D01*
X179318000Y-134595000D02*
X179318000Y-135260000D01*
X177518000Y-135260000D02*
X177518000Y-134595000D01*
X177518000Y-134595000D02*
G75*
G02*
X179318000Y-134595000I900000J0D01*
G01*
X179318000Y-135260000D02*
G75*
G02*
X177518000Y-135260000I-900000J0D01*
G01*
%TO.C,Ky18*%
X184150000Y-135260000D02*
X184150000Y-134595000D01*
X185950000Y-134595000D02*
X185950000Y-135260000D01*
X183650000Y-137260000D02*
X183650000Y-132595000D01*
X183650000Y-132595000D02*
X186550000Y-132595000D01*
X186550000Y-132595000D02*
X186550000Y-137260000D01*
X186550000Y-137260000D02*
X183650000Y-137260000D01*
G36*
X183650000Y-137260000D02*
G01*
X184550000Y-137260000D01*
X183650000Y-136360000D01*
X183650000Y-137260000D01*
G37*
X183650000Y-137260000D02*
X184550000Y-137260000D01*
X183650000Y-136360000D01*
X183650000Y-137260000D01*
G36*
X183650000Y-132595000D02*
G01*
X183650000Y-133495000D01*
X184550000Y-132595000D01*
X183650000Y-132595000D01*
G37*
X183650000Y-132595000D02*
X183650000Y-133495000D01*
X184550000Y-132595000D01*
X183650000Y-132595000D01*
G36*
X186550000Y-132595000D02*
G01*
X185650000Y-132595000D01*
X186550000Y-133495000D01*
X186550000Y-132595000D01*
G37*
X186550000Y-132595000D02*
X185650000Y-132595000D01*
X186550000Y-133495000D01*
X186550000Y-132595000D01*
G36*
X186550000Y-137260000D02*
G01*
X186550000Y-136360000D01*
X185650000Y-137260000D01*
X186550000Y-137260000D01*
G37*
X186550000Y-137260000D02*
X186550000Y-136360000D01*
X185650000Y-137260000D01*
X186550000Y-137260000D01*
X185950000Y-135260000D02*
G75*
G02*
X184150000Y-135260000I-900000J0D01*
G01*
X184150000Y-134595000D02*
G75*
G02*
X185950000Y-134595000I900000J0D01*
G01*
%TO.C,Ky19*%
G36*
X193182000Y-137260000D02*
G01*
X193182000Y-136360000D01*
X192282000Y-137260000D01*
X193182000Y-137260000D01*
G37*
X193182000Y-137260000D02*
X193182000Y-136360000D01*
X192282000Y-137260000D01*
X193182000Y-137260000D01*
G36*
X193182000Y-132595000D02*
G01*
X192282000Y-132595000D01*
X193182000Y-133495000D01*
X193182000Y-132595000D01*
G37*
X193182000Y-132595000D02*
X192282000Y-132595000D01*
X193182000Y-133495000D01*
X193182000Y-132595000D01*
G36*
X190282000Y-132595000D02*
G01*
X190282000Y-133495000D01*
X191182000Y-132595000D01*
X190282000Y-132595000D01*
G37*
X190282000Y-132595000D02*
X190282000Y-133495000D01*
X191182000Y-132595000D01*
X190282000Y-132595000D01*
G36*
X190282000Y-137260000D02*
G01*
X191182000Y-137260000D01*
X190282000Y-136360000D01*
X190282000Y-137260000D01*
G37*
X190282000Y-137260000D02*
X191182000Y-137260000D01*
X190282000Y-136360000D01*
X190282000Y-137260000D01*
X193182000Y-137260000D02*
X190282000Y-137260000D01*
X193182000Y-132595000D02*
X193182000Y-137260000D01*
X190282000Y-132595000D02*
X193182000Y-132595000D01*
X190282000Y-137260000D02*
X190282000Y-132595000D01*
X192582000Y-134595000D02*
X192582000Y-135260000D01*
X190782000Y-135260000D02*
X190782000Y-134595000D01*
X190782000Y-134595000D02*
G75*
G02*
X192582000Y-134595000I900000J0D01*
G01*
X192582000Y-135260000D02*
G75*
G02*
X190782000Y-135260000I-900000J0D01*
G01*
%TO.C,Ky20*%
X197415000Y-135260000D02*
X197415000Y-134595000D01*
X199215000Y-134595000D02*
X199215000Y-135260000D01*
X196915000Y-137260000D02*
X196915000Y-132595000D01*
X196915000Y-132595000D02*
X199815000Y-132595000D01*
X199815000Y-132595000D02*
X199815000Y-137260000D01*
X199815000Y-137260000D02*
X196915000Y-137260000D01*
G36*
X196915000Y-137260000D02*
G01*
X197815000Y-137260000D01*
X196915000Y-136360000D01*
X196915000Y-137260000D01*
G37*
X196915000Y-137260000D02*
X197815000Y-137260000D01*
X196915000Y-136360000D01*
X196915000Y-137260000D01*
G36*
X196915000Y-132595000D02*
G01*
X196915000Y-133495000D01*
X197815000Y-132595000D01*
X196915000Y-132595000D01*
G37*
X196915000Y-132595000D02*
X196915000Y-133495000D01*
X197815000Y-132595000D01*
X196915000Y-132595000D01*
G36*
X199815000Y-132595000D02*
G01*
X198915000Y-132595000D01*
X199815000Y-133495000D01*
X199815000Y-132595000D01*
G37*
X199815000Y-132595000D02*
X198915000Y-132595000D01*
X199815000Y-133495000D01*
X199815000Y-132595000D01*
G36*
X199815000Y-137260000D02*
G01*
X199815000Y-136360000D01*
X198915000Y-137260000D01*
X199815000Y-137260000D01*
G37*
X199815000Y-137260000D02*
X199815000Y-136360000D01*
X198915000Y-137260000D01*
X199815000Y-137260000D01*
X199215000Y-135260000D02*
G75*
G02*
X197415000Y-135260000I-900000J0D01*
G01*
X197415000Y-134595000D02*
G75*
G02*
X199215000Y-134595000I900000J0D01*
G01*
%TO.C,Ky21*%
G36*
X206447000Y-137260000D02*
G01*
X206447000Y-136360000D01*
X205547000Y-137260000D01*
X206447000Y-137260000D01*
G37*
X206447000Y-137260000D02*
X206447000Y-136360000D01*
X205547000Y-137260000D01*
X206447000Y-137260000D01*
G36*
X206447000Y-132595000D02*
G01*
X205547000Y-132595000D01*
X206447000Y-133495000D01*
X206447000Y-132595000D01*
G37*
X206447000Y-132595000D02*
X205547000Y-132595000D01*
X206447000Y-133495000D01*
X206447000Y-132595000D01*
G36*
X203547000Y-132595000D02*
G01*
X203547000Y-133495000D01*
X204447000Y-132595000D01*
X203547000Y-132595000D01*
G37*
X203547000Y-132595000D02*
X203547000Y-133495000D01*
X204447000Y-132595000D01*
X203547000Y-132595000D01*
G36*
X203547000Y-137260000D02*
G01*
X204447000Y-137260000D01*
X203547000Y-136360000D01*
X203547000Y-137260000D01*
G37*
X203547000Y-137260000D02*
X204447000Y-137260000D01*
X203547000Y-136360000D01*
X203547000Y-137260000D01*
X206447000Y-137260000D02*
X203547000Y-137260000D01*
X206447000Y-132595000D02*
X206447000Y-137260000D01*
X203547000Y-132595000D02*
X206447000Y-132595000D01*
X203547000Y-137260000D02*
X203547000Y-132595000D01*
X205847000Y-134595000D02*
X205847000Y-135260000D01*
X204047000Y-135260000D02*
X204047000Y-134595000D01*
X204047000Y-134595000D02*
G75*
G02*
X205847000Y-134595000I900000J0D01*
G01*
X205847000Y-135260000D02*
G75*
G02*
X204047000Y-135260000I-900000J0D01*
G01*
%TO.C,Ky22*%
X210679000Y-135260000D02*
X210679000Y-134595000D01*
X212479000Y-134595000D02*
X212479000Y-135260000D01*
X210179000Y-137260000D02*
X210179000Y-132595000D01*
X210179000Y-132595000D02*
X213079000Y-132595000D01*
X213079000Y-132595000D02*
X213079000Y-137260000D01*
X213079000Y-137260000D02*
X210179000Y-137260000D01*
G36*
X210179000Y-137260000D02*
G01*
X211079000Y-137260000D01*
X210179000Y-136360000D01*
X210179000Y-137260000D01*
G37*
X210179000Y-137260000D02*
X211079000Y-137260000D01*
X210179000Y-136360000D01*
X210179000Y-137260000D01*
G36*
X210179000Y-132595000D02*
G01*
X210179000Y-133495000D01*
X211079000Y-132595000D01*
X210179000Y-132595000D01*
G37*
X210179000Y-132595000D02*
X210179000Y-133495000D01*
X211079000Y-132595000D01*
X210179000Y-132595000D01*
G36*
X213079000Y-132595000D02*
G01*
X212179000Y-132595000D01*
X213079000Y-133495000D01*
X213079000Y-132595000D01*
G37*
X213079000Y-132595000D02*
X212179000Y-132595000D01*
X213079000Y-133495000D01*
X213079000Y-132595000D01*
G36*
X213079000Y-137260000D02*
G01*
X213079000Y-136360000D01*
X212179000Y-137260000D01*
X213079000Y-137260000D01*
G37*
X213079000Y-137260000D02*
X213079000Y-136360000D01*
X212179000Y-137260000D01*
X213079000Y-137260000D01*
X212479000Y-135260000D02*
G75*
G02*
X210679000Y-135260000I-900000J0D01*
G01*
X210679000Y-134595000D02*
G75*
G02*
X212479000Y-134595000I900000J0D01*
G01*
%TO.C,Ky23*%
G36*
X194410000Y-108685000D02*
G01*
X194410000Y-107785000D01*
X193510000Y-108685000D01*
X194410000Y-108685000D01*
G37*
X194410000Y-108685000D02*
X194410000Y-107785000D01*
X193510000Y-108685000D01*
X194410000Y-108685000D01*
G36*
X194410000Y-104020000D02*
G01*
X193510000Y-104020000D01*
X194410000Y-104920000D01*
X194410000Y-104020000D01*
G37*
X194410000Y-104020000D02*
X193510000Y-104020000D01*
X194410000Y-104920000D01*
X194410000Y-104020000D01*
G36*
X191510000Y-104020000D02*
G01*
X191510000Y-104920000D01*
X192410000Y-104020000D01*
X191510000Y-104020000D01*
G37*
X191510000Y-104020000D02*
X191510000Y-104920000D01*
X192410000Y-104020000D01*
X191510000Y-104020000D01*
G36*
X191510000Y-108685000D02*
G01*
X192410000Y-108685000D01*
X191510000Y-107785000D01*
X191510000Y-108685000D01*
G37*
X191510000Y-108685000D02*
X192410000Y-108685000D01*
X191510000Y-107785000D01*
X191510000Y-108685000D01*
X194410000Y-108685000D02*
X191510000Y-108685000D01*
X194410000Y-104020000D02*
X194410000Y-108685000D01*
X191510000Y-104020000D02*
X194410000Y-104020000D01*
X191510000Y-108685000D02*
X191510000Y-104020000D01*
X193810000Y-106020000D02*
X193810000Y-106685000D01*
X192010000Y-106685000D02*
X192010000Y-106020000D01*
X192010000Y-106020000D02*
G75*
G02*
X193810000Y-106020000I900000J0D01*
G01*
X193810000Y-106685000D02*
G75*
G02*
X192010000Y-106685000I-900000J0D01*
G01*
%TO.C,Ky24*%
X207250000Y-106685000D02*
X207250000Y-106020000D01*
X209050000Y-106020000D02*
X209050000Y-106685000D01*
X206750000Y-108685000D02*
X206750000Y-104020000D01*
X206750000Y-104020000D02*
X209650000Y-104020000D01*
X209650000Y-104020000D02*
X209650000Y-108685000D01*
X209650000Y-108685000D02*
X206750000Y-108685000D01*
G36*
X206750000Y-108685000D02*
G01*
X207650000Y-108685000D01*
X206750000Y-107785000D01*
X206750000Y-108685000D01*
G37*
X206750000Y-108685000D02*
X207650000Y-108685000D01*
X206750000Y-107785000D01*
X206750000Y-108685000D01*
G36*
X206750000Y-104020000D02*
G01*
X206750000Y-104920000D01*
X207650000Y-104020000D01*
X206750000Y-104020000D01*
G37*
X206750000Y-104020000D02*
X206750000Y-104920000D01*
X207650000Y-104020000D01*
X206750000Y-104020000D01*
G36*
X209650000Y-104020000D02*
G01*
X208750000Y-104020000D01*
X209650000Y-104920000D01*
X209650000Y-104020000D01*
G37*
X209650000Y-104020000D02*
X208750000Y-104020000D01*
X209650000Y-104920000D01*
X209650000Y-104020000D01*
G36*
X209650000Y-108685000D02*
G01*
X209650000Y-107785000D01*
X208750000Y-108685000D01*
X209650000Y-108685000D01*
G37*
X209650000Y-108685000D02*
X209650000Y-107785000D01*
X208750000Y-108685000D01*
X209650000Y-108685000D01*
X209050000Y-106685000D02*
G75*
G02*
X207250000Y-106685000I-900000J0D01*
G01*
X207250000Y-106020000D02*
G75*
G02*
X209050000Y-106020000I900000J0D01*
G01*
%TO.C,Ky25*%
G36*
X153389000Y-144880000D02*
G01*
X153389000Y-143980000D01*
X152489000Y-144880000D01*
X153389000Y-144880000D01*
G37*
X153389000Y-144880000D02*
X153389000Y-143980000D01*
X152489000Y-144880000D01*
X153389000Y-144880000D01*
G36*
X153389000Y-140215000D02*
G01*
X152489000Y-140215000D01*
X153389000Y-141115000D01*
X153389000Y-140215000D01*
G37*
X153389000Y-140215000D02*
X152489000Y-140215000D01*
X153389000Y-141115000D01*
X153389000Y-140215000D01*
G36*
X150489000Y-140215000D02*
G01*
X150489000Y-141115000D01*
X151389000Y-140215000D01*
X150489000Y-140215000D01*
G37*
X150489000Y-140215000D02*
X150489000Y-141115000D01*
X151389000Y-140215000D01*
X150489000Y-140215000D01*
G36*
X150489000Y-144880000D02*
G01*
X151389000Y-144880000D01*
X150489000Y-143980000D01*
X150489000Y-144880000D01*
G37*
X150489000Y-144880000D02*
X151389000Y-144880000D01*
X150489000Y-143980000D01*
X150489000Y-144880000D01*
X153389000Y-144880000D02*
X150489000Y-144880000D01*
X153389000Y-140215000D02*
X153389000Y-144880000D01*
X150489000Y-140215000D02*
X153389000Y-140215000D01*
X150489000Y-144880000D02*
X150489000Y-140215000D01*
X152789000Y-142215000D02*
X152789000Y-142880000D01*
X150989000Y-142880000D02*
X150989000Y-142215000D01*
X150989000Y-142215000D02*
G75*
G02*
X152789000Y-142215000I900000J0D01*
G01*
X152789000Y-142880000D02*
G75*
G02*
X150989000Y-142880000I-900000J0D01*
G01*
%TO.C,Ky26*%
X157621000Y-142880000D02*
X157621000Y-142215000D01*
X159421000Y-142215000D02*
X159421000Y-142880000D01*
X157121000Y-144880000D02*
X157121000Y-140215000D01*
X157121000Y-140215000D02*
X160021000Y-140215000D01*
X160021000Y-140215000D02*
X160021000Y-144880000D01*
X160021000Y-144880000D02*
X157121000Y-144880000D01*
G36*
X157121000Y-144880000D02*
G01*
X158021000Y-144880000D01*
X157121000Y-143980000D01*
X157121000Y-144880000D01*
G37*
X157121000Y-144880000D02*
X158021000Y-144880000D01*
X157121000Y-143980000D01*
X157121000Y-144880000D01*
G36*
X157121000Y-140215000D02*
G01*
X157121000Y-141115000D01*
X158021000Y-140215000D01*
X157121000Y-140215000D01*
G37*
X157121000Y-140215000D02*
X157121000Y-141115000D01*
X158021000Y-140215000D01*
X157121000Y-140215000D01*
G36*
X160021000Y-140215000D02*
G01*
X159121000Y-140215000D01*
X160021000Y-141115000D01*
X160021000Y-140215000D01*
G37*
X160021000Y-140215000D02*
X159121000Y-140215000D01*
X160021000Y-141115000D01*
X160021000Y-140215000D01*
G36*
X160021000Y-144880000D02*
G01*
X160021000Y-143980000D01*
X159121000Y-144880000D01*
X160021000Y-144880000D01*
G37*
X160021000Y-144880000D02*
X160021000Y-143980000D01*
X159121000Y-144880000D01*
X160021000Y-144880000D01*
X159421000Y-142880000D02*
G75*
G02*
X157621000Y-142880000I-900000J0D01*
G01*
X157621000Y-142215000D02*
G75*
G02*
X159421000Y-142215000I900000J0D01*
G01*
%TO.C,Ky27*%
X164253000Y-142880000D02*
X164253000Y-142215000D01*
X166053000Y-142215000D02*
X166053000Y-142880000D01*
X163753000Y-144880000D02*
X163753000Y-140215000D01*
X163753000Y-140215000D02*
X166653000Y-140215000D01*
X166653000Y-140215000D02*
X166653000Y-144880000D01*
X166653000Y-144880000D02*
X163753000Y-144880000D01*
G36*
X163753000Y-144880000D02*
G01*
X164653000Y-144880000D01*
X163753000Y-143980000D01*
X163753000Y-144880000D01*
G37*
X163753000Y-144880000D02*
X164653000Y-144880000D01*
X163753000Y-143980000D01*
X163753000Y-144880000D01*
G36*
X163753000Y-140215000D02*
G01*
X163753000Y-141115000D01*
X164653000Y-140215000D01*
X163753000Y-140215000D01*
G37*
X163753000Y-140215000D02*
X163753000Y-141115000D01*
X164653000Y-140215000D01*
X163753000Y-140215000D01*
G36*
X166653000Y-140215000D02*
G01*
X165753000Y-140215000D01*
X166653000Y-141115000D01*
X166653000Y-140215000D01*
G37*
X166653000Y-140215000D02*
X165753000Y-140215000D01*
X166653000Y-141115000D01*
X166653000Y-140215000D01*
G36*
X166653000Y-144880000D02*
G01*
X166653000Y-143980000D01*
X165753000Y-144880000D01*
X166653000Y-144880000D01*
G37*
X166653000Y-144880000D02*
X166653000Y-143980000D01*
X165753000Y-144880000D01*
X166653000Y-144880000D01*
X166053000Y-142880000D02*
G75*
G02*
X164253000Y-142880000I-900000J0D01*
G01*
X164253000Y-142215000D02*
G75*
G02*
X166053000Y-142215000I900000J0D01*
G01*
%TO.C,Ky28*%
G36*
X173286000Y-144880000D02*
G01*
X173286000Y-143980000D01*
X172386000Y-144880000D01*
X173286000Y-144880000D01*
G37*
X173286000Y-144880000D02*
X173286000Y-143980000D01*
X172386000Y-144880000D01*
X173286000Y-144880000D01*
G36*
X173286000Y-140215000D02*
G01*
X172386000Y-140215000D01*
X173286000Y-141115000D01*
X173286000Y-140215000D01*
G37*
X173286000Y-140215000D02*
X172386000Y-140215000D01*
X173286000Y-141115000D01*
X173286000Y-140215000D01*
G36*
X170386000Y-140215000D02*
G01*
X170386000Y-141115000D01*
X171286000Y-140215000D01*
X170386000Y-140215000D01*
G37*
X170386000Y-140215000D02*
X170386000Y-141115000D01*
X171286000Y-140215000D01*
X170386000Y-140215000D01*
G36*
X170386000Y-144880000D02*
G01*
X171286000Y-144880000D01*
X170386000Y-143980000D01*
X170386000Y-144880000D01*
G37*
X170386000Y-144880000D02*
X171286000Y-144880000D01*
X170386000Y-143980000D01*
X170386000Y-144880000D01*
X173286000Y-144880000D02*
X170386000Y-144880000D01*
X173286000Y-140215000D02*
X173286000Y-144880000D01*
X170386000Y-140215000D02*
X173286000Y-140215000D01*
X170386000Y-144880000D02*
X170386000Y-140215000D01*
X172686000Y-142215000D02*
X172686000Y-142880000D01*
X170886000Y-142880000D02*
X170886000Y-142215000D01*
X170886000Y-142215000D02*
G75*
G02*
X172686000Y-142215000I900000J0D01*
G01*
X172686000Y-142880000D02*
G75*
G02*
X170886000Y-142880000I-900000J0D01*
G01*
%TO.C,Ky29*%
G36*
X179918000Y-144880000D02*
G01*
X179918000Y-143980000D01*
X179018000Y-144880000D01*
X179918000Y-144880000D01*
G37*
X179918000Y-144880000D02*
X179918000Y-143980000D01*
X179018000Y-144880000D01*
X179918000Y-144880000D01*
G36*
X179918000Y-140215000D02*
G01*
X179018000Y-140215000D01*
X179918000Y-141115000D01*
X179918000Y-140215000D01*
G37*
X179918000Y-140215000D02*
X179018000Y-140215000D01*
X179918000Y-141115000D01*
X179918000Y-140215000D01*
G36*
X177018000Y-140215000D02*
G01*
X177018000Y-141115000D01*
X177918000Y-140215000D01*
X177018000Y-140215000D01*
G37*
X177018000Y-140215000D02*
X177018000Y-141115000D01*
X177918000Y-140215000D01*
X177018000Y-140215000D01*
G36*
X177018000Y-144880000D02*
G01*
X177918000Y-144880000D01*
X177018000Y-143980000D01*
X177018000Y-144880000D01*
G37*
X177018000Y-144880000D02*
X177918000Y-144880000D01*
X177018000Y-143980000D01*
X177018000Y-144880000D01*
X179918000Y-144880000D02*
X177018000Y-144880000D01*
X179918000Y-140215000D02*
X179918000Y-144880000D01*
X177018000Y-140215000D02*
X179918000Y-140215000D01*
X177018000Y-144880000D02*
X177018000Y-140215000D01*
X179318000Y-142215000D02*
X179318000Y-142880000D01*
X177518000Y-142880000D02*
X177518000Y-142215000D01*
X177518000Y-142215000D02*
G75*
G02*
X179318000Y-142215000I900000J0D01*
G01*
X179318000Y-142880000D02*
G75*
G02*
X177518000Y-142880000I-900000J0D01*
G01*
%TO.C,Ky30*%
G36*
X186550000Y-144880000D02*
G01*
X186550000Y-143980000D01*
X185650000Y-144880000D01*
X186550000Y-144880000D01*
G37*
X186550000Y-144880000D02*
X186550000Y-143980000D01*
X185650000Y-144880000D01*
X186550000Y-144880000D01*
G36*
X186550000Y-140215000D02*
G01*
X185650000Y-140215000D01*
X186550000Y-141115000D01*
X186550000Y-140215000D01*
G37*
X186550000Y-140215000D02*
X185650000Y-140215000D01*
X186550000Y-141115000D01*
X186550000Y-140215000D01*
G36*
X183650000Y-140215000D02*
G01*
X183650000Y-141115000D01*
X184550000Y-140215000D01*
X183650000Y-140215000D01*
G37*
X183650000Y-140215000D02*
X183650000Y-141115000D01*
X184550000Y-140215000D01*
X183650000Y-140215000D01*
G36*
X183650000Y-144880000D02*
G01*
X184550000Y-144880000D01*
X183650000Y-143980000D01*
X183650000Y-144880000D01*
G37*
X183650000Y-144880000D02*
X184550000Y-144880000D01*
X183650000Y-143980000D01*
X183650000Y-144880000D01*
X186550000Y-144880000D02*
X183650000Y-144880000D01*
X186550000Y-140215000D02*
X186550000Y-144880000D01*
X183650000Y-140215000D02*
X186550000Y-140215000D01*
X183650000Y-144880000D02*
X183650000Y-140215000D01*
X185950000Y-142215000D02*
X185950000Y-142880000D01*
X184150000Y-142880000D02*
X184150000Y-142215000D01*
X184150000Y-142215000D02*
G75*
G02*
X185950000Y-142215000I900000J0D01*
G01*
X185950000Y-142880000D02*
G75*
G02*
X184150000Y-142880000I-900000J0D01*
G01*
%TO.C,Ky31*%
X190782000Y-142880000D02*
X190782000Y-142215000D01*
X192582000Y-142215000D02*
X192582000Y-142880000D01*
X190282000Y-144880000D02*
X190282000Y-140215000D01*
X190282000Y-140215000D02*
X193182000Y-140215000D01*
X193182000Y-140215000D02*
X193182000Y-144880000D01*
X193182000Y-144880000D02*
X190282000Y-144880000D01*
G36*
X190282000Y-144880000D02*
G01*
X191182000Y-144880000D01*
X190282000Y-143980000D01*
X190282000Y-144880000D01*
G37*
X190282000Y-144880000D02*
X191182000Y-144880000D01*
X190282000Y-143980000D01*
X190282000Y-144880000D01*
G36*
X190282000Y-140215000D02*
G01*
X190282000Y-141115000D01*
X191182000Y-140215000D01*
X190282000Y-140215000D01*
G37*
X190282000Y-140215000D02*
X190282000Y-141115000D01*
X191182000Y-140215000D01*
X190282000Y-140215000D01*
G36*
X193182000Y-140215000D02*
G01*
X192282000Y-140215000D01*
X193182000Y-141115000D01*
X193182000Y-140215000D01*
G37*
X193182000Y-140215000D02*
X192282000Y-140215000D01*
X193182000Y-141115000D01*
X193182000Y-140215000D01*
G36*
X193182000Y-144880000D02*
G01*
X193182000Y-143980000D01*
X192282000Y-144880000D01*
X193182000Y-144880000D01*
G37*
X193182000Y-144880000D02*
X193182000Y-143980000D01*
X192282000Y-144880000D01*
X193182000Y-144880000D01*
X192582000Y-142880000D02*
G75*
G02*
X190782000Y-142880000I-900000J0D01*
G01*
X190782000Y-142215000D02*
G75*
G02*
X192582000Y-142215000I900000J0D01*
G01*
%TO.C,Ky32*%
X197415000Y-142880000D02*
X197415000Y-142215000D01*
X199215000Y-142215000D02*
X199215000Y-142880000D01*
X196915000Y-144880000D02*
X196915000Y-140215000D01*
X196915000Y-140215000D02*
X199815000Y-140215000D01*
X199815000Y-140215000D02*
X199815000Y-144880000D01*
X199815000Y-144880000D02*
X196915000Y-144880000D01*
G36*
X196915000Y-144880000D02*
G01*
X197815000Y-144880000D01*
X196915000Y-143980000D01*
X196915000Y-144880000D01*
G37*
X196915000Y-144880000D02*
X197815000Y-144880000D01*
X196915000Y-143980000D01*
X196915000Y-144880000D01*
G36*
X196915000Y-140215000D02*
G01*
X196915000Y-141115000D01*
X197815000Y-140215000D01*
X196915000Y-140215000D01*
G37*
X196915000Y-140215000D02*
X196915000Y-141115000D01*
X197815000Y-140215000D01*
X196915000Y-140215000D01*
G36*
X199815000Y-140215000D02*
G01*
X198915000Y-140215000D01*
X199815000Y-141115000D01*
X199815000Y-140215000D01*
G37*
X199815000Y-140215000D02*
X198915000Y-140215000D01*
X199815000Y-141115000D01*
X199815000Y-140215000D01*
G36*
X199815000Y-144880000D02*
G01*
X199815000Y-143980000D01*
X198915000Y-144880000D01*
X199815000Y-144880000D01*
G37*
X199815000Y-144880000D02*
X199815000Y-143980000D01*
X198915000Y-144880000D01*
X199815000Y-144880000D01*
X199215000Y-142880000D02*
G75*
G02*
X197415000Y-142880000I-900000J0D01*
G01*
X197415000Y-142215000D02*
G75*
G02*
X199215000Y-142215000I900000J0D01*
G01*
%TO.C,Ky33*%
X204047000Y-142880000D02*
X204047000Y-142215000D01*
X205847000Y-142215000D02*
X205847000Y-142880000D01*
X203547000Y-144880000D02*
X203547000Y-140215000D01*
X203547000Y-140215000D02*
X206447000Y-140215000D01*
X206447000Y-140215000D02*
X206447000Y-144880000D01*
X206447000Y-144880000D02*
X203547000Y-144880000D01*
G36*
X203547000Y-144880000D02*
G01*
X204447000Y-144880000D01*
X203547000Y-143980000D01*
X203547000Y-144880000D01*
G37*
X203547000Y-144880000D02*
X204447000Y-144880000D01*
X203547000Y-143980000D01*
X203547000Y-144880000D01*
G36*
X203547000Y-140215000D02*
G01*
X203547000Y-141115000D01*
X204447000Y-140215000D01*
X203547000Y-140215000D01*
G37*
X203547000Y-140215000D02*
X203547000Y-141115000D01*
X204447000Y-140215000D01*
X203547000Y-140215000D01*
G36*
X206447000Y-140215000D02*
G01*
X205547000Y-140215000D01*
X206447000Y-141115000D01*
X206447000Y-140215000D01*
G37*
X206447000Y-140215000D02*
X205547000Y-140215000D01*
X206447000Y-141115000D01*
X206447000Y-140215000D01*
G36*
X206447000Y-144880000D02*
G01*
X206447000Y-143980000D01*
X205547000Y-144880000D01*
X206447000Y-144880000D01*
G37*
X206447000Y-144880000D02*
X206447000Y-143980000D01*
X205547000Y-144880000D01*
X206447000Y-144880000D01*
X205847000Y-142880000D02*
G75*
G02*
X204047000Y-142880000I-900000J0D01*
G01*
X204047000Y-142215000D02*
G75*
G02*
X205847000Y-142215000I900000J0D01*
G01*
%TO.C,Ky34*%
G36*
X213079000Y-144880000D02*
G01*
X213079000Y-143980000D01*
X212179000Y-144880000D01*
X213079000Y-144880000D01*
G37*
X213079000Y-144880000D02*
X213079000Y-143980000D01*
X212179000Y-144880000D01*
X213079000Y-144880000D01*
G36*
X213079000Y-140215000D02*
G01*
X212179000Y-140215000D01*
X213079000Y-141115000D01*
X213079000Y-140215000D01*
G37*
X213079000Y-140215000D02*
X212179000Y-140215000D01*
X213079000Y-141115000D01*
X213079000Y-140215000D01*
G36*
X210179000Y-140215000D02*
G01*
X210179000Y-141115000D01*
X211079000Y-140215000D01*
X210179000Y-140215000D01*
G37*
X210179000Y-140215000D02*
X210179000Y-141115000D01*
X211079000Y-140215000D01*
X210179000Y-140215000D01*
G36*
X210179000Y-144880000D02*
G01*
X211079000Y-144880000D01*
X210179000Y-143980000D01*
X210179000Y-144880000D01*
G37*
X210179000Y-144880000D02*
X211079000Y-144880000D01*
X210179000Y-143980000D01*
X210179000Y-144880000D01*
X213079000Y-144880000D02*
X210179000Y-144880000D01*
X213079000Y-140215000D02*
X213079000Y-144880000D01*
X210179000Y-140215000D02*
X213079000Y-140215000D01*
X210179000Y-144880000D02*
X210179000Y-140215000D01*
X212479000Y-142215000D02*
X212479000Y-142880000D01*
X210679000Y-142880000D02*
X210679000Y-142215000D01*
X210679000Y-142215000D02*
G75*
G02*
X212479000Y-142215000I900000J0D01*
G01*
X212479000Y-142880000D02*
G75*
G02*
X210679000Y-142880000I-900000J0D01*
G01*
%TO.C,Ky35*%
G36*
X186536000Y-122528000D02*
G01*
X186536000Y-121628000D01*
X185636000Y-122528000D01*
X186536000Y-122528000D01*
G37*
X186536000Y-122528000D02*
X186536000Y-121628000D01*
X185636000Y-122528000D01*
X186536000Y-122528000D01*
G36*
X186536000Y-117863000D02*
G01*
X185636000Y-117863000D01*
X186536000Y-118763000D01*
X186536000Y-117863000D01*
G37*
X186536000Y-117863000D02*
X185636000Y-117863000D01*
X186536000Y-118763000D01*
X186536000Y-117863000D01*
G36*
X183636000Y-117863000D02*
G01*
X183636000Y-118763000D01*
X184536000Y-117863000D01*
X183636000Y-117863000D01*
G37*
X183636000Y-117863000D02*
X183636000Y-118763000D01*
X184536000Y-117863000D01*
X183636000Y-117863000D01*
G36*
X183636000Y-122528000D02*
G01*
X184536000Y-122528000D01*
X183636000Y-121628000D01*
X183636000Y-122528000D01*
G37*
X183636000Y-122528000D02*
X184536000Y-122528000D01*
X183636000Y-121628000D01*
X183636000Y-122528000D01*
X186536000Y-122528000D02*
X183636000Y-122528000D01*
X186536000Y-117863000D02*
X186536000Y-122528000D01*
X183636000Y-117863000D02*
X186536000Y-117863000D01*
X183636000Y-122528000D02*
X183636000Y-117863000D01*
X185936000Y-119863000D02*
X185936000Y-120528000D01*
X184136000Y-120528000D02*
X184136000Y-119863000D01*
X184136000Y-119863000D02*
G75*
G02*
X185936000Y-119863000I900000J0D01*
G01*
X185936000Y-120528000D02*
G75*
G02*
X184136000Y-120528000I-900000J0D01*
G01*
%TO.C,Ky36*%
X190740000Y-120528000D02*
X190740000Y-119863000D01*
X192540000Y-119863000D02*
X192540000Y-120528000D01*
X190240000Y-122528000D02*
X190240000Y-117863000D01*
X190240000Y-117863000D02*
X193140000Y-117863000D01*
X193140000Y-117863000D02*
X193140000Y-122528000D01*
X193140000Y-122528000D02*
X190240000Y-122528000D01*
G36*
X190240000Y-122528000D02*
G01*
X191140000Y-122528000D01*
X190240000Y-121628000D01*
X190240000Y-122528000D01*
G37*
X190240000Y-122528000D02*
X191140000Y-122528000D01*
X190240000Y-121628000D01*
X190240000Y-122528000D01*
G36*
X190240000Y-117863000D02*
G01*
X190240000Y-118763000D01*
X191140000Y-117863000D01*
X190240000Y-117863000D01*
G37*
X190240000Y-117863000D02*
X190240000Y-118763000D01*
X191140000Y-117863000D01*
X190240000Y-117863000D01*
G36*
X193140000Y-117863000D02*
G01*
X192240000Y-117863000D01*
X193140000Y-118763000D01*
X193140000Y-117863000D01*
G37*
X193140000Y-117863000D02*
X192240000Y-117863000D01*
X193140000Y-118763000D01*
X193140000Y-117863000D01*
G36*
X193140000Y-122528000D02*
G01*
X193140000Y-121628000D01*
X192240000Y-122528000D01*
X193140000Y-122528000D01*
G37*
X193140000Y-122528000D02*
X193140000Y-121628000D01*
X192240000Y-122528000D01*
X193140000Y-122528000D01*
X192540000Y-120528000D02*
G75*
G02*
X190740000Y-120528000I-900000J0D01*
G01*
X190740000Y-119863000D02*
G75*
G02*
X192540000Y-119863000I900000J0D01*
G01*
%TO.C,Ky37*%
X150989000Y-150500000D02*
X150989000Y-149835000D01*
X152789000Y-149835000D02*
X152789000Y-150500000D01*
X150489000Y-152500000D02*
X150489000Y-147835000D01*
X150489000Y-147835000D02*
X153389000Y-147835000D01*
X153389000Y-147835000D02*
X153389000Y-152500000D01*
X153389000Y-152500000D02*
X150489000Y-152500000D01*
G36*
X150489000Y-152500000D02*
G01*
X151389000Y-152500000D01*
X150489000Y-151600000D01*
X150489000Y-152500000D01*
G37*
X150489000Y-152500000D02*
X151389000Y-152500000D01*
X150489000Y-151600000D01*
X150489000Y-152500000D01*
G36*
X150489000Y-147835000D02*
G01*
X150489000Y-148735000D01*
X151389000Y-147835000D01*
X150489000Y-147835000D01*
G37*
X150489000Y-147835000D02*
X150489000Y-148735000D01*
X151389000Y-147835000D01*
X150489000Y-147835000D01*
G36*
X153389000Y-147835000D02*
G01*
X152489000Y-147835000D01*
X153389000Y-148735000D01*
X153389000Y-147835000D01*
G37*
X153389000Y-147835000D02*
X152489000Y-147835000D01*
X153389000Y-148735000D01*
X153389000Y-147835000D01*
G36*
X153389000Y-152500000D02*
G01*
X153389000Y-151600000D01*
X152489000Y-152500000D01*
X153389000Y-152500000D01*
G37*
X153389000Y-152500000D02*
X153389000Y-151600000D01*
X152489000Y-152500000D01*
X153389000Y-152500000D01*
X152789000Y-150500000D02*
G75*
G02*
X150989000Y-150500000I-900000J0D01*
G01*
X150989000Y-149835000D02*
G75*
G02*
X152789000Y-149835000I900000J0D01*
G01*
%TO.C,Ky38*%
X157621000Y-150500000D02*
X157621000Y-149835000D01*
X159421000Y-149835000D02*
X159421000Y-150500000D01*
X157121000Y-152500000D02*
X157121000Y-147835000D01*
X157121000Y-147835000D02*
X160021000Y-147835000D01*
X160021000Y-147835000D02*
X160021000Y-152500000D01*
X160021000Y-152500000D02*
X157121000Y-152500000D01*
G36*
X157121000Y-152500000D02*
G01*
X158021000Y-152500000D01*
X157121000Y-151600000D01*
X157121000Y-152500000D01*
G37*
X157121000Y-152500000D02*
X158021000Y-152500000D01*
X157121000Y-151600000D01*
X157121000Y-152500000D01*
G36*
X157121000Y-147835000D02*
G01*
X157121000Y-148735000D01*
X158021000Y-147835000D01*
X157121000Y-147835000D01*
G37*
X157121000Y-147835000D02*
X157121000Y-148735000D01*
X158021000Y-147835000D01*
X157121000Y-147835000D01*
G36*
X160021000Y-147835000D02*
G01*
X159121000Y-147835000D01*
X160021000Y-148735000D01*
X160021000Y-147835000D01*
G37*
X160021000Y-147835000D02*
X159121000Y-147835000D01*
X160021000Y-148735000D01*
X160021000Y-147835000D01*
G36*
X160021000Y-152500000D02*
G01*
X160021000Y-151600000D01*
X159121000Y-152500000D01*
X160021000Y-152500000D01*
G37*
X160021000Y-152500000D02*
X160021000Y-151600000D01*
X159121000Y-152500000D01*
X160021000Y-152500000D01*
X159421000Y-150500000D02*
G75*
G02*
X157621000Y-150500000I-900000J0D01*
G01*
X157621000Y-149835000D02*
G75*
G02*
X159421000Y-149835000I900000J0D01*
G01*
%TO.C,Ky39*%
G36*
X166653000Y-152500000D02*
G01*
X166653000Y-151600000D01*
X165753000Y-152500000D01*
X166653000Y-152500000D01*
G37*
X166653000Y-152500000D02*
X166653000Y-151600000D01*
X165753000Y-152500000D01*
X166653000Y-152500000D01*
G36*
X166653000Y-147835000D02*
G01*
X165753000Y-147835000D01*
X166653000Y-148735000D01*
X166653000Y-147835000D01*
G37*
X166653000Y-147835000D02*
X165753000Y-147835000D01*
X166653000Y-148735000D01*
X166653000Y-147835000D01*
G36*
X163753000Y-147835000D02*
G01*
X163753000Y-148735000D01*
X164653000Y-147835000D01*
X163753000Y-147835000D01*
G37*
X163753000Y-147835000D02*
X163753000Y-148735000D01*
X164653000Y-147835000D01*
X163753000Y-147835000D01*
G36*
X163753000Y-152500000D02*
G01*
X164653000Y-152500000D01*
X163753000Y-151600000D01*
X163753000Y-152500000D01*
G37*
X163753000Y-152500000D02*
X164653000Y-152500000D01*
X163753000Y-151600000D01*
X163753000Y-152500000D01*
X166653000Y-152500000D02*
X163753000Y-152500000D01*
X166653000Y-147835000D02*
X166653000Y-152500000D01*
X163753000Y-147835000D02*
X166653000Y-147835000D01*
X163753000Y-152500000D02*
X163753000Y-147835000D01*
X166053000Y-149835000D02*
X166053000Y-150500000D01*
X164253000Y-150500000D02*
X164253000Y-149835000D01*
X164253000Y-149835000D02*
G75*
G02*
X166053000Y-149835000I900000J0D01*
G01*
X166053000Y-150500000D02*
G75*
G02*
X164253000Y-150500000I-900000J0D01*
G01*
%TO.C,Ky40*%
X170886000Y-150500000D02*
X170886000Y-149835000D01*
X172686000Y-149835000D02*
X172686000Y-150500000D01*
X170386000Y-152500000D02*
X170386000Y-147835000D01*
X170386000Y-147835000D02*
X173286000Y-147835000D01*
X173286000Y-147835000D02*
X173286000Y-152500000D01*
X173286000Y-152500000D02*
X170386000Y-152500000D01*
G36*
X170386000Y-152500000D02*
G01*
X171286000Y-152500000D01*
X170386000Y-151600000D01*
X170386000Y-152500000D01*
G37*
X170386000Y-152500000D02*
X171286000Y-152500000D01*
X170386000Y-151600000D01*
X170386000Y-152500000D01*
G36*
X170386000Y-147835000D02*
G01*
X170386000Y-148735000D01*
X171286000Y-147835000D01*
X170386000Y-147835000D01*
G37*
X170386000Y-147835000D02*
X170386000Y-148735000D01*
X171286000Y-147835000D01*
X170386000Y-147835000D01*
G36*
X173286000Y-147835000D02*
G01*
X172386000Y-147835000D01*
X173286000Y-148735000D01*
X173286000Y-147835000D01*
G37*
X173286000Y-147835000D02*
X172386000Y-147835000D01*
X173286000Y-148735000D01*
X173286000Y-147835000D01*
G36*
X173286000Y-152500000D02*
G01*
X173286000Y-151600000D01*
X172386000Y-152500000D01*
X173286000Y-152500000D01*
G37*
X173286000Y-152500000D02*
X173286000Y-151600000D01*
X172386000Y-152500000D01*
X173286000Y-152500000D01*
X172686000Y-150500000D02*
G75*
G02*
X170886000Y-150500000I-900000J0D01*
G01*
X170886000Y-149835000D02*
G75*
G02*
X172686000Y-149835000I900000J0D01*
G01*
%TO.C,Ky41*%
G36*
X179918000Y-152500000D02*
G01*
X179918000Y-151600000D01*
X179018000Y-152500000D01*
X179918000Y-152500000D01*
G37*
X179918000Y-152500000D02*
X179918000Y-151600000D01*
X179018000Y-152500000D01*
X179918000Y-152500000D01*
G36*
X179918000Y-147835000D02*
G01*
X179018000Y-147835000D01*
X179918000Y-148735000D01*
X179918000Y-147835000D01*
G37*
X179918000Y-147835000D02*
X179018000Y-147835000D01*
X179918000Y-148735000D01*
X179918000Y-147835000D01*
G36*
X177018000Y-147835000D02*
G01*
X177018000Y-148735000D01*
X177918000Y-147835000D01*
X177018000Y-147835000D01*
G37*
X177018000Y-147835000D02*
X177018000Y-148735000D01*
X177918000Y-147835000D01*
X177018000Y-147835000D01*
G36*
X177018000Y-152500000D02*
G01*
X177918000Y-152500000D01*
X177018000Y-151600000D01*
X177018000Y-152500000D01*
G37*
X177018000Y-152500000D02*
X177918000Y-152500000D01*
X177018000Y-151600000D01*
X177018000Y-152500000D01*
X179918000Y-152500000D02*
X177018000Y-152500000D01*
X179918000Y-147835000D02*
X179918000Y-152500000D01*
X177018000Y-147835000D02*
X179918000Y-147835000D01*
X177018000Y-152500000D02*
X177018000Y-147835000D01*
X179318000Y-149835000D02*
X179318000Y-150500000D01*
X177518000Y-150500000D02*
X177518000Y-149835000D01*
X177518000Y-149835000D02*
G75*
G02*
X179318000Y-149835000I900000J0D01*
G01*
X179318000Y-150500000D02*
G75*
G02*
X177518000Y-150500000I-900000J0D01*
G01*
%TO.C,Ky42*%
X184150000Y-150500000D02*
X184150000Y-149835000D01*
X185950000Y-149835000D02*
X185950000Y-150500000D01*
X183650000Y-152500000D02*
X183650000Y-147835000D01*
X183650000Y-147835000D02*
X186550000Y-147835000D01*
X186550000Y-147835000D02*
X186550000Y-152500000D01*
X186550000Y-152500000D02*
X183650000Y-152500000D01*
G36*
X183650000Y-152500000D02*
G01*
X184550000Y-152500000D01*
X183650000Y-151600000D01*
X183650000Y-152500000D01*
G37*
X183650000Y-152500000D02*
X184550000Y-152500000D01*
X183650000Y-151600000D01*
X183650000Y-152500000D01*
G36*
X183650000Y-147835000D02*
G01*
X183650000Y-148735000D01*
X184550000Y-147835000D01*
X183650000Y-147835000D01*
G37*
X183650000Y-147835000D02*
X183650000Y-148735000D01*
X184550000Y-147835000D01*
X183650000Y-147835000D01*
G36*
X186550000Y-147835000D02*
G01*
X185650000Y-147835000D01*
X186550000Y-148735000D01*
X186550000Y-147835000D01*
G37*
X186550000Y-147835000D02*
X185650000Y-147835000D01*
X186550000Y-148735000D01*
X186550000Y-147835000D01*
G36*
X186550000Y-152500000D02*
G01*
X186550000Y-151600000D01*
X185650000Y-152500000D01*
X186550000Y-152500000D01*
G37*
X186550000Y-152500000D02*
X186550000Y-151600000D01*
X185650000Y-152500000D01*
X186550000Y-152500000D01*
X185950000Y-150500000D02*
G75*
G02*
X184150000Y-150500000I-900000J0D01*
G01*
X184150000Y-149835000D02*
G75*
G02*
X185950000Y-149835000I900000J0D01*
G01*
%TO.C,Ky43*%
G36*
X193182000Y-152500000D02*
G01*
X193182000Y-151600000D01*
X192282000Y-152500000D01*
X193182000Y-152500000D01*
G37*
X193182000Y-152500000D02*
X193182000Y-151600000D01*
X192282000Y-152500000D01*
X193182000Y-152500000D01*
G36*
X193182000Y-147835000D02*
G01*
X192282000Y-147835000D01*
X193182000Y-148735000D01*
X193182000Y-147835000D01*
G37*
X193182000Y-147835000D02*
X192282000Y-147835000D01*
X193182000Y-148735000D01*
X193182000Y-147835000D01*
G36*
X190282000Y-147835000D02*
G01*
X190282000Y-148735000D01*
X191182000Y-147835000D01*
X190282000Y-147835000D01*
G37*
X190282000Y-147835000D02*
X190282000Y-148735000D01*
X191182000Y-147835000D01*
X190282000Y-147835000D01*
G36*
X190282000Y-152500000D02*
G01*
X191182000Y-152500000D01*
X190282000Y-151600000D01*
X190282000Y-152500000D01*
G37*
X190282000Y-152500000D02*
X191182000Y-152500000D01*
X190282000Y-151600000D01*
X190282000Y-152500000D01*
X193182000Y-152500000D02*
X190282000Y-152500000D01*
X193182000Y-147835000D02*
X193182000Y-152500000D01*
X190282000Y-147835000D02*
X193182000Y-147835000D01*
X190282000Y-152500000D02*
X190282000Y-147835000D01*
X192582000Y-149835000D02*
X192582000Y-150500000D01*
X190782000Y-150500000D02*
X190782000Y-149835000D01*
X190782000Y-149835000D02*
G75*
G02*
X192582000Y-149835000I900000J0D01*
G01*
X192582000Y-150500000D02*
G75*
G02*
X190782000Y-150500000I-900000J0D01*
G01*
%TO.C,Ky44*%
X197415000Y-150500000D02*
X197415000Y-149835000D01*
X199215000Y-149835000D02*
X199215000Y-150500000D01*
X196915000Y-152500000D02*
X196915000Y-147835000D01*
X196915000Y-147835000D02*
X199815000Y-147835000D01*
X199815000Y-147835000D02*
X199815000Y-152500000D01*
X199815000Y-152500000D02*
X196915000Y-152500000D01*
G36*
X196915000Y-152500000D02*
G01*
X197815000Y-152500000D01*
X196915000Y-151600000D01*
X196915000Y-152500000D01*
G37*
X196915000Y-152500000D02*
X197815000Y-152500000D01*
X196915000Y-151600000D01*
X196915000Y-152500000D01*
G36*
X196915000Y-147835000D02*
G01*
X196915000Y-148735000D01*
X197815000Y-147835000D01*
X196915000Y-147835000D01*
G37*
X196915000Y-147835000D02*
X196915000Y-148735000D01*
X197815000Y-147835000D01*
X196915000Y-147835000D01*
G36*
X199815000Y-147835000D02*
G01*
X198915000Y-147835000D01*
X199815000Y-148735000D01*
X199815000Y-147835000D01*
G37*
X199815000Y-147835000D02*
X198915000Y-147835000D01*
X199815000Y-148735000D01*
X199815000Y-147835000D01*
G36*
X199815000Y-152500000D02*
G01*
X199815000Y-151600000D01*
X198915000Y-152500000D01*
X199815000Y-152500000D01*
G37*
X199815000Y-152500000D02*
X199815000Y-151600000D01*
X198915000Y-152500000D01*
X199815000Y-152500000D01*
X199215000Y-150500000D02*
G75*
G02*
X197415000Y-150500000I-900000J0D01*
G01*
X197415000Y-149835000D02*
G75*
G02*
X199215000Y-149835000I900000J0D01*
G01*
%TO.C,Ky45*%
G36*
X206447000Y-152500000D02*
G01*
X206447000Y-151600000D01*
X205547000Y-152500000D01*
X206447000Y-152500000D01*
G37*
X206447000Y-152500000D02*
X206447000Y-151600000D01*
X205547000Y-152500000D01*
X206447000Y-152500000D01*
G36*
X206447000Y-147835000D02*
G01*
X205547000Y-147835000D01*
X206447000Y-148735000D01*
X206447000Y-147835000D01*
G37*
X206447000Y-147835000D02*
X205547000Y-147835000D01*
X206447000Y-148735000D01*
X206447000Y-147835000D01*
G36*
X203547000Y-147835000D02*
G01*
X203547000Y-148735000D01*
X204447000Y-147835000D01*
X203547000Y-147835000D01*
G37*
X203547000Y-147835000D02*
X203547000Y-148735000D01*
X204447000Y-147835000D01*
X203547000Y-147835000D01*
G36*
X203547000Y-152500000D02*
G01*
X204447000Y-152500000D01*
X203547000Y-151600000D01*
X203547000Y-152500000D01*
G37*
X203547000Y-152500000D02*
X204447000Y-152500000D01*
X203547000Y-151600000D01*
X203547000Y-152500000D01*
X206447000Y-152500000D02*
X203547000Y-152500000D01*
X206447000Y-147835000D02*
X206447000Y-152500000D01*
X203547000Y-147835000D02*
X206447000Y-147835000D01*
X203547000Y-152500000D02*
X203547000Y-147835000D01*
X205847000Y-149835000D02*
X205847000Y-150500000D01*
X204047000Y-150500000D02*
X204047000Y-149835000D01*
X204047000Y-149835000D02*
G75*
G02*
X205847000Y-149835000I900000J0D01*
G01*
X205847000Y-150500000D02*
G75*
G02*
X204047000Y-150500000I-900000J0D01*
G01*
%TO.C,Ky46*%
X210679000Y-150500000D02*
X210679000Y-149835000D01*
X212479000Y-149835000D02*
X212479000Y-150500000D01*
X210179000Y-152500000D02*
X210179000Y-147835000D01*
X210179000Y-147835000D02*
X213079000Y-147835000D01*
X213079000Y-147835000D02*
X213079000Y-152500000D01*
X213079000Y-152500000D02*
X210179000Y-152500000D01*
G36*
X210179000Y-152500000D02*
G01*
X211079000Y-152500000D01*
X210179000Y-151600000D01*
X210179000Y-152500000D01*
G37*
X210179000Y-152500000D02*
X211079000Y-152500000D01*
X210179000Y-151600000D01*
X210179000Y-152500000D01*
G36*
X210179000Y-147835000D02*
G01*
X210179000Y-148735000D01*
X211079000Y-147835000D01*
X210179000Y-147835000D01*
G37*
X210179000Y-147835000D02*
X210179000Y-148735000D01*
X211079000Y-147835000D01*
X210179000Y-147835000D01*
G36*
X213079000Y-147835000D02*
G01*
X212179000Y-147835000D01*
X213079000Y-148735000D01*
X213079000Y-147835000D01*
G37*
X213079000Y-147835000D02*
X212179000Y-147835000D01*
X213079000Y-148735000D01*
X213079000Y-147835000D01*
G36*
X213079000Y-152500000D02*
G01*
X213079000Y-151600000D01*
X212179000Y-152500000D01*
X213079000Y-152500000D01*
G37*
X213079000Y-152500000D02*
X213079000Y-151600000D01*
X212179000Y-152500000D01*
X213079000Y-152500000D01*
X212479000Y-150500000D02*
G75*
G02*
X210679000Y-150500000I-900000J0D01*
G01*
X210679000Y-149835000D02*
G75*
G02*
X212479000Y-149835000I900000J0D01*
G01*
%TO.C,Ky47*%
G36*
X199744000Y-122528000D02*
G01*
X199744000Y-121628000D01*
X198844000Y-122528000D01*
X199744000Y-122528000D01*
G37*
X199744000Y-122528000D02*
X199744000Y-121628000D01*
X198844000Y-122528000D01*
X199744000Y-122528000D01*
G36*
X199744000Y-117863000D02*
G01*
X198844000Y-117863000D01*
X199744000Y-118763000D01*
X199744000Y-117863000D01*
G37*
X199744000Y-117863000D02*
X198844000Y-117863000D01*
X199744000Y-118763000D01*
X199744000Y-117863000D01*
G36*
X196844000Y-117863000D02*
G01*
X196844000Y-118763000D01*
X197744000Y-117863000D01*
X196844000Y-117863000D01*
G37*
X196844000Y-117863000D02*
X196844000Y-118763000D01*
X197744000Y-117863000D01*
X196844000Y-117863000D01*
G36*
X196844000Y-122528000D02*
G01*
X197744000Y-122528000D01*
X196844000Y-121628000D01*
X196844000Y-122528000D01*
G37*
X196844000Y-122528000D02*
X197744000Y-122528000D01*
X196844000Y-121628000D01*
X196844000Y-122528000D01*
X199744000Y-122528000D02*
X196844000Y-122528000D01*
X199744000Y-117863000D02*
X199744000Y-122528000D01*
X196844000Y-117863000D02*
X199744000Y-117863000D01*
X196844000Y-122528000D02*
X196844000Y-117863000D01*
X199144000Y-119863000D02*
X199144000Y-120528000D01*
X197344000Y-120528000D02*
X197344000Y-119863000D01*
X197344000Y-119863000D02*
G75*
G02*
X199144000Y-119863000I900000J0D01*
G01*
X199144000Y-120528000D02*
G75*
G02*
X197344000Y-120528000I-900000J0D01*
G01*
%TO.C,Ky48*%
X203948000Y-120528000D02*
X203948000Y-119863000D01*
X205748000Y-119863000D02*
X205748000Y-120528000D01*
X203448000Y-122528000D02*
X203448000Y-117863000D01*
X203448000Y-117863000D02*
X206348000Y-117863000D01*
X206348000Y-117863000D02*
X206348000Y-122528000D01*
X206348000Y-122528000D02*
X203448000Y-122528000D01*
G36*
X203448000Y-122528000D02*
G01*
X204348000Y-122528000D01*
X203448000Y-121628000D01*
X203448000Y-122528000D01*
G37*
X203448000Y-122528000D02*
X204348000Y-122528000D01*
X203448000Y-121628000D01*
X203448000Y-122528000D01*
G36*
X203448000Y-117863000D02*
G01*
X203448000Y-118763000D01*
X204348000Y-117863000D01*
X203448000Y-117863000D01*
G37*
X203448000Y-117863000D02*
X203448000Y-118763000D01*
X204348000Y-117863000D01*
X203448000Y-117863000D01*
G36*
X206348000Y-117863000D02*
G01*
X205448000Y-117863000D01*
X206348000Y-118763000D01*
X206348000Y-117863000D01*
G37*
X206348000Y-117863000D02*
X205448000Y-117863000D01*
X206348000Y-118763000D01*
X206348000Y-117863000D01*
G36*
X206348000Y-122528000D02*
G01*
X206348000Y-121628000D01*
X205448000Y-122528000D01*
X206348000Y-122528000D01*
G37*
X206348000Y-122528000D02*
X206348000Y-121628000D01*
X205448000Y-122528000D01*
X206348000Y-122528000D01*
X205748000Y-120528000D02*
G75*
G02*
X203948000Y-120528000I-900000J0D01*
G01*
X203948000Y-119863000D02*
G75*
G02*
X205748000Y-119863000I900000J0D01*
G01*
%TO.C,Ky49*%
G36*
X153389000Y-160120000D02*
G01*
X153389000Y-159220000D01*
X152489000Y-160120000D01*
X153389000Y-160120000D01*
G37*
X153389000Y-160120000D02*
X153389000Y-159220000D01*
X152489000Y-160120000D01*
X153389000Y-160120000D01*
G36*
X153389000Y-155455000D02*
G01*
X152489000Y-155455000D01*
X153389000Y-156355000D01*
X153389000Y-155455000D01*
G37*
X153389000Y-155455000D02*
X152489000Y-155455000D01*
X153389000Y-156355000D01*
X153389000Y-155455000D01*
G36*
X150489000Y-155455000D02*
G01*
X150489000Y-156355000D01*
X151389000Y-155455000D01*
X150489000Y-155455000D01*
G37*
X150489000Y-155455000D02*
X150489000Y-156355000D01*
X151389000Y-155455000D01*
X150489000Y-155455000D01*
G36*
X150489000Y-160120000D02*
G01*
X151389000Y-160120000D01*
X150489000Y-159220000D01*
X150489000Y-160120000D01*
G37*
X150489000Y-160120000D02*
X151389000Y-160120000D01*
X150489000Y-159220000D01*
X150489000Y-160120000D01*
X153389000Y-160120000D02*
X150489000Y-160120000D01*
X153389000Y-155455000D02*
X153389000Y-160120000D01*
X150489000Y-155455000D02*
X153389000Y-155455000D01*
X150489000Y-160120000D02*
X150489000Y-155455000D01*
X152789000Y-157455000D02*
X152789000Y-158120000D01*
X150989000Y-158120000D02*
X150989000Y-157455000D01*
X150989000Y-157455000D02*
G75*
G02*
X152789000Y-157455000I900000J0D01*
G01*
X152789000Y-158120000D02*
G75*
G02*
X150989000Y-158120000I-900000J0D01*
G01*
%TO.C,Ky50*%
X157720000Y-158120000D02*
X157720000Y-157455000D01*
X159520000Y-157455000D02*
X159520000Y-158120000D01*
X157220000Y-160120000D02*
X157220000Y-155455000D01*
X157220000Y-155455000D02*
X160120000Y-155455000D01*
X160120000Y-155455000D02*
X160120000Y-160120000D01*
X160120000Y-160120000D02*
X157220000Y-160120000D01*
G36*
X157220000Y-160120000D02*
G01*
X158120000Y-160120000D01*
X157220000Y-159220000D01*
X157220000Y-160120000D01*
G37*
X157220000Y-160120000D02*
X158120000Y-160120000D01*
X157220000Y-159220000D01*
X157220000Y-160120000D01*
G36*
X157220000Y-155455000D02*
G01*
X157220000Y-156355000D01*
X158120000Y-155455000D01*
X157220000Y-155455000D01*
G37*
X157220000Y-155455000D02*
X157220000Y-156355000D01*
X158120000Y-155455000D01*
X157220000Y-155455000D01*
G36*
X160120000Y-155455000D02*
G01*
X159220000Y-155455000D01*
X160120000Y-156355000D01*
X160120000Y-155455000D01*
G37*
X160120000Y-155455000D02*
X159220000Y-155455000D01*
X160120000Y-156355000D01*
X160120000Y-155455000D01*
G36*
X160120000Y-160120000D02*
G01*
X160120000Y-159220000D01*
X159220000Y-160120000D01*
X160120000Y-160120000D01*
G37*
X160120000Y-160120000D02*
X160120000Y-159220000D01*
X159220000Y-160120000D01*
X160120000Y-160120000D01*
X159520000Y-158120000D02*
G75*
G02*
X157720000Y-158120000I-900000J0D01*
G01*
X157720000Y-157455000D02*
G75*
G02*
X159520000Y-157455000I900000J0D01*
G01*
%TO.C,Ky51*%
G36*
X166724000Y-160120000D02*
G01*
X166724000Y-159220000D01*
X165824000Y-160120000D01*
X166724000Y-160120000D01*
G37*
X166724000Y-160120000D02*
X166724000Y-159220000D01*
X165824000Y-160120000D01*
X166724000Y-160120000D01*
G36*
X166724000Y-155455000D02*
G01*
X165824000Y-155455000D01*
X166724000Y-156355000D01*
X166724000Y-155455000D01*
G37*
X166724000Y-155455000D02*
X165824000Y-155455000D01*
X166724000Y-156355000D01*
X166724000Y-155455000D01*
G36*
X163824000Y-155455000D02*
G01*
X163824000Y-156355000D01*
X164724000Y-155455000D01*
X163824000Y-155455000D01*
G37*
X163824000Y-155455000D02*
X163824000Y-156355000D01*
X164724000Y-155455000D01*
X163824000Y-155455000D01*
G36*
X163824000Y-160120000D02*
G01*
X164724000Y-160120000D01*
X163824000Y-159220000D01*
X163824000Y-160120000D01*
G37*
X163824000Y-160120000D02*
X164724000Y-160120000D01*
X163824000Y-159220000D01*
X163824000Y-160120000D01*
X166724000Y-160120000D02*
X163824000Y-160120000D01*
X166724000Y-155455000D02*
X166724000Y-160120000D01*
X163824000Y-155455000D02*
X166724000Y-155455000D01*
X163824000Y-160120000D02*
X163824000Y-155455000D01*
X166124000Y-157455000D02*
X166124000Y-158120000D01*
X164324000Y-158120000D02*
X164324000Y-157455000D01*
X164324000Y-157455000D02*
G75*
G02*
X166124000Y-157455000I900000J0D01*
G01*
X166124000Y-158120000D02*
G75*
G02*
X164324000Y-158120000I-900000J0D01*
G01*
%TO.C,Ky52*%
X177659000Y-158120000D02*
X177659000Y-157455000D01*
X179459000Y-157455000D02*
X179459000Y-158120000D01*
X177159000Y-160120000D02*
X177159000Y-155455000D01*
X177159000Y-155455000D02*
X180059000Y-155455000D01*
X180059000Y-155455000D02*
X180059000Y-160120000D01*
X180059000Y-160120000D02*
X177159000Y-160120000D01*
G36*
X177159000Y-160120000D02*
G01*
X178059000Y-160120000D01*
X177159000Y-159220000D01*
X177159000Y-160120000D01*
G37*
X177159000Y-160120000D02*
X178059000Y-160120000D01*
X177159000Y-159220000D01*
X177159000Y-160120000D01*
G36*
X177159000Y-155455000D02*
G01*
X177159000Y-156355000D01*
X178059000Y-155455000D01*
X177159000Y-155455000D01*
G37*
X177159000Y-155455000D02*
X177159000Y-156355000D01*
X178059000Y-155455000D01*
X177159000Y-155455000D01*
G36*
X180059000Y-155455000D02*
G01*
X179159000Y-155455000D01*
X180059000Y-156355000D01*
X180059000Y-155455000D01*
G37*
X180059000Y-155455000D02*
X179159000Y-155455000D01*
X180059000Y-156355000D01*
X180059000Y-155455000D01*
G36*
X180059000Y-160120000D02*
G01*
X180059000Y-159220000D01*
X179159000Y-160120000D01*
X180059000Y-160120000D01*
G37*
X180059000Y-160120000D02*
X180059000Y-159220000D01*
X179159000Y-160120000D01*
X180059000Y-160120000D01*
X179459000Y-158120000D02*
G75*
G02*
X177659000Y-158120000I-900000J0D01*
G01*
X177659000Y-157455000D02*
G75*
G02*
X179459000Y-157455000I900000J0D01*
G01*
%TO.C,Ky53*%
G36*
X186536000Y-160120000D02*
G01*
X186536000Y-159220000D01*
X185636000Y-160120000D01*
X186536000Y-160120000D01*
G37*
X186536000Y-160120000D02*
X186536000Y-159220000D01*
X185636000Y-160120000D01*
X186536000Y-160120000D01*
G36*
X186536000Y-155455000D02*
G01*
X185636000Y-155455000D01*
X186536000Y-156355000D01*
X186536000Y-155455000D01*
G37*
X186536000Y-155455000D02*
X185636000Y-155455000D01*
X186536000Y-156355000D01*
X186536000Y-155455000D01*
G36*
X183636000Y-155455000D02*
G01*
X183636000Y-156355000D01*
X184536000Y-155455000D01*
X183636000Y-155455000D01*
G37*
X183636000Y-155455000D02*
X183636000Y-156355000D01*
X184536000Y-155455000D01*
X183636000Y-155455000D01*
G36*
X183636000Y-160120000D02*
G01*
X184536000Y-160120000D01*
X183636000Y-159220000D01*
X183636000Y-160120000D01*
G37*
X183636000Y-160120000D02*
X184536000Y-160120000D01*
X183636000Y-159220000D01*
X183636000Y-160120000D01*
X186536000Y-160120000D02*
X183636000Y-160120000D01*
X186536000Y-155455000D02*
X186536000Y-160120000D01*
X183636000Y-155455000D02*
X186536000Y-155455000D01*
X183636000Y-160120000D02*
X183636000Y-155455000D01*
X185936000Y-157455000D02*
X185936000Y-158120000D01*
X184136000Y-158120000D02*
X184136000Y-157455000D01*
X184136000Y-157455000D02*
G75*
G02*
X185936000Y-157455000I900000J0D01*
G01*
X185936000Y-158120000D02*
G75*
G02*
X184136000Y-158120000I-900000J0D01*
G01*
%TO.C,Ky54*%
G36*
X193140000Y-160120000D02*
G01*
X193140000Y-159220000D01*
X192240000Y-160120000D01*
X193140000Y-160120000D01*
G37*
X193140000Y-160120000D02*
X193140000Y-159220000D01*
X192240000Y-160120000D01*
X193140000Y-160120000D01*
G36*
X193140000Y-155455000D02*
G01*
X192240000Y-155455000D01*
X193140000Y-156355000D01*
X193140000Y-155455000D01*
G37*
X193140000Y-155455000D02*
X192240000Y-155455000D01*
X193140000Y-156355000D01*
X193140000Y-155455000D01*
G36*
X190240000Y-155455000D02*
G01*
X190240000Y-156355000D01*
X191140000Y-155455000D01*
X190240000Y-155455000D01*
G37*
X190240000Y-155455000D02*
X190240000Y-156355000D01*
X191140000Y-155455000D01*
X190240000Y-155455000D01*
G36*
X190240000Y-160120000D02*
G01*
X191140000Y-160120000D01*
X190240000Y-159220000D01*
X190240000Y-160120000D01*
G37*
X190240000Y-160120000D02*
X191140000Y-160120000D01*
X190240000Y-159220000D01*
X190240000Y-160120000D01*
X193140000Y-160120000D02*
X190240000Y-160120000D01*
X193140000Y-155455000D02*
X193140000Y-160120000D01*
X190240000Y-155455000D02*
X193140000Y-155455000D01*
X190240000Y-160120000D02*
X190240000Y-155455000D01*
X192540000Y-157455000D02*
X192540000Y-158120000D01*
X190740000Y-158120000D02*
X190740000Y-157455000D01*
X190740000Y-157455000D02*
G75*
G02*
X192540000Y-157455000I900000J0D01*
G01*
X192540000Y-158120000D02*
G75*
G02*
X190740000Y-158120000I-900000J0D01*
G01*
%TO.C,Ky55*%
G36*
X206348000Y-160120000D02*
G01*
X206348000Y-159220000D01*
X205448000Y-160120000D01*
X206348000Y-160120000D01*
G37*
X206348000Y-160120000D02*
X206348000Y-159220000D01*
X205448000Y-160120000D01*
X206348000Y-160120000D01*
G36*
X206348000Y-155455000D02*
G01*
X205448000Y-155455000D01*
X206348000Y-156355000D01*
X206348000Y-155455000D01*
G37*
X206348000Y-155455000D02*
X205448000Y-155455000D01*
X206348000Y-156355000D01*
X206348000Y-155455000D01*
G36*
X203448000Y-155455000D02*
G01*
X203448000Y-156355000D01*
X204348000Y-155455000D01*
X203448000Y-155455000D01*
G37*
X203448000Y-155455000D02*
X203448000Y-156355000D01*
X204348000Y-155455000D01*
X203448000Y-155455000D01*
G36*
X203448000Y-160120000D02*
G01*
X204348000Y-160120000D01*
X203448000Y-159220000D01*
X203448000Y-160120000D01*
G37*
X203448000Y-160120000D02*
X204348000Y-160120000D01*
X203448000Y-159220000D01*
X203448000Y-160120000D01*
X206348000Y-160120000D02*
X203448000Y-160120000D01*
X206348000Y-155455000D02*
X206348000Y-160120000D01*
X203448000Y-155455000D02*
X206348000Y-155455000D01*
X203448000Y-160120000D02*
X203448000Y-155455000D01*
X205748000Y-157455000D02*
X205748000Y-158120000D01*
X203948000Y-158120000D02*
X203948000Y-157455000D01*
X203948000Y-157455000D02*
G75*
G02*
X205748000Y-157455000I900000J0D01*
G01*
X205748000Y-158120000D02*
G75*
G02*
X203948000Y-158120000I-900000J0D01*
G01*
%TO.C,Ky56*%
X210679000Y-158120000D02*
X210679000Y-157455000D01*
X212479000Y-157455000D02*
X212479000Y-158120000D01*
X210179000Y-160120000D02*
X210179000Y-155455000D01*
X210179000Y-155455000D02*
X213079000Y-155455000D01*
X213079000Y-155455000D02*
X213079000Y-160120000D01*
X213079000Y-160120000D02*
X210179000Y-160120000D01*
G36*
X210179000Y-160120000D02*
G01*
X211079000Y-160120000D01*
X210179000Y-159220000D01*
X210179000Y-160120000D01*
G37*
X210179000Y-160120000D02*
X211079000Y-160120000D01*
X210179000Y-159220000D01*
X210179000Y-160120000D01*
G36*
X210179000Y-155455000D02*
G01*
X210179000Y-156355000D01*
X211079000Y-155455000D01*
X210179000Y-155455000D01*
G37*
X210179000Y-155455000D02*
X210179000Y-156355000D01*
X211079000Y-155455000D01*
X210179000Y-155455000D01*
G36*
X213079000Y-155455000D02*
G01*
X212179000Y-155455000D01*
X213079000Y-156355000D01*
X213079000Y-155455000D01*
G37*
X213079000Y-155455000D02*
X212179000Y-155455000D01*
X213079000Y-156355000D01*
X213079000Y-155455000D01*
G36*
X213079000Y-160120000D02*
G01*
X213079000Y-159220000D01*
X212179000Y-160120000D01*
X213079000Y-160120000D01*
G37*
X213079000Y-160120000D02*
X213079000Y-159220000D01*
X212179000Y-160120000D01*
X213079000Y-160120000D01*
X212479000Y-158120000D02*
G75*
G02*
X210679000Y-158120000I-900000J0D01*
G01*
X210679000Y-157455000D02*
G75*
G02*
X212479000Y-157455000I900000J0D01*
G01*
%TO.C,Ky57*%
G36*
X212952000Y-122528000D02*
G01*
X212952000Y-121628000D01*
X212052000Y-122528000D01*
X212952000Y-122528000D01*
G37*
X212952000Y-122528000D02*
X212952000Y-121628000D01*
X212052000Y-122528000D01*
X212952000Y-122528000D01*
G36*
X212952000Y-117863000D02*
G01*
X212052000Y-117863000D01*
X212952000Y-118763000D01*
X212952000Y-117863000D01*
G37*
X212952000Y-117863000D02*
X212052000Y-117863000D01*
X212952000Y-118763000D01*
X212952000Y-117863000D01*
G36*
X210052000Y-117863000D02*
G01*
X210052000Y-118763000D01*
X210952000Y-117863000D01*
X210052000Y-117863000D01*
G37*
X210052000Y-117863000D02*
X210052000Y-118763000D01*
X210952000Y-117863000D01*
X210052000Y-117863000D01*
G36*
X210052000Y-122528000D02*
G01*
X210952000Y-122528000D01*
X210052000Y-121628000D01*
X210052000Y-122528000D01*
G37*
X210052000Y-122528000D02*
X210952000Y-122528000D01*
X210052000Y-121628000D01*
X210052000Y-122528000D01*
X212952000Y-122528000D02*
X210052000Y-122528000D01*
X212952000Y-117863000D02*
X212952000Y-122528000D01*
X210052000Y-117863000D02*
X212952000Y-117863000D01*
X210052000Y-122528000D02*
X210052000Y-117863000D01*
X212352000Y-119863000D02*
X212352000Y-120528000D01*
X210552000Y-120528000D02*
X210552000Y-119863000D01*
X210552000Y-119863000D02*
G75*
G02*
X212352000Y-119863000I900000J0D01*
G01*
X212352000Y-120528000D02*
G75*
G02*
X210552000Y-120528000I-900000J0D01*
G01*
%TO.C,Ky58*%
X151116000Y-120528000D02*
X151116000Y-119863000D01*
X152916000Y-119863000D02*
X152916000Y-120528000D01*
X150616000Y-122528000D02*
X150616000Y-117863000D01*
X150616000Y-117863000D02*
X153516000Y-117863000D01*
X153516000Y-117863000D02*
X153516000Y-122528000D01*
X153516000Y-122528000D02*
X150616000Y-122528000D01*
G36*
X150616000Y-122528000D02*
G01*
X151516000Y-122528000D01*
X150616000Y-121628000D01*
X150616000Y-122528000D01*
G37*
X150616000Y-122528000D02*
X151516000Y-122528000D01*
X150616000Y-121628000D01*
X150616000Y-122528000D01*
G36*
X150616000Y-117863000D02*
G01*
X150616000Y-118763000D01*
X151516000Y-117863000D01*
X150616000Y-117863000D01*
G37*
X150616000Y-117863000D02*
X150616000Y-118763000D01*
X151516000Y-117863000D01*
X150616000Y-117863000D01*
G36*
X153516000Y-117863000D02*
G01*
X152616000Y-117863000D01*
X153516000Y-118763000D01*
X153516000Y-117863000D01*
G37*
X153516000Y-117863000D02*
X152616000Y-117863000D01*
X153516000Y-118763000D01*
X153516000Y-117863000D01*
G36*
X153516000Y-122528000D02*
G01*
X153516000Y-121628000D01*
X152616000Y-122528000D01*
X153516000Y-122528000D01*
G37*
X153516000Y-122528000D02*
X153516000Y-121628000D01*
X152616000Y-122528000D01*
X153516000Y-122528000D01*
X152916000Y-120528000D02*
G75*
G02*
X151116000Y-120528000I-900000J0D01*
G01*
X151116000Y-119863000D02*
G75*
G02*
X152916000Y-119863000I900000J0D01*
G01*
%TO.C,Ky59*%
G36*
X160120000Y-122528000D02*
G01*
X160120000Y-121628000D01*
X159220000Y-122528000D01*
X160120000Y-122528000D01*
G37*
X160120000Y-122528000D02*
X160120000Y-121628000D01*
X159220000Y-122528000D01*
X160120000Y-122528000D01*
G36*
X160120000Y-117863000D02*
G01*
X159220000Y-117863000D01*
X160120000Y-118763000D01*
X160120000Y-117863000D01*
G37*
X160120000Y-117863000D02*
X159220000Y-117863000D01*
X160120000Y-118763000D01*
X160120000Y-117863000D01*
G36*
X157220000Y-117863000D02*
G01*
X157220000Y-118763000D01*
X158120000Y-117863000D01*
X157220000Y-117863000D01*
G37*
X157220000Y-117863000D02*
X157220000Y-118763000D01*
X158120000Y-117863000D01*
X157220000Y-117863000D01*
G36*
X157220000Y-122528000D02*
G01*
X158120000Y-122528000D01*
X157220000Y-121628000D01*
X157220000Y-122528000D01*
G37*
X157220000Y-122528000D02*
X158120000Y-122528000D01*
X157220000Y-121628000D01*
X157220000Y-122528000D01*
X160120000Y-122528000D02*
X157220000Y-122528000D01*
X160120000Y-117863000D02*
X160120000Y-122528000D01*
X157220000Y-117863000D02*
X160120000Y-117863000D01*
X157220000Y-122528000D02*
X157220000Y-117863000D01*
X159520000Y-119863000D02*
X159520000Y-120528000D01*
X157720000Y-120528000D02*
X157720000Y-119863000D01*
X157720000Y-119863000D02*
G75*
G02*
X159520000Y-119863000I900000J0D01*
G01*
X159520000Y-120528000D02*
G75*
G02*
X157720000Y-120528000I-900000J0D01*
G01*
%TO.C,Ky60*%
X164324000Y-120528000D02*
X164324000Y-119863000D01*
X166124000Y-119863000D02*
X166124000Y-120528000D01*
X163824000Y-122528000D02*
X163824000Y-117863000D01*
X163824000Y-117863000D02*
X166724000Y-117863000D01*
X166724000Y-117863000D02*
X166724000Y-122528000D01*
X166724000Y-122528000D02*
X163824000Y-122528000D01*
G36*
X163824000Y-122528000D02*
G01*
X164724000Y-122528000D01*
X163824000Y-121628000D01*
X163824000Y-122528000D01*
G37*
X163824000Y-122528000D02*
X164724000Y-122528000D01*
X163824000Y-121628000D01*
X163824000Y-122528000D01*
G36*
X163824000Y-117863000D02*
G01*
X163824000Y-118763000D01*
X164724000Y-117863000D01*
X163824000Y-117863000D01*
G37*
X163824000Y-117863000D02*
X163824000Y-118763000D01*
X164724000Y-117863000D01*
X163824000Y-117863000D01*
G36*
X166724000Y-117863000D02*
G01*
X165824000Y-117863000D01*
X166724000Y-118763000D01*
X166724000Y-117863000D01*
G37*
X166724000Y-117863000D02*
X165824000Y-117863000D01*
X166724000Y-118763000D01*
X166724000Y-117863000D01*
G36*
X166724000Y-122528000D02*
G01*
X166724000Y-121628000D01*
X165824000Y-122528000D01*
X166724000Y-122528000D01*
G37*
X166724000Y-122528000D02*
X166724000Y-121628000D01*
X165824000Y-122528000D01*
X166724000Y-122528000D01*
X166124000Y-120528000D02*
G75*
G02*
X164324000Y-120528000I-900000J0D01*
G01*
X164324000Y-119863000D02*
G75*
G02*
X166124000Y-119863000I900000J0D01*
G01*
%TO.C,Ky61*%
G36*
X173328000Y-122528000D02*
G01*
X173328000Y-121628000D01*
X172428000Y-122528000D01*
X173328000Y-122528000D01*
G37*
X173328000Y-122528000D02*
X173328000Y-121628000D01*
X172428000Y-122528000D01*
X173328000Y-122528000D01*
G36*
X173328000Y-117863000D02*
G01*
X172428000Y-117863000D01*
X173328000Y-118763000D01*
X173328000Y-117863000D01*
G37*
X173328000Y-117863000D02*
X172428000Y-117863000D01*
X173328000Y-118763000D01*
X173328000Y-117863000D01*
G36*
X170428000Y-117863000D02*
G01*
X170428000Y-118763000D01*
X171328000Y-117863000D01*
X170428000Y-117863000D01*
G37*
X170428000Y-117863000D02*
X170428000Y-118763000D01*
X171328000Y-117863000D01*
X170428000Y-117863000D01*
G36*
X170428000Y-122528000D02*
G01*
X171328000Y-122528000D01*
X170428000Y-121628000D01*
X170428000Y-122528000D01*
G37*
X170428000Y-122528000D02*
X171328000Y-122528000D01*
X170428000Y-121628000D01*
X170428000Y-122528000D01*
X173328000Y-122528000D02*
X170428000Y-122528000D01*
X173328000Y-117863000D02*
X173328000Y-122528000D01*
X170428000Y-117863000D02*
X173328000Y-117863000D01*
X170428000Y-122528000D02*
X170428000Y-117863000D01*
X172728000Y-119863000D02*
X172728000Y-120528000D01*
X170928000Y-120528000D02*
X170928000Y-119863000D01*
X170928000Y-119863000D02*
G75*
G02*
X172728000Y-119863000I900000J0D01*
G01*
X172728000Y-120528000D02*
G75*
G02*
X170928000Y-120528000I-900000J0D01*
G01*
%TO.C,Ky62*%
X177532000Y-120528000D02*
X177532000Y-119863000D01*
X179332000Y-119863000D02*
X179332000Y-120528000D01*
X177032000Y-122528000D02*
X177032000Y-117863000D01*
X177032000Y-117863000D02*
X179932000Y-117863000D01*
X179932000Y-117863000D02*
X179932000Y-122528000D01*
X179932000Y-122528000D02*
X177032000Y-122528000D01*
G36*
X177032000Y-122528000D02*
G01*
X177932000Y-122528000D01*
X177032000Y-121628000D01*
X177032000Y-122528000D01*
G37*
X177032000Y-122528000D02*
X177932000Y-122528000D01*
X177032000Y-121628000D01*
X177032000Y-122528000D01*
G36*
X177032000Y-117863000D02*
G01*
X177032000Y-118763000D01*
X177932000Y-117863000D01*
X177032000Y-117863000D01*
G37*
X177032000Y-117863000D02*
X177032000Y-118763000D01*
X177932000Y-117863000D01*
X177032000Y-117863000D01*
G36*
X179932000Y-117863000D02*
G01*
X179032000Y-117863000D01*
X179932000Y-118763000D01*
X179932000Y-117863000D01*
G37*
X179932000Y-117863000D02*
X179032000Y-117863000D01*
X179932000Y-118763000D01*
X179932000Y-117863000D01*
G36*
X179932000Y-122528000D02*
G01*
X179932000Y-121628000D01*
X179032000Y-122528000D01*
X179932000Y-122528000D01*
G37*
X179932000Y-122528000D02*
X179932000Y-121628000D01*
X179032000Y-122528000D01*
X179932000Y-122528000D01*
X179332000Y-120528000D02*
G75*
G02*
X177532000Y-120528000I-900000J0D01*
G01*
X177532000Y-119863000D02*
G75*
G02*
X179332000Y-119863000I900000J0D01*
G01*
%TO.C,SW101*%
G36*
X195680000Y-98398000D02*
G01*
X195680000Y-97498000D01*
X194780000Y-98398000D01*
X195680000Y-98398000D01*
G37*
X195680000Y-98398000D02*
X195680000Y-97498000D01*
X194780000Y-98398000D01*
X195680000Y-98398000D01*
G36*
X195680000Y-93733000D02*
G01*
X194780000Y-93733000D01*
X195680000Y-94633000D01*
X195680000Y-93733000D01*
G37*
X195680000Y-93733000D02*
X194780000Y-93733000D01*
X195680000Y-94633000D01*
X195680000Y-93733000D01*
G36*
X192780000Y-93733000D02*
G01*
X192780000Y-94633000D01*
X193680000Y-93733000D01*
X192780000Y-93733000D01*
G37*
X192780000Y-93733000D02*
X192780000Y-94633000D01*
X193680000Y-93733000D01*
X192780000Y-93733000D01*
G36*
X192780000Y-98398000D02*
G01*
X193680000Y-98398000D01*
X192780000Y-97498000D01*
X192780000Y-98398000D01*
G37*
X192780000Y-98398000D02*
X193680000Y-98398000D01*
X192780000Y-97498000D01*
X192780000Y-98398000D01*
X195680000Y-98398000D02*
X192780000Y-98398000D01*
X195680000Y-93733000D02*
X195680000Y-98398000D01*
X192780000Y-93733000D02*
X195680000Y-93733000D01*
X192780000Y-98398000D02*
X192780000Y-93733000D01*
X195080000Y-95733000D02*
X195080000Y-96398000D01*
X193280000Y-96398000D02*
X193280000Y-95733000D01*
X193280000Y-95733000D02*
G75*
G02*
X195080000Y-95733000I900000J0D01*
G01*
X195080000Y-96398000D02*
G75*
G02*
X193280000Y-96398000I-900000J0D01*
G01*
%TO.C,SW102*%
X154545000Y-106685000D02*
X154545000Y-106020000D01*
X156345000Y-106020000D02*
X156345000Y-106685000D01*
X154045000Y-108685000D02*
X154045000Y-104020000D01*
X154045000Y-104020000D02*
X156945000Y-104020000D01*
X156945000Y-104020000D02*
X156945000Y-108685000D01*
X156945000Y-108685000D02*
X154045000Y-108685000D01*
G36*
X154045000Y-108685000D02*
G01*
X154945000Y-108685000D01*
X154045000Y-107785000D01*
X154045000Y-108685000D01*
G37*
X154045000Y-108685000D02*
X154945000Y-108685000D01*
X154045000Y-107785000D01*
X154045000Y-108685000D01*
G36*
X154045000Y-104020000D02*
G01*
X154045000Y-104920000D01*
X154945000Y-104020000D01*
X154045000Y-104020000D01*
G37*
X154045000Y-104020000D02*
X154045000Y-104920000D01*
X154945000Y-104020000D01*
X154045000Y-104020000D01*
G36*
X156945000Y-104020000D02*
G01*
X156045000Y-104020000D01*
X156945000Y-104920000D01*
X156945000Y-104020000D01*
G37*
X156945000Y-104020000D02*
X156045000Y-104020000D01*
X156945000Y-104920000D01*
X156945000Y-104020000D01*
G36*
X156945000Y-108685000D02*
G01*
X156945000Y-107785000D01*
X156045000Y-108685000D01*
X156945000Y-108685000D01*
G37*
X156945000Y-108685000D02*
X156945000Y-107785000D01*
X156045000Y-108685000D01*
X156945000Y-108685000D01*
X156345000Y-106685000D02*
G75*
G02*
X154545000Y-106685000I-900000J0D01*
G01*
X154545000Y-106020000D02*
G75*
G02*
X156345000Y-106020000I900000J0D01*
G01*
%TO.C,SW103*%
G36*
X164565000Y-113765000D02*
G01*
X164565000Y-112865000D01*
X163665000Y-113765000D01*
X164565000Y-113765000D01*
G37*
X164565000Y-113765000D02*
X164565000Y-112865000D01*
X163665000Y-113765000D01*
X164565000Y-113765000D01*
G36*
X164565000Y-109100000D02*
G01*
X163665000Y-109100000D01*
X164565000Y-110000000D01*
X164565000Y-109100000D01*
G37*
X164565000Y-109100000D02*
X163665000Y-109100000D01*
X164565000Y-110000000D01*
X164565000Y-109100000D01*
G36*
X161665000Y-109100000D02*
G01*
X161665000Y-110000000D01*
X162565000Y-109100000D01*
X161665000Y-109100000D01*
G37*
X161665000Y-109100000D02*
X161665000Y-110000000D01*
X162565000Y-109100000D01*
X161665000Y-109100000D01*
G36*
X161665000Y-113765000D02*
G01*
X162565000Y-113765000D01*
X161665000Y-112865000D01*
X161665000Y-113765000D01*
G37*
X161665000Y-113765000D02*
X162565000Y-113765000D01*
X161665000Y-112865000D01*
X161665000Y-113765000D01*
X164565000Y-113765000D02*
X161665000Y-113765000D01*
X164565000Y-109100000D02*
X164565000Y-113765000D01*
X161665000Y-109100000D02*
X164565000Y-109100000D01*
X161665000Y-113765000D02*
X161665000Y-109100000D01*
X163965000Y-111100000D02*
X163965000Y-111765000D01*
X162165000Y-111765000D02*
X162165000Y-111100000D01*
X162165000Y-111100000D02*
G75*
G02*
X163965000Y-111100000I900000J0D01*
G01*
X163965000Y-111765000D02*
G75*
G02*
X162165000Y-111765000I-900000J0D01*
G01*
%TO.C,SW104*%
X169785000Y-106685000D02*
X169785000Y-106020000D01*
X171585000Y-106020000D02*
X171585000Y-106685000D01*
X169285000Y-108685000D02*
X169285000Y-104020000D01*
X169285000Y-104020000D02*
X172185000Y-104020000D01*
X172185000Y-104020000D02*
X172185000Y-108685000D01*
X172185000Y-108685000D02*
X169285000Y-108685000D01*
G36*
X169285000Y-108685000D02*
G01*
X170185000Y-108685000D01*
X169285000Y-107785000D01*
X169285000Y-108685000D01*
G37*
X169285000Y-108685000D02*
X170185000Y-108685000D01*
X169285000Y-107785000D01*
X169285000Y-108685000D01*
G36*
X169285000Y-104020000D02*
G01*
X169285000Y-104920000D01*
X170185000Y-104020000D01*
X169285000Y-104020000D01*
G37*
X169285000Y-104020000D02*
X169285000Y-104920000D01*
X170185000Y-104020000D01*
X169285000Y-104020000D01*
G36*
X172185000Y-104020000D02*
G01*
X171285000Y-104020000D01*
X172185000Y-104920000D01*
X172185000Y-104020000D01*
G37*
X172185000Y-104020000D02*
X171285000Y-104020000D01*
X172185000Y-104920000D01*
X172185000Y-104020000D01*
G36*
X172185000Y-108685000D02*
G01*
X172185000Y-107785000D01*
X171285000Y-108685000D01*
X172185000Y-108685000D01*
G37*
X172185000Y-108685000D02*
X172185000Y-107785000D01*
X171285000Y-108685000D01*
X172185000Y-108685000D01*
X171585000Y-106685000D02*
G75*
G02*
X169785000Y-106685000I-900000J0D01*
G01*
X169785000Y-106020000D02*
G75*
G02*
X171585000Y-106020000I900000J0D01*
G01*
%TO.C,SW105*%
X162165000Y-101605000D02*
X162165000Y-100940000D01*
X163965000Y-100940000D02*
X163965000Y-101605000D01*
X161665000Y-103605000D02*
X161665000Y-98940000D01*
X161665000Y-98940000D02*
X164565000Y-98940000D01*
X164565000Y-98940000D02*
X164565000Y-103605000D01*
X164565000Y-103605000D02*
X161665000Y-103605000D01*
G36*
X161665000Y-103605000D02*
G01*
X162565000Y-103605000D01*
X161665000Y-102705000D01*
X161665000Y-103605000D01*
G37*
X161665000Y-103605000D02*
X162565000Y-103605000D01*
X161665000Y-102705000D01*
X161665000Y-103605000D01*
G36*
X161665000Y-98940000D02*
G01*
X161665000Y-99840000D01*
X162565000Y-98940000D01*
X161665000Y-98940000D01*
G37*
X161665000Y-98940000D02*
X161665000Y-99840000D01*
X162565000Y-98940000D01*
X161665000Y-98940000D01*
G36*
X164565000Y-98940000D02*
G01*
X163665000Y-98940000D01*
X164565000Y-99840000D01*
X164565000Y-98940000D01*
G37*
X164565000Y-98940000D02*
X163665000Y-98940000D01*
X164565000Y-99840000D01*
X164565000Y-98940000D01*
G36*
X164565000Y-103605000D02*
G01*
X164565000Y-102705000D01*
X163665000Y-103605000D01*
X164565000Y-103605000D01*
G37*
X164565000Y-103605000D02*
X164565000Y-102705000D01*
X163665000Y-103605000D01*
X164565000Y-103605000D01*
X163965000Y-101605000D02*
G75*
G02*
X162165000Y-101605000I-900000J0D01*
G01*
X162165000Y-100940000D02*
G75*
G02*
X163965000Y-100940000I900000J0D01*
G01*
%TO.C,R102*%
D11*
X195999380Y-102441047D02*
X195523190Y-102774380D01*
X195999380Y-103012476D02*
X194999380Y-103012476D01*
X194999380Y-102631523D01*
X195047000Y-102536285D01*
X195094619Y-102488666D01*
X195189857Y-102441047D01*
X195332714Y-102441047D01*
X195427952Y-102488666D01*
X195475571Y-102536285D01*
X195523190Y-102631523D01*
X195523190Y-103012476D01*
X195999380Y-101488666D02*
X195999380Y-102060095D01*
X195999380Y-101774380D02*
X194999380Y-101774380D01*
X195142238Y-101869619D01*
X195237476Y-101964857D01*
X195285095Y-102060095D01*
X194999380Y-100869619D02*
X194999380Y-100774380D01*
X195047000Y-100679142D01*
X195094619Y-100631523D01*
X195189857Y-100583904D01*
X195380333Y-100536285D01*
X195618428Y-100536285D01*
X195808904Y-100583904D01*
X195904142Y-100631523D01*
X195951761Y-100679142D01*
X195999380Y-100774380D01*
X195999380Y-100869619D01*
X195951761Y-100964857D01*
X195904142Y-101012476D01*
X195808904Y-101060095D01*
X195618428Y-101107714D01*
X195380333Y-101107714D01*
X195189857Y-101060095D01*
X195094619Y-101012476D01*
X195047000Y-100964857D01*
X194999380Y-100869619D01*
X195094619Y-100155333D02*
X195047000Y-100107714D01*
X194999380Y-100012476D01*
X194999380Y-99774380D01*
X195047000Y-99679142D01*
X195094619Y-99631523D01*
X195189857Y-99583904D01*
X195285095Y-99583904D01*
X195427952Y-99631523D01*
X195999380Y-100202952D01*
X195999380Y-99583904D01*
%TO.C,R104*%
X165504952Y-97734380D02*
X165171619Y-97258190D01*
X164933523Y-97734380D02*
X164933523Y-96734380D01*
X165314476Y-96734380D01*
X165409714Y-96782000D01*
X165457333Y-96829619D01*
X165504952Y-96924857D01*
X165504952Y-97067714D01*
X165457333Y-97162952D01*
X165409714Y-97210571D01*
X165314476Y-97258190D01*
X164933523Y-97258190D01*
X166457333Y-97734380D02*
X165885904Y-97734380D01*
X166171619Y-97734380D02*
X166171619Y-96734380D01*
X166076380Y-96877238D01*
X165981142Y-96972476D01*
X165885904Y-97020095D01*
X167076380Y-96734380D02*
X167171619Y-96734380D01*
X167266857Y-96782000D01*
X167314476Y-96829619D01*
X167362095Y-96924857D01*
X167409714Y-97115333D01*
X167409714Y-97353428D01*
X167362095Y-97543904D01*
X167314476Y-97639142D01*
X167266857Y-97686761D01*
X167171619Y-97734380D01*
X167076380Y-97734380D01*
X166981142Y-97686761D01*
X166933523Y-97639142D01*
X166885904Y-97543904D01*
X166838285Y-97353428D01*
X166838285Y-97115333D01*
X166885904Y-96924857D01*
X166933523Y-96829619D01*
X166981142Y-96782000D01*
X167076380Y-96734380D01*
X168266857Y-97067714D02*
X168266857Y-97734380D01*
X168028761Y-96686761D02*
X167790666Y-97401047D01*
X168409714Y-97401047D01*
%TO.C,R110*%
X165758952Y-95194380D02*
X165425619Y-94718190D01*
X165187523Y-95194380D02*
X165187523Y-94194380D01*
X165568476Y-94194380D01*
X165663714Y-94242000D01*
X165711333Y-94289619D01*
X165758952Y-94384857D01*
X165758952Y-94527714D01*
X165711333Y-94622952D01*
X165663714Y-94670571D01*
X165568476Y-94718190D01*
X165187523Y-94718190D01*
X166711333Y-95194380D02*
X166139904Y-95194380D01*
X166425619Y-95194380D02*
X166425619Y-94194380D01*
X166330380Y-94337238D01*
X166235142Y-94432476D01*
X166139904Y-94480095D01*
X167663714Y-95194380D02*
X167092285Y-95194380D01*
X167378000Y-95194380D02*
X167378000Y-94194380D01*
X167282761Y-94337238D01*
X167187523Y-94432476D01*
X167092285Y-94480095D01*
X168282761Y-94194380D02*
X168378000Y-94194380D01*
X168473238Y-94242000D01*
X168520857Y-94289619D01*
X168568476Y-94384857D01*
X168616095Y-94575333D01*
X168616095Y-94813428D01*
X168568476Y-95003904D01*
X168520857Y-95099142D01*
X168473238Y-95146761D01*
X168378000Y-95194380D01*
X168282761Y-95194380D01*
X168187523Y-95146761D01*
X168139904Y-95099142D01*
X168092285Y-95003904D01*
X168044666Y-94813428D01*
X168044666Y-94575333D01*
X168092285Y-94384857D01*
X168139904Y-94289619D01*
X168187523Y-94242000D01*
X168282761Y-94194380D01*
%TO.C,U101*%
X156090314Y-86801180D02*
X156090314Y-87610704D01*
X156137933Y-87705942D01*
X156185552Y-87753561D01*
X156280790Y-87801180D01*
X156471266Y-87801180D01*
X156566504Y-87753561D01*
X156614123Y-87705942D01*
X156661742Y-87610704D01*
X156661742Y-86801180D01*
X157661742Y-87801180D02*
X157090314Y-87801180D01*
X157376028Y-87801180D02*
X157376028Y-86801180D01*
X157280790Y-86944038D01*
X157185552Y-87039276D01*
X157090314Y-87086895D01*
X158280790Y-86801180D02*
X158376028Y-86801180D01*
X158471266Y-86848800D01*
X158518885Y-86896419D01*
X158566504Y-86991657D01*
X158614123Y-87182133D01*
X158614123Y-87420228D01*
X158566504Y-87610704D01*
X158518885Y-87705942D01*
X158471266Y-87753561D01*
X158376028Y-87801180D01*
X158280790Y-87801180D01*
X158185552Y-87753561D01*
X158137933Y-87705942D01*
X158090314Y-87610704D01*
X158042695Y-87420228D01*
X158042695Y-87182133D01*
X158090314Y-86991657D01*
X158137933Y-86896419D01*
X158185552Y-86848800D01*
X158280790Y-86801180D01*
X159566504Y-87801180D02*
X158995076Y-87801180D01*
X159280790Y-87801180D02*
X159280790Y-86801180D01*
X159185552Y-86944038D01*
X159090314Y-87039276D01*
X158995076Y-87086895D01*
%TO.C,D101*%
X177837523Y-98877380D02*
X177837523Y-97877380D01*
X178075619Y-97877380D01*
X178218476Y-97925000D01*
X178313714Y-98020238D01*
X178361333Y-98115476D01*
X178408952Y-98305952D01*
X178408952Y-98448809D01*
X178361333Y-98639285D01*
X178313714Y-98734523D01*
X178218476Y-98829761D01*
X178075619Y-98877380D01*
X177837523Y-98877380D01*
X179361333Y-98877380D02*
X178789904Y-98877380D01*
X179075619Y-98877380D02*
X179075619Y-97877380D01*
X178980380Y-98020238D01*
X178885142Y-98115476D01*
X178789904Y-98163095D01*
X179980380Y-97877380D02*
X180075619Y-97877380D01*
X180170857Y-97925000D01*
X180218476Y-97972619D01*
X180266095Y-98067857D01*
X180313714Y-98258333D01*
X180313714Y-98496428D01*
X180266095Y-98686904D01*
X180218476Y-98782142D01*
X180170857Y-98829761D01*
X180075619Y-98877380D01*
X179980380Y-98877380D01*
X179885142Y-98829761D01*
X179837523Y-98782142D01*
X179789904Y-98686904D01*
X179742285Y-98496428D01*
X179742285Y-98258333D01*
X179789904Y-98067857D01*
X179837523Y-97972619D01*
X179885142Y-97925000D01*
X179980380Y-97877380D01*
X181266095Y-98877380D02*
X180694666Y-98877380D01*
X180980380Y-98877380D02*
X180980380Y-97877380D01*
X180885142Y-98020238D01*
X180789904Y-98115476D01*
X180694666Y-98163095D01*
%TO.C,D102*%
X177837523Y-101942380D02*
X177837523Y-100942380D01*
X178075619Y-100942380D01*
X178218476Y-100990000D01*
X178313714Y-101085238D01*
X178361333Y-101180476D01*
X178408952Y-101370952D01*
X178408952Y-101513809D01*
X178361333Y-101704285D01*
X178313714Y-101799523D01*
X178218476Y-101894761D01*
X178075619Y-101942380D01*
X177837523Y-101942380D01*
X179361333Y-101942380D02*
X178789904Y-101942380D01*
X179075619Y-101942380D02*
X179075619Y-100942380D01*
X178980380Y-101085238D01*
X178885142Y-101180476D01*
X178789904Y-101228095D01*
X179980380Y-100942380D02*
X180075619Y-100942380D01*
X180170857Y-100990000D01*
X180218476Y-101037619D01*
X180266095Y-101132857D01*
X180313714Y-101323333D01*
X180313714Y-101561428D01*
X180266095Y-101751904D01*
X180218476Y-101847142D01*
X180170857Y-101894761D01*
X180075619Y-101942380D01*
X179980380Y-101942380D01*
X179885142Y-101894761D01*
X179837523Y-101847142D01*
X179789904Y-101751904D01*
X179742285Y-101561428D01*
X179742285Y-101323333D01*
X179789904Y-101132857D01*
X179837523Y-101037619D01*
X179885142Y-100990000D01*
X179980380Y-100942380D01*
X180694666Y-101037619D02*
X180742285Y-100990000D01*
X180837523Y-100942380D01*
X181075619Y-100942380D01*
X181170857Y-100990000D01*
X181218476Y-101037619D01*
X181266095Y-101132857D01*
X181266095Y-101228095D01*
X181218476Y-101370952D01*
X180647047Y-101942380D01*
X181266095Y-101942380D01*
%TO.C,D103*%
X181647523Y-98877380D02*
X181647523Y-97877380D01*
X181885619Y-97877380D01*
X182028476Y-97925000D01*
X182123714Y-98020238D01*
X182171333Y-98115476D01*
X182218952Y-98305952D01*
X182218952Y-98448809D01*
X182171333Y-98639285D01*
X182123714Y-98734523D01*
X182028476Y-98829761D01*
X181885619Y-98877380D01*
X181647523Y-98877380D01*
X183171333Y-98877380D02*
X182599904Y-98877380D01*
X182885619Y-98877380D02*
X182885619Y-97877380D01*
X182790380Y-98020238D01*
X182695142Y-98115476D01*
X182599904Y-98163095D01*
X183790380Y-97877380D02*
X183885619Y-97877380D01*
X183980857Y-97925000D01*
X184028476Y-97972619D01*
X184076095Y-98067857D01*
X184123714Y-98258333D01*
X184123714Y-98496428D01*
X184076095Y-98686904D01*
X184028476Y-98782142D01*
X183980857Y-98829761D01*
X183885619Y-98877380D01*
X183790380Y-98877380D01*
X183695142Y-98829761D01*
X183647523Y-98782142D01*
X183599904Y-98686904D01*
X183552285Y-98496428D01*
X183552285Y-98258333D01*
X183599904Y-98067857D01*
X183647523Y-97972619D01*
X183695142Y-97925000D01*
X183790380Y-97877380D01*
X184457047Y-97877380D02*
X185076095Y-97877380D01*
X184742761Y-98258333D01*
X184885619Y-98258333D01*
X184980857Y-98305952D01*
X185028476Y-98353571D01*
X185076095Y-98448809D01*
X185076095Y-98686904D01*
X185028476Y-98782142D01*
X184980857Y-98829761D01*
X184885619Y-98877380D01*
X184599904Y-98877380D01*
X184504666Y-98829761D01*
X184457047Y-98782142D01*
%TO.C,D104*%
X181647523Y-101942380D02*
X181647523Y-100942380D01*
X181885619Y-100942380D01*
X182028476Y-100990000D01*
X182123714Y-101085238D01*
X182171333Y-101180476D01*
X182218952Y-101370952D01*
X182218952Y-101513809D01*
X182171333Y-101704285D01*
X182123714Y-101799523D01*
X182028476Y-101894761D01*
X181885619Y-101942380D01*
X181647523Y-101942380D01*
X183171333Y-101942380D02*
X182599904Y-101942380D01*
X182885619Y-101942380D02*
X182885619Y-100942380D01*
X182790380Y-101085238D01*
X182695142Y-101180476D01*
X182599904Y-101228095D01*
X183790380Y-100942380D02*
X183885619Y-100942380D01*
X183980857Y-100990000D01*
X184028476Y-101037619D01*
X184076095Y-101132857D01*
X184123714Y-101323333D01*
X184123714Y-101561428D01*
X184076095Y-101751904D01*
X184028476Y-101847142D01*
X183980857Y-101894761D01*
X183885619Y-101942380D01*
X183790380Y-101942380D01*
X183695142Y-101894761D01*
X183647523Y-101847142D01*
X183599904Y-101751904D01*
X183552285Y-101561428D01*
X183552285Y-101323333D01*
X183599904Y-101132857D01*
X183647523Y-101037619D01*
X183695142Y-100990000D01*
X183790380Y-100942380D01*
X184980857Y-101275714D02*
X184980857Y-101942380D01*
X184742761Y-100894761D02*
X184504666Y-101609047D01*
X185123714Y-101609047D01*
%TO.C,R14*%
X178837142Y-106407380D02*
X178503809Y-105931190D01*
X178265714Y-106407380D02*
X178265714Y-105407380D01*
X178646666Y-105407380D01*
X178741904Y-105455000D01*
X178789523Y-105502619D01*
X178837142Y-105597857D01*
X178837142Y-105740714D01*
X178789523Y-105835952D01*
X178741904Y-105883571D01*
X178646666Y-105931190D01*
X178265714Y-105931190D01*
X179789523Y-106407380D02*
X179218095Y-106407380D01*
X179503809Y-106407380D02*
X179503809Y-105407380D01*
X179408571Y-105550238D01*
X179313333Y-105645476D01*
X179218095Y-105693095D01*
X180646666Y-105740714D02*
X180646666Y-106407380D01*
X180408571Y-105359761D02*
X180170476Y-106074047D01*
X180789523Y-106074047D01*
%TO.C,R15*%
X183287142Y-106457380D02*
X182953809Y-105981190D01*
X182715714Y-106457380D02*
X182715714Y-105457380D01*
X183096666Y-105457380D01*
X183191904Y-105505000D01*
X183239523Y-105552619D01*
X183287142Y-105647857D01*
X183287142Y-105790714D01*
X183239523Y-105885952D01*
X183191904Y-105933571D01*
X183096666Y-105981190D01*
X182715714Y-105981190D01*
X184239523Y-106457380D02*
X183668095Y-106457380D01*
X183953809Y-106457380D02*
X183953809Y-105457380D01*
X183858571Y-105600238D01*
X183763333Y-105695476D01*
X183668095Y-105743095D01*
X185144285Y-105457380D02*
X184668095Y-105457380D01*
X184620476Y-105933571D01*
X184668095Y-105885952D01*
X184763333Y-105838333D01*
X185001428Y-105838333D01*
X185096666Y-105885952D01*
X185144285Y-105933571D01*
X185191904Y-106028809D01*
X185191904Y-106266904D01*
X185144285Y-106362142D01*
X185096666Y-106409761D01*
X185001428Y-106457380D01*
X184763333Y-106457380D01*
X184668095Y-106409761D01*
X184620476Y-106362142D01*
%TO.C,R116*%
X178360952Y-112212379D02*
X178027619Y-111736189D01*
X177789523Y-112212379D02*
X177789523Y-111212379D01*
X178170476Y-111212379D01*
X178265714Y-111259999D01*
X178313333Y-111307618D01*
X178360952Y-111402856D01*
X178360952Y-111545713D01*
X178313333Y-111640951D01*
X178265714Y-111688570D01*
X178170476Y-111736189D01*
X177789523Y-111736189D01*
X179313333Y-112212379D02*
X178741904Y-112212379D01*
X179027619Y-112212379D02*
X179027619Y-111212379D01*
X178932380Y-111355237D01*
X178837142Y-111450475D01*
X178741904Y-111498094D01*
X180265714Y-112212379D02*
X179694285Y-112212379D01*
X179980000Y-112212379D02*
X179980000Y-111212379D01*
X179884761Y-111355237D01*
X179789523Y-111450475D01*
X179694285Y-111498094D01*
X181122857Y-111212379D02*
X180932380Y-111212379D01*
X180837142Y-111259999D01*
X180789523Y-111307618D01*
X180694285Y-111450475D01*
X180646666Y-111640951D01*
X180646666Y-112021903D01*
X180694285Y-112117141D01*
X180741904Y-112164760D01*
X180837142Y-112212379D01*
X181027619Y-112212379D01*
X181122857Y-112164760D01*
X181170476Y-112117141D01*
X181218095Y-112021903D01*
X181218095Y-111783808D01*
X181170476Y-111688570D01*
X181122857Y-111640951D01*
X181027619Y-111593332D01*
X180837142Y-111593332D01*
X180741904Y-111640951D01*
X180694285Y-111688570D01*
X180646666Y-111783808D01*
%TO.C,R117*%
X182710952Y-112212379D02*
X182377619Y-111736189D01*
X182139523Y-112212379D02*
X182139523Y-111212379D01*
X182520476Y-111212379D01*
X182615714Y-111259999D01*
X182663333Y-111307618D01*
X182710952Y-111402856D01*
X182710952Y-111545713D01*
X182663333Y-111640951D01*
X182615714Y-111688570D01*
X182520476Y-111736189D01*
X182139523Y-111736189D01*
X183663333Y-112212379D02*
X183091904Y-112212379D01*
X183377619Y-112212379D02*
X183377619Y-111212379D01*
X183282380Y-111355237D01*
X183187142Y-111450475D01*
X183091904Y-111498094D01*
X184615714Y-112212379D02*
X184044285Y-112212379D01*
X184330000Y-112212379D02*
X184330000Y-111212379D01*
X184234761Y-111355237D01*
X184139523Y-111450475D01*
X184044285Y-111498094D01*
X184949047Y-111212379D02*
X185615714Y-111212379D01*
X185187142Y-112212379D01*
%TO.C,Ky1*%
X151387142Y-124613142D02*
X150872857Y-124613142D01*
X151130000Y-124613142D02*
X151130000Y-123713142D01*
X151044285Y-123841714D01*
X150958571Y-123927428D01*
X150872857Y-123970285D01*
%TO.C,Ky2*%
X157476857Y-123798857D02*
X157519714Y-123756000D01*
X157605428Y-123713142D01*
X157819714Y-123713142D01*
X157905428Y-123756000D01*
X157948285Y-123798857D01*
X157991142Y-123884571D01*
X157991142Y-123970285D01*
X157948285Y-124098857D01*
X157434000Y-124613142D01*
X157991142Y-124613142D01*
%TO.C,Ky3*%
X164038000Y-123713142D02*
X164595142Y-123713142D01*
X164295142Y-124056000D01*
X164423714Y-124056000D01*
X164509428Y-124098857D01*
X164552285Y-124141714D01*
X164595142Y-124227428D01*
X164595142Y-124441714D01*
X164552285Y-124527428D01*
X164509428Y-124570285D01*
X164423714Y-124613142D01*
X164166571Y-124613142D01*
X164080857Y-124570285D01*
X164038000Y-124527428D01*
%TO.C,Ky4*%
X170859428Y-124013142D02*
X170859428Y-124613142D01*
X170645142Y-123670285D02*
X170430857Y-124313142D01*
X170988000Y-124313142D01*
%TO.C,Ky5*%
X177760285Y-123713142D02*
X177331714Y-123713142D01*
X177288857Y-124141714D01*
X177331714Y-124098857D01*
X177417428Y-124056000D01*
X177631714Y-124056000D01*
X177717428Y-124098857D01*
X177760285Y-124141714D01*
X177803142Y-124227428D01*
X177803142Y-124441714D01*
X177760285Y-124527428D01*
X177717428Y-124570285D01*
X177631714Y-124613142D01*
X177417428Y-124613142D01*
X177331714Y-124570285D01*
X177288857Y-124527428D01*
%TO.C,Ky6*%
X184321428Y-123713142D02*
X184150000Y-123713142D01*
X184064285Y-123756000D01*
X184021428Y-123798857D01*
X183935714Y-123927428D01*
X183892857Y-124098857D01*
X183892857Y-124441714D01*
X183935714Y-124527428D01*
X183978571Y-124570285D01*
X184064285Y-124613142D01*
X184235714Y-124613142D01*
X184321428Y-124570285D01*
X184364285Y-124527428D01*
X184407142Y-124441714D01*
X184407142Y-124227428D01*
X184364285Y-124141714D01*
X184321428Y-124098857D01*
X184235714Y-124056000D01*
X184064285Y-124056000D01*
X183978571Y-124098857D01*
X183935714Y-124141714D01*
X183892857Y-124227428D01*
%TO.C,Ky7*%
X190454000Y-123713142D02*
X191054000Y-123713142D01*
X190668285Y-124613142D01*
%TO.C,Ky8*%
X197272285Y-124098857D02*
X197186571Y-124056000D01*
X197143714Y-124013142D01*
X197100857Y-123927428D01*
X197100857Y-123884571D01*
X197143714Y-123798857D01*
X197186571Y-123756000D01*
X197272285Y-123713142D01*
X197443714Y-123713142D01*
X197529428Y-123756000D01*
X197572285Y-123798857D01*
X197615142Y-123884571D01*
X197615142Y-123927428D01*
X197572285Y-124013142D01*
X197529428Y-124056000D01*
X197443714Y-124098857D01*
X197272285Y-124098857D01*
X197186571Y-124141714D01*
X197143714Y-124184571D01*
X197100857Y-124270285D01*
X197100857Y-124441714D01*
X197143714Y-124527428D01*
X197186571Y-124570285D01*
X197272285Y-124613142D01*
X197443714Y-124613142D01*
X197529428Y-124570285D01*
X197572285Y-124527428D01*
X197615142Y-124441714D01*
X197615142Y-124270285D01*
X197572285Y-124184571D01*
X197529428Y-124141714D01*
X197443714Y-124098857D01*
%TO.C,Ky9*%
X203790571Y-124613142D02*
X203962000Y-124613142D01*
X204047714Y-124570285D01*
X204090571Y-124527428D01*
X204176285Y-124398857D01*
X204219142Y-124227428D01*
X204219142Y-123884571D01*
X204176285Y-123798857D01*
X204133428Y-123756000D01*
X204047714Y-123713142D01*
X203876285Y-123713142D01*
X203790571Y-123756000D01*
X203747714Y-123798857D01*
X203704857Y-123884571D01*
X203704857Y-124098857D01*
X203747714Y-124184571D01*
X203790571Y-124227428D01*
X203876285Y-124270285D01*
X204047714Y-124270285D01*
X204133428Y-124227428D01*
X204176285Y-124184571D01*
X204219142Y-124098857D01*
%TO.C,Ky10*%
X210523142Y-123713142D02*
X210608857Y-123713142D01*
X210694571Y-123756000D01*
X210737428Y-123798857D01*
X210780285Y-123884571D01*
X210823142Y-124056000D01*
X210823142Y-124270285D01*
X210780285Y-124441714D01*
X210737428Y-124527428D01*
X210694571Y-124570285D01*
X210608857Y-124613142D01*
X210523142Y-124613142D01*
X210437428Y-124570285D01*
X210394571Y-124527428D01*
X210351714Y-124441714D01*
X210308857Y-124270285D01*
X210308857Y-124056000D01*
X210351714Y-123884571D01*
X210394571Y-123798857D01*
X210437428Y-123756000D01*
X210523142Y-123713142D01*
%TO.C,Ky13*%
X151472857Y-132318857D02*
X151387142Y-132276000D01*
X151301428Y-132190285D01*
X151172857Y-132061714D01*
X151087142Y-132018857D01*
X151001428Y-132018857D01*
X151044285Y-132233142D02*
X150958571Y-132190285D01*
X150872857Y-132104571D01*
X150830000Y-131933142D01*
X150830000Y-131633142D01*
X150872857Y-131461714D01*
X150958571Y-131376000D01*
X151044285Y-131333142D01*
X151215714Y-131333142D01*
X151301428Y-131376000D01*
X151387142Y-131461714D01*
X151430000Y-131633142D01*
X151430000Y-131933142D01*
X151387142Y-132104571D01*
X151301428Y-132190285D01*
X151215714Y-132233142D01*
X151044285Y-132233142D01*
%TO.C,Ky14*%
X157348285Y-131333142D02*
X157562571Y-132233142D01*
X157734000Y-131590285D01*
X157905428Y-132233142D01*
X158119714Y-131333142D01*
%TO.C,Ky15*%
X164145142Y-131761714D02*
X164445142Y-131761714D01*
X164573714Y-132233142D02*
X164145142Y-132233142D01*
X164145142Y-131333142D01*
X164573714Y-131333142D01*
%TO.C,Ky16*%
X171220571Y-132233142D02*
X170920571Y-131804571D01*
X170706285Y-132233142D02*
X170706285Y-131333142D01*
X171049142Y-131333142D01*
X171134857Y-131376000D01*
X171177714Y-131418857D01*
X171220571Y-131504571D01*
X171220571Y-131633142D01*
X171177714Y-131718857D01*
X171134857Y-131761714D01*
X171049142Y-131804571D01*
X170706285Y-131804571D01*
%TO.C,Ky17*%
X177288857Y-131333142D02*
X177803142Y-131333142D01*
X177546000Y-132233142D02*
X177546000Y-131333142D01*
%TO.C,Ky18*%
X184150000Y-131804571D02*
X184150000Y-132233142D01*
X183850000Y-131333142D02*
X184150000Y-131804571D01*
X184450000Y-131333142D01*
%TO.C,Ky19*%
X190496857Y-131333142D02*
X190496857Y-132061714D01*
X190539714Y-132147428D01*
X190582571Y-132190285D01*
X190668285Y-132233142D01*
X190839714Y-132233142D01*
X190925428Y-132190285D01*
X190968285Y-132147428D01*
X191011142Y-132061714D01*
X191011142Y-131333142D01*
%TO.C,Ky20*%
X197739000Y-132233142D02*
X197739000Y-131333142D01*
%TO.C,Ky21*%
X203876285Y-131333142D02*
X204047714Y-131333142D01*
X204133428Y-131376000D01*
X204219142Y-131461714D01*
X204262000Y-131633142D01*
X204262000Y-131933142D01*
X204219142Y-132104571D01*
X204133428Y-132190285D01*
X204047714Y-132233142D01*
X203876285Y-132233142D01*
X203790571Y-132190285D01*
X203704857Y-132104571D01*
X203662000Y-131933142D01*
X203662000Y-131633142D01*
X203704857Y-131461714D01*
X203790571Y-131376000D01*
X203876285Y-131333142D01*
%TO.C,Ky22*%
X210584285Y-132233142D02*
X210584285Y-131333142D01*
X210927142Y-131333142D01*
X211012857Y-131376000D01*
X211055714Y-131418857D01*
X211098571Y-131504571D01*
X211098571Y-131633142D01*
X211055714Y-131718857D01*
X211012857Y-131761714D01*
X210927142Y-131804571D01*
X210584285Y-131804571D01*
%TO.C,Ky25*%
X150915714Y-139596000D02*
X151344285Y-139596000D01*
X150830000Y-139853142D02*
X151130000Y-138953142D01*
X151430000Y-139853142D01*
%TO.C,Ky26*%
X157476857Y-139810285D02*
X157605428Y-139853142D01*
X157819714Y-139853142D01*
X157905428Y-139810285D01*
X157948285Y-139767428D01*
X157991142Y-139681714D01*
X157991142Y-139596000D01*
X157948285Y-139510285D01*
X157905428Y-139467428D01*
X157819714Y-139424571D01*
X157648285Y-139381714D01*
X157562571Y-139338857D01*
X157519714Y-139296000D01*
X157476857Y-139210285D01*
X157476857Y-139124571D01*
X157519714Y-139038857D01*
X157562571Y-138996000D01*
X157648285Y-138953142D01*
X157862571Y-138953142D01*
X157991142Y-138996000D01*
%TO.C,Ky27*%
X164102285Y-139853142D02*
X164102285Y-138953142D01*
X164316571Y-138953142D01*
X164445142Y-138996000D01*
X164530857Y-139081714D01*
X164573714Y-139167428D01*
X164616571Y-139338857D01*
X164616571Y-139467428D01*
X164573714Y-139638857D01*
X164530857Y-139724571D01*
X164445142Y-139810285D01*
X164316571Y-139853142D01*
X164102285Y-139853142D01*
%TO.C,Ky28*%
X171070571Y-139381714D02*
X170770571Y-139381714D01*
X170770571Y-139853142D02*
X170770571Y-138953142D01*
X171199142Y-138953142D01*
%TO.C,Ky29*%
X177781714Y-138996000D02*
X177696000Y-138953142D01*
X177567428Y-138953142D01*
X177438857Y-138996000D01*
X177353142Y-139081714D01*
X177310285Y-139167428D01*
X177267428Y-139338857D01*
X177267428Y-139467428D01*
X177310285Y-139638857D01*
X177353142Y-139724571D01*
X177438857Y-139810285D01*
X177567428Y-139853142D01*
X177653142Y-139853142D01*
X177781714Y-139810285D01*
X177824571Y-139767428D01*
X177824571Y-139467428D01*
X177653142Y-139467428D01*
%TO.C,Ky30*%
X183892857Y-139853142D02*
X183892857Y-138953142D01*
X183892857Y-139381714D02*
X184407142Y-139381714D01*
X184407142Y-139853142D02*
X184407142Y-138953142D01*
%TO.C,Ky31*%
X190882571Y-138953142D02*
X190882571Y-139596000D01*
X190839714Y-139724571D01*
X190754000Y-139810285D01*
X190625428Y-139853142D01*
X190539714Y-139853142D01*
%TO.C,Ky32*%
X197376285Y-139853142D02*
X197376285Y-138953142D01*
X197890571Y-139853142D02*
X197504857Y-139338857D01*
X197890571Y-138953142D02*
X197376285Y-139467428D01*
%TO.C,Ky33*%
X204494571Y-139853142D02*
X204066000Y-139853142D01*
X204066000Y-138953142D01*
%TO.C,Ky34*%
X210842373Y-139389757D02*
X210954859Y-139427252D01*
X210992355Y-139464747D01*
X211029850Y-139539738D01*
X211029850Y-139652224D01*
X210992355Y-139727215D01*
X210954859Y-139764710D01*
X210879869Y-139802205D01*
X210579906Y-139802205D01*
X210579906Y-139014803D01*
X210842373Y-139014803D01*
X210917364Y-139052299D01*
X210954859Y-139089794D01*
X210992355Y-139164785D01*
X210992355Y-139239775D01*
X210954859Y-139314766D01*
X210917364Y-139352261D01*
X210842373Y-139389757D01*
X210579906Y-139389757D01*
X211367308Y-139802205D02*
X211367308Y-139014803D01*
X211442299Y-139502243D02*
X211667271Y-139802205D01*
X211667271Y-139277271D02*
X211367308Y-139577233D01*
X211967233Y-139764710D02*
X212079719Y-139802205D01*
X212267196Y-139802205D01*
X212342187Y-139764710D01*
X212379682Y-139727215D01*
X212417177Y-139652224D01*
X212417177Y-139577233D01*
X212379682Y-139502243D01*
X212342187Y-139464747D01*
X212267196Y-139427252D01*
X212117215Y-139389757D01*
X212042224Y-139352261D01*
X212004729Y-139314766D01*
X211967233Y-139239775D01*
X211967233Y-139164785D01*
X212004729Y-139089794D01*
X212042224Y-139052299D01*
X212117215Y-139014803D01*
X212304691Y-139014803D01*
X212417177Y-139052299D01*
X212754635Y-139277271D02*
X212754635Y-140064673D01*
X212754635Y-139314766D02*
X212829626Y-139277271D01*
X212979607Y-139277271D01*
X213054598Y-139314766D01*
X213092093Y-139352261D01*
X213129589Y-139427252D01*
X213129589Y-139652224D01*
X213092093Y-139727215D01*
X213054598Y-139764710D01*
X212979607Y-139802205D01*
X212829626Y-139802205D01*
X212754635Y-139764710D01*
%TO.C,Ky35*%
X183850000Y-117029714D02*
X183550000Y-117029714D01*
X183550000Y-117501142D02*
X183550000Y-116601142D01*
X183978571Y-116601142D01*
X184750000Y-116601142D02*
X184321428Y-116601142D01*
X184278571Y-117029714D01*
X184321428Y-116986857D01*
X184407142Y-116944000D01*
X184621428Y-116944000D01*
X184707142Y-116986857D01*
X184750000Y-117029714D01*
X184792857Y-117115428D01*
X184792857Y-117329714D01*
X184750000Y-117415428D01*
X184707142Y-117458285D01*
X184621428Y-117501142D01*
X184407142Y-117501142D01*
X184321428Y-117458285D01*
X184278571Y-117415428D01*
%TO.C,Ky36*%
X190454000Y-117029714D02*
X190154000Y-117029714D01*
X190154000Y-117501142D02*
X190154000Y-116601142D01*
X190582571Y-116601142D01*
X191311142Y-116601142D02*
X191139714Y-116601142D01*
X191054000Y-116644000D01*
X191011142Y-116686857D01*
X190925428Y-116815428D01*
X190882571Y-116986857D01*
X190882571Y-117329714D01*
X190925428Y-117415428D01*
X190968285Y-117458285D01*
X191054000Y-117501142D01*
X191225428Y-117501142D01*
X191311142Y-117458285D01*
X191354000Y-117415428D01*
X191396857Y-117329714D01*
X191396857Y-117115428D01*
X191354000Y-117029714D01*
X191311142Y-116986857D01*
X191225428Y-116944000D01*
X191054000Y-116944000D01*
X190968285Y-116986857D01*
X190925428Y-117029714D01*
X190882571Y-117115428D01*
%TO.C,Ky37*%
X150954616Y-146634803D02*
X151404560Y-146634803D01*
X151179588Y-147422205D02*
X151179588Y-146634803D01*
X152004486Y-147422205D02*
X152004486Y-147009757D01*
X151966990Y-146934766D01*
X151892000Y-146897271D01*
X151742018Y-146897271D01*
X151667028Y-146934766D01*
X152004486Y-147384710D02*
X151929495Y-147422205D01*
X151742018Y-147422205D01*
X151667028Y-147384710D01*
X151629532Y-147309719D01*
X151629532Y-147234729D01*
X151667028Y-147159738D01*
X151742018Y-147122243D01*
X151929495Y-147122243D01*
X152004486Y-147084747D01*
X152379439Y-147422205D02*
X152379439Y-146634803D01*
X152379439Y-146934766D02*
X152454430Y-146897271D01*
X152604411Y-146897271D01*
X152679402Y-146934766D01*
X152716897Y-146972261D01*
X152754392Y-147047252D01*
X152754392Y-147272224D01*
X152716897Y-147347215D01*
X152679402Y-147384710D01*
X152604411Y-147422205D01*
X152454430Y-147422205D01*
X152379439Y-147384710D01*
%TO.C,Ky38*%
X157434000Y-146573142D02*
X158034000Y-146573142D01*
X157434000Y-147473142D01*
X158034000Y-147473142D01*
%TO.C,Ky39*%
X164038000Y-146573142D02*
X164638000Y-147473142D01*
X164638000Y-146573142D02*
X164038000Y-147473142D01*
%TO.C,Ky40*%
X171220571Y-147387428D02*
X171177714Y-147430285D01*
X171049142Y-147473142D01*
X170963428Y-147473142D01*
X170834857Y-147430285D01*
X170749142Y-147344571D01*
X170706285Y-147258857D01*
X170663428Y-147087428D01*
X170663428Y-146958857D01*
X170706285Y-146787428D01*
X170749142Y-146701714D01*
X170834857Y-146616000D01*
X170963428Y-146573142D01*
X171049142Y-146573142D01*
X171177714Y-146616000D01*
X171220571Y-146658857D01*
%TO.C,Ky41*%
X177246000Y-146573142D02*
X177546000Y-147473142D01*
X177846000Y-146573142D01*
%TO.C,Ky42*%
X184468285Y-147001714D02*
X184596857Y-147044571D01*
X184639714Y-147087428D01*
X184682571Y-147173142D01*
X184682571Y-147301714D01*
X184639714Y-147387428D01*
X184596857Y-147430285D01*
X184511142Y-147473142D01*
X184168285Y-147473142D01*
X184168285Y-146573142D01*
X184468285Y-146573142D01*
X184554000Y-146616000D01*
X184596857Y-146658857D01*
X184639714Y-146744571D01*
X184639714Y-146830285D01*
X184596857Y-146916000D01*
X184554000Y-146958857D01*
X184468285Y-147001714D01*
X184168285Y-147001714D01*
%TO.C,Ky43*%
X190750857Y-147473142D02*
X190750857Y-146573142D01*
X191265142Y-147473142D01*
X191265142Y-146573142D01*
%TO.C,Ky44*%
X197312000Y-147473142D02*
X197312000Y-146573142D01*
X197612000Y-147216000D01*
X197912000Y-146573142D01*
X197912000Y-147473142D01*
%TO.C,Ky46*%
X211169551Y-147422205D02*
X210907084Y-147047252D01*
X210719607Y-147422205D02*
X210719607Y-146634803D01*
X211019570Y-146634803D01*
X211094560Y-146672299D01*
X211132056Y-146709794D01*
X211169551Y-146784785D01*
X211169551Y-146897271D01*
X211132056Y-146972261D01*
X211094560Y-147009757D01*
X211019570Y-147047252D01*
X210719607Y-147047252D01*
X211507009Y-147009757D02*
X211769476Y-147009757D01*
X211881962Y-147422205D02*
X211507009Y-147422205D01*
X211507009Y-146634803D01*
X211881962Y-146634803D01*
X212106934Y-146634803D02*
X212556878Y-146634803D01*
X212331906Y-147422205D02*
X212331906Y-146634803D01*
%TO.C,Ky47*%
X197312000Y-117029714D02*
X197012000Y-117029714D01*
X197012000Y-117501142D02*
X197012000Y-116601142D01*
X197440571Y-116601142D01*
X197697714Y-116601142D02*
X198297714Y-116601142D01*
X197912000Y-117501142D01*
%TO.C,Ky49*%
X151123345Y-154967215D02*
X151085850Y-155004710D01*
X150973364Y-155042205D01*
X150898373Y-155042205D01*
X150785887Y-155004710D01*
X150710897Y-154929719D01*
X150673401Y-154854729D01*
X150635906Y-154704747D01*
X150635906Y-154592261D01*
X150673401Y-154442280D01*
X150710897Y-154367289D01*
X150785887Y-154292299D01*
X150898373Y-154254803D01*
X150973364Y-154254803D01*
X151085850Y-154292299D01*
X151123345Y-154329794D01*
X151348317Y-154254803D02*
X151798261Y-154254803D01*
X151573289Y-155042205D02*
X151573289Y-154254803D01*
X152510673Y-155042205D02*
X152248205Y-154667252D01*
X152060729Y-155042205D02*
X152060729Y-154254803D01*
X152360691Y-154254803D01*
X152435682Y-154292299D01*
X152473177Y-154329794D01*
X152510673Y-154404785D01*
X152510673Y-154517271D01*
X152473177Y-154592261D01*
X152435682Y-154629757D01*
X152360691Y-154667252D01*
X152060729Y-154667252D01*
X153223084Y-155042205D02*
X152848131Y-155042205D01*
X152848131Y-154254803D01*
%TO.C,Ky50*%
X157371140Y-155042205D02*
X156996186Y-155042205D01*
X156996186Y-154254803D01*
X157596112Y-155004710D02*
X157708598Y-155042205D01*
X157896074Y-155042205D01*
X157971065Y-155004710D01*
X158008560Y-154967215D01*
X158046056Y-154892224D01*
X158046056Y-154817233D01*
X158008560Y-154742243D01*
X157971065Y-154704747D01*
X157896074Y-154667252D01*
X157746093Y-154629757D01*
X157671102Y-154592261D01*
X157633607Y-154554766D01*
X157596112Y-154479775D01*
X157596112Y-154404785D01*
X157633607Y-154329794D01*
X157671102Y-154292299D01*
X157746093Y-154254803D01*
X157933570Y-154254803D01*
X158046056Y-154292299D01*
X158383514Y-155042205D02*
X158383514Y-154254803D01*
X158720972Y-155042205D02*
X158720972Y-154629757D01*
X158683476Y-154554766D01*
X158608486Y-154517271D01*
X158496000Y-154517271D01*
X158421009Y-154554766D01*
X158383514Y-154592261D01*
X159095925Y-155042205D02*
X159095925Y-154517271D01*
X159095925Y-154254803D02*
X159058430Y-154292299D01*
X159095925Y-154329794D01*
X159133420Y-154292299D01*
X159095925Y-154254803D01*
X159095925Y-154329794D01*
X159358392Y-154517271D02*
X159658355Y-154517271D01*
X159470878Y-155042205D02*
X159470878Y-154367289D01*
X159508374Y-154292299D01*
X159583364Y-154254803D01*
X159658355Y-154254803D01*
X159808336Y-154517271D02*
X160108299Y-154517271D01*
X159920822Y-154254803D02*
X159920822Y-154929719D01*
X159958318Y-155004710D01*
X160033308Y-155042205D01*
X160108299Y-155042205D01*
%TO.C,Ky51*%
X164547850Y-154817233D02*
X164922803Y-154817233D01*
X164472859Y-155042205D02*
X164735327Y-154254803D01*
X164997794Y-155042205D01*
X165635215Y-155042205D02*
X165260261Y-155042205D01*
X165260261Y-154254803D01*
X165785196Y-154254803D02*
X166235140Y-154254803D01*
X166010168Y-155042205D02*
X166010168Y-154254803D01*
%TO.C,Ky55*%
X203130448Y-154817233D02*
X203505401Y-154817233D01*
X203055457Y-155042205D02*
X203317925Y-154254803D01*
X203580392Y-155042205D01*
X204217813Y-155042205D02*
X203842859Y-155042205D01*
X203842859Y-154254803D01*
X204367794Y-154254803D02*
X204817738Y-154254803D01*
X204592766Y-155042205D02*
X204592766Y-154254803D01*
X205492654Y-154292299D02*
X205417663Y-154254803D01*
X205305177Y-154254803D01*
X205192691Y-154292299D01*
X205117701Y-154367289D01*
X205080205Y-154442280D01*
X205042710Y-154592261D01*
X205042710Y-154704747D01*
X205080205Y-154854729D01*
X205117701Y-154929719D01*
X205192691Y-155004710D01*
X205305177Y-155042205D01*
X205380168Y-155042205D01*
X205492654Y-155004710D01*
X205530149Y-154967215D01*
X205530149Y-154704747D01*
X205380168Y-154704747D01*
X206317551Y-155042205D02*
X206055084Y-154667252D01*
X205867607Y-155042205D02*
X205867607Y-154254803D01*
X206167570Y-154254803D01*
X206242561Y-154292299D01*
X206280056Y-154329794D01*
X206317551Y-154404785D01*
X206317551Y-154517271D01*
X206280056Y-154592261D01*
X206242561Y-154629757D01*
X206167570Y-154667252D01*
X205867607Y-154667252D01*
%TO.C,Ky56*%
X210457140Y-155042205D02*
X210194672Y-154667252D01*
X210007196Y-155042205D02*
X210007196Y-154254803D01*
X210307158Y-154254803D01*
X210382149Y-154292299D01*
X210419644Y-154329794D01*
X210457140Y-154404785D01*
X210457140Y-154517271D01*
X210419644Y-154592261D01*
X210382149Y-154629757D01*
X210307158Y-154667252D01*
X210007196Y-154667252D01*
X210757102Y-155004710D02*
X210869588Y-155042205D01*
X211057065Y-155042205D01*
X211132056Y-155004710D01*
X211169551Y-154967215D01*
X211207046Y-154892224D01*
X211207046Y-154817233D01*
X211169551Y-154742243D01*
X211132056Y-154704747D01*
X211057065Y-154667252D01*
X210907084Y-154629757D01*
X210832093Y-154592261D01*
X210794598Y-154554766D01*
X210757102Y-154479775D01*
X210757102Y-154404785D01*
X210794598Y-154329794D01*
X210832093Y-154292299D01*
X210907084Y-154254803D01*
X211094560Y-154254803D01*
X211207046Y-154292299D01*
X211544504Y-155042205D02*
X211544504Y-154254803D01*
X211881962Y-155042205D02*
X211881962Y-154629757D01*
X211844467Y-154554766D01*
X211769476Y-154517271D01*
X211656990Y-154517271D01*
X211582000Y-154554766D01*
X211544504Y-154592261D01*
X212256916Y-155042205D02*
X212256916Y-154517271D01*
X212256916Y-154254803D02*
X212219420Y-154292299D01*
X212256916Y-154329794D01*
X212294411Y-154292299D01*
X212256916Y-154254803D01*
X212256916Y-154329794D01*
X212519383Y-154517271D02*
X212819346Y-154517271D01*
X212631869Y-155042205D02*
X212631869Y-154367289D01*
X212669364Y-154292299D01*
X212744355Y-154254803D01*
X212819346Y-154254803D01*
X212969327Y-154517271D02*
X213269290Y-154517271D01*
X213081813Y-154254803D02*
X213081813Y-154929719D01*
X213119308Y-155004710D01*
X213194299Y-155042205D01*
X213269290Y-155042205D01*
%TO.C,Ky57*%
X210700859Y-117450205D02*
X210700859Y-116662803D01*
X210888336Y-116662803D01*
X211000822Y-116700299D01*
X211075813Y-116775289D01*
X211113308Y-116850280D01*
X211150803Y-117000261D01*
X211150803Y-117112747D01*
X211113308Y-117262729D01*
X211075813Y-117337719D01*
X211000822Y-117412710D01*
X210888336Y-117450205D01*
X210700859Y-117450205D01*
X211488261Y-117037757D02*
X211750729Y-117037757D01*
X211863215Y-117450205D02*
X211488261Y-117450205D01*
X211488261Y-116662803D01*
X211863215Y-116662803D01*
X212575626Y-117450205D02*
X212200673Y-117450205D01*
X212200673Y-116662803D01*
%TO.C,Ky58*%
X151208616Y-117037757D02*
X151471084Y-117037757D01*
X151583570Y-117450205D02*
X151208616Y-117450205D01*
X151208616Y-116662803D01*
X151583570Y-116662803D01*
X151883532Y-117412710D02*
X151996018Y-117450205D01*
X152183495Y-117450205D01*
X152258486Y-117412710D01*
X152295981Y-117375215D01*
X152333476Y-117300224D01*
X152333476Y-117225233D01*
X152295981Y-117150243D01*
X152258486Y-117112747D01*
X152183495Y-117075252D01*
X152033514Y-117037757D01*
X151958523Y-117000261D01*
X151921028Y-116962766D01*
X151883532Y-116887775D01*
X151883532Y-116812785D01*
X151921028Y-116737794D01*
X151958523Y-116700299D01*
X152033514Y-116662803D01*
X152220990Y-116662803D01*
X152333476Y-116700299D01*
X153120878Y-117375215D02*
X153083383Y-117412710D01*
X152970897Y-117450205D01*
X152895906Y-117450205D01*
X152783420Y-117412710D01*
X152708430Y-117337719D01*
X152670934Y-117262729D01*
X152633439Y-117112747D01*
X152633439Y-117000261D01*
X152670934Y-116850280D01*
X152708430Y-116775289D01*
X152783420Y-116700299D01*
X152895906Y-116662803D01*
X152970897Y-116662803D01*
X153083383Y-116700299D01*
X153120878Y-116737794D01*
%TO.C,Ky59*%
X158450000Y-117029714D02*
X158150000Y-117029714D01*
X158150000Y-117501142D02*
X158150000Y-116601142D01*
X158578571Y-116601142D01*
X159392857Y-117501142D02*
X158878571Y-117501142D01*
X159135714Y-117501142D02*
X159135714Y-116601142D01*
X159050000Y-116729714D01*
X158964285Y-116815428D01*
X158878571Y-116858285D01*
%TO.C,Ky60*%
X165054000Y-117029714D02*
X164754000Y-117029714D01*
X164754000Y-117501142D02*
X164754000Y-116601142D01*
X165182571Y-116601142D01*
X165482571Y-116686857D02*
X165525428Y-116644000D01*
X165611142Y-116601142D01*
X165825428Y-116601142D01*
X165911142Y-116644000D01*
X165954000Y-116686857D01*
X165996857Y-116772571D01*
X165996857Y-116858285D01*
X165954000Y-116986857D01*
X165439714Y-117501142D01*
X165996857Y-117501142D01*
%TO.C,Ky61*%
X171658000Y-117029714D02*
X171358000Y-117029714D01*
X171358000Y-117501142D02*
X171358000Y-116601142D01*
X171786571Y-116601142D01*
X172043714Y-116601142D02*
X172600857Y-116601142D01*
X172300857Y-116944000D01*
X172429428Y-116944000D01*
X172515142Y-116986857D01*
X172558000Y-117029714D01*
X172600857Y-117115428D01*
X172600857Y-117329714D01*
X172558000Y-117415428D01*
X172515142Y-117458285D01*
X172429428Y-117501142D01*
X172172285Y-117501142D01*
X172086571Y-117458285D01*
X172043714Y-117415428D01*
%TO.C,Ky62*%
X178262000Y-117029714D02*
X177962000Y-117029714D01*
X177962000Y-117501142D02*
X177962000Y-116601142D01*
X178390571Y-116601142D01*
X179119142Y-116901142D02*
X179119142Y-117501142D01*
X178904857Y-116558285D02*
X178690571Y-117201142D01*
X179247714Y-117201142D01*
%TD*%
M02*
