%TF.GenerationSoftware,KiCad,Pcbnew,(5.1.12)-1*%
%TF.CreationDate,2022-02-12T22:16:26+01:00*%
%TF.ProjectId,MemoryBrakout,4d656d6f-7279-4427-9261-6b6f75742e6b,rev?*%
%TF.SameCoordinates,Original*%
%TF.FileFunction,Soldermask,Top*%
%TF.FilePolarity,Negative*%
%FSLAX46Y46*%
G04 Gerber Fmt 4.6, Leading zero omitted, Abs format (unit mm)*
G04 Created by KiCad (PCBNEW (5.1.12)-1) date 2022-02-12 22:16:26*
%MOMM*%
%LPD*%
G01*
G04 APERTURE LIST*
%ADD10C,2.500000*%
%ADD11O,1.700000X1.700000*%
%ADD12R,1.700000X1.700000*%
%ADD13O,1.600000X1.000000*%
%ADD14O,2.100000X0.900000*%
%ADD15C,0.650000*%
%ADD16R,0.650000X1.050000*%
%ADD17C,1.524000*%
G04 APERTURE END LIST*
D10*
%TO.C,H2*%
X211455000Y-114935000D03*
%TD*%
D11*
%TO.C,J104*%
X159258000Y-95631000D03*
X156718000Y-95631000D03*
X154178000Y-95631000D03*
D12*
X151638000Y-95631000D03*
%TD*%
%TO.C,J105*%
X204470000Y-95250000D03*
D11*
X207010000Y-95250000D03*
X209550000Y-95250000D03*
X212090000Y-95250000D03*
%TD*%
%TO.C,R102*%
G36*
G01*
X197214500Y-102722000D02*
X196739500Y-102722000D01*
G75*
G02*
X196502000Y-102484500I0J237500D01*
G01*
X196502000Y-101984500D01*
G75*
G02*
X196739500Y-101747000I237500J0D01*
G01*
X197214500Y-101747000D01*
G75*
G02*
X197452000Y-101984500I0J-237500D01*
G01*
X197452000Y-102484500D01*
G75*
G02*
X197214500Y-102722000I-237500J0D01*
G01*
G37*
G36*
G01*
X197214500Y-100897000D02*
X196739500Y-100897000D01*
G75*
G02*
X196502000Y-100659500I0J237500D01*
G01*
X196502000Y-100159500D01*
G75*
G02*
X196739500Y-99922000I237500J0D01*
G01*
X197214500Y-99922000D01*
G75*
G02*
X197452000Y-100159500I0J-237500D01*
G01*
X197452000Y-100659500D01*
G75*
G02*
X197214500Y-100897000I-237500J0D01*
G01*
G37*
%TD*%
%TO.C,R104*%
G36*
G01*
X170963000Y-97392500D02*
X170963000Y-96917500D01*
G75*
G02*
X171200500Y-96680000I237500J0D01*
G01*
X171700500Y-96680000D01*
G75*
G02*
X171938000Y-96917500I0J-237500D01*
G01*
X171938000Y-97392500D01*
G75*
G02*
X171700500Y-97630000I-237500J0D01*
G01*
X171200500Y-97630000D01*
G75*
G02*
X170963000Y-97392500I0J237500D01*
G01*
G37*
G36*
G01*
X169138000Y-97392500D02*
X169138000Y-96917500D01*
G75*
G02*
X169375500Y-96680000I237500J0D01*
G01*
X169875500Y-96680000D01*
G75*
G02*
X170113000Y-96917500I0J-237500D01*
G01*
X170113000Y-97392500D01*
G75*
G02*
X169875500Y-97630000I-237500J0D01*
G01*
X169375500Y-97630000D01*
G75*
G02*
X169138000Y-97392500I0J237500D01*
G01*
G37*
%TD*%
%TO.C,R110*%
G36*
G01*
X169138000Y-94852500D02*
X169138000Y-94377500D01*
G75*
G02*
X169375500Y-94140000I237500J0D01*
G01*
X169875500Y-94140000D01*
G75*
G02*
X170113000Y-94377500I0J-237500D01*
G01*
X170113000Y-94852500D01*
G75*
G02*
X169875500Y-95090000I-237500J0D01*
G01*
X169375500Y-95090000D01*
G75*
G02*
X169138000Y-94852500I0J237500D01*
G01*
G37*
G36*
G01*
X170963000Y-94852500D02*
X170963000Y-94377500D01*
G75*
G02*
X171200500Y-94140000I237500J0D01*
G01*
X171700500Y-94140000D01*
G75*
G02*
X171938000Y-94377500I0J-237500D01*
G01*
X171938000Y-94852500D01*
G75*
G02*
X171700500Y-95090000I-237500J0D01*
G01*
X171200500Y-95090000D01*
G75*
G02*
X170963000Y-94852500I0J237500D01*
G01*
G37*
%TD*%
%TO.C,D101*%
G36*
G01*
X178103000Y-100017500D02*
X178103000Y-99592500D01*
G75*
G02*
X178315500Y-99380000I212500J0D01*
G01*
X179115500Y-99380000D01*
G75*
G02*
X179328000Y-99592500I0J-212500D01*
G01*
X179328000Y-100017500D01*
G75*
G02*
X179115500Y-100230000I-212500J0D01*
G01*
X178315500Y-100230000D01*
G75*
G02*
X178103000Y-100017500I0J212500D01*
G01*
G37*
G36*
G01*
X179728000Y-100017500D02*
X179728000Y-99592500D01*
G75*
G02*
X179940500Y-99380000I212500J0D01*
G01*
X180740500Y-99380000D01*
G75*
G02*
X180953000Y-99592500I0J-212500D01*
G01*
X180953000Y-100017500D01*
G75*
G02*
X180740500Y-100230000I-212500J0D01*
G01*
X179940500Y-100230000D01*
G75*
G02*
X179728000Y-100017500I0J212500D01*
G01*
G37*
%TD*%
%TO.C,D102*%
G36*
G01*
X179728000Y-103082500D02*
X179728000Y-102657500D01*
G75*
G02*
X179940500Y-102445000I212500J0D01*
G01*
X180740500Y-102445000D01*
G75*
G02*
X180953000Y-102657500I0J-212500D01*
G01*
X180953000Y-103082500D01*
G75*
G02*
X180740500Y-103295000I-212500J0D01*
G01*
X179940500Y-103295000D01*
G75*
G02*
X179728000Y-103082500I0J212500D01*
G01*
G37*
G36*
G01*
X178103000Y-103082500D02*
X178103000Y-102657500D01*
G75*
G02*
X178315500Y-102445000I212500J0D01*
G01*
X179115500Y-102445000D01*
G75*
G02*
X179328000Y-102657500I0J-212500D01*
G01*
X179328000Y-103082500D01*
G75*
G02*
X179115500Y-103295000I-212500J0D01*
G01*
X178315500Y-103295000D01*
G75*
G02*
X178103000Y-103082500I0J212500D01*
G01*
G37*
%TD*%
%TO.C,D103*%
G36*
G01*
X181913000Y-100017500D02*
X181913000Y-99592500D01*
G75*
G02*
X182125500Y-99380000I212500J0D01*
G01*
X182925500Y-99380000D01*
G75*
G02*
X183138000Y-99592500I0J-212500D01*
G01*
X183138000Y-100017500D01*
G75*
G02*
X182925500Y-100230000I-212500J0D01*
G01*
X182125500Y-100230000D01*
G75*
G02*
X181913000Y-100017500I0J212500D01*
G01*
G37*
G36*
G01*
X183538000Y-100017500D02*
X183538000Y-99592500D01*
G75*
G02*
X183750500Y-99380000I212500J0D01*
G01*
X184550500Y-99380000D01*
G75*
G02*
X184763000Y-99592500I0J-212500D01*
G01*
X184763000Y-100017500D01*
G75*
G02*
X184550500Y-100230000I-212500J0D01*
G01*
X183750500Y-100230000D01*
G75*
G02*
X183538000Y-100017500I0J212500D01*
G01*
G37*
%TD*%
%TO.C,D104*%
G36*
G01*
X183538000Y-103082500D02*
X183538000Y-102657500D01*
G75*
G02*
X183750500Y-102445000I212500J0D01*
G01*
X184550500Y-102445000D01*
G75*
G02*
X184763000Y-102657500I0J-212500D01*
G01*
X184763000Y-103082500D01*
G75*
G02*
X184550500Y-103295000I-212500J0D01*
G01*
X183750500Y-103295000D01*
G75*
G02*
X183538000Y-103082500I0J212500D01*
G01*
G37*
G36*
G01*
X181913000Y-103082500D02*
X181913000Y-102657500D01*
G75*
G02*
X182125500Y-102445000I212500J0D01*
G01*
X182925500Y-102445000D01*
G75*
G02*
X183138000Y-102657500I0J-212500D01*
G01*
X183138000Y-103082500D01*
G75*
G02*
X182925500Y-103295000I-212500J0D01*
G01*
X182125500Y-103295000D01*
G75*
G02*
X181913000Y-103082500I0J212500D01*
G01*
G37*
%TD*%
%TO.C,R14*%
G36*
G01*
X178080000Y-107622500D02*
X178080000Y-107147500D01*
G75*
G02*
X178317500Y-106910000I237500J0D01*
G01*
X178817500Y-106910000D01*
G75*
G02*
X179055000Y-107147500I0J-237500D01*
G01*
X179055000Y-107622500D01*
G75*
G02*
X178817500Y-107860000I-237500J0D01*
G01*
X178317500Y-107860000D01*
G75*
G02*
X178080000Y-107622500I0J237500D01*
G01*
G37*
G36*
G01*
X179905000Y-107622500D02*
X179905000Y-107147500D01*
G75*
G02*
X180142500Y-106910000I237500J0D01*
G01*
X180642500Y-106910000D01*
G75*
G02*
X180880000Y-107147500I0J-237500D01*
G01*
X180880000Y-107622500D01*
G75*
G02*
X180642500Y-107860000I-237500J0D01*
G01*
X180142500Y-107860000D01*
G75*
G02*
X179905000Y-107622500I0J237500D01*
G01*
G37*
%TD*%
%TO.C,R15*%
G36*
G01*
X184355000Y-107672500D02*
X184355000Y-107197500D01*
G75*
G02*
X184592500Y-106960000I237500J0D01*
G01*
X185092500Y-106960000D01*
G75*
G02*
X185330000Y-107197500I0J-237500D01*
G01*
X185330000Y-107672500D01*
G75*
G02*
X185092500Y-107910000I-237500J0D01*
G01*
X184592500Y-107910000D01*
G75*
G02*
X184355000Y-107672500I0J237500D01*
G01*
G37*
G36*
G01*
X182530000Y-107672500D02*
X182530000Y-107197500D01*
G75*
G02*
X182767500Y-106960000I237500J0D01*
G01*
X183267500Y-106960000D01*
G75*
G02*
X183505000Y-107197500I0J-237500D01*
G01*
X183505000Y-107672500D01*
G75*
G02*
X183267500Y-107910000I-237500J0D01*
G01*
X182767500Y-107910000D01*
G75*
G02*
X182530000Y-107672500I0J237500D01*
G01*
G37*
%TD*%
%TO.C,R116*%
G36*
G01*
X178080000Y-110132500D02*
X178080000Y-109657500D01*
G75*
G02*
X178317500Y-109420000I237500J0D01*
G01*
X178817500Y-109420000D01*
G75*
G02*
X179055000Y-109657500I0J-237500D01*
G01*
X179055000Y-110132500D01*
G75*
G02*
X178817500Y-110370000I-237500J0D01*
G01*
X178317500Y-110370000D01*
G75*
G02*
X178080000Y-110132500I0J237500D01*
G01*
G37*
G36*
G01*
X179905000Y-110132500D02*
X179905000Y-109657500D01*
G75*
G02*
X180142500Y-109420000I237500J0D01*
G01*
X180642500Y-109420000D01*
G75*
G02*
X180880000Y-109657500I0J-237500D01*
G01*
X180880000Y-110132500D01*
G75*
G02*
X180642500Y-110370000I-237500J0D01*
G01*
X180142500Y-110370000D01*
G75*
G02*
X179905000Y-110132500I0J237500D01*
G01*
G37*
%TD*%
%TO.C,R117*%
G36*
G01*
X184255000Y-110182500D02*
X184255000Y-109707500D01*
G75*
G02*
X184492500Y-109470000I237500J0D01*
G01*
X184992500Y-109470000D01*
G75*
G02*
X185230000Y-109707500I0J-237500D01*
G01*
X185230000Y-110182500D01*
G75*
G02*
X184992500Y-110420000I-237500J0D01*
G01*
X184492500Y-110420000D01*
G75*
G02*
X184255000Y-110182500I0J237500D01*
G01*
G37*
G36*
G01*
X182430000Y-110182500D02*
X182430000Y-109707500D01*
G75*
G02*
X182667500Y-109470000I237500J0D01*
G01*
X183167500Y-109470000D01*
G75*
G02*
X183405000Y-109707500I0J-237500D01*
G01*
X183405000Y-110182500D01*
G75*
G02*
X183167500Y-110420000I-237500J0D01*
G01*
X182667500Y-110420000D01*
G75*
G02*
X182430000Y-110182500I0J237500D01*
G01*
G37*
%TD*%
D10*
%TO.C,H1*%
X151384000Y-112776000D03*
%TD*%
D12*
%TO.C,J3*%
X192430000Y-60452000D03*
D11*
X189890000Y-60452000D03*
X192430000Y-62992000D03*
X189890000Y-62992000D03*
X192430000Y-65532000D03*
X189890000Y-65532000D03*
%TD*%
D13*
%TO.C,J4*%
X212690000Y-102360000D03*
X212690000Y-111000000D03*
D14*
X208510000Y-102360000D03*
X208510000Y-111000000D03*
D15*
X209010000Y-103790000D03*
X209010000Y-109570000D03*
%TD*%
D16*
%TO.C,Ky1*%
X150889000Y-129040000D03*
X150889000Y-125575000D03*
X152989000Y-129040000D03*
X152989000Y-125575000D03*
%TD*%
%TO.C,Ky2*%
X159621000Y-125575000D03*
X159621000Y-129040000D03*
X157521000Y-125575000D03*
X157521000Y-129040000D03*
%TD*%
%TO.C,Ky3*%
X164153000Y-129040000D03*
X164153000Y-125575000D03*
X166253000Y-129040000D03*
X166253000Y-125575000D03*
%TD*%
%TO.C,Ky4*%
X172886000Y-125575000D03*
X172886000Y-129040000D03*
X170786000Y-125575000D03*
X170786000Y-129040000D03*
%TD*%
%TO.C,Ky5*%
X177418000Y-129040000D03*
X177418000Y-125575000D03*
X179518000Y-129040000D03*
X179518000Y-125575000D03*
%TD*%
%TO.C,Ky6*%
X186150000Y-125575000D03*
X186150000Y-129040000D03*
X184050000Y-125575000D03*
X184050000Y-129040000D03*
%TD*%
%TO.C,Ky7*%
X190682000Y-129040000D03*
X190682000Y-125575000D03*
X192782000Y-129040000D03*
X192782000Y-125575000D03*
%TD*%
%TO.C,Ky8*%
X199415000Y-125575000D03*
X199415000Y-129040000D03*
X197315000Y-125575000D03*
X197315000Y-129040000D03*
%TD*%
%TO.C,Ky9*%
X203947000Y-129040000D03*
X203947000Y-125575000D03*
X206047000Y-129040000D03*
X206047000Y-125575000D03*
%TD*%
%TO.C,Ky10*%
X212679000Y-125575000D03*
X212679000Y-129040000D03*
X210579000Y-125575000D03*
X210579000Y-129040000D03*
%TD*%
%TO.C,Ky11*%
X199530000Y-103005000D03*
X199530000Y-99540000D03*
X201630000Y-103005000D03*
X201630000Y-99540000D03*
%TD*%
%TO.C,Ky12*%
X201630000Y-109700000D03*
X201630000Y-113165000D03*
X199530000Y-109700000D03*
X199530000Y-113165000D03*
%TD*%
%TO.C,Ky13*%
X150889000Y-136660000D03*
X150889000Y-133195000D03*
X152989000Y-136660000D03*
X152989000Y-133195000D03*
%TD*%
%TO.C,Ky14*%
X157521000Y-136660000D03*
X157521000Y-133195000D03*
X159621000Y-136660000D03*
X159621000Y-133195000D03*
%TD*%
%TO.C,Ky15*%
X166253000Y-133195000D03*
X166253000Y-136660000D03*
X164153000Y-133195000D03*
X164153000Y-136660000D03*
%TD*%
%TO.C,Ky16*%
X172886000Y-133195000D03*
X172886000Y-136660000D03*
X170786000Y-133195000D03*
X170786000Y-136660000D03*
%TD*%
%TO.C,Ky17*%
X177418000Y-136660000D03*
X177418000Y-133195000D03*
X179518000Y-136660000D03*
X179518000Y-133195000D03*
%TD*%
%TO.C,Ky18*%
X186150000Y-133195000D03*
X186150000Y-136660000D03*
X184050000Y-133195000D03*
X184050000Y-136660000D03*
%TD*%
%TO.C,Ky19*%
X190682000Y-136660000D03*
X190682000Y-133195000D03*
X192782000Y-136660000D03*
X192782000Y-133195000D03*
%TD*%
%TO.C,Ky20*%
X199415000Y-133195000D03*
X199415000Y-136660000D03*
X197315000Y-133195000D03*
X197315000Y-136660000D03*
%TD*%
%TO.C,Ky21*%
X203947000Y-136660000D03*
X203947000Y-133195000D03*
X206047000Y-136660000D03*
X206047000Y-133195000D03*
%TD*%
%TO.C,Ky22*%
X212679000Y-133195000D03*
X212679000Y-136660000D03*
X210579000Y-133195000D03*
X210579000Y-136660000D03*
%TD*%
%TO.C,Ky23*%
X191910000Y-108085000D03*
X191910000Y-104620000D03*
X194010000Y-108085000D03*
X194010000Y-104620000D03*
%TD*%
%TO.C,Ky24*%
X209250000Y-104620000D03*
X209250000Y-108085000D03*
X207150000Y-104620000D03*
X207150000Y-108085000D03*
%TD*%
%TO.C,Ky25*%
X150889000Y-144280000D03*
X150889000Y-140815000D03*
X152989000Y-144280000D03*
X152989000Y-140815000D03*
%TD*%
%TO.C,Ky26*%
X159621000Y-140815000D03*
X159621000Y-144280000D03*
X157521000Y-140815000D03*
X157521000Y-144280000D03*
%TD*%
%TO.C,Ky27*%
X166253000Y-140815000D03*
X166253000Y-144280000D03*
X164153000Y-140815000D03*
X164153000Y-144280000D03*
%TD*%
%TO.C,Ky28*%
X170786000Y-144280000D03*
X170786000Y-140815000D03*
X172886000Y-144280000D03*
X172886000Y-140815000D03*
%TD*%
%TO.C,Ky29*%
X177418000Y-144280000D03*
X177418000Y-140815000D03*
X179518000Y-144280000D03*
X179518000Y-140815000D03*
%TD*%
%TO.C,Ky30*%
X184050000Y-144280000D03*
X184050000Y-140815000D03*
X186150000Y-144280000D03*
X186150000Y-140815000D03*
%TD*%
%TO.C,Ky31*%
X192782000Y-140815000D03*
X192782000Y-144280000D03*
X190682000Y-140815000D03*
X190682000Y-144280000D03*
%TD*%
%TO.C,Ky32*%
X199415000Y-140815000D03*
X199415000Y-144280000D03*
X197315000Y-140815000D03*
X197315000Y-144280000D03*
%TD*%
%TO.C,Ky33*%
X206047000Y-140815000D03*
X206047000Y-144280000D03*
X203947000Y-140815000D03*
X203947000Y-144280000D03*
%TD*%
%TO.C,Ky34*%
X210579000Y-144280000D03*
X210579000Y-140815000D03*
X212679000Y-144280000D03*
X212679000Y-140815000D03*
%TD*%
%TO.C,Ky35*%
X184036000Y-121928000D03*
X184036000Y-118463000D03*
X186136000Y-121928000D03*
X186136000Y-118463000D03*
%TD*%
%TO.C,Ky36*%
X192740000Y-118463000D03*
X192740000Y-121928000D03*
X190640000Y-118463000D03*
X190640000Y-121928000D03*
%TD*%
%TO.C,Ky37*%
X152989000Y-148435000D03*
X152989000Y-151900000D03*
X150889000Y-148435000D03*
X150889000Y-151900000D03*
%TD*%
%TO.C,Ky38*%
X159621000Y-148435000D03*
X159621000Y-151900000D03*
X157521000Y-148435000D03*
X157521000Y-151900000D03*
%TD*%
%TO.C,Ky39*%
X164153000Y-151900000D03*
X164153000Y-148435000D03*
X166253000Y-151900000D03*
X166253000Y-148435000D03*
%TD*%
%TO.C,Ky40*%
X172886000Y-148435000D03*
X172886000Y-151900000D03*
X170786000Y-148435000D03*
X170786000Y-151900000D03*
%TD*%
%TO.C,Ky41*%
X177418000Y-151900000D03*
X177418000Y-148435000D03*
X179518000Y-151900000D03*
X179518000Y-148435000D03*
%TD*%
%TO.C,Ky42*%
X186150000Y-148435000D03*
X186150000Y-151900000D03*
X184050000Y-148435000D03*
X184050000Y-151900000D03*
%TD*%
%TO.C,Ky43*%
X190682000Y-151900000D03*
X190682000Y-148435000D03*
X192782000Y-151900000D03*
X192782000Y-148435000D03*
%TD*%
%TO.C,Ky44*%
X199415000Y-148435000D03*
X199415000Y-151900000D03*
X197315000Y-148435000D03*
X197315000Y-151900000D03*
%TD*%
%TO.C,Ky45*%
X203947000Y-151900000D03*
X203947000Y-148435000D03*
X206047000Y-151900000D03*
X206047000Y-148435000D03*
%TD*%
%TO.C,Ky46*%
X212679000Y-148435000D03*
X212679000Y-151900000D03*
X210579000Y-148435000D03*
X210579000Y-151900000D03*
%TD*%
%TO.C,Ky47*%
X197244000Y-121928000D03*
X197244000Y-118463000D03*
X199344000Y-121928000D03*
X199344000Y-118463000D03*
%TD*%
%TO.C,Ky48*%
X205948000Y-118463000D03*
X205948000Y-121928000D03*
X203848000Y-118463000D03*
X203848000Y-121928000D03*
%TD*%
%TO.C,Ky49*%
X150889000Y-159520000D03*
X150889000Y-156055000D03*
X152989000Y-159520000D03*
X152989000Y-156055000D03*
%TD*%
%TO.C,Ky50*%
X159720000Y-156055000D03*
X159720000Y-159520000D03*
X157620000Y-156055000D03*
X157620000Y-159520000D03*
%TD*%
%TO.C,Ky51*%
X164224000Y-159520000D03*
X164224000Y-156055000D03*
X166324000Y-159520000D03*
X166324000Y-156055000D03*
%TD*%
%TO.C,Ky52*%
X179659000Y-156055000D03*
X179659000Y-159520000D03*
X177559000Y-156055000D03*
X177559000Y-159520000D03*
%TD*%
%TO.C,Ky53*%
X184036000Y-159520000D03*
X184036000Y-156055000D03*
X186136000Y-159520000D03*
X186136000Y-156055000D03*
%TD*%
%TO.C,Ky54*%
X190640000Y-159520000D03*
X190640000Y-156055000D03*
X192740000Y-159520000D03*
X192740000Y-156055000D03*
%TD*%
%TO.C,Ky55*%
X203848000Y-159520000D03*
X203848000Y-156055000D03*
X205948000Y-159520000D03*
X205948000Y-156055000D03*
%TD*%
%TO.C,Ky56*%
X212679000Y-156055000D03*
X212679000Y-159520000D03*
X210579000Y-156055000D03*
X210579000Y-159520000D03*
%TD*%
%TO.C,Ky57*%
X210452000Y-121928000D03*
X210452000Y-118463000D03*
X212552000Y-121928000D03*
X212552000Y-118463000D03*
%TD*%
%TO.C,Ky58*%
X153116000Y-118463000D03*
X153116000Y-121928000D03*
X151016000Y-118463000D03*
X151016000Y-121928000D03*
%TD*%
%TO.C,Ky59*%
X157620000Y-121928000D03*
X157620000Y-118463000D03*
X159720000Y-121928000D03*
X159720000Y-118463000D03*
%TD*%
%TO.C,Ky60*%
X166324000Y-118463000D03*
X166324000Y-121928000D03*
X164224000Y-118463000D03*
X164224000Y-121928000D03*
%TD*%
%TO.C,Ky61*%
X170828000Y-121928000D03*
X170828000Y-118463000D03*
X172928000Y-121928000D03*
X172928000Y-118463000D03*
%TD*%
%TO.C,Ky62*%
X179532000Y-118463000D03*
X179532000Y-121928000D03*
X177432000Y-118463000D03*
X177432000Y-121928000D03*
%TD*%
D12*
%TO.C,J2*%
X212217000Y-90424000D03*
D11*
X209677000Y-90424000D03*
X207137000Y-90424000D03*
X204597000Y-90424000D03*
%TD*%
D16*
%TO.C,SW101*%
X193180000Y-97798000D03*
X193180000Y-94333000D03*
X195280000Y-97798000D03*
X195280000Y-94333000D03*
%TD*%
%TO.C,SW102*%
X156545000Y-104620000D03*
X156545000Y-108085000D03*
X154445000Y-104620000D03*
X154445000Y-108085000D03*
%TD*%
%TO.C,SW103*%
X162065000Y-113165000D03*
X162065000Y-109700000D03*
X164165000Y-113165000D03*
X164165000Y-109700000D03*
%TD*%
%TO.C,SW104*%
X171785000Y-104620000D03*
X171785000Y-108085000D03*
X169685000Y-104620000D03*
X169685000Y-108085000D03*
%TD*%
%TO.C,SW105*%
X164165000Y-99540000D03*
X164165000Y-103005000D03*
X162065000Y-99540000D03*
X162065000Y-103005000D03*
%TD*%
D12*
%TO.C,J6*%
X212217000Y-84963000D03*
D11*
X209677000Y-84963000D03*
X207137000Y-84963000D03*
X204597000Y-84963000D03*
%TD*%
D10*
%TO.C,H3*%
X171450000Y-157480000D03*
%TD*%
%TO.C,H4*%
X198120000Y-157480000D03*
%TD*%
D12*
%TO.C,J8*%
X208686000Y-99517200D03*
D11*
X211226000Y-99517200D03*
%TD*%
D17*
%TO.C,U3*%
X187388700Y-114629800D03*
X187388700Y-112089800D03*
X187388700Y-109549800D03*
X187388700Y-107009800D03*
X187388700Y-104469800D03*
X187388700Y-101929800D03*
%TD*%
M02*
