%TF.GenerationSoftware,KiCad,Pcbnew,(5.1.12)-1*%
%TF.CreationDate,2022-02-12T22:16:26+01:00*%
%TF.ProjectId,MemoryBrakout,4d656d6f-7279-4427-9261-6b6f75742e6b,rev?*%
%TF.SameCoordinates,Original*%
%TF.FileFunction,Paste,Bot*%
%TF.FilePolarity,Positive*%
%FSLAX46Y46*%
G04 Gerber Fmt 4.6, Leading zero omitted, Abs format (unit mm)*
G04 Created by KiCad (PCBNEW (5.1.12)-1) date 2022-02-12 22:16:26*
%MOMM*%
%LPD*%
G01*
G04 APERTURE LIST*
%ADD10C,0.150000*%
%ADD11C,0.010000*%
%ADD12R,1.700000X3.000000*%
%ADD13R,0.300000X1.300000*%
%ADD14R,2.700000X1.300000*%
%ADD15R,1.300000X2.200000*%
%ADD16R,1.000000X1.000000*%
%ADD17R,1.750000X0.300000*%
%ADD18R,0.900000X1.700000*%
%ADD19R,1.050000X2.200000*%
%ADD20R,1.200000X3.200000*%
%ADD21C,0.100000*%
G04 APERTURE END LIST*
D10*
X153162000Y-146304000D02*
X150622000Y-146304000D01*
X153162000Y-147574000D02*
X153162000Y-146304000D01*
X150622000Y-147574000D02*
X153162000Y-147574000D01*
X150622000Y-146304000D02*
X150622000Y-147574000D01*
D11*
%TO.C,U1*%
G36*
X170434000Y-64313733D02*
G01*
X171593655Y-63154078D01*
X170434000Y-61994423D01*
X169274345Y-63154078D01*
X170434000Y-64313733D01*
G37*
X170434000Y-64313733D02*
X171593655Y-63154078D01*
X170434000Y-61994423D01*
X169274345Y-63154078D01*
X170434000Y-64313733D01*
G36*
X172272478Y-62475255D02*
G01*
X173432133Y-61315600D01*
X172272478Y-60155945D01*
X171112823Y-61315600D01*
X172272478Y-62475255D01*
G37*
X172272478Y-62475255D02*
X173432133Y-61315600D01*
X172272478Y-60155945D01*
X171112823Y-61315600D01*
X172272478Y-62475255D01*
G36*
X168595522Y-62475255D02*
G01*
X169755177Y-61315600D01*
X168595522Y-60155945D01*
X167435867Y-61315600D01*
X168595522Y-62475255D01*
G37*
X168595522Y-62475255D02*
X169755177Y-61315600D01*
X168595522Y-60155945D01*
X167435867Y-61315600D01*
X168595522Y-62475255D01*
G36*
X170434000Y-60636777D02*
G01*
X171593655Y-59477122D01*
X170434000Y-58317467D01*
X169274345Y-59477122D01*
X170434000Y-60636777D01*
G37*
X170434000Y-60636777D02*
X171593655Y-59477122D01*
X170434000Y-58317467D01*
X169274345Y-59477122D01*
X170434000Y-60636777D01*
%TD*%
%TO.C,C101*%
G36*
G01*
X185657500Y-83315000D02*
X185182500Y-83315000D01*
G75*
G02*
X184945000Y-83077500I0J237500D01*
G01*
X184945000Y-82477500D01*
G75*
G02*
X185182500Y-82240000I237500J0D01*
G01*
X185657500Y-82240000D01*
G75*
G02*
X185895000Y-82477500I0J-237500D01*
G01*
X185895000Y-83077500D01*
G75*
G02*
X185657500Y-83315000I-237500J0D01*
G01*
G37*
G36*
G01*
X185657500Y-81590000D02*
X185182500Y-81590000D01*
G75*
G02*
X184945000Y-81352500I0J237500D01*
G01*
X184945000Y-80752500D01*
G75*
G02*
X185182500Y-80515000I237500J0D01*
G01*
X185657500Y-80515000D01*
G75*
G02*
X185895000Y-80752500I0J-237500D01*
G01*
X185895000Y-81352500D01*
G75*
G02*
X185657500Y-81590000I-237500J0D01*
G01*
G37*
%TD*%
%TO.C,C102*%
G36*
G01*
X181847500Y-81817500D02*
X181372500Y-81817500D01*
G75*
G02*
X181135000Y-81580000I0J237500D01*
G01*
X181135000Y-80980000D01*
G75*
G02*
X181372500Y-80742500I237500J0D01*
G01*
X181847500Y-80742500D01*
G75*
G02*
X182085000Y-80980000I0J-237500D01*
G01*
X182085000Y-81580000D01*
G75*
G02*
X181847500Y-81817500I-237500J0D01*
G01*
G37*
G36*
G01*
X181847500Y-83542500D02*
X181372500Y-83542500D01*
G75*
G02*
X181135000Y-83305000I0J237500D01*
G01*
X181135000Y-82705000D01*
G75*
G02*
X181372500Y-82467500I237500J0D01*
G01*
X181847500Y-82467500D01*
G75*
G02*
X182085000Y-82705000I0J-237500D01*
G01*
X182085000Y-83305000D01*
G75*
G02*
X181847500Y-83542500I-237500J0D01*
G01*
G37*
%TD*%
%TO.C,C103*%
G36*
G01*
X179942500Y-83542500D02*
X179467500Y-83542500D01*
G75*
G02*
X179230000Y-83305000I0J237500D01*
G01*
X179230000Y-82705000D01*
G75*
G02*
X179467500Y-82467500I237500J0D01*
G01*
X179942500Y-82467500D01*
G75*
G02*
X180180000Y-82705000I0J-237500D01*
G01*
X180180000Y-83305000D01*
G75*
G02*
X179942500Y-83542500I-237500J0D01*
G01*
G37*
G36*
G01*
X179942500Y-81817500D02*
X179467500Y-81817500D01*
G75*
G02*
X179230000Y-81580000I0J237500D01*
G01*
X179230000Y-80980000D01*
G75*
G02*
X179467500Y-80742500I237500J0D01*
G01*
X179942500Y-80742500D01*
G75*
G02*
X180180000Y-80980000I0J-237500D01*
G01*
X180180000Y-81580000D01*
G75*
G02*
X179942500Y-81817500I-237500J0D01*
G01*
G37*
%TD*%
D12*
%TO.C,J1*%
X205885000Y-76685000D03*
X205885000Y-72811500D03*
X203345000Y-76685000D03*
X203345000Y-72811500D03*
X200805000Y-76685000D03*
X200805000Y-72811500D03*
X198265000Y-76685000D03*
X198265000Y-72811500D03*
X195725000Y-76685000D03*
X195725000Y-72811500D03*
X193185000Y-76685000D03*
X193185000Y-72811500D03*
X190645000Y-76685000D03*
X190645000Y-72811500D03*
X188105000Y-76685000D03*
X188105000Y-72811500D03*
X185565000Y-76685000D03*
X185565000Y-72811500D03*
X183025000Y-76685000D03*
X183025000Y-72875000D03*
X180485000Y-76685000D03*
X180467000Y-72834500D03*
X177945000Y-76685000D03*
X177927000Y-72834500D03*
X175405000Y-76685000D03*
X175387000Y-72834500D03*
X172865000Y-76685000D03*
X172847000Y-72834500D03*
X170325000Y-76685000D03*
X170307000Y-72834500D03*
X167785000Y-76685000D03*
X167767000Y-72834500D03*
X165245000Y-76685000D03*
X165227000Y-72834500D03*
X162705000Y-76685000D03*
X162750500Y-72834500D03*
X160165000Y-76685000D03*
X160147000Y-72834500D03*
X157607000Y-76708000D03*
X157607000Y-72834500D03*
%TD*%
%TO.C,R101*%
G36*
G01*
X170290500Y-86720500D02*
X169815500Y-86720500D01*
G75*
G02*
X169578000Y-86483000I0J237500D01*
G01*
X169578000Y-85983000D01*
G75*
G02*
X169815500Y-85745500I237500J0D01*
G01*
X170290500Y-85745500D01*
G75*
G02*
X170528000Y-85983000I0J-237500D01*
G01*
X170528000Y-86483000D01*
G75*
G02*
X170290500Y-86720500I-237500J0D01*
G01*
G37*
G36*
G01*
X170290500Y-88545500D02*
X169815500Y-88545500D01*
G75*
G02*
X169578000Y-88308000I0J237500D01*
G01*
X169578000Y-87808000D01*
G75*
G02*
X169815500Y-87570500I237500J0D01*
G01*
X170290500Y-87570500D01*
G75*
G02*
X170528000Y-87808000I0J-237500D01*
G01*
X170528000Y-88308000D01*
G75*
G02*
X170290500Y-88545500I-237500J0D01*
G01*
G37*
%TD*%
%TO.C,R103*%
G36*
G01*
X193125500Y-108789000D02*
X192650500Y-108789000D01*
G75*
G02*
X192413000Y-108551500I0J237500D01*
G01*
X192413000Y-108051500D01*
G75*
G02*
X192650500Y-107814000I237500J0D01*
G01*
X193125500Y-107814000D01*
G75*
G02*
X193363000Y-108051500I0J-237500D01*
G01*
X193363000Y-108551500D01*
G75*
G02*
X193125500Y-108789000I-237500J0D01*
G01*
G37*
G36*
G01*
X193125500Y-106964000D02*
X192650500Y-106964000D01*
G75*
G02*
X192413000Y-106726500I0J237500D01*
G01*
X192413000Y-106226500D01*
G75*
G02*
X192650500Y-105989000I237500J0D01*
G01*
X193125500Y-105989000D01*
G75*
G02*
X193363000Y-106226500I0J-237500D01*
G01*
X193363000Y-106726500D01*
G75*
G02*
X193125500Y-106964000I-237500J0D01*
G01*
G37*
%TD*%
%TO.C,R105*%
G36*
G01*
X151138500Y-104877000D02*
X150663500Y-104877000D01*
G75*
G02*
X150426000Y-104639500I0J237500D01*
G01*
X150426000Y-104139500D01*
G75*
G02*
X150663500Y-103902000I237500J0D01*
G01*
X151138500Y-103902000D01*
G75*
G02*
X151376000Y-104139500I0J-237500D01*
G01*
X151376000Y-104639500D01*
G75*
G02*
X151138500Y-104877000I-237500J0D01*
G01*
G37*
G36*
G01*
X151138500Y-103052000D02*
X150663500Y-103052000D01*
G75*
G02*
X150426000Y-102814500I0J237500D01*
G01*
X150426000Y-102314500D01*
G75*
G02*
X150663500Y-102077000I237500J0D01*
G01*
X151138500Y-102077000D01*
G75*
G02*
X151376000Y-102314500I0J-237500D01*
G01*
X151376000Y-102814500D01*
G75*
G02*
X151138500Y-103052000I-237500J0D01*
G01*
G37*
%TD*%
%TO.C,R106*%
G36*
G01*
X167115500Y-90888000D02*
X166640500Y-90888000D01*
G75*
G02*
X166403000Y-90650500I0J237500D01*
G01*
X166403000Y-90150500D01*
G75*
G02*
X166640500Y-89913000I237500J0D01*
G01*
X167115500Y-89913000D01*
G75*
G02*
X167353000Y-90150500I0J-237500D01*
G01*
X167353000Y-90650500D01*
G75*
G02*
X167115500Y-90888000I-237500J0D01*
G01*
G37*
G36*
G01*
X167115500Y-92713000D02*
X166640500Y-92713000D01*
G75*
G02*
X166403000Y-92475500I0J237500D01*
G01*
X166403000Y-91975500D01*
G75*
G02*
X166640500Y-91738000I237500J0D01*
G01*
X167115500Y-91738000D01*
G75*
G02*
X167353000Y-91975500I0J-237500D01*
G01*
X167353000Y-92475500D01*
G75*
G02*
X167115500Y-92713000I-237500J0D01*
G01*
G37*
%TD*%
%TO.C,R107*%
G36*
G01*
X167115500Y-88545500D02*
X166640500Y-88545500D01*
G75*
G02*
X166403000Y-88308000I0J237500D01*
G01*
X166403000Y-87808000D01*
G75*
G02*
X166640500Y-87570500I237500J0D01*
G01*
X167115500Y-87570500D01*
G75*
G02*
X167353000Y-87808000I0J-237500D01*
G01*
X167353000Y-88308000D01*
G75*
G02*
X167115500Y-88545500I-237500J0D01*
G01*
G37*
G36*
G01*
X167115500Y-86720500D02*
X166640500Y-86720500D01*
G75*
G02*
X166403000Y-86483000I0J237500D01*
G01*
X166403000Y-85983000D01*
G75*
G02*
X166640500Y-85745500I237500J0D01*
G01*
X167115500Y-85745500D01*
G75*
G02*
X167353000Y-85983000I0J-237500D01*
G01*
X167353000Y-86483000D01*
G75*
G02*
X167115500Y-86720500I-237500J0D01*
G01*
G37*
%TD*%
%TO.C,R108*%
G36*
G01*
X154948500Y-110315000D02*
X154473500Y-110315000D01*
G75*
G02*
X154236000Y-110077500I0J237500D01*
G01*
X154236000Y-109577500D01*
G75*
G02*
X154473500Y-109340000I237500J0D01*
G01*
X154948500Y-109340000D01*
G75*
G02*
X155186000Y-109577500I0J-237500D01*
G01*
X155186000Y-110077500D01*
G75*
G02*
X154948500Y-110315000I-237500J0D01*
G01*
G37*
G36*
G01*
X154948500Y-108490000D02*
X154473500Y-108490000D01*
G75*
G02*
X154236000Y-108252500I0J237500D01*
G01*
X154236000Y-107752500D01*
G75*
G02*
X154473500Y-107515000I237500J0D01*
G01*
X154948500Y-107515000D01*
G75*
G02*
X155186000Y-107752500I0J-237500D01*
G01*
X155186000Y-108252500D01*
G75*
G02*
X154948500Y-108490000I-237500J0D01*
G01*
G37*
%TD*%
%TO.C,R109*%
G36*
G01*
X158758500Y-108212000D02*
X158283500Y-108212000D01*
G75*
G02*
X158046000Y-107974500I0J237500D01*
G01*
X158046000Y-107474500D01*
G75*
G02*
X158283500Y-107237000I237500J0D01*
G01*
X158758500Y-107237000D01*
G75*
G02*
X158996000Y-107474500I0J-237500D01*
G01*
X158996000Y-107974500D01*
G75*
G02*
X158758500Y-108212000I-237500J0D01*
G01*
G37*
G36*
G01*
X158758500Y-110037000D02*
X158283500Y-110037000D01*
G75*
G02*
X158046000Y-109799500I0J237500D01*
G01*
X158046000Y-109299500D01*
G75*
G02*
X158283500Y-109062000I237500J0D01*
G01*
X158758500Y-109062000D01*
G75*
G02*
X158996000Y-109299500I0J-237500D01*
G01*
X158996000Y-109799500D01*
G75*
G02*
X158758500Y-110037000I-237500J0D01*
G01*
G37*
%TD*%
%TO.C,R111*%
G36*
G01*
X154821500Y-101806000D02*
X154346500Y-101806000D01*
G75*
G02*
X154109000Y-101568500I0J237500D01*
G01*
X154109000Y-101068500D01*
G75*
G02*
X154346500Y-100831000I237500J0D01*
G01*
X154821500Y-100831000D01*
G75*
G02*
X155059000Y-101068500I0J-237500D01*
G01*
X155059000Y-101568500D01*
G75*
G02*
X154821500Y-101806000I-237500J0D01*
G01*
G37*
G36*
G01*
X154821500Y-99981000D02*
X154346500Y-99981000D01*
G75*
G02*
X154109000Y-99743500I0J237500D01*
G01*
X154109000Y-99243500D01*
G75*
G02*
X154346500Y-99006000I237500J0D01*
G01*
X154821500Y-99006000D01*
G75*
G02*
X155059000Y-99243500I0J-237500D01*
G01*
X155059000Y-99743500D01*
G75*
G02*
X154821500Y-99981000I-237500J0D01*
G01*
G37*
%TD*%
%TO.C,R112*%
G36*
G01*
X154821500Y-103791000D02*
X154346500Y-103791000D01*
G75*
G02*
X154109000Y-103553500I0J237500D01*
G01*
X154109000Y-103053500D01*
G75*
G02*
X154346500Y-102816000I237500J0D01*
G01*
X154821500Y-102816000D01*
G75*
G02*
X155059000Y-103053500I0J-237500D01*
G01*
X155059000Y-103553500D01*
G75*
G02*
X154821500Y-103791000I-237500J0D01*
G01*
G37*
G36*
G01*
X154821500Y-105616000D02*
X154346500Y-105616000D01*
G75*
G02*
X154109000Y-105378500I0J237500D01*
G01*
X154109000Y-104878500D01*
G75*
G02*
X154346500Y-104641000I237500J0D01*
G01*
X154821500Y-104641000D01*
G75*
G02*
X155059000Y-104878500I0J-237500D01*
G01*
X155059000Y-105378500D01*
G75*
G02*
X154821500Y-105616000I-237500J0D01*
G01*
G37*
%TD*%
%TO.C,R113*%
G36*
G01*
X158682500Y-99805000D02*
X158207500Y-99805000D01*
G75*
G02*
X157970000Y-99567500I0J237500D01*
G01*
X157970000Y-99067500D01*
G75*
G02*
X158207500Y-98830000I237500J0D01*
G01*
X158682500Y-98830000D01*
G75*
G02*
X158920000Y-99067500I0J-237500D01*
G01*
X158920000Y-99567500D01*
G75*
G02*
X158682500Y-99805000I-237500J0D01*
G01*
G37*
G36*
G01*
X158682500Y-101630000D02*
X158207500Y-101630000D01*
G75*
G02*
X157970000Y-101392500I0J237500D01*
G01*
X157970000Y-100892500D01*
G75*
G02*
X158207500Y-100655000I237500J0D01*
G01*
X158682500Y-100655000D01*
G75*
G02*
X158920000Y-100892500I0J-237500D01*
G01*
X158920000Y-101392500D01*
G75*
G02*
X158682500Y-101630000I-237500J0D01*
G01*
G37*
%TD*%
D13*
%TO.C,U101*%
X180316300Y-86133800D03*
X183816300Y-86133800D03*
X180816300Y-86133800D03*
X181816300Y-86133800D03*
X179816300Y-86133800D03*
X179316300Y-86133800D03*
X182816300Y-86133800D03*
X183316300Y-86133800D03*
X182316300Y-86133800D03*
X181316300Y-86133800D03*
D14*
X176956200Y-87374200D03*
D15*
X177603900Y-88237800D03*
D14*
X186252600Y-87374200D03*
D15*
X185579500Y-88237800D03*
%TD*%
%TO.C,C1*%
G36*
G01*
X154399000Y-51007200D02*
X154399000Y-51507200D01*
G75*
G02*
X154174000Y-51732200I-225000J0D01*
G01*
X153724000Y-51732200D01*
G75*
G02*
X153499000Y-51507200I0J225000D01*
G01*
X153499000Y-51007200D01*
G75*
G02*
X153724000Y-50782200I225000J0D01*
G01*
X154174000Y-50782200D01*
G75*
G02*
X154399000Y-51007200I0J-225000D01*
G01*
G37*
G36*
G01*
X155949000Y-51007200D02*
X155949000Y-51507200D01*
G75*
G02*
X155724000Y-51732200I-225000J0D01*
G01*
X155274000Y-51732200D01*
G75*
G02*
X155049000Y-51507200I0J225000D01*
G01*
X155049000Y-51007200D01*
G75*
G02*
X155274000Y-50782200I225000J0D01*
G01*
X155724000Y-50782200D01*
G75*
G02*
X155949000Y-51007200I0J-225000D01*
G01*
G37*
%TD*%
%TO.C,C2*%
G36*
G01*
X152418000Y-64520000D02*
X152418000Y-65020000D01*
G75*
G02*
X152193000Y-65245000I-225000J0D01*
G01*
X151743000Y-65245000D01*
G75*
G02*
X151518000Y-65020000I0J225000D01*
G01*
X151518000Y-64520000D01*
G75*
G02*
X151743000Y-64295000I225000J0D01*
G01*
X152193000Y-64295000D01*
G75*
G02*
X152418000Y-64520000I0J-225000D01*
G01*
G37*
G36*
G01*
X153968000Y-64520000D02*
X153968000Y-65020000D01*
G75*
G02*
X153743000Y-65245000I-225000J0D01*
G01*
X153293000Y-65245000D01*
G75*
G02*
X153068000Y-65020000I0J225000D01*
G01*
X153068000Y-64520000D01*
G75*
G02*
X153293000Y-64295000I225000J0D01*
G01*
X153743000Y-64295000D01*
G75*
G02*
X153968000Y-64520000I0J-225000D01*
G01*
G37*
%TD*%
%TO.C,C3*%
G36*
G01*
X174469000Y-50830600D02*
X173969000Y-50830600D01*
G75*
G02*
X173744000Y-50605600I0J225000D01*
G01*
X173744000Y-50155600D01*
G75*
G02*
X173969000Y-49930600I225000J0D01*
G01*
X174469000Y-49930600D01*
G75*
G02*
X174694000Y-50155600I0J-225000D01*
G01*
X174694000Y-50605600D01*
G75*
G02*
X174469000Y-50830600I-225000J0D01*
G01*
G37*
G36*
G01*
X174469000Y-52380600D02*
X173969000Y-52380600D01*
G75*
G02*
X173744000Y-52155600I0J225000D01*
G01*
X173744000Y-51705600D01*
G75*
G02*
X173969000Y-51480600I225000J0D01*
G01*
X174469000Y-51480600D01*
G75*
G02*
X174694000Y-51705600I0J-225000D01*
G01*
X174694000Y-52155600D01*
G75*
G02*
X174469000Y-52380600I-225000J0D01*
G01*
G37*
%TD*%
%TO.C,C4*%
G36*
G01*
X178025000Y-52393600D02*
X177525000Y-52393600D01*
G75*
G02*
X177300000Y-52168600I0J225000D01*
G01*
X177300000Y-51718600D01*
G75*
G02*
X177525000Y-51493600I225000J0D01*
G01*
X178025000Y-51493600D01*
G75*
G02*
X178250000Y-51718600I0J-225000D01*
G01*
X178250000Y-52168600D01*
G75*
G02*
X178025000Y-52393600I-225000J0D01*
G01*
G37*
G36*
G01*
X178025000Y-50843600D02*
X177525000Y-50843600D01*
G75*
G02*
X177300000Y-50618600I0J225000D01*
G01*
X177300000Y-50168600D01*
G75*
G02*
X177525000Y-49943600I225000J0D01*
G01*
X178025000Y-49943600D01*
G75*
G02*
X178250000Y-50168600I0J-225000D01*
G01*
X178250000Y-50618600D01*
G75*
G02*
X178025000Y-50843600I-225000J0D01*
G01*
G37*
%TD*%
%TO.C,C5*%
G36*
G01*
X151531000Y-67204400D02*
X151531000Y-66704400D01*
G75*
G02*
X151756000Y-66479400I225000J0D01*
G01*
X152206000Y-66479400D01*
G75*
G02*
X152431000Y-66704400I0J-225000D01*
G01*
X152431000Y-67204400D01*
G75*
G02*
X152206000Y-67429400I-225000J0D01*
G01*
X151756000Y-67429400D01*
G75*
G02*
X151531000Y-67204400I0J225000D01*
G01*
G37*
G36*
G01*
X153081000Y-67204400D02*
X153081000Y-66704400D01*
G75*
G02*
X153306000Y-66479400I225000J0D01*
G01*
X153756000Y-66479400D01*
G75*
G02*
X153981000Y-66704400I0J-225000D01*
G01*
X153981000Y-67204400D01*
G75*
G02*
X153756000Y-67429400I-225000J0D01*
G01*
X153306000Y-67429400D01*
G75*
G02*
X153081000Y-67204400I0J225000D01*
G01*
G37*
%TD*%
%TO.C,C6*%
G36*
G01*
X172691000Y-52393600D02*
X172191000Y-52393600D01*
G75*
G02*
X171966000Y-52168600I0J225000D01*
G01*
X171966000Y-51718600D01*
G75*
G02*
X172191000Y-51493600I225000J0D01*
G01*
X172691000Y-51493600D01*
G75*
G02*
X172916000Y-51718600I0J-225000D01*
G01*
X172916000Y-52168600D01*
G75*
G02*
X172691000Y-52393600I-225000J0D01*
G01*
G37*
G36*
G01*
X172691000Y-50843600D02*
X172191000Y-50843600D01*
G75*
G02*
X171966000Y-50618600I0J225000D01*
G01*
X171966000Y-50168600D01*
G75*
G02*
X172191000Y-49943600I225000J0D01*
G01*
X172691000Y-49943600D01*
G75*
G02*
X172916000Y-50168600I0J-225000D01*
G01*
X172916000Y-50618600D01*
G75*
G02*
X172691000Y-50843600I-225000J0D01*
G01*
G37*
%TD*%
%TO.C,C7*%
G36*
G01*
X176247000Y-52393600D02*
X175747000Y-52393600D01*
G75*
G02*
X175522000Y-52168600I0J225000D01*
G01*
X175522000Y-51718600D01*
G75*
G02*
X175747000Y-51493600I225000J0D01*
G01*
X176247000Y-51493600D01*
G75*
G02*
X176472000Y-51718600I0J-225000D01*
G01*
X176472000Y-52168600D01*
G75*
G02*
X176247000Y-52393600I-225000J0D01*
G01*
G37*
G36*
G01*
X176247000Y-50843600D02*
X175747000Y-50843600D01*
G75*
G02*
X175522000Y-50618600I0J225000D01*
G01*
X175522000Y-50168600D01*
G75*
G02*
X175747000Y-49943600I225000J0D01*
G01*
X176247000Y-49943600D01*
G75*
G02*
X176472000Y-50168600I0J-225000D01*
G01*
X176472000Y-50618600D01*
G75*
G02*
X176247000Y-50843600I-225000J0D01*
G01*
G37*
%TD*%
D16*
%TO.C,D1*%
X151892000Y-126004000D03*
X151892000Y-128504000D03*
%TD*%
%TO.C,D2*%
X158496000Y-126004000D03*
X158496000Y-128504000D03*
%TD*%
%TO.C,D3*%
X165100000Y-128504000D03*
X165100000Y-126004000D03*
%TD*%
%TO.C,D4*%
X171704000Y-126004000D03*
X171704000Y-128504000D03*
%TD*%
%TO.C,D5*%
X178308000Y-128504000D03*
X178308000Y-126004000D03*
%TD*%
%TO.C,D6*%
X185166000Y-126004000D03*
X185166000Y-128504000D03*
%TD*%
%TO.C,D7*%
X191770000Y-128504000D03*
X191770000Y-126004000D03*
%TD*%
%TO.C,D8*%
X198374000Y-126004000D03*
X198374000Y-128504000D03*
%TD*%
%TO.C,D9*%
X204978000Y-128504000D03*
X204978000Y-126004000D03*
%TD*%
%TO.C,D10*%
X211582000Y-126024000D03*
X211582000Y-128524000D03*
%TD*%
%TO.C,D11*%
X206908000Y-116129000D03*
X206908000Y-113629000D03*
%TD*%
%TO.C,D12*%
X203454000Y-114641000D03*
X203454000Y-112141000D03*
%TD*%
%TO.C,D13*%
X151892000Y-133624000D03*
X151892000Y-136124000D03*
%TD*%
%TO.C,D14*%
X158496000Y-136124000D03*
X158496000Y-133624000D03*
%TD*%
%TO.C,D15*%
X165100000Y-133624000D03*
X165100000Y-136124000D03*
%TD*%
%TO.C,D16*%
X171704000Y-136124000D03*
X171704000Y-133624000D03*
%TD*%
%TO.C,D17*%
X178562000Y-133624000D03*
X178562000Y-136124000D03*
%TD*%
%TO.C,D18*%
X185166000Y-136124000D03*
X185166000Y-133624000D03*
%TD*%
%TO.C,D19*%
X191516000Y-133624000D03*
X191516000Y-136124000D03*
%TD*%
%TO.C,D20*%
X198374000Y-133624000D03*
X198374000Y-136124000D03*
%TD*%
%TO.C,D21*%
X204978000Y-136124000D03*
X204978000Y-133624000D03*
%TD*%
%TO.C,D22*%
X211582000Y-136124000D03*
X211582000Y-133624000D03*
%TD*%
%TO.C,D23*%
X198247000Y-114427000D03*
X198247000Y-111927000D03*
%TD*%
%TO.C,D24*%
X192405000Y-112395000D03*
X192405000Y-114895000D03*
%TD*%
%TO.C,D25*%
X151892000Y-143744000D03*
X151892000Y-141244000D03*
%TD*%
%TO.C,D26*%
X158496000Y-141244000D03*
X158496000Y-143744000D03*
%TD*%
%TO.C,D27*%
X165100000Y-143744000D03*
X165100000Y-141244000D03*
%TD*%
%TO.C,D28*%
X171704000Y-141244000D03*
X171704000Y-143744000D03*
%TD*%
%TO.C,D29*%
X178562000Y-143744000D03*
X178562000Y-141244000D03*
%TD*%
%TO.C,D30*%
X184912000Y-141244000D03*
X184912000Y-143744000D03*
%TD*%
%TO.C,D31*%
X191770000Y-143744000D03*
X191770000Y-141244000D03*
%TD*%
%TO.C,D32*%
X198120000Y-141244000D03*
X198120000Y-143744000D03*
%TD*%
%TO.C,D33*%
X204978000Y-143744000D03*
X204978000Y-141244000D03*
%TD*%
%TO.C,D34*%
X211582000Y-141244000D03*
X211582000Y-143744000D03*
%TD*%
%TO.C,D35*%
X185166000Y-121392000D03*
X185166000Y-118892000D03*
%TD*%
%TO.C,D36*%
X191770000Y-118892000D03*
X191770000Y-121392000D03*
%TD*%
%TO.C,D37*%
X151892000Y-151364000D03*
X151892000Y-148864000D03*
%TD*%
%TO.C,D38*%
X158750000Y-148864000D03*
X158750000Y-151364000D03*
%TD*%
%TO.C,D39*%
X165100000Y-151364000D03*
X165100000Y-148864000D03*
%TD*%
%TO.C,D40*%
X171958000Y-148864000D03*
X171958000Y-151364000D03*
%TD*%
%TO.C,D41*%
X178308000Y-151364000D03*
X178308000Y-148864000D03*
%TD*%
%TO.C,D42*%
X185166000Y-148864000D03*
X185166000Y-151364000D03*
%TD*%
%TO.C,D43*%
X191770000Y-151364000D03*
X191770000Y-148864000D03*
%TD*%
%TO.C,D44*%
X198374000Y-148864000D03*
X198374000Y-151364000D03*
%TD*%
%TO.C,D45*%
X204978000Y-148864000D03*
X204978000Y-151364000D03*
%TD*%
%TO.C,D46*%
X211836000Y-151364000D03*
X211836000Y-148864000D03*
%TD*%
%TO.C,D47*%
X198374000Y-118892000D03*
X198374000Y-121392000D03*
%TD*%
%TO.C,D48*%
X204978000Y-121392000D03*
X204978000Y-118892000D03*
%TD*%
%TO.C,D49*%
X151892000Y-156484000D03*
X151892000Y-158984000D03*
%TD*%
%TO.C,D50*%
X158750000Y-158984000D03*
X158750000Y-156484000D03*
%TD*%
%TO.C,D51*%
X165100000Y-156484000D03*
X165100000Y-158984000D03*
%TD*%
%TO.C,D52*%
X178562000Y-158984000D03*
X178562000Y-156484000D03*
%TD*%
%TO.C,D55*%
X204978000Y-156484000D03*
X204978000Y-158984000D03*
%TD*%
%TO.C,D56*%
X211582000Y-158984000D03*
X211582000Y-156484000D03*
%TD*%
%TO.C,D57*%
X211582000Y-118892000D03*
X211582000Y-121392000D03*
%TD*%
%TO.C,D58*%
X152146000Y-121392000D03*
X152146000Y-118892000D03*
%TD*%
%TO.C,D59*%
X158750000Y-121392000D03*
X158750000Y-118892000D03*
%TD*%
%TO.C,D60*%
X165354000Y-118892000D03*
X165354000Y-121392000D03*
%TD*%
%TO.C,D61*%
X171958000Y-121392000D03*
X171958000Y-118892000D03*
%TD*%
%TO.C,D62*%
X178562000Y-118892000D03*
X178562000Y-121392000D03*
%TD*%
D17*
%TO.C,J4*%
X207670000Y-106930000D03*
X207670000Y-107430000D03*
X207670000Y-107930000D03*
X207670000Y-108430000D03*
X207670000Y-105930000D03*
X207670000Y-104930000D03*
X207670000Y-105430000D03*
X207670000Y-106430000D03*
X207670000Y-103330000D03*
X207670000Y-103630000D03*
X207670000Y-104130000D03*
X207670000Y-104430000D03*
X207670000Y-109230000D03*
X207670000Y-108930000D03*
X207670000Y-109730000D03*
X207670000Y-110030000D03*
%TD*%
%TO.C,R1*%
G36*
G01*
X182328000Y-57374200D02*
X182328000Y-56824200D01*
G75*
G02*
X182528000Y-56624200I200000J0D01*
G01*
X182928000Y-56624200D01*
G75*
G02*
X183128000Y-56824200I0J-200000D01*
G01*
X183128000Y-57374200D01*
G75*
G02*
X182928000Y-57574200I-200000J0D01*
G01*
X182528000Y-57574200D01*
G75*
G02*
X182328000Y-57374200I0J200000D01*
G01*
G37*
G36*
G01*
X183978000Y-57374200D02*
X183978000Y-56824200D01*
G75*
G02*
X184178000Y-56624200I200000J0D01*
G01*
X184578000Y-56624200D01*
G75*
G02*
X184778000Y-56824200I0J-200000D01*
G01*
X184778000Y-57374200D01*
G75*
G02*
X184578000Y-57574200I-200000J0D01*
G01*
X184178000Y-57574200D01*
G75*
G02*
X183978000Y-57374200I0J200000D01*
G01*
G37*
%TD*%
%TO.C,R2*%
G36*
G01*
X183128000Y-59872200D02*
X183128000Y-60422200D01*
G75*
G02*
X182928000Y-60622200I-200000J0D01*
G01*
X182528000Y-60622200D01*
G75*
G02*
X182328000Y-60422200I0J200000D01*
G01*
X182328000Y-59872200D01*
G75*
G02*
X182528000Y-59672200I200000J0D01*
G01*
X182928000Y-59672200D01*
G75*
G02*
X183128000Y-59872200I0J-200000D01*
G01*
G37*
G36*
G01*
X184778000Y-59872200D02*
X184778000Y-60422200D01*
G75*
G02*
X184578000Y-60622200I-200000J0D01*
G01*
X184178000Y-60622200D01*
G75*
G02*
X183978000Y-60422200I0J200000D01*
G01*
X183978000Y-59872200D01*
G75*
G02*
X184178000Y-59672200I200000J0D01*
G01*
X184578000Y-59672200D01*
G75*
G02*
X184778000Y-59872200I0J-200000D01*
G01*
G37*
%TD*%
%TO.C,R3*%
G36*
G01*
X202572000Y-102535000D02*
X202572000Y-101985000D01*
G75*
G02*
X202772000Y-101785000I200000J0D01*
G01*
X203172000Y-101785000D01*
G75*
G02*
X203372000Y-101985000I0J-200000D01*
G01*
X203372000Y-102535000D01*
G75*
G02*
X203172000Y-102735000I-200000J0D01*
G01*
X202772000Y-102735000D01*
G75*
G02*
X202572000Y-102535000I0J200000D01*
G01*
G37*
G36*
G01*
X204222000Y-102535000D02*
X204222000Y-101985000D01*
G75*
G02*
X204422000Y-101785000I200000J0D01*
G01*
X204822000Y-101785000D01*
G75*
G02*
X205022000Y-101985000I0J-200000D01*
G01*
X205022000Y-102535000D01*
G75*
G02*
X204822000Y-102735000I-200000J0D01*
G01*
X204422000Y-102735000D01*
G75*
G02*
X204222000Y-102535000I0J200000D01*
G01*
G37*
%TD*%
%TO.C,R4*%
G36*
G01*
X203371000Y-103636000D02*
X203371000Y-104186000D01*
G75*
G02*
X203171000Y-104386000I-200000J0D01*
G01*
X202771000Y-104386000D01*
G75*
G02*
X202571000Y-104186000I0J200000D01*
G01*
X202571000Y-103636000D01*
G75*
G02*
X202771000Y-103436000I200000J0D01*
G01*
X203171000Y-103436000D01*
G75*
G02*
X203371000Y-103636000I0J-200000D01*
G01*
G37*
G36*
G01*
X205021000Y-103636000D02*
X205021000Y-104186000D01*
G75*
G02*
X204821000Y-104386000I-200000J0D01*
G01*
X204421000Y-104386000D01*
G75*
G02*
X204221000Y-104186000I0J200000D01*
G01*
X204221000Y-103636000D01*
G75*
G02*
X204421000Y-103436000I200000J0D01*
G01*
X204821000Y-103436000D01*
G75*
G02*
X205021000Y-103636000I0J-200000D01*
G01*
G37*
%TD*%
%TO.C,R65*%
G36*
G01*
X199826000Y-106788000D02*
X200376000Y-106788000D01*
G75*
G02*
X200576000Y-106988000I0J-200000D01*
G01*
X200576000Y-107388000D01*
G75*
G02*
X200376000Y-107588000I-200000J0D01*
G01*
X199826000Y-107588000D01*
G75*
G02*
X199626000Y-107388000I0J200000D01*
G01*
X199626000Y-106988000D01*
G75*
G02*
X199826000Y-106788000I200000J0D01*
G01*
G37*
G36*
G01*
X199826000Y-108438000D02*
X200376000Y-108438000D01*
G75*
G02*
X200576000Y-108638000I0J-200000D01*
G01*
X200576000Y-109038000D01*
G75*
G02*
X200376000Y-109238000I-200000J0D01*
G01*
X199826000Y-109238000D01*
G75*
G02*
X199626000Y-109038000I0J200000D01*
G01*
X199626000Y-108638000D01*
G75*
G02*
X199826000Y-108438000I200000J0D01*
G01*
G37*
%TD*%
%TO.C,R66*%
G36*
G01*
X193112000Y-102089000D02*
X192562000Y-102089000D01*
G75*
G02*
X192362000Y-101889000I0J200000D01*
G01*
X192362000Y-101489000D01*
G75*
G02*
X192562000Y-101289000I200000J0D01*
G01*
X193112000Y-101289000D01*
G75*
G02*
X193312000Y-101489000I0J-200000D01*
G01*
X193312000Y-101889000D01*
G75*
G02*
X193112000Y-102089000I-200000J0D01*
G01*
G37*
G36*
G01*
X193112000Y-103739000D02*
X192562000Y-103739000D01*
G75*
G02*
X192362000Y-103539000I0J200000D01*
G01*
X192362000Y-103139000D01*
G75*
G02*
X192562000Y-102939000I200000J0D01*
G01*
X193112000Y-102939000D01*
G75*
G02*
X193312000Y-103139000I0J-200000D01*
G01*
X193312000Y-103539000D01*
G75*
G02*
X193112000Y-103739000I-200000J0D01*
G01*
G37*
%TD*%
D18*
%TO.C,SW61*%
X184353000Y-54102000D03*
X180953000Y-54102000D03*
%TD*%
%TO.C,J5*%
G36*
G01*
X151225000Y-83590000D02*
X154225000Y-83590000D01*
G75*
G02*
X154475000Y-83840000I0J-250000D01*
G01*
X154475000Y-84340000D01*
G75*
G02*
X154225000Y-84590000I-250000J0D01*
G01*
X151225000Y-84590000D01*
G75*
G02*
X150975000Y-84340000I0J250000D01*
G01*
X150975000Y-83840000D01*
G75*
G02*
X151225000Y-83590000I250000J0D01*
G01*
G37*
G36*
G01*
X151225000Y-85590000D02*
X154225000Y-85590000D01*
G75*
G02*
X154475000Y-85840000I0J-250000D01*
G01*
X154475000Y-86340000D01*
G75*
G02*
X154225000Y-86590000I-250000J0D01*
G01*
X151225000Y-86590000D01*
G75*
G02*
X150975000Y-86340000I0J250000D01*
G01*
X150975000Y-85840000D01*
G75*
G02*
X151225000Y-85590000I250000J0D01*
G01*
G37*
G36*
G01*
X157025000Y-80990000D02*
X159925000Y-80990000D01*
G75*
G02*
X160175000Y-81240000I0J-250000D01*
G01*
X160175000Y-82240000D01*
G75*
G02*
X159925000Y-82490000I-250000J0D01*
G01*
X157025000Y-82490000D01*
G75*
G02*
X156775000Y-82240000I0J250000D01*
G01*
X156775000Y-81240000D01*
G75*
G02*
X157025000Y-80990000I250000J0D01*
G01*
G37*
G36*
G01*
X157025000Y-87690000D02*
X159925000Y-87690000D01*
G75*
G02*
X160175000Y-87940000I0J-250000D01*
G01*
X160175000Y-88940000D01*
G75*
G02*
X159925000Y-89190000I-250000J0D01*
G01*
X157025000Y-89190000D01*
G75*
G02*
X156775000Y-88940000I0J250000D01*
G01*
X156775000Y-87940000D01*
G75*
G02*
X157025000Y-87690000I250000J0D01*
G01*
G37*
%TD*%
D16*
%TO.C,J7*%
X192722000Y-52792500D03*
X192722000Y-55792500D03*
D19*
X194197000Y-54292500D03*
X191247000Y-54292500D03*
%TD*%
D20*
%TO.C,U2*%
X211078000Y-67488000D03*
X209078000Y-67488000D03*
X207078000Y-67488000D03*
X205078000Y-67488000D03*
X203078000Y-67488000D03*
X201078000Y-67488000D03*
X199078000Y-67488000D03*
X197078000Y-67488000D03*
X197078000Y-51488000D03*
X199078000Y-51488000D03*
X201078000Y-51488000D03*
X203078000Y-51488000D03*
X205078000Y-51488000D03*
X207078000Y-51488000D03*
X209078000Y-51488000D03*
X211078000Y-51488000D03*
%TD*%
%TO.C,U1*%
G36*
G01*
X174306966Y-61150985D02*
X174134149Y-60978168D01*
G75*
G02*
X174134149Y-60967138I5515J5515D01*
G01*
X174837296Y-60263991D01*
G75*
G02*
X174848326Y-60263991I5515J-5515D01*
G01*
X175021143Y-60436808D01*
G75*
G02*
X175021143Y-60447838I-5515J-5515D01*
G01*
X174317996Y-61150985D01*
G75*
G02*
X174306966Y-61150985I-5515J5515D01*
G01*
G37*
G36*
G01*
X173953412Y-60797432D02*
X173780595Y-60624615D01*
G75*
G02*
X173780595Y-60613585I5515J5515D01*
G01*
X174483742Y-59910438D01*
G75*
G02*
X174494772Y-59910438I5515J-5515D01*
G01*
X174667589Y-60083255D01*
G75*
G02*
X174667589Y-60094285I-5515J-5515D01*
G01*
X173964442Y-60797432D01*
G75*
G02*
X173953412Y-60797432I-5515J5515D01*
G01*
G37*
G36*
G01*
X173599859Y-60443878D02*
X173427042Y-60271061D01*
G75*
G02*
X173427042Y-60260031I5515J5515D01*
G01*
X174130189Y-59556884D01*
G75*
G02*
X174141219Y-59556884I5515J-5515D01*
G01*
X174314036Y-59729701D01*
G75*
G02*
X174314036Y-59740731I-5515J-5515D01*
G01*
X173610889Y-60443878D01*
G75*
G02*
X173599859Y-60443878I-5515J5515D01*
G01*
G37*
G36*
G01*
X173246306Y-60090325D02*
X173073489Y-59917508D01*
G75*
G02*
X173073489Y-59906478I5515J5515D01*
G01*
X173776636Y-59203331D01*
G75*
G02*
X173787666Y-59203331I5515J-5515D01*
G01*
X173960483Y-59376148D01*
G75*
G02*
X173960483Y-59387178I-5515J-5515D01*
G01*
X173257336Y-60090325D01*
G75*
G02*
X173246306Y-60090325I-5515J5515D01*
G01*
G37*
G36*
G01*
X172892752Y-59736772D02*
X172719935Y-59563955D01*
G75*
G02*
X172719935Y-59552925I5515J5515D01*
G01*
X173423082Y-58849778D01*
G75*
G02*
X173434112Y-58849778I5515J-5515D01*
G01*
X173606929Y-59022595D01*
G75*
G02*
X173606929Y-59033625I-5515J-5515D01*
G01*
X172903782Y-59736772D01*
G75*
G02*
X172892752Y-59736772I-5515J5515D01*
G01*
G37*
G36*
G01*
X172539199Y-59383218D02*
X172366382Y-59210401D01*
G75*
G02*
X172366382Y-59199371I5515J5515D01*
G01*
X173069529Y-58496224D01*
G75*
G02*
X173080559Y-58496224I5515J-5515D01*
G01*
X173253376Y-58669041D01*
G75*
G02*
X173253376Y-58680071I-5515J-5515D01*
G01*
X172550229Y-59383218D01*
G75*
G02*
X172539199Y-59383218I-5515J5515D01*
G01*
G37*
G36*
G01*
X172185645Y-59029665D02*
X172012828Y-58856848D01*
G75*
G02*
X172012828Y-58845818I5515J5515D01*
G01*
X172715975Y-58142671D01*
G75*
G02*
X172727005Y-58142671I5515J-5515D01*
G01*
X172899822Y-58315488D01*
G75*
G02*
X172899822Y-58326518I-5515J-5515D01*
G01*
X172196675Y-59029665D01*
G75*
G02*
X172185645Y-59029665I-5515J5515D01*
G01*
G37*
G36*
G01*
X171832092Y-58676111D02*
X171659275Y-58503294D01*
G75*
G02*
X171659275Y-58492264I5515J5515D01*
G01*
X172362422Y-57789117D01*
G75*
G02*
X172373452Y-57789117I5515J-5515D01*
G01*
X172546269Y-57961934D01*
G75*
G02*
X172546269Y-57972964I-5515J-5515D01*
G01*
X171843122Y-58676111D01*
G75*
G02*
X171832092Y-58676111I-5515J5515D01*
G01*
G37*
G36*
G01*
X171478539Y-58322558D02*
X171305722Y-58149741D01*
G75*
G02*
X171305722Y-58138711I5515J5515D01*
G01*
X172008869Y-57435564D01*
G75*
G02*
X172019899Y-57435564I5515J-5515D01*
G01*
X172192716Y-57608381D01*
G75*
G02*
X172192716Y-57619411I-5515J-5515D01*
G01*
X171489569Y-58322558D01*
G75*
G02*
X171478539Y-58322558I-5515J5515D01*
G01*
G37*
G36*
G01*
X171124985Y-57969005D02*
X170952168Y-57796188D01*
G75*
G02*
X170952168Y-57785158I5515J5515D01*
G01*
X171655315Y-57082011D01*
G75*
G02*
X171666345Y-57082011I5515J-5515D01*
G01*
X171839162Y-57254828D01*
G75*
G02*
X171839162Y-57265858I-5515J-5515D01*
G01*
X171136015Y-57969005D01*
G75*
G02*
X171124985Y-57969005I-5515J5515D01*
G01*
G37*
G36*
G01*
X170771432Y-57615451D02*
X170598615Y-57442634D01*
G75*
G02*
X170598615Y-57431604I5515J5515D01*
G01*
X171301762Y-56728457D01*
G75*
G02*
X171312792Y-56728457I5515J-5515D01*
G01*
X171485609Y-56901274D01*
G75*
G02*
X171485609Y-56912304I-5515J-5515D01*
G01*
X170782462Y-57615451D01*
G75*
G02*
X170771432Y-57615451I-5515J5515D01*
G01*
G37*
G36*
G01*
X166019674Y-62367209D02*
X165846857Y-62194392D01*
G75*
G02*
X165846857Y-62183362I5515J5515D01*
G01*
X166550004Y-61480215D01*
G75*
G02*
X166561034Y-61480215I5515J-5515D01*
G01*
X166733851Y-61653032D01*
G75*
G02*
X166733851Y-61664062I-5515J-5515D01*
G01*
X166030704Y-62367209D01*
G75*
G02*
X166019674Y-62367209I-5515J5515D01*
G01*
G37*
G36*
G01*
X166373228Y-62720762D02*
X166200411Y-62547945D01*
G75*
G02*
X166200411Y-62536915I5515J5515D01*
G01*
X166903558Y-61833768D01*
G75*
G02*
X166914588Y-61833768I5515J-5515D01*
G01*
X167087405Y-62006585D01*
G75*
G02*
X167087405Y-62017615I-5515J-5515D01*
G01*
X166384258Y-62720762D01*
G75*
G02*
X166373228Y-62720762I-5515J5515D01*
G01*
G37*
G36*
G01*
X166726781Y-63074316D02*
X166553964Y-62901499D01*
G75*
G02*
X166553964Y-62890469I5515J5515D01*
G01*
X167257111Y-62187322D01*
G75*
G02*
X167268141Y-62187322I5515J-5515D01*
G01*
X167440958Y-62360139D01*
G75*
G02*
X167440958Y-62371169I-5515J-5515D01*
G01*
X166737811Y-63074316D01*
G75*
G02*
X166726781Y-63074316I-5515J5515D01*
G01*
G37*
G36*
G01*
X167080334Y-63427869D02*
X166907517Y-63255052D01*
G75*
G02*
X166907517Y-63244022I5515J5515D01*
G01*
X167610664Y-62540875D01*
G75*
G02*
X167621694Y-62540875I5515J-5515D01*
G01*
X167794511Y-62713692D01*
G75*
G02*
X167794511Y-62724722I-5515J-5515D01*
G01*
X167091364Y-63427869D01*
G75*
G02*
X167080334Y-63427869I-5515J5515D01*
G01*
G37*
G36*
G01*
X167433888Y-63781422D02*
X167261071Y-63608605D01*
G75*
G02*
X167261071Y-63597575I5515J5515D01*
G01*
X167964218Y-62894428D01*
G75*
G02*
X167975248Y-62894428I5515J-5515D01*
G01*
X168148065Y-63067245D01*
G75*
G02*
X168148065Y-63078275I-5515J-5515D01*
G01*
X167444918Y-63781422D01*
G75*
G02*
X167433888Y-63781422I-5515J5515D01*
G01*
G37*
G36*
G01*
X167787441Y-64134976D02*
X167614624Y-63962159D01*
G75*
G02*
X167614624Y-63951129I5515J5515D01*
G01*
X168317771Y-63247982D01*
G75*
G02*
X168328801Y-63247982I5515J-5515D01*
G01*
X168501618Y-63420799D01*
G75*
G02*
X168501618Y-63431829I-5515J-5515D01*
G01*
X167798471Y-64134976D01*
G75*
G02*
X167787441Y-64134976I-5515J5515D01*
G01*
G37*
G36*
G01*
X168140995Y-64488529D02*
X167968178Y-64315712D01*
G75*
G02*
X167968178Y-64304682I5515J5515D01*
G01*
X168671325Y-63601535D01*
G75*
G02*
X168682355Y-63601535I5515J-5515D01*
G01*
X168855172Y-63774352D01*
G75*
G02*
X168855172Y-63785382I-5515J-5515D01*
G01*
X168152025Y-64488529D01*
G75*
G02*
X168140995Y-64488529I-5515J5515D01*
G01*
G37*
G36*
G01*
X168494548Y-64842083D02*
X168321731Y-64669266D01*
G75*
G02*
X168321731Y-64658236I5515J5515D01*
G01*
X169024878Y-63955089D01*
G75*
G02*
X169035908Y-63955089I5515J-5515D01*
G01*
X169208725Y-64127906D01*
G75*
G02*
X169208725Y-64138936I-5515J-5515D01*
G01*
X168505578Y-64842083D01*
G75*
G02*
X168494548Y-64842083I-5515J5515D01*
G01*
G37*
G36*
G01*
X168848101Y-65195636D02*
X168675284Y-65022819D01*
G75*
G02*
X168675284Y-65011789I5515J5515D01*
G01*
X169378431Y-64308642D01*
G75*
G02*
X169389461Y-64308642I5515J-5515D01*
G01*
X169562278Y-64481459D01*
G75*
G02*
X169562278Y-64492489I-5515J-5515D01*
G01*
X168859131Y-65195636D01*
G75*
G02*
X168848101Y-65195636I-5515J5515D01*
G01*
G37*
G36*
G01*
X169201655Y-65549189D02*
X169028838Y-65376372D01*
G75*
G02*
X169028838Y-65365342I5515J5515D01*
G01*
X169731985Y-64662195D01*
G75*
G02*
X169743015Y-64662195I5515J-5515D01*
G01*
X169915832Y-64835012D01*
G75*
G02*
X169915832Y-64846042I-5515J-5515D01*
G01*
X169212685Y-65549189D01*
G75*
G02*
X169201655Y-65549189I-5515J5515D01*
G01*
G37*
G36*
G01*
X169555208Y-65902743D02*
X169382391Y-65729926D01*
G75*
G02*
X169382391Y-65718896I5515J5515D01*
G01*
X170085538Y-65015749D01*
G75*
G02*
X170096568Y-65015749I5515J-5515D01*
G01*
X170269385Y-65188566D01*
G75*
G02*
X170269385Y-65199596I-5515J-5515D01*
G01*
X169566238Y-65902743D01*
G75*
G02*
X169555208Y-65902743I-5515J5515D01*
G01*
G37*
G36*
G01*
X171283377Y-65884358D02*
X170617000Y-65217981D01*
G75*
G02*
X170617000Y-65170181I23900J23900D01*
G01*
X170753047Y-65034134D01*
G75*
G02*
X170800847Y-65034134I23900J-23900D01*
G01*
X171467224Y-65700511D01*
G75*
G02*
X171467224Y-65748311I-23900J-23900D01*
G01*
X171331177Y-65884358D01*
G75*
G02*
X171283377Y-65884358I-23900J23900D01*
G01*
G37*
G36*
G01*
X171636930Y-65530804D02*
X170970553Y-64864427D01*
G75*
G02*
X170970553Y-64816627I23900J23900D01*
G01*
X171106600Y-64680580D01*
G75*
G02*
X171154400Y-64680580I23900J-23900D01*
G01*
X171820777Y-65346957D01*
G75*
G02*
X171820777Y-65394757I-23900J-23900D01*
G01*
X171684730Y-65530804D01*
G75*
G02*
X171636930Y-65530804I-23900J23900D01*
G01*
G37*
G36*
G01*
X171990484Y-65177251D02*
X171324107Y-64510874D01*
G75*
G02*
X171324107Y-64463074I23900J23900D01*
G01*
X171460154Y-64327027D01*
G75*
G02*
X171507954Y-64327027I23900J-23900D01*
G01*
X172174331Y-64993404D01*
G75*
G02*
X172174331Y-65041204I-23900J-23900D01*
G01*
X172038284Y-65177251D01*
G75*
G02*
X171990484Y-65177251I-23900J23900D01*
G01*
G37*
G36*
G01*
X172344037Y-64823698D02*
X171677660Y-64157321D01*
G75*
G02*
X171677660Y-64109521I23900J23900D01*
G01*
X171813707Y-63973474D01*
G75*
G02*
X171861507Y-63973474I23900J-23900D01*
G01*
X172527884Y-64639851D01*
G75*
G02*
X172527884Y-64687651I-23900J-23900D01*
G01*
X172391837Y-64823698D01*
G75*
G02*
X172344037Y-64823698I-23900J23900D01*
G01*
G37*
G36*
G01*
X172697590Y-64470144D02*
X172031213Y-63803767D01*
G75*
G02*
X172031213Y-63755967I23900J23900D01*
G01*
X172167260Y-63619920D01*
G75*
G02*
X172215060Y-63619920I23900J-23900D01*
G01*
X172881437Y-64286297D01*
G75*
G02*
X172881437Y-64334097I-23900J-23900D01*
G01*
X172745390Y-64470144D01*
G75*
G02*
X172697590Y-64470144I-23900J23900D01*
G01*
G37*
G36*
G01*
X173051144Y-64116591D02*
X172384767Y-63450214D01*
G75*
G02*
X172384767Y-63402414I23900J23900D01*
G01*
X172520814Y-63266367D01*
G75*
G02*
X172568614Y-63266367I23900J-23900D01*
G01*
X173234991Y-63932744D01*
G75*
G02*
X173234991Y-63980544I-23900J-23900D01*
G01*
X173098944Y-64116591D01*
G75*
G02*
X173051144Y-64116591I-23900J23900D01*
G01*
G37*
G36*
G01*
X173404697Y-63763037D02*
X172738320Y-63096660D01*
G75*
G02*
X172738320Y-63048860I23900J23900D01*
G01*
X172874367Y-62912813D01*
G75*
G02*
X172922167Y-62912813I23900J-23900D01*
G01*
X173588544Y-63579190D01*
G75*
G02*
X173588544Y-63626990I-23900J-23900D01*
G01*
X173452497Y-63763037D01*
G75*
G02*
X173404697Y-63763037I-23900J23900D01*
G01*
G37*
G36*
G01*
X173758251Y-63409484D02*
X173091874Y-62743107D01*
G75*
G02*
X173091874Y-62695307I23900J23900D01*
G01*
X173227921Y-62559260D01*
G75*
G02*
X173275721Y-62559260I23900J-23900D01*
G01*
X173942098Y-63225637D01*
G75*
G02*
X173942098Y-63273437I-23900J-23900D01*
G01*
X173806051Y-63409484D01*
G75*
G02*
X173758251Y-63409484I-23900J23900D01*
G01*
G37*
G36*
G01*
X174111804Y-63055931D02*
X173445427Y-62389554D01*
G75*
G02*
X173445427Y-62341754I23900J23900D01*
G01*
X173581474Y-62205707D01*
G75*
G02*
X173629274Y-62205707I23900J-23900D01*
G01*
X174295651Y-62872084D01*
G75*
G02*
X174295651Y-62919884I-23900J-23900D01*
G01*
X174159604Y-63055931D01*
G75*
G02*
X174111804Y-63055931I-23900J23900D01*
G01*
G37*
G36*
G01*
X174465357Y-62702377D02*
X173798980Y-62036000D01*
G75*
G02*
X173798980Y-61988200I23900J23900D01*
G01*
X173935027Y-61852153D01*
G75*
G02*
X173982827Y-61852153I23900J-23900D01*
G01*
X174649204Y-62518530D01*
G75*
G02*
X174649204Y-62566330I-23900J-23900D01*
G01*
X174513157Y-62702377D01*
G75*
G02*
X174465357Y-62702377I-23900J23900D01*
G01*
G37*
G36*
G01*
X174818911Y-62348824D02*
X174152534Y-61682447D01*
G75*
G02*
X174152534Y-61634647I23900J23900D01*
G01*
X174288581Y-61498600D01*
G75*
G02*
X174336381Y-61498600I23900J-23900D01*
G01*
X175002758Y-62164977D01*
G75*
G02*
X175002758Y-62212777I-23900J-23900D01*
G01*
X174866711Y-62348824D01*
G75*
G02*
X174818911Y-62348824I-23900J23900D01*
G01*
G37*
G36*
G01*
X170067153Y-57597066D02*
X169400776Y-56930689D01*
G75*
G02*
X169400776Y-56882889I23900J23900D01*
G01*
X169536823Y-56746842D01*
G75*
G02*
X169584623Y-56746842I23900J-23900D01*
G01*
X170251000Y-57413219D01*
G75*
G02*
X170251000Y-57461019I-23900J-23900D01*
G01*
X170114953Y-57597066D01*
G75*
G02*
X170067153Y-57597066I-23900J23900D01*
G01*
G37*
G36*
G01*
X169713600Y-57950620D02*
X169047223Y-57284243D01*
G75*
G02*
X169047223Y-57236443I23900J23900D01*
G01*
X169183270Y-57100396D01*
G75*
G02*
X169231070Y-57100396I23900J-23900D01*
G01*
X169897447Y-57766773D01*
G75*
G02*
X169897447Y-57814573I-23900J-23900D01*
G01*
X169761400Y-57950620D01*
G75*
G02*
X169713600Y-57950620I-23900J23900D01*
G01*
G37*
G36*
G01*
X169360046Y-58304173D02*
X168693669Y-57637796D01*
G75*
G02*
X168693669Y-57589996I23900J23900D01*
G01*
X168829716Y-57453949D01*
G75*
G02*
X168877516Y-57453949I23900J-23900D01*
G01*
X169543893Y-58120326D01*
G75*
G02*
X169543893Y-58168126I-23900J-23900D01*
G01*
X169407846Y-58304173D01*
G75*
G02*
X169360046Y-58304173I-23900J23900D01*
G01*
G37*
G36*
G01*
X169006493Y-58657726D02*
X168340116Y-57991349D01*
G75*
G02*
X168340116Y-57943549I23900J23900D01*
G01*
X168476163Y-57807502D01*
G75*
G02*
X168523963Y-57807502I23900J-23900D01*
G01*
X169190340Y-58473879D01*
G75*
G02*
X169190340Y-58521679I-23900J-23900D01*
G01*
X169054293Y-58657726D01*
G75*
G02*
X169006493Y-58657726I-23900J23900D01*
G01*
G37*
G36*
G01*
X168652940Y-59011280D02*
X167986563Y-58344903D01*
G75*
G02*
X167986563Y-58297103I23900J23900D01*
G01*
X168122610Y-58161056D01*
G75*
G02*
X168170410Y-58161056I23900J-23900D01*
G01*
X168836787Y-58827433D01*
G75*
G02*
X168836787Y-58875233I-23900J-23900D01*
G01*
X168700740Y-59011280D01*
G75*
G02*
X168652940Y-59011280I-23900J23900D01*
G01*
G37*
G36*
G01*
X168299386Y-59364833D02*
X167633009Y-58698456D01*
G75*
G02*
X167633009Y-58650656I23900J23900D01*
G01*
X167769056Y-58514609D01*
G75*
G02*
X167816856Y-58514609I23900J-23900D01*
G01*
X168483233Y-59180986D01*
G75*
G02*
X168483233Y-59228786I-23900J-23900D01*
G01*
X168347186Y-59364833D01*
G75*
G02*
X168299386Y-59364833I-23900J23900D01*
G01*
G37*
G36*
G01*
X167945833Y-59718387D02*
X167279456Y-59052010D01*
G75*
G02*
X167279456Y-59004210I23900J23900D01*
G01*
X167415503Y-58868163D01*
G75*
G02*
X167463303Y-58868163I23900J-23900D01*
G01*
X168129680Y-59534540D01*
G75*
G02*
X168129680Y-59582340I-23900J-23900D01*
G01*
X167993633Y-59718387D01*
G75*
G02*
X167945833Y-59718387I-23900J23900D01*
G01*
G37*
G36*
G01*
X167592279Y-60071940D02*
X166925902Y-59405563D01*
G75*
G02*
X166925902Y-59357763I23900J23900D01*
G01*
X167061949Y-59221716D01*
G75*
G02*
X167109749Y-59221716I23900J-23900D01*
G01*
X167776126Y-59888093D01*
G75*
G02*
X167776126Y-59935893I-23900J-23900D01*
G01*
X167640079Y-60071940D01*
G75*
G02*
X167592279Y-60071940I-23900J23900D01*
G01*
G37*
G36*
G01*
X167238726Y-60425493D02*
X166572349Y-59759116D01*
G75*
G02*
X166572349Y-59711316I23900J23900D01*
G01*
X166708396Y-59575269D01*
G75*
G02*
X166756196Y-59575269I23900J-23900D01*
G01*
X167422573Y-60241646D01*
G75*
G02*
X167422573Y-60289446I-23900J-23900D01*
G01*
X167286526Y-60425493D01*
G75*
G02*
X167238726Y-60425493I-23900J23900D01*
G01*
G37*
G36*
G01*
X166885173Y-60779047D02*
X166218796Y-60112670D01*
G75*
G02*
X166218796Y-60064870I23900J23900D01*
G01*
X166354843Y-59928823D01*
G75*
G02*
X166402643Y-59928823I23900J-23900D01*
G01*
X167069020Y-60595200D01*
G75*
G02*
X167069020Y-60643000I-23900J-23900D01*
G01*
X166932973Y-60779047D01*
G75*
G02*
X166885173Y-60779047I-23900J23900D01*
G01*
G37*
G36*
G01*
X166531619Y-61132600D02*
X165865242Y-60466223D01*
G75*
G02*
X165865242Y-60418423I23900J23900D01*
G01*
X166001289Y-60282376D01*
G75*
G02*
X166049089Y-60282376I23900J-23900D01*
G01*
X166715466Y-60948753D01*
G75*
G02*
X166715466Y-60996553I-23900J-23900D01*
G01*
X166579419Y-61132600D01*
G75*
G02*
X166531619Y-61132600I-23900J23900D01*
G01*
G37*
%TD*%
D21*
%TO.C,Y1*%
G36*
X154647680Y-56973596D02*
G01*
X156132604Y-58458520D01*
X152172806Y-62418318D01*
X150687882Y-60933394D01*
X154647680Y-56973596D01*
G37*
G36*
X161365194Y-50256082D02*
G01*
X162850118Y-51741006D01*
X158890320Y-55700804D01*
X157405396Y-54215880D01*
X161365194Y-50256082D01*
G37*
%TD*%
M02*
