%TF.GenerationSoftware,KiCad,Pcbnew,(5.1.12)-1*%
%TF.CreationDate,2022-02-12T22:16:26+01:00*%
%TF.ProjectId,MemoryBrakout,4d656d6f-7279-4427-9261-6b6f75742e6b,rev?*%
%TF.SameCoordinates,Original*%
%TF.FileFunction,Legend,Bot*%
%TF.FilePolarity,Positive*%
%FSLAX46Y46*%
G04 Gerber Fmt 4.6, Leading zero omitted, Abs format (unit mm)*
G04 Created by KiCad (PCBNEW (5.1.12)-1) date 2022-02-12 22:16:26*
%MOMM*%
%LPD*%
G01*
G04 APERTURE LIST*
%ADD10C,0.150000*%
%ADD11C,0.125000*%
%ADD12C,0.120000*%
%ADD13C,0.200000*%
%ADD14C,0.127000*%
%ADD15C,0.254000*%
%ADD16C,0.080000*%
G04 APERTURE END LIST*
D10*
X211219066Y-96738342D02*
X211085733Y-96738342D01*
X211019066Y-96781200D01*
X210952400Y-96866914D01*
X210919066Y-97038342D01*
X210919066Y-97338342D01*
X210952400Y-97509771D01*
X211019066Y-97595485D01*
X211085733Y-97638342D01*
X211219066Y-97638342D01*
X211285733Y-97595485D01*
X211352400Y-97509771D01*
X211385733Y-97338342D01*
X211385733Y-97038342D01*
X211352400Y-96866914D01*
X211285733Y-96781200D01*
X211219066Y-96738342D01*
X210619066Y-97038342D02*
X210619066Y-97638342D01*
X210619066Y-97124057D02*
X210585733Y-97081200D01*
X210519066Y-97038342D01*
X210419066Y-97038342D01*
X210352400Y-97081200D01*
X210319066Y-97166914D01*
X210319066Y-97638342D01*
X209485733Y-96695485D02*
X210085733Y-97852628D01*
X209119066Y-96738342D02*
X208985733Y-96738342D01*
X208919066Y-96781200D01*
X208852400Y-96866914D01*
X208819066Y-97038342D01*
X208819066Y-97338342D01*
X208852400Y-97509771D01*
X208919066Y-97595485D01*
X208985733Y-97638342D01*
X209119066Y-97638342D01*
X209185733Y-97595485D01*
X209252400Y-97509771D01*
X209285733Y-97338342D01*
X209285733Y-97038342D01*
X209252400Y-96866914D01*
X209185733Y-96781200D01*
X209119066Y-96738342D01*
X208619066Y-97038342D02*
X208352400Y-97038342D01*
X208519066Y-97638342D02*
X208519066Y-96866914D01*
X208485733Y-96781200D01*
X208419066Y-96738342D01*
X208352400Y-96738342D01*
X208219066Y-97038342D02*
X207952400Y-97038342D01*
X208119066Y-97638342D02*
X208119066Y-96866914D01*
X208085733Y-96781200D01*
X208019066Y-96738342D01*
X207952400Y-96738342D01*
D11*
X151076428Y-87586428D02*
X151112142Y-87657857D01*
X151147857Y-87681666D01*
X151219285Y-87705476D01*
X151326428Y-87705476D01*
X151397857Y-87681666D01*
X151433571Y-87657857D01*
X151469285Y-87610238D01*
X151469285Y-87419761D01*
X150719285Y-87419761D01*
X150719285Y-87586428D01*
X150755000Y-87634047D01*
X150790714Y-87657857D01*
X150862142Y-87681666D01*
X150933571Y-87681666D01*
X151005000Y-87657857D01*
X151040714Y-87634047D01*
X151076428Y-87586428D01*
X151076428Y-87419761D01*
X151255000Y-87895952D02*
X151255000Y-88134047D01*
X151469285Y-87848333D02*
X150719285Y-88015000D01*
X151469285Y-88181666D01*
X150719285Y-88276904D02*
X150719285Y-88562619D01*
X151469285Y-88419761D02*
X150719285Y-88419761D01*
X151183571Y-88729285D02*
X151183571Y-89110238D01*
X151076428Y-81236428D02*
X151112142Y-81307857D01*
X151147857Y-81331666D01*
X151219285Y-81355476D01*
X151326428Y-81355476D01*
X151397857Y-81331666D01*
X151433571Y-81307857D01*
X151469285Y-81260238D01*
X151469285Y-81069761D01*
X150719285Y-81069761D01*
X150719285Y-81236428D01*
X150755000Y-81284047D01*
X150790714Y-81307857D01*
X150862142Y-81331666D01*
X150933571Y-81331666D01*
X151005000Y-81307857D01*
X151040714Y-81284047D01*
X151076428Y-81236428D01*
X151076428Y-81069761D01*
X151255000Y-81545952D02*
X151255000Y-81784047D01*
X151469285Y-81498333D02*
X150719285Y-81665000D01*
X151469285Y-81831666D01*
X150719285Y-81926904D02*
X150719285Y-82212619D01*
X151469285Y-82069761D02*
X150719285Y-82069761D01*
X151183571Y-82379285D02*
X151183571Y-82760238D01*
X151469285Y-82569761D02*
X150897857Y-82569761D01*
X210355571Y-83004428D02*
X210284142Y-83040142D01*
X210260333Y-83075857D01*
X210236523Y-83147285D01*
X210236523Y-83254428D01*
X210260333Y-83325857D01*
X210284142Y-83361571D01*
X210331761Y-83397285D01*
X210522238Y-83397285D01*
X210522238Y-82647285D01*
X210355571Y-82647285D01*
X210307952Y-82683000D01*
X210284142Y-82718714D01*
X210260333Y-82790142D01*
X210260333Y-82861571D01*
X210284142Y-82933000D01*
X210307952Y-82968714D01*
X210355571Y-83004428D01*
X210522238Y-83004428D01*
X210046047Y-83183000D02*
X209807952Y-83183000D01*
X210093666Y-83397285D02*
X209927000Y-82647285D01*
X209760333Y-83397285D01*
X209665095Y-82647285D02*
X209379380Y-82647285D01*
X209522238Y-83397285D02*
X209522238Y-82647285D01*
X209212714Y-83111571D02*
X208831761Y-83111571D01*
X207815571Y-83004428D02*
X207744142Y-83040142D01*
X207720333Y-83075857D01*
X207696523Y-83147285D01*
X207696523Y-83254428D01*
X207720333Y-83325857D01*
X207744142Y-83361571D01*
X207791761Y-83397285D01*
X207982238Y-83397285D01*
X207982238Y-82647285D01*
X207815571Y-82647285D01*
X207767952Y-82683000D01*
X207744142Y-82718714D01*
X207720333Y-82790142D01*
X207720333Y-82861571D01*
X207744142Y-82933000D01*
X207767952Y-82968714D01*
X207815571Y-83004428D01*
X207982238Y-83004428D01*
X207506047Y-83183000D02*
X207267952Y-83183000D01*
X207553666Y-83397285D02*
X207387000Y-82647285D01*
X207220333Y-83397285D01*
X207125095Y-82647285D02*
X206839380Y-82647285D01*
X206982238Y-83397285D02*
X206982238Y-82647285D01*
X206672714Y-83111571D02*
X206291761Y-83111571D01*
X206482238Y-83397285D02*
X206482238Y-82825857D01*
X212415428Y-82647285D02*
X212653523Y-82647285D01*
X212677333Y-83004428D01*
X212653523Y-82968714D01*
X212605904Y-82933000D01*
X212486857Y-82933000D01*
X212439238Y-82968714D01*
X212415428Y-83004428D01*
X212391619Y-83075857D01*
X212391619Y-83254428D01*
X212415428Y-83325857D01*
X212439238Y-83361571D01*
X212486857Y-83397285D01*
X212605904Y-83397285D01*
X212653523Y-83361571D01*
X212677333Y-83325857D01*
X212224952Y-82897285D02*
X212105904Y-83397285D01*
X211986857Y-82897285D01*
X205104952Y-82683000D02*
X205152571Y-82647285D01*
X205224000Y-82647285D01*
X205295428Y-82683000D01*
X205343047Y-82754428D01*
X205366857Y-82825857D01*
X205390666Y-82968714D01*
X205390666Y-83075857D01*
X205366857Y-83218714D01*
X205343047Y-83290142D01*
X205295428Y-83361571D01*
X205224000Y-83397285D01*
X205176380Y-83397285D01*
X205104952Y-83361571D01*
X205081142Y-83325857D01*
X205081142Y-83075857D01*
X205176380Y-83075857D01*
X204866857Y-83397285D02*
X204866857Y-82647285D01*
X204581142Y-83397285D01*
X204581142Y-82647285D01*
X204343047Y-83397285D02*
X204343047Y-82647285D01*
X204224000Y-82647285D01*
X204152571Y-82683000D01*
X204104952Y-82754428D01*
X204081142Y-82825857D01*
X204057333Y-82968714D01*
X204057333Y-83075857D01*
X204081142Y-83218714D01*
X204104952Y-83290142D01*
X204152571Y-83361571D01*
X204224000Y-83397285D01*
X204343047Y-83397285D01*
X195106485Y-60118714D02*
X194356485Y-60118714D01*
X194892200Y-60285380D01*
X194356485Y-60452047D01*
X195106485Y-60452047D01*
X195106485Y-60690142D02*
X194606485Y-60690142D01*
X194356485Y-60690142D02*
X194392200Y-60666333D01*
X194427914Y-60690142D01*
X194392200Y-60713952D01*
X194356485Y-60690142D01*
X194427914Y-60690142D01*
X195070771Y-60904428D02*
X195106485Y-60952047D01*
X195106485Y-61047285D01*
X195070771Y-61094904D01*
X194999342Y-61118714D01*
X194963628Y-61118714D01*
X194892200Y-61094904D01*
X194856485Y-61047285D01*
X194856485Y-60975857D01*
X194820771Y-60928238D01*
X194749342Y-60904428D01*
X194713628Y-60904428D01*
X194642200Y-60928238D01*
X194606485Y-60975857D01*
X194606485Y-61047285D01*
X194642200Y-61094904D01*
X195106485Y-61404428D02*
X195070771Y-61356809D01*
X195035057Y-61333000D01*
X194963628Y-61309190D01*
X194749342Y-61309190D01*
X194677914Y-61333000D01*
X194642200Y-61356809D01*
X194606485Y-61404428D01*
X194606485Y-61475857D01*
X194642200Y-61523476D01*
X194677914Y-61547285D01*
X194749342Y-61571095D01*
X194963628Y-61571095D01*
X195035057Y-61547285D01*
X195070771Y-61523476D01*
X195106485Y-61475857D01*
X195106485Y-61404428D01*
X195070771Y-62730142D02*
X195106485Y-62801571D01*
X195106485Y-62920619D01*
X195070771Y-62968238D01*
X195035057Y-62992047D01*
X194963628Y-63015857D01*
X194892200Y-63015857D01*
X194820771Y-62992047D01*
X194785057Y-62968238D01*
X194749342Y-62920619D01*
X194713628Y-62825380D01*
X194677914Y-62777761D01*
X194642200Y-62753952D01*
X194570771Y-62730142D01*
X194499342Y-62730142D01*
X194427914Y-62753952D01*
X194392200Y-62777761D01*
X194356485Y-62825380D01*
X194356485Y-62944428D01*
X194392200Y-63015857D01*
X195035057Y-63515857D02*
X195070771Y-63492047D01*
X195106485Y-63420619D01*
X195106485Y-63373000D01*
X195070771Y-63301571D01*
X194999342Y-63253952D01*
X194927914Y-63230142D01*
X194785057Y-63206333D01*
X194677914Y-63206333D01*
X194535057Y-63230142D01*
X194463628Y-63253952D01*
X194392200Y-63301571D01*
X194356485Y-63373000D01*
X194356485Y-63420619D01*
X194392200Y-63492047D01*
X194427914Y-63515857D01*
X195106485Y-63730142D02*
X194356485Y-63730142D01*
X195106485Y-64015857D02*
X194677914Y-63801571D01*
X194356485Y-64015857D02*
X194785057Y-63730142D01*
X195106485Y-65722523D02*
X194749342Y-65555857D01*
X195106485Y-65436809D02*
X194356485Y-65436809D01*
X194356485Y-65627285D01*
X194392200Y-65674904D01*
X194427914Y-65698714D01*
X194499342Y-65722523D01*
X194606485Y-65722523D01*
X194677914Y-65698714D01*
X194713628Y-65674904D01*
X194749342Y-65627285D01*
X194749342Y-65436809D01*
X195070771Y-65913000D02*
X195106485Y-65960619D01*
X195106485Y-66055857D01*
X195070771Y-66103476D01*
X194999342Y-66127285D01*
X194963628Y-66127285D01*
X194892200Y-66103476D01*
X194856485Y-66055857D01*
X194856485Y-65984428D01*
X194820771Y-65936809D01*
X194749342Y-65913000D01*
X194713628Y-65913000D01*
X194642200Y-65936809D01*
X194606485Y-65984428D01*
X194606485Y-66055857D01*
X194642200Y-66103476D01*
X194606485Y-66270142D02*
X194606485Y-66460619D01*
X194356485Y-66341571D02*
X194999342Y-66341571D01*
X195070771Y-66365380D01*
X195106485Y-66413000D01*
X195106485Y-66460619D01*
X187244485Y-60405971D02*
X187244485Y-60167876D01*
X187601628Y-60144066D01*
X187565914Y-60167876D01*
X187530200Y-60215495D01*
X187530200Y-60334542D01*
X187565914Y-60382161D01*
X187601628Y-60405971D01*
X187673057Y-60429780D01*
X187851628Y-60429780D01*
X187923057Y-60405971D01*
X187958771Y-60382161D01*
X187994485Y-60334542D01*
X187994485Y-60215495D01*
X187958771Y-60167876D01*
X187923057Y-60144066D01*
X187494485Y-60596447D02*
X187994485Y-60715495D01*
X187494485Y-60834542D01*
X187994485Y-62303114D02*
X187244485Y-62303114D01*
X187780200Y-62469780D01*
X187244485Y-62636447D01*
X187994485Y-62636447D01*
X187994485Y-62945971D02*
X187958771Y-62898352D01*
X187923057Y-62874542D01*
X187851628Y-62850733D01*
X187637342Y-62850733D01*
X187565914Y-62874542D01*
X187530200Y-62898352D01*
X187494485Y-62945971D01*
X187494485Y-63017400D01*
X187530200Y-63065019D01*
X187565914Y-63088828D01*
X187637342Y-63112638D01*
X187851628Y-63112638D01*
X187923057Y-63088828D01*
X187958771Y-63065019D01*
X187994485Y-63017400D01*
X187994485Y-62945971D01*
X187958771Y-63303114D02*
X187994485Y-63350733D01*
X187994485Y-63445971D01*
X187958771Y-63493590D01*
X187887342Y-63517400D01*
X187851628Y-63517400D01*
X187780200Y-63493590D01*
X187744485Y-63445971D01*
X187744485Y-63374542D01*
X187708771Y-63326923D01*
X187637342Y-63303114D01*
X187601628Y-63303114D01*
X187530200Y-63326923D01*
X187494485Y-63374542D01*
X187494485Y-63445971D01*
X187530200Y-63493590D01*
X187994485Y-63731685D02*
X187494485Y-63731685D01*
X187244485Y-63731685D02*
X187280200Y-63707876D01*
X187315914Y-63731685D01*
X187280200Y-63755495D01*
X187244485Y-63731685D01*
X187315914Y-63731685D01*
X187280200Y-65235971D02*
X187244485Y-65188352D01*
X187244485Y-65116923D01*
X187280200Y-65045495D01*
X187351628Y-64997876D01*
X187423057Y-64974066D01*
X187565914Y-64950257D01*
X187673057Y-64950257D01*
X187815914Y-64974066D01*
X187887342Y-64997876D01*
X187958771Y-65045495D01*
X187994485Y-65116923D01*
X187994485Y-65164542D01*
X187958771Y-65235971D01*
X187923057Y-65259780D01*
X187673057Y-65259780D01*
X187673057Y-65164542D01*
X187494485Y-65474066D02*
X187994485Y-65474066D01*
X187565914Y-65474066D02*
X187530200Y-65497876D01*
X187494485Y-65545495D01*
X187494485Y-65616923D01*
X187530200Y-65664542D01*
X187601628Y-65688352D01*
X187994485Y-65688352D01*
X187994485Y-66140733D02*
X187244485Y-66140733D01*
X187958771Y-66140733D02*
X187994485Y-66093114D01*
X187994485Y-65997876D01*
X187958771Y-65950257D01*
X187923057Y-65926447D01*
X187851628Y-65902638D01*
X187637342Y-65902638D01*
X187565914Y-65926447D01*
X187530200Y-65950257D01*
X187494485Y-65997876D01*
X187494485Y-66093114D01*
X187530200Y-66140733D01*
X210117476Y-88477285D02*
X210117476Y-87727285D01*
X209998428Y-87727285D01*
X209927000Y-87763000D01*
X209879380Y-87834428D01*
X209855571Y-87905857D01*
X209831761Y-88048714D01*
X209831761Y-88155857D01*
X209855571Y-88298714D01*
X209879380Y-88370142D01*
X209927000Y-88441571D01*
X209998428Y-88477285D01*
X210117476Y-88477285D01*
X209617476Y-88191571D02*
X209236523Y-88191571D01*
X209427000Y-88477285D02*
X209427000Y-87905857D01*
X207577476Y-88477285D02*
X207577476Y-87727285D01*
X207458428Y-87727285D01*
X207387000Y-87763000D01*
X207339380Y-87834428D01*
X207315571Y-87905857D01*
X207291761Y-88048714D01*
X207291761Y-88155857D01*
X207315571Y-88298714D01*
X207339380Y-88370142D01*
X207387000Y-88441571D01*
X207458428Y-88477285D01*
X207577476Y-88477285D01*
X207077476Y-88191571D02*
X206696523Y-88191571D01*
X204977952Y-87763000D02*
X205025571Y-87727285D01*
X205097000Y-87727285D01*
X205168428Y-87763000D01*
X205216047Y-87834428D01*
X205239857Y-87905857D01*
X205263666Y-88048714D01*
X205263666Y-88155857D01*
X205239857Y-88298714D01*
X205216047Y-88370142D01*
X205168428Y-88441571D01*
X205097000Y-88477285D01*
X205049380Y-88477285D01*
X204977952Y-88441571D01*
X204954142Y-88405857D01*
X204954142Y-88155857D01*
X205049380Y-88155857D01*
X204739857Y-88477285D02*
X204739857Y-87727285D01*
X204454142Y-88477285D01*
X204454142Y-87727285D01*
X204216047Y-88477285D02*
X204216047Y-87727285D01*
X204097000Y-87727285D01*
X204025571Y-87763000D01*
X203977952Y-87834428D01*
X203954142Y-87905857D01*
X203930333Y-88048714D01*
X203930333Y-88155857D01*
X203954142Y-88298714D01*
X203977952Y-88370142D01*
X204025571Y-88441571D01*
X204097000Y-88477285D01*
X204216047Y-88477285D01*
X212288428Y-87727285D02*
X212526523Y-87727285D01*
X212550333Y-88084428D01*
X212526523Y-88048714D01*
X212478904Y-88013000D01*
X212359857Y-88013000D01*
X212312238Y-88048714D01*
X212288428Y-88084428D01*
X212264619Y-88155857D01*
X212264619Y-88334428D01*
X212288428Y-88405857D01*
X212312238Y-88441571D01*
X212359857Y-88477285D01*
X212478904Y-88477285D01*
X212526523Y-88441571D01*
X212550333Y-88405857D01*
X212097952Y-87977285D02*
X211978904Y-88477285D01*
X211859857Y-87977285D01*
X212411428Y-92970000D02*
X212459047Y-92934285D01*
X212530476Y-92934285D01*
X212601904Y-92970000D01*
X212649523Y-93041428D01*
X212673333Y-93112857D01*
X212697142Y-93255714D01*
X212697142Y-93362857D01*
X212673333Y-93505714D01*
X212649523Y-93577142D01*
X212601904Y-93648571D01*
X212530476Y-93684285D01*
X212482857Y-93684285D01*
X212411428Y-93648571D01*
X212387619Y-93612857D01*
X212387619Y-93362857D01*
X212482857Y-93362857D01*
X212173333Y-93184285D02*
X212173333Y-93684285D01*
X212173333Y-93255714D02*
X212149523Y-93220000D01*
X212101904Y-93184285D01*
X212030476Y-93184285D01*
X211982857Y-93220000D01*
X211959047Y-93291428D01*
X211959047Y-93684285D01*
X211506666Y-93684285D02*
X211506666Y-92934285D01*
X211506666Y-93648571D02*
X211554285Y-93684285D01*
X211649523Y-93684285D01*
X211697142Y-93648571D01*
X211720952Y-93612857D01*
X211744761Y-93541428D01*
X211744761Y-93327142D01*
X211720952Y-93255714D01*
X211697142Y-93220000D01*
X211649523Y-93184285D01*
X211554285Y-93184285D01*
X211506666Y-93220000D01*
X209871428Y-92970000D02*
X209919047Y-92934285D01*
X209990476Y-92934285D01*
X210061904Y-92970000D01*
X210109523Y-93041428D01*
X210133333Y-93112857D01*
X210157142Y-93255714D01*
X210157142Y-93362857D01*
X210133333Y-93505714D01*
X210109523Y-93577142D01*
X210061904Y-93648571D01*
X209990476Y-93684285D01*
X209942857Y-93684285D01*
X209871428Y-93648571D01*
X209847619Y-93612857D01*
X209847619Y-93362857D01*
X209942857Y-93362857D01*
X209633333Y-93184285D02*
X209633333Y-93684285D01*
X209633333Y-93255714D02*
X209609523Y-93220000D01*
X209561904Y-93184285D01*
X209490476Y-93184285D01*
X209442857Y-93220000D01*
X209419047Y-93291428D01*
X209419047Y-93684285D01*
X208966666Y-93684285D02*
X208966666Y-92934285D01*
X208966666Y-93648571D02*
X209014285Y-93684285D01*
X209109523Y-93684285D01*
X209157142Y-93648571D01*
X209180952Y-93612857D01*
X209204761Y-93541428D01*
X209204761Y-93327142D01*
X209180952Y-93255714D01*
X209157142Y-93220000D01*
X209109523Y-93184285D01*
X209014285Y-93184285D01*
X208966666Y-93220000D01*
X204827142Y-92934285D02*
X204517619Y-92934285D01*
X204684285Y-93220000D01*
X204612857Y-93220000D01*
X204565238Y-93255714D01*
X204541428Y-93291428D01*
X204517619Y-93362857D01*
X204517619Y-93541428D01*
X204541428Y-93612857D01*
X204565238Y-93648571D01*
X204612857Y-93684285D01*
X204755714Y-93684285D01*
X204803333Y-93648571D01*
X204827142Y-93612857D01*
X204350952Y-93184285D02*
X204231904Y-93684285D01*
X204112857Y-93184285D01*
X207367142Y-92934285D02*
X207057619Y-92934285D01*
X207224285Y-93220000D01*
X207152857Y-93220000D01*
X207105238Y-93255714D01*
X207081428Y-93291428D01*
X207057619Y-93362857D01*
X207057619Y-93541428D01*
X207081428Y-93612857D01*
X207105238Y-93648571D01*
X207152857Y-93684285D01*
X207295714Y-93684285D01*
X207343333Y-93648571D01*
X207367142Y-93612857D01*
X206890952Y-93184285D02*
X206771904Y-93684285D01*
X206652857Y-93184285D01*
X159853238Y-94029571D02*
X159781809Y-94065285D01*
X159662761Y-94065285D01*
X159615142Y-94029571D01*
X159591333Y-93993857D01*
X159567523Y-93922428D01*
X159567523Y-93851000D01*
X159591333Y-93779571D01*
X159615142Y-93743857D01*
X159662761Y-93708142D01*
X159758000Y-93672428D01*
X159805619Y-93636714D01*
X159829428Y-93601000D01*
X159853238Y-93529571D01*
X159853238Y-93458142D01*
X159829428Y-93386714D01*
X159805619Y-93351000D01*
X159758000Y-93315285D01*
X159638952Y-93315285D01*
X159567523Y-93351000D01*
X159067523Y-93993857D02*
X159091333Y-94029571D01*
X159162761Y-94065285D01*
X159210380Y-94065285D01*
X159281809Y-94029571D01*
X159329428Y-93958142D01*
X159353238Y-93886714D01*
X159377047Y-93743857D01*
X159377047Y-93636714D01*
X159353238Y-93493857D01*
X159329428Y-93422428D01*
X159281809Y-93351000D01*
X159210380Y-93315285D01*
X159162761Y-93315285D01*
X159091333Y-93351000D01*
X159067523Y-93386714D01*
X158615142Y-94065285D02*
X158853238Y-94065285D01*
X158853238Y-93315285D01*
X157325142Y-94029571D02*
X157253714Y-94065285D01*
X157134666Y-94065285D01*
X157087047Y-94029571D01*
X157063238Y-93993857D01*
X157039428Y-93922428D01*
X157039428Y-93851000D01*
X157063238Y-93779571D01*
X157087047Y-93743857D01*
X157134666Y-93708142D01*
X157229904Y-93672428D01*
X157277523Y-93636714D01*
X157301333Y-93601000D01*
X157325142Y-93529571D01*
X157325142Y-93458142D01*
X157301333Y-93386714D01*
X157277523Y-93351000D01*
X157229904Y-93315285D01*
X157110857Y-93315285D01*
X157039428Y-93351000D01*
X156825142Y-94065285D02*
X156825142Y-93315285D01*
X156706095Y-93315285D01*
X156634666Y-93351000D01*
X156587047Y-93422428D01*
X156563238Y-93493857D01*
X156539428Y-93636714D01*
X156539428Y-93743857D01*
X156563238Y-93886714D01*
X156587047Y-93958142D01*
X156634666Y-94029571D01*
X156706095Y-94065285D01*
X156825142Y-94065285D01*
X156348952Y-93851000D02*
X156110857Y-93851000D01*
X156396571Y-94065285D02*
X156229904Y-93315285D01*
X156063238Y-94065285D01*
X154261333Y-94065285D02*
X154428000Y-93708142D01*
X154547047Y-94065285D02*
X154547047Y-93315285D01*
X154356571Y-93315285D01*
X154308952Y-93351000D01*
X154285142Y-93386714D01*
X154261333Y-93458142D01*
X154261333Y-93565285D01*
X154285142Y-93636714D01*
X154308952Y-93672428D01*
X154356571Y-93708142D01*
X154547047Y-93708142D01*
X154094666Y-93315285D02*
X153761333Y-94065285D01*
X153761333Y-93315285D02*
X154094666Y-94065285D01*
X152018952Y-93315285D02*
X151733238Y-93315285D01*
X151876095Y-94065285D02*
X151876095Y-93315285D01*
X151614190Y-93315285D02*
X151280857Y-94065285D01*
X151280857Y-93315285D02*
X151614190Y-94065285D01*
D12*
%TO.C,C101*%
X185930000Y-82061267D02*
X185930000Y-81768733D01*
X184910000Y-82061267D02*
X184910000Y-81768733D01*
%TO.C,C102*%
X181100000Y-82288767D02*
X181100000Y-81996233D01*
X182120000Y-82288767D02*
X182120000Y-81996233D01*
%TO.C,C103*%
X180215000Y-82288767D02*
X180215000Y-81996233D01*
X179195000Y-82288767D02*
X179195000Y-81996233D01*
D10*
%TO.C,J1*%
X149225000Y-51260000D02*
X149225000Y-75260000D01*
X211225000Y-48260000D02*
X152225000Y-48260000D01*
X152225000Y-78260000D02*
X211225000Y-78260000D01*
X214225000Y-75260000D02*
X214225000Y-51260000D01*
D12*
X207275000Y-72120000D02*
X207275000Y-77440000D01*
X204495000Y-77440000D02*
X204495000Y-74780000D01*
X204495000Y-74780000D02*
X207155000Y-74780000D01*
X207155000Y-74780000D02*
X207155000Y-72120000D01*
X205885000Y-72120000D02*
X204495000Y-72120000D01*
X204495000Y-72120000D02*
X204495000Y-73510000D01*
D10*
X214225000Y-75260000D02*
G75*
G02*
X211225000Y-78260000I-3000000J0D01*
G01*
X211225000Y-48260000D02*
G75*
G02*
X214225000Y-51260000I0J-3000000D01*
G01*
X149225000Y-51260000D02*
G75*
G02*
X152225000Y-48260000I3000000J0D01*
G01*
X152225000Y-78260000D02*
G75*
G02*
X149225000Y-75260000I0J3000000D01*
G01*
D12*
%TO.C,J104*%
X150308000Y-94301000D02*
X150308000Y-95631000D01*
X151638000Y-94301000D02*
X150308000Y-94301000D01*
X152908000Y-94301000D02*
X152908000Y-96961000D01*
X152908000Y-96961000D02*
X160588000Y-96961000D01*
X152908000Y-94301000D02*
X160588000Y-94301000D01*
X160588000Y-94301000D02*
X160588000Y-96961000D01*
%TO.C,J105*%
X213420000Y-93920000D02*
X213420000Y-96580000D01*
X205740000Y-93920000D02*
X213420000Y-93920000D01*
X205740000Y-96580000D02*
X213420000Y-96580000D01*
X205740000Y-93920000D02*
X205740000Y-96580000D01*
X204470000Y-93920000D02*
X203140000Y-93920000D01*
X203140000Y-93920000D02*
X203140000Y-95250000D01*
%TO.C,R101*%
X169530500Y-87400224D02*
X169530500Y-86890776D01*
X170575500Y-87400224D02*
X170575500Y-86890776D01*
%TO.C,R103*%
X193410500Y-107643724D02*
X193410500Y-107134276D01*
X192365500Y-107643724D02*
X192365500Y-107134276D01*
%TO.C,R105*%
X151423500Y-103731724D02*
X151423500Y-103222276D01*
X150378500Y-103731724D02*
X150378500Y-103222276D01*
%TO.C,R106*%
X166355500Y-91567724D02*
X166355500Y-91058276D01*
X167400500Y-91567724D02*
X167400500Y-91058276D01*
%TO.C,R107*%
X167400500Y-87400224D02*
X167400500Y-86890776D01*
X166355500Y-87400224D02*
X166355500Y-86890776D01*
%TO.C,R108*%
X155233500Y-109169724D02*
X155233500Y-108660276D01*
X154188500Y-109169724D02*
X154188500Y-108660276D01*
%TO.C,R109*%
X157998500Y-108891724D02*
X157998500Y-108382276D01*
X159043500Y-108891724D02*
X159043500Y-108382276D01*
%TO.C,R111*%
X155106500Y-100660724D02*
X155106500Y-100151276D01*
X154061500Y-100660724D02*
X154061500Y-100151276D01*
%TO.C,R112*%
X154061500Y-104470724D02*
X154061500Y-103961276D01*
X155106500Y-104470724D02*
X155106500Y-103961276D01*
%TO.C,R113*%
X157922500Y-100484724D02*
X157922500Y-99975276D01*
X158967500Y-100484724D02*
X158967500Y-99975276D01*
D13*
%TO.C,U101*%
X184370200Y-89423600D02*
X187270200Y-89423600D01*
X175870200Y-89423600D02*
X178770200Y-89423600D01*
X183420200Y-86923600D02*
X183220200Y-86923600D01*
X181420200Y-86923600D02*
X181220200Y-86923600D01*
X177940200Y-86723600D02*
X177940200Y-86823600D01*
X185500200Y-86423600D02*
X186720200Y-86423600D01*
X179920200Y-86923600D02*
X179720200Y-86923600D01*
X186270200Y-86423600D02*
X186270200Y-86823600D01*
X176870200Y-86423600D02*
X176870200Y-86823600D01*
X180920200Y-86923600D02*
X180720200Y-86923600D01*
X178340200Y-89423600D02*
X178340200Y-86623600D01*
X181920200Y-86923600D02*
X181720200Y-86923600D01*
X185200200Y-86823600D02*
X185200200Y-86723600D01*
X178840200Y-86423600D02*
X178340200Y-86923600D01*
X177790200Y-86823600D02*
X177790200Y-86573600D01*
X185350200Y-86573600D02*
X185350200Y-86823600D01*
X182420200Y-86923600D02*
X182220200Y-86923600D01*
X182920200Y-86923600D02*
X182720200Y-86923600D01*
X184800200Y-86923600D02*
X184300200Y-86423600D01*
X186270200Y-87923600D02*
X186270200Y-89423600D01*
X183920200Y-86923600D02*
X183720200Y-86923600D01*
X176420200Y-86423600D02*
X177640200Y-86423600D01*
X178770200Y-90723600D02*
X178770200Y-89423600D01*
X184370200Y-90723600D02*
X184370200Y-89423600D01*
X180420200Y-86923600D02*
X180220200Y-86923600D01*
X184800200Y-86623600D02*
X184800200Y-89423600D01*
X185500200Y-86423600D02*
X185200200Y-86723600D01*
X179420200Y-86923600D02*
X179220200Y-86923600D01*
X177940200Y-86723600D02*
X177640200Y-86423600D01*
X176870200Y-87923600D02*
X176870200Y-89423600D01*
X176420200Y-89173600D02*
X176870200Y-89173600D01*
X186270200Y-89173600D02*
X186720200Y-89173600D01*
X187000200Y-86823600D02*
X184800200Y-86823600D01*
X184370200Y-90623600D02*
X187270200Y-90623600D01*
X176420200Y-86823600D02*
X176420200Y-86423600D01*
X175870200Y-90623600D02*
X178770200Y-90623600D01*
X176420200Y-87923600D02*
X176420200Y-89173600D01*
X175970200Y-90723600D02*
X187170200Y-90723600D01*
X178140200Y-86623600D02*
X178340200Y-86623600D01*
X178140200Y-86623600D02*
X178140200Y-86823600D01*
X185000200Y-86823600D02*
X185000200Y-86623600D01*
X187270200Y-90623600D02*
X187270200Y-89423600D01*
X186720200Y-86423600D02*
X186720200Y-86823600D01*
X176140200Y-87923600D02*
X177040200Y-87923600D01*
X186720200Y-87923600D02*
X186720200Y-89173600D01*
X175870200Y-90623600D02*
X175870200Y-89423600D01*
X185000200Y-86623600D02*
X184800200Y-86623600D01*
X176140200Y-86823600D02*
X178340200Y-86823600D01*
X178770199Y-90623600D02*
G75*
G02*
X178670200Y-90723599I-99999J0D01*
G01*
X187270199Y-90623600D02*
G75*
G02*
X187170200Y-90723599I-99999J0D01*
G01*
X187021030Y-87725684D02*
G75*
G02*
X187000722Y-87923600I-20308J-97916D01*
G01*
X187000201Y-86823600D02*
G75*
G02*
X187020621Y-87021493I-1J-100000D01*
G01*
X184470200Y-90723600D02*
G75*
G02*
X184370200Y-90623600I0J100000D01*
G01*
X186970200Y-89423601D02*
G75*
G02*
X186720199Y-89173600I0J250001D01*
G01*
X175970200Y-90723599D02*
G75*
G02*
X175870201Y-90623600I0J99999D01*
G01*
X176420200Y-89173600D02*
G75*
G02*
X176170200Y-89423600I-250000J0D01*
G01*
D12*
%TO.C,C1*%
X154864580Y-51767200D02*
X154583420Y-51767200D01*
X154864580Y-50747200D02*
X154583420Y-50747200D01*
%TO.C,C2*%
X152883580Y-65280000D02*
X152602420Y-65280000D01*
X152883580Y-64260000D02*
X152602420Y-64260000D01*
%TO.C,C3*%
X173709000Y-51296180D02*
X173709000Y-51015020D01*
X174729000Y-51296180D02*
X174729000Y-51015020D01*
%TO.C,C4*%
X178285000Y-51309180D02*
X178285000Y-51028020D01*
X177265000Y-51309180D02*
X177265000Y-51028020D01*
%TO.C,C5*%
X152615420Y-67464400D02*
X152896580Y-67464400D01*
X152615420Y-66444400D02*
X152896580Y-66444400D01*
%TO.C,C6*%
X172951000Y-51309180D02*
X172951000Y-51028020D01*
X171931000Y-51309180D02*
X171931000Y-51028020D01*
%TO.C,C7*%
X176507000Y-51309180D02*
X176507000Y-51028020D01*
X175487000Y-51309180D02*
X175487000Y-51028020D01*
%TO.C,D1*%
X151042000Y-125354000D02*
X152742000Y-125354000D01*
X152742000Y-125354000D02*
X152742000Y-128504000D01*
X151042000Y-125354000D02*
X151042000Y-128504000D01*
%TO.C,D2*%
X157646000Y-125354000D02*
X159346000Y-125354000D01*
X159346000Y-125354000D02*
X159346000Y-128504000D01*
X157646000Y-125354000D02*
X157646000Y-128504000D01*
%TO.C,D3*%
X164250000Y-125354000D02*
X164250000Y-128504000D01*
X165950000Y-125354000D02*
X165950000Y-128504000D01*
X164250000Y-125354000D02*
X165950000Y-125354000D01*
%TO.C,D4*%
X170854000Y-125354000D02*
X172554000Y-125354000D01*
X172554000Y-125354000D02*
X172554000Y-128504000D01*
X170854000Y-125354000D02*
X170854000Y-128504000D01*
%TO.C,D5*%
X177458000Y-125354000D02*
X177458000Y-128504000D01*
X179158000Y-125354000D02*
X179158000Y-128504000D01*
X177458000Y-125354000D02*
X179158000Y-125354000D01*
%TO.C,D6*%
X184316000Y-125354000D02*
X186016000Y-125354000D01*
X186016000Y-125354000D02*
X186016000Y-128504000D01*
X184316000Y-125354000D02*
X184316000Y-128504000D01*
%TO.C,D7*%
X190920000Y-125354000D02*
X190920000Y-128504000D01*
X192620000Y-125354000D02*
X192620000Y-128504000D01*
X190920000Y-125354000D02*
X192620000Y-125354000D01*
%TO.C,D8*%
X197524000Y-125354000D02*
X199224000Y-125354000D01*
X199224000Y-125354000D02*
X199224000Y-128504000D01*
X197524000Y-125354000D02*
X197524000Y-128504000D01*
%TO.C,D9*%
X204128000Y-125354000D02*
X204128000Y-128504000D01*
X205828000Y-125354000D02*
X205828000Y-128504000D01*
X204128000Y-125354000D02*
X205828000Y-125354000D01*
%TO.C,D10*%
X210732000Y-125374000D02*
X212432000Y-125374000D01*
X212432000Y-125374000D02*
X212432000Y-128524000D01*
X210732000Y-125374000D02*
X210732000Y-128524000D01*
%TO.C,D11*%
X206058000Y-112979000D02*
X206058000Y-116129000D01*
X207758000Y-112979000D02*
X207758000Y-116129000D01*
X206058000Y-112979000D02*
X207758000Y-112979000D01*
%TO.C,D12*%
X202604000Y-111491000D02*
X202604000Y-114641000D01*
X204304000Y-111491000D02*
X204304000Y-114641000D01*
X202604000Y-111491000D02*
X204304000Y-111491000D01*
%TO.C,D13*%
X151042000Y-132974000D02*
X152742000Y-132974000D01*
X152742000Y-132974000D02*
X152742000Y-136124000D01*
X151042000Y-132974000D02*
X151042000Y-136124000D01*
%TO.C,D14*%
X157646000Y-132974000D02*
X157646000Y-136124000D01*
X159346000Y-132974000D02*
X159346000Y-136124000D01*
X157646000Y-132974000D02*
X159346000Y-132974000D01*
%TO.C,D15*%
X164250000Y-132974000D02*
X165950000Y-132974000D01*
X165950000Y-132974000D02*
X165950000Y-136124000D01*
X164250000Y-132974000D02*
X164250000Y-136124000D01*
%TO.C,D16*%
X170854000Y-132974000D02*
X170854000Y-136124000D01*
X172554000Y-132974000D02*
X172554000Y-136124000D01*
X170854000Y-132974000D02*
X172554000Y-132974000D01*
%TO.C,D17*%
X177712000Y-132974000D02*
X179412000Y-132974000D01*
X179412000Y-132974000D02*
X179412000Y-136124000D01*
X177712000Y-132974000D02*
X177712000Y-136124000D01*
%TO.C,D18*%
X184316000Y-132974000D02*
X184316000Y-136124000D01*
X186016000Y-132974000D02*
X186016000Y-136124000D01*
X184316000Y-132974000D02*
X186016000Y-132974000D01*
%TO.C,D19*%
X190666000Y-132974000D02*
X192366000Y-132974000D01*
X192366000Y-132974000D02*
X192366000Y-136124000D01*
X190666000Y-132974000D02*
X190666000Y-136124000D01*
%TO.C,D20*%
X197524000Y-132974000D02*
X199224000Y-132974000D01*
X199224000Y-132974000D02*
X199224000Y-136124000D01*
X197524000Y-132974000D02*
X197524000Y-136124000D01*
%TO.C,D21*%
X204128000Y-132974000D02*
X204128000Y-136124000D01*
X205828000Y-132974000D02*
X205828000Y-136124000D01*
X204128000Y-132974000D02*
X205828000Y-132974000D01*
%TO.C,D22*%
X210732000Y-132974000D02*
X210732000Y-136124000D01*
X212432000Y-132974000D02*
X212432000Y-136124000D01*
X210732000Y-132974000D02*
X212432000Y-132974000D01*
%TO.C,D23*%
X197397000Y-111277000D02*
X197397000Y-114427000D01*
X199097000Y-111277000D02*
X199097000Y-114427000D01*
X197397000Y-111277000D02*
X199097000Y-111277000D01*
%TO.C,D24*%
X191555000Y-111745000D02*
X193255000Y-111745000D01*
X193255000Y-111745000D02*
X193255000Y-114895000D01*
X191555000Y-111745000D02*
X191555000Y-114895000D01*
%TO.C,D25*%
X151042000Y-140594000D02*
X151042000Y-143744000D01*
X152742000Y-140594000D02*
X152742000Y-143744000D01*
X151042000Y-140594000D02*
X152742000Y-140594000D01*
%TO.C,D26*%
X157646000Y-140594000D02*
X159346000Y-140594000D01*
X159346000Y-140594000D02*
X159346000Y-143744000D01*
X157646000Y-140594000D02*
X157646000Y-143744000D01*
%TO.C,D27*%
X164250000Y-140594000D02*
X164250000Y-143744000D01*
X165950000Y-140594000D02*
X165950000Y-143744000D01*
X164250000Y-140594000D02*
X165950000Y-140594000D01*
%TO.C,D28*%
X170854000Y-140594000D02*
X172554000Y-140594000D01*
X172554000Y-140594000D02*
X172554000Y-143744000D01*
X170854000Y-140594000D02*
X170854000Y-143744000D01*
%TO.C,D29*%
X177712000Y-140594000D02*
X177712000Y-143744000D01*
X179412000Y-140594000D02*
X179412000Y-143744000D01*
X177712000Y-140594000D02*
X179412000Y-140594000D01*
%TO.C,D30*%
X184062000Y-140594000D02*
X185762000Y-140594000D01*
X185762000Y-140594000D02*
X185762000Y-143744000D01*
X184062000Y-140594000D02*
X184062000Y-143744000D01*
%TO.C,D31*%
X190920000Y-140594000D02*
X190920000Y-143744000D01*
X192620000Y-140594000D02*
X192620000Y-143744000D01*
X190920000Y-140594000D02*
X192620000Y-140594000D01*
%TO.C,D32*%
X197270000Y-140594000D02*
X198970000Y-140594000D01*
X198970000Y-140594000D02*
X198970000Y-143744000D01*
X197270000Y-140594000D02*
X197270000Y-143744000D01*
%TO.C,D33*%
X204128000Y-140594000D02*
X204128000Y-143744000D01*
X205828000Y-140594000D02*
X205828000Y-143744000D01*
X204128000Y-140594000D02*
X205828000Y-140594000D01*
%TO.C,D34*%
X210732000Y-140594000D02*
X212432000Y-140594000D01*
X212432000Y-140594000D02*
X212432000Y-143744000D01*
X210732000Y-140594000D02*
X210732000Y-143744000D01*
%TO.C,D35*%
X184316000Y-118242000D02*
X184316000Y-121392000D01*
X186016000Y-118242000D02*
X186016000Y-121392000D01*
X184316000Y-118242000D02*
X186016000Y-118242000D01*
%TO.C,D36*%
X190920000Y-118242000D02*
X192620000Y-118242000D01*
X192620000Y-118242000D02*
X192620000Y-121392000D01*
X190920000Y-118242000D02*
X190920000Y-121392000D01*
%TO.C,D37*%
X151042000Y-148214000D02*
X151042000Y-151364000D01*
X152742000Y-148214000D02*
X152742000Y-151364000D01*
X151042000Y-148214000D02*
X152742000Y-148214000D01*
%TO.C,D38*%
X157900000Y-148214000D02*
X159600000Y-148214000D01*
X159600000Y-148214000D02*
X159600000Y-151364000D01*
X157900000Y-148214000D02*
X157900000Y-151364000D01*
%TO.C,D39*%
X164250000Y-148214000D02*
X164250000Y-151364000D01*
X165950000Y-148214000D02*
X165950000Y-151364000D01*
X164250000Y-148214000D02*
X165950000Y-148214000D01*
%TO.C,D40*%
X171108000Y-148214000D02*
X172808000Y-148214000D01*
X172808000Y-148214000D02*
X172808000Y-151364000D01*
X171108000Y-148214000D02*
X171108000Y-151364000D01*
%TO.C,D41*%
X177458000Y-148214000D02*
X177458000Y-151364000D01*
X179158000Y-148214000D02*
X179158000Y-151364000D01*
X177458000Y-148214000D02*
X179158000Y-148214000D01*
%TO.C,D42*%
X184316000Y-148214000D02*
X186016000Y-148214000D01*
X186016000Y-148214000D02*
X186016000Y-151364000D01*
X184316000Y-148214000D02*
X184316000Y-151364000D01*
%TO.C,D43*%
X190920000Y-148214000D02*
X190920000Y-151364000D01*
X192620000Y-148214000D02*
X192620000Y-151364000D01*
X190920000Y-148214000D02*
X192620000Y-148214000D01*
%TO.C,D44*%
X197524000Y-148214000D02*
X199224000Y-148214000D01*
X199224000Y-148214000D02*
X199224000Y-151364000D01*
X197524000Y-148214000D02*
X197524000Y-151364000D01*
%TO.C,D45*%
X204128000Y-148214000D02*
X205828000Y-148214000D01*
X205828000Y-148214000D02*
X205828000Y-151364000D01*
X204128000Y-148214000D02*
X204128000Y-151364000D01*
%TO.C,D46*%
X210986000Y-148214000D02*
X210986000Y-151364000D01*
X212686000Y-148214000D02*
X212686000Y-151364000D01*
X210986000Y-148214000D02*
X212686000Y-148214000D01*
%TO.C,D47*%
X197524000Y-118242000D02*
X199224000Y-118242000D01*
X199224000Y-118242000D02*
X199224000Y-121392000D01*
X197524000Y-118242000D02*
X197524000Y-121392000D01*
%TO.C,D48*%
X204128000Y-118242000D02*
X204128000Y-121392000D01*
X205828000Y-118242000D02*
X205828000Y-121392000D01*
X204128000Y-118242000D02*
X205828000Y-118242000D01*
%TO.C,D49*%
X151042000Y-155834000D02*
X152742000Y-155834000D01*
X152742000Y-155834000D02*
X152742000Y-158984000D01*
X151042000Y-155834000D02*
X151042000Y-158984000D01*
%TO.C,D50*%
X157900000Y-155834000D02*
X157900000Y-158984000D01*
X159600000Y-155834000D02*
X159600000Y-158984000D01*
X157900000Y-155834000D02*
X159600000Y-155834000D01*
%TO.C,D51*%
X164250000Y-155834000D02*
X165950000Y-155834000D01*
X165950000Y-155834000D02*
X165950000Y-158984000D01*
X164250000Y-155834000D02*
X164250000Y-158984000D01*
%TO.C,D52*%
X177712000Y-155834000D02*
X177712000Y-158984000D01*
X179412000Y-155834000D02*
X179412000Y-158984000D01*
X177712000Y-155834000D02*
X179412000Y-155834000D01*
%TO.C,D55*%
X204128000Y-155834000D02*
X205828000Y-155834000D01*
X205828000Y-155834000D02*
X205828000Y-158984000D01*
X204128000Y-155834000D02*
X204128000Y-158984000D01*
%TO.C,D56*%
X210732000Y-155834000D02*
X210732000Y-158984000D01*
X212432000Y-155834000D02*
X212432000Y-158984000D01*
X210732000Y-155834000D02*
X212432000Y-155834000D01*
%TO.C,D57*%
X210732000Y-118242000D02*
X212432000Y-118242000D01*
X212432000Y-118242000D02*
X212432000Y-121392000D01*
X210732000Y-118242000D02*
X210732000Y-121392000D01*
%TO.C,D58*%
X151296000Y-118242000D02*
X151296000Y-121392000D01*
X152996000Y-118242000D02*
X152996000Y-121392000D01*
X151296000Y-118242000D02*
X152996000Y-118242000D01*
%TO.C,D59*%
X157900000Y-118242000D02*
X157900000Y-121392000D01*
X159600000Y-118242000D02*
X159600000Y-121392000D01*
X157900000Y-118242000D02*
X159600000Y-118242000D01*
%TO.C,D60*%
X164504000Y-118242000D02*
X166204000Y-118242000D01*
X166204000Y-118242000D02*
X166204000Y-121392000D01*
X164504000Y-118242000D02*
X164504000Y-121392000D01*
%TO.C,D61*%
X171108000Y-118242000D02*
X171108000Y-121392000D01*
X172808000Y-118242000D02*
X172808000Y-121392000D01*
X171108000Y-118242000D02*
X172808000Y-118242000D01*
%TO.C,D62*%
X177712000Y-118242000D02*
X179412000Y-118242000D01*
X179412000Y-118242000D02*
X179412000Y-121392000D01*
X177712000Y-118242000D02*
X177712000Y-121392000D01*
%TO.C,J3*%
X193760000Y-66862000D02*
X188560000Y-66862000D01*
X193760000Y-61722000D02*
X193760000Y-66862000D01*
X188560000Y-59122000D02*
X188560000Y-66862000D01*
X193760000Y-61722000D02*
X191160000Y-61722000D01*
X191160000Y-61722000D02*
X191160000Y-59122000D01*
X191160000Y-59122000D02*
X188560000Y-59122000D01*
X193760000Y-60452000D02*
X193760000Y-59122000D01*
X193760000Y-59122000D02*
X192430000Y-59122000D01*
D10*
%TO.C,J4*%
X215470000Y-111280000D02*
X215470000Y-102080000D01*
X215470000Y-102080000D02*
X213520000Y-102080000D01*
X211870000Y-102080000D02*
X209570000Y-102080000D01*
X215470000Y-111280000D02*
X213520000Y-111280000D01*
X211870000Y-111280000D02*
X209570000Y-111280000D01*
D12*
%TO.C,R1*%
X183315742Y-57621700D02*
X183790258Y-57621700D01*
X183315742Y-56576700D02*
X183790258Y-56576700D01*
%TO.C,R2*%
X183790258Y-60669700D02*
X183315742Y-60669700D01*
X183790258Y-59624700D02*
X183315742Y-59624700D01*
%TO.C,R3*%
X203559742Y-102782500D02*
X204034258Y-102782500D01*
X203559742Y-101737500D02*
X204034258Y-101737500D01*
%TO.C,R4*%
X204033258Y-104433500D02*
X203558742Y-104433500D01*
X204033258Y-103388500D02*
X203558742Y-103388500D01*
%TO.C,R65*%
X199578500Y-107775742D02*
X199578500Y-108250258D01*
X200623500Y-107775742D02*
X200623500Y-108250258D01*
%TO.C,R66*%
X192314500Y-102751258D02*
X192314500Y-102276742D01*
X193359500Y-102751258D02*
X193359500Y-102276742D01*
%TO.C,SW61*%
X184303000Y-55202000D02*
X184303000Y-55502000D01*
X184303000Y-55502000D02*
X181003000Y-55502000D01*
X181003000Y-55502000D02*
X181003000Y-55202000D01*
X184303000Y-53002000D02*
X184303000Y-52702000D01*
X184303000Y-52702000D02*
X181003000Y-52702000D01*
X181003000Y-52702000D02*
X181003000Y-53002000D01*
%TO.C,J2*%
X203267000Y-91754000D02*
X203267000Y-89094000D01*
X210947000Y-91754000D02*
X203267000Y-91754000D01*
X210947000Y-89094000D02*
X203267000Y-89094000D01*
X210947000Y-91754000D02*
X210947000Y-89094000D01*
X212217000Y-91754000D02*
X213547000Y-91754000D01*
X213547000Y-91754000D02*
X213547000Y-90424000D01*
%TO.C,J5*%
X156515000Y-81030000D02*
X152265000Y-81030000D01*
X152265000Y-81030000D02*
X152265000Y-82050000D01*
X152265000Y-82050000D02*
X153865000Y-82050000D01*
X153865000Y-82050000D02*
X153865000Y-83330000D01*
X153865000Y-83330000D02*
X150975000Y-83330000D01*
X156515000Y-89150000D02*
X152265000Y-89150000D01*
X152265000Y-89150000D02*
X152265000Y-88130000D01*
X152265000Y-88130000D02*
X153865000Y-88130000D01*
X153865000Y-88130000D02*
X153865000Y-86850000D01*
X160085000Y-82750000D02*
X160085000Y-87430000D01*
%TO.C,J6*%
X203267000Y-86293000D02*
X203267000Y-83633000D01*
X210947000Y-86293000D02*
X203267000Y-86293000D01*
X210947000Y-83633000D02*
X203267000Y-83633000D01*
X210947000Y-86293000D02*
X210947000Y-83633000D01*
X212217000Y-86293000D02*
X213547000Y-86293000D01*
X213547000Y-86293000D02*
X213547000Y-84963000D01*
%TO.C,J7*%
X191222000Y-55792500D02*
X192022000Y-55792500D01*
X191222000Y-55592500D02*
X191222000Y-55792500D01*
X194222000Y-55792500D02*
X194222000Y-55592500D01*
X193422000Y-55792500D02*
X194222000Y-55792500D01*
X194222000Y-52792500D02*
X193422000Y-52792500D01*
X194222000Y-52992500D02*
X194222000Y-52792500D01*
X191422000Y-52792500D02*
X191222000Y-52992500D01*
X192022000Y-52792500D02*
X191422000Y-52792500D01*
D10*
%TO.C,U2*%
X211578000Y-64988000D02*
G75*
G03*
X211578000Y-64988000I-500000J0D01*
G01*
X196078000Y-67488000D02*
X196078000Y-51488000D01*
X212078000Y-67488000D02*
X212078000Y-51488000D01*
D12*
%TO.C,J8*%
X212556000Y-98187200D02*
X212556000Y-100847200D01*
X209956000Y-98187200D02*
X212556000Y-98187200D01*
X209956000Y-100847200D02*
X212556000Y-100847200D01*
X209956000Y-98187200D02*
X209956000Y-100847200D01*
X208686000Y-98187200D02*
X207356000Y-98187200D01*
X207356000Y-98187200D02*
X207356000Y-99517200D01*
D10*
%TO.C,U3*%
X163944500Y-99974000D02*
X163944500Y-115912500D01*
X189090500Y-99974000D02*
X163944500Y-99974000D01*
X189090500Y-115912500D02*
X189090500Y-99974000D01*
X163944500Y-115912500D02*
X189090500Y-115912500D01*
D13*
%TO.C,U1*%
X169070289Y-66314845D02*
G75*
G03*
X169070289Y-66314845I-100000J0D01*
G01*
D14*
X170434000Y-56365853D02*
X170045091Y-56754761D01*
X175383747Y-61315600D02*
X174994839Y-61704509D01*
X165484253Y-61315600D02*
X165873161Y-60926691D01*
X170434000Y-66265347D02*
X170822909Y-65876439D01*
X170434000Y-56365853D02*
X170822909Y-56754761D01*
X175383747Y-61315600D02*
X174994839Y-60926691D01*
X165484253Y-61315600D02*
X165873161Y-61704509D01*
X170434000Y-66265347D02*
X170045091Y-65876439D01*
%TO.C,Y1*%
X159809559Y-51316742D02*
X159137808Y-50644990D01*
X159137808Y-50644990D02*
X151076790Y-58706008D01*
X151076790Y-58706008D02*
X151748542Y-59377759D01*
X153728441Y-61357658D02*
X154400192Y-62029410D01*
X154400192Y-62029410D02*
X162461210Y-53968392D01*
X162461210Y-53968392D02*
X161789458Y-53296641D01*
D15*
X160531589Y-50104902D02*
G75*
G03*
X160531589Y-50104902I-296210J0D01*
G01*
%TO.C,C101*%
D10*
X187555142Y-80668952D02*
X187602761Y-80621333D01*
X187650380Y-80478476D01*
X187650380Y-80383238D01*
X187602761Y-80240380D01*
X187507523Y-80145142D01*
X187412285Y-80097523D01*
X187221809Y-80049904D01*
X187078952Y-80049904D01*
X186888476Y-80097523D01*
X186793238Y-80145142D01*
X186698000Y-80240380D01*
X186650380Y-80383238D01*
X186650380Y-80478476D01*
X186698000Y-80621333D01*
X186745619Y-80668952D01*
X187650380Y-81621333D02*
X187650380Y-81049904D01*
X187650380Y-81335619D02*
X186650380Y-81335619D01*
X186793238Y-81240380D01*
X186888476Y-81145142D01*
X186936095Y-81049904D01*
X186650380Y-82240380D02*
X186650380Y-82335619D01*
X186698000Y-82430857D01*
X186745619Y-82478476D01*
X186840857Y-82526095D01*
X187031333Y-82573714D01*
X187269428Y-82573714D01*
X187459904Y-82526095D01*
X187555142Y-82478476D01*
X187602761Y-82430857D01*
X187650380Y-82335619D01*
X187650380Y-82240380D01*
X187602761Y-82145142D01*
X187555142Y-82097523D01*
X187459904Y-82049904D01*
X187269428Y-82002285D01*
X187031333Y-82002285D01*
X186840857Y-82049904D01*
X186745619Y-82097523D01*
X186698000Y-82145142D01*
X186650380Y-82240380D01*
X187650380Y-83526095D02*
X187650380Y-82954666D01*
X187650380Y-83240380D02*
X186650380Y-83240380D01*
X186793238Y-83145142D01*
X186888476Y-83049904D01*
X186936095Y-82954666D01*
%TO.C,C102*%
X183745142Y-80922952D02*
X183792761Y-80875333D01*
X183840380Y-80732476D01*
X183840380Y-80637238D01*
X183792761Y-80494380D01*
X183697523Y-80399142D01*
X183602285Y-80351523D01*
X183411809Y-80303904D01*
X183268952Y-80303904D01*
X183078476Y-80351523D01*
X182983238Y-80399142D01*
X182888000Y-80494380D01*
X182840380Y-80637238D01*
X182840380Y-80732476D01*
X182888000Y-80875333D01*
X182935619Y-80922952D01*
X183840380Y-81875333D02*
X183840380Y-81303904D01*
X183840380Y-81589619D02*
X182840380Y-81589619D01*
X182983238Y-81494380D01*
X183078476Y-81399142D01*
X183126095Y-81303904D01*
X182840380Y-82494380D02*
X182840380Y-82589619D01*
X182888000Y-82684857D01*
X182935619Y-82732476D01*
X183030857Y-82780095D01*
X183221333Y-82827714D01*
X183459428Y-82827714D01*
X183649904Y-82780095D01*
X183745142Y-82732476D01*
X183792761Y-82684857D01*
X183840380Y-82589619D01*
X183840380Y-82494380D01*
X183792761Y-82399142D01*
X183745142Y-82351523D01*
X183649904Y-82303904D01*
X183459428Y-82256285D01*
X183221333Y-82256285D01*
X183030857Y-82303904D01*
X182935619Y-82351523D01*
X182888000Y-82399142D01*
X182840380Y-82494380D01*
X182935619Y-83208666D02*
X182888000Y-83256285D01*
X182840380Y-83351523D01*
X182840380Y-83589619D01*
X182888000Y-83684857D01*
X182935619Y-83732476D01*
X183030857Y-83780095D01*
X183126095Y-83780095D01*
X183268952Y-83732476D01*
X183840380Y-83161047D01*
X183840380Y-83780095D01*
%TO.C,C103*%
X178665142Y-80922952D02*
X178712761Y-80875333D01*
X178760380Y-80732476D01*
X178760380Y-80637238D01*
X178712761Y-80494380D01*
X178617523Y-80399142D01*
X178522285Y-80351523D01*
X178331809Y-80303904D01*
X178188952Y-80303904D01*
X177998476Y-80351523D01*
X177903238Y-80399142D01*
X177808000Y-80494380D01*
X177760380Y-80637238D01*
X177760380Y-80732476D01*
X177808000Y-80875333D01*
X177855619Y-80922952D01*
X178760380Y-81875333D02*
X178760380Y-81303904D01*
X178760380Y-81589619D02*
X177760380Y-81589619D01*
X177903238Y-81494380D01*
X177998476Y-81399142D01*
X178046095Y-81303904D01*
X177760380Y-82494380D02*
X177760380Y-82589619D01*
X177808000Y-82684857D01*
X177855619Y-82732476D01*
X177950857Y-82780095D01*
X178141333Y-82827714D01*
X178379428Y-82827714D01*
X178569904Y-82780095D01*
X178665142Y-82732476D01*
X178712761Y-82684857D01*
X178760380Y-82589619D01*
X178760380Y-82494380D01*
X178712761Y-82399142D01*
X178665142Y-82351523D01*
X178569904Y-82303904D01*
X178379428Y-82256285D01*
X178141333Y-82256285D01*
X177950857Y-82303904D01*
X177855619Y-82351523D01*
X177808000Y-82399142D01*
X177760380Y-82494380D01*
X177760380Y-83161047D02*
X177760380Y-83780095D01*
X178141333Y-83446761D01*
X178141333Y-83589619D01*
X178188952Y-83684857D01*
X178236571Y-83732476D01*
X178331809Y-83780095D01*
X178569904Y-83780095D01*
X178665142Y-83732476D01*
X178712761Y-83684857D01*
X178760380Y-83589619D01*
X178760380Y-83303904D01*
X178712761Y-83208666D01*
X178665142Y-83161047D01*
%TO.C,J1*%
X191653571Y-70962380D02*
X191986904Y-70486190D01*
X192225000Y-70962380D02*
X192225000Y-69962380D01*
X191844047Y-69962380D01*
X191748809Y-70010000D01*
X191701190Y-70057619D01*
X191653571Y-70152857D01*
X191653571Y-70295714D01*
X191701190Y-70390952D01*
X191748809Y-70438571D01*
X191844047Y-70486190D01*
X192225000Y-70486190D01*
X191225000Y-70962380D02*
X191225000Y-69962380D01*
X190844047Y-69962380D01*
X190748809Y-70010000D01*
X190701190Y-70057619D01*
X190653571Y-70152857D01*
X190653571Y-70295714D01*
X190701190Y-70390952D01*
X190748809Y-70438571D01*
X190844047Y-70486190D01*
X191225000Y-70486190D01*
X190225000Y-70962380D02*
X190225000Y-69962380D01*
X189986904Y-71057619D02*
X189225000Y-71057619D01*
X188415476Y-70867142D02*
X188463095Y-70914761D01*
X188605952Y-70962380D01*
X188701190Y-70962380D01*
X188844047Y-70914761D01*
X188939285Y-70819523D01*
X188986904Y-70724285D01*
X189034523Y-70533809D01*
X189034523Y-70390952D01*
X188986904Y-70200476D01*
X188939285Y-70105238D01*
X188844047Y-70010000D01*
X188701190Y-69962380D01*
X188605952Y-69962380D01*
X188463095Y-70010000D01*
X188415476Y-70057619D01*
X187844047Y-70962380D02*
X187939285Y-70914761D01*
X187986904Y-70867142D01*
X188034523Y-70771904D01*
X188034523Y-70486190D01*
X187986904Y-70390952D01*
X187939285Y-70343333D01*
X187844047Y-70295714D01*
X187701190Y-70295714D01*
X187605952Y-70343333D01*
X187558333Y-70390952D01*
X187510714Y-70486190D01*
X187510714Y-70771904D01*
X187558333Y-70867142D01*
X187605952Y-70914761D01*
X187701190Y-70962380D01*
X187844047Y-70962380D01*
X187082142Y-70295714D02*
X187082142Y-70962380D01*
X187082142Y-70390952D02*
X187034523Y-70343333D01*
X186939285Y-70295714D01*
X186796428Y-70295714D01*
X186701190Y-70343333D01*
X186653571Y-70438571D01*
X186653571Y-70962380D01*
X186177380Y-70295714D02*
X186177380Y-70962380D01*
X186177380Y-70390952D02*
X186129761Y-70343333D01*
X186034523Y-70295714D01*
X185891666Y-70295714D01*
X185796428Y-70343333D01*
X185748809Y-70438571D01*
X185748809Y-70962380D01*
X184891666Y-70914761D02*
X184986904Y-70962380D01*
X185177380Y-70962380D01*
X185272619Y-70914761D01*
X185320238Y-70819523D01*
X185320238Y-70438571D01*
X185272619Y-70343333D01*
X185177380Y-70295714D01*
X184986904Y-70295714D01*
X184891666Y-70343333D01*
X184844047Y-70438571D01*
X184844047Y-70533809D01*
X185320238Y-70629047D01*
X183986904Y-70914761D02*
X184082142Y-70962380D01*
X184272619Y-70962380D01*
X184367857Y-70914761D01*
X184415476Y-70867142D01*
X184463095Y-70771904D01*
X184463095Y-70486190D01*
X184415476Y-70390952D01*
X184367857Y-70343333D01*
X184272619Y-70295714D01*
X184082142Y-70295714D01*
X183986904Y-70343333D01*
X183701190Y-70295714D02*
X183320238Y-70295714D01*
X183558333Y-69962380D02*
X183558333Y-70819523D01*
X183510714Y-70914761D01*
X183415476Y-70962380D01*
X183320238Y-70962380D01*
X182844047Y-70962380D02*
X182939285Y-70914761D01*
X182986904Y-70867142D01*
X183034523Y-70771904D01*
X183034523Y-70486190D01*
X182986904Y-70390952D01*
X182939285Y-70343333D01*
X182844047Y-70295714D01*
X182701190Y-70295714D01*
X182605952Y-70343333D01*
X182558333Y-70390952D01*
X182510714Y-70486190D01*
X182510714Y-70771904D01*
X182558333Y-70867142D01*
X182605952Y-70914761D01*
X182701190Y-70962380D01*
X182844047Y-70962380D01*
X182082142Y-70962380D02*
X182082142Y-70295714D01*
X182082142Y-70486190D02*
X182034523Y-70390952D01*
X181986904Y-70343333D01*
X181891666Y-70295714D01*
X181796428Y-70295714D01*
X181463095Y-70581428D02*
X180701190Y-70581428D01*
X180225000Y-70962380D02*
X180225000Y-69962380D01*
X179891666Y-70676666D01*
X179558333Y-69962380D01*
X179558333Y-70962380D01*
X178605952Y-70962380D02*
X179082142Y-70962380D01*
X179082142Y-69962380D01*
X178510714Y-71057619D02*
X177748809Y-71057619D01*
X176939285Y-70962380D02*
X177272619Y-70486190D01*
X177510714Y-70962380D02*
X177510714Y-69962380D01*
X177129761Y-69962380D01*
X177034523Y-70010000D01*
X176986904Y-70057619D01*
X176939285Y-70152857D01*
X176939285Y-70295714D01*
X176986904Y-70390952D01*
X177034523Y-70438571D01*
X177129761Y-70486190D01*
X177510714Y-70486190D01*
X176510714Y-70962380D02*
X176510714Y-69962380D01*
X176129761Y-69962380D01*
X176034523Y-70010000D01*
X175986904Y-70057619D01*
X175939285Y-70152857D01*
X175939285Y-70295714D01*
X175986904Y-70390952D01*
X176034523Y-70438571D01*
X176129761Y-70486190D01*
X176510714Y-70486190D01*
X175510714Y-70962380D02*
X175510714Y-70295714D01*
X175510714Y-69962380D02*
X175558333Y-70010000D01*
X175510714Y-70057619D01*
X175463095Y-70010000D01*
X175510714Y-69962380D01*
X175510714Y-70057619D01*
X175272619Y-71057619D02*
X174510714Y-71057619D01*
X173748809Y-70010000D02*
X173844047Y-69962380D01*
X173986904Y-69962380D01*
X174129761Y-70010000D01*
X174225000Y-70105238D01*
X174272619Y-70200476D01*
X174320238Y-70390952D01*
X174320238Y-70533809D01*
X174272619Y-70724285D01*
X174225000Y-70819523D01*
X174129761Y-70914761D01*
X173986904Y-70962380D01*
X173891666Y-70962380D01*
X173748809Y-70914761D01*
X173701190Y-70867142D01*
X173701190Y-70533809D01*
X173891666Y-70533809D01*
X173272619Y-70962380D02*
X173272619Y-69962380D01*
X172891666Y-69962380D01*
X172796428Y-70010000D01*
X172748809Y-70057619D01*
X172701190Y-70152857D01*
X172701190Y-70295714D01*
X172748809Y-70390952D01*
X172796428Y-70438571D01*
X172891666Y-70486190D01*
X173272619Y-70486190D01*
X172272619Y-70962380D02*
X172272619Y-69962380D01*
X171605952Y-69962380D02*
X171415476Y-69962380D01*
X171320238Y-70010000D01*
X171225000Y-70105238D01*
X171177380Y-70295714D01*
X171177380Y-70629047D01*
X171225000Y-70819523D01*
X171320238Y-70914761D01*
X171415476Y-70962380D01*
X171605952Y-70962380D01*
X171701190Y-70914761D01*
X171796428Y-70819523D01*
X171844047Y-70629047D01*
X171844047Y-70295714D01*
X171796428Y-70105238D01*
X171701190Y-70010000D01*
X171605952Y-69962380D01*
X206089285Y-70302380D02*
X206660714Y-70302380D01*
X206375000Y-70302380D02*
X206375000Y-69302380D01*
X206470238Y-69445238D01*
X206565476Y-69540476D01*
X206660714Y-69588095D01*
%TO.C,R101*%
X171935380Y-86026452D02*
X171459190Y-85693119D01*
X171935380Y-85455023D02*
X170935380Y-85455023D01*
X170935380Y-85835976D01*
X170983000Y-85931214D01*
X171030619Y-85978833D01*
X171125857Y-86026452D01*
X171268714Y-86026452D01*
X171363952Y-85978833D01*
X171411571Y-85931214D01*
X171459190Y-85835976D01*
X171459190Y-85455023D01*
X171935380Y-86978833D02*
X171935380Y-86407404D01*
X171935380Y-86693119D02*
X170935380Y-86693119D01*
X171078238Y-86597880D01*
X171173476Y-86502642D01*
X171221095Y-86407404D01*
X170935380Y-87597880D02*
X170935380Y-87693119D01*
X170983000Y-87788357D01*
X171030619Y-87835976D01*
X171125857Y-87883595D01*
X171316333Y-87931214D01*
X171554428Y-87931214D01*
X171744904Y-87883595D01*
X171840142Y-87835976D01*
X171887761Y-87788357D01*
X171935380Y-87693119D01*
X171935380Y-87597880D01*
X171887761Y-87502642D01*
X171840142Y-87455023D01*
X171744904Y-87407404D01*
X171554428Y-87359785D01*
X171316333Y-87359785D01*
X171125857Y-87407404D01*
X171030619Y-87455023D01*
X170983000Y-87502642D01*
X170935380Y-87597880D01*
X171935380Y-88883595D02*
X171935380Y-88312166D01*
X171935380Y-88597880D02*
X170935380Y-88597880D01*
X171078238Y-88502642D01*
X171173476Y-88407404D01*
X171221095Y-88312166D01*
%TO.C,R103*%
X194770380Y-106269952D02*
X194294190Y-105936619D01*
X194770380Y-105698523D02*
X193770380Y-105698523D01*
X193770380Y-106079476D01*
X193818000Y-106174714D01*
X193865619Y-106222333D01*
X193960857Y-106269952D01*
X194103714Y-106269952D01*
X194198952Y-106222333D01*
X194246571Y-106174714D01*
X194294190Y-106079476D01*
X194294190Y-105698523D01*
X194770380Y-107222333D02*
X194770380Y-106650904D01*
X194770380Y-106936619D02*
X193770380Y-106936619D01*
X193913238Y-106841380D01*
X194008476Y-106746142D01*
X194056095Y-106650904D01*
X193770380Y-107841380D02*
X193770380Y-107936619D01*
X193818000Y-108031857D01*
X193865619Y-108079476D01*
X193960857Y-108127095D01*
X194151333Y-108174714D01*
X194389428Y-108174714D01*
X194579904Y-108127095D01*
X194675142Y-108079476D01*
X194722761Y-108031857D01*
X194770380Y-107936619D01*
X194770380Y-107841380D01*
X194722761Y-107746142D01*
X194675142Y-107698523D01*
X194579904Y-107650904D01*
X194389428Y-107603285D01*
X194151333Y-107603285D01*
X193960857Y-107650904D01*
X193865619Y-107698523D01*
X193818000Y-107746142D01*
X193770380Y-107841380D01*
X193770380Y-108508047D02*
X193770380Y-109127095D01*
X194151333Y-108793761D01*
X194151333Y-108936619D01*
X194198952Y-109031857D01*
X194246571Y-109079476D01*
X194341809Y-109127095D01*
X194579904Y-109127095D01*
X194675142Y-109079476D01*
X194722761Y-109031857D01*
X194770380Y-108936619D01*
X194770380Y-108650904D01*
X194722761Y-108555666D01*
X194675142Y-108508047D01*
%TO.C,R105*%
X152783380Y-102357952D02*
X152307190Y-102024619D01*
X152783380Y-101786523D02*
X151783380Y-101786523D01*
X151783380Y-102167476D01*
X151831000Y-102262714D01*
X151878619Y-102310333D01*
X151973857Y-102357952D01*
X152116714Y-102357952D01*
X152211952Y-102310333D01*
X152259571Y-102262714D01*
X152307190Y-102167476D01*
X152307190Y-101786523D01*
X152783380Y-103310333D02*
X152783380Y-102738904D01*
X152783380Y-103024619D02*
X151783380Y-103024619D01*
X151926238Y-102929380D01*
X152021476Y-102834142D01*
X152069095Y-102738904D01*
X151783380Y-103929380D02*
X151783380Y-104024619D01*
X151831000Y-104119857D01*
X151878619Y-104167476D01*
X151973857Y-104215095D01*
X152164333Y-104262714D01*
X152402428Y-104262714D01*
X152592904Y-104215095D01*
X152688142Y-104167476D01*
X152735761Y-104119857D01*
X152783380Y-104024619D01*
X152783380Y-103929380D01*
X152735761Y-103834142D01*
X152688142Y-103786523D01*
X152592904Y-103738904D01*
X152402428Y-103691285D01*
X152164333Y-103691285D01*
X151973857Y-103738904D01*
X151878619Y-103786523D01*
X151831000Y-103834142D01*
X151783380Y-103929380D01*
X151783380Y-105167476D02*
X151783380Y-104691285D01*
X152259571Y-104643666D01*
X152211952Y-104691285D01*
X152164333Y-104786523D01*
X152164333Y-105024619D01*
X152211952Y-105119857D01*
X152259571Y-105167476D01*
X152354809Y-105215095D01*
X152592904Y-105215095D01*
X152688142Y-105167476D01*
X152735761Y-105119857D01*
X152783380Y-105024619D01*
X152783380Y-104786523D01*
X152735761Y-104691285D01*
X152688142Y-104643666D01*
%TO.C,R106*%
X168760380Y-90193952D02*
X168284190Y-89860619D01*
X168760380Y-89622523D02*
X167760380Y-89622523D01*
X167760380Y-90003476D01*
X167808000Y-90098714D01*
X167855619Y-90146333D01*
X167950857Y-90193952D01*
X168093714Y-90193952D01*
X168188952Y-90146333D01*
X168236571Y-90098714D01*
X168284190Y-90003476D01*
X168284190Y-89622523D01*
X168760380Y-91146333D02*
X168760380Y-90574904D01*
X168760380Y-90860619D02*
X167760380Y-90860619D01*
X167903238Y-90765380D01*
X167998476Y-90670142D01*
X168046095Y-90574904D01*
X167760380Y-91765380D02*
X167760380Y-91860619D01*
X167808000Y-91955857D01*
X167855619Y-92003476D01*
X167950857Y-92051095D01*
X168141333Y-92098714D01*
X168379428Y-92098714D01*
X168569904Y-92051095D01*
X168665142Y-92003476D01*
X168712761Y-91955857D01*
X168760380Y-91860619D01*
X168760380Y-91765380D01*
X168712761Y-91670142D01*
X168665142Y-91622523D01*
X168569904Y-91574904D01*
X168379428Y-91527285D01*
X168141333Y-91527285D01*
X167950857Y-91574904D01*
X167855619Y-91622523D01*
X167808000Y-91670142D01*
X167760380Y-91765380D01*
X167760380Y-92955857D02*
X167760380Y-92765380D01*
X167808000Y-92670142D01*
X167855619Y-92622523D01*
X167998476Y-92527285D01*
X168188952Y-92479666D01*
X168569904Y-92479666D01*
X168665142Y-92527285D01*
X168712761Y-92574904D01*
X168760380Y-92670142D01*
X168760380Y-92860619D01*
X168712761Y-92955857D01*
X168665142Y-93003476D01*
X168569904Y-93051095D01*
X168331809Y-93051095D01*
X168236571Y-93003476D01*
X168188952Y-92955857D01*
X168141333Y-92860619D01*
X168141333Y-92670142D01*
X168188952Y-92574904D01*
X168236571Y-92527285D01*
X168331809Y-92479666D01*
%TO.C,R107*%
X168760380Y-86026452D02*
X168284190Y-85693119D01*
X168760380Y-85455023D02*
X167760380Y-85455023D01*
X167760380Y-85835976D01*
X167808000Y-85931214D01*
X167855619Y-85978833D01*
X167950857Y-86026452D01*
X168093714Y-86026452D01*
X168188952Y-85978833D01*
X168236571Y-85931214D01*
X168284190Y-85835976D01*
X168284190Y-85455023D01*
X168760380Y-86978833D02*
X168760380Y-86407404D01*
X168760380Y-86693119D02*
X167760380Y-86693119D01*
X167903238Y-86597880D01*
X167998476Y-86502642D01*
X168046095Y-86407404D01*
X167760380Y-87597880D02*
X167760380Y-87693119D01*
X167808000Y-87788357D01*
X167855619Y-87835976D01*
X167950857Y-87883595D01*
X168141333Y-87931214D01*
X168379428Y-87931214D01*
X168569904Y-87883595D01*
X168665142Y-87835976D01*
X168712761Y-87788357D01*
X168760380Y-87693119D01*
X168760380Y-87597880D01*
X168712761Y-87502642D01*
X168665142Y-87455023D01*
X168569904Y-87407404D01*
X168379428Y-87359785D01*
X168141333Y-87359785D01*
X167950857Y-87407404D01*
X167855619Y-87455023D01*
X167808000Y-87502642D01*
X167760380Y-87597880D01*
X167760380Y-88264547D02*
X167760380Y-88931214D01*
X168760380Y-88502642D01*
%TO.C,R108*%
X156593380Y-107795952D02*
X156117190Y-107462619D01*
X156593380Y-107224523D02*
X155593380Y-107224523D01*
X155593380Y-107605476D01*
X155641000Y-107700714D01*
X155688619Y-107748333D01*
X155783857Y-107795952D01*
X155926714Y-107795952D01*
X156021952Y-107748333D01*
X156069571Y-107700714D01*
X156117190Y-107605476D01*
X156117190Y-107224523D01*
X156593380Y-108748333D02*
X156593380Y-108176904D01*
X156593380Y-108462619D02*
X155593380Y-108462619D01*
X155736238Y-108367380D01*
X155831476Y-108272142D01*
X155879095Y-108176904D01*
X155593380Y-109367380D02*
X155593380Y-109462619D01*
X155641000Y-109557857D01*
X155688619Y-109605476D01*
X155783857Y-109653095D01*
X155974333Y-109700714D01*
X156212428Y-109700714D01*
X156402904Y-109653095D01*
X156498142Y-109605476D01*
X156545761Y-109557857D01*
X156593380Y-109462619D01*
X156593380Y-109367380D01*
X156545761Y-109272142D01*
X156498142Y-109224523D01*
X156402904Y-109176904D01*
X156212428Y-109129285D01*
X155974333Y-109129285D01*
X155783857Y-109176904D01*
X155688619Y-109224523D01*
X155641000Y-109272142D01*
X155593380Y-109367380D01*
X156021952Y-110272142D02*
X155974333Y-110176904D01*
X155926714Y-110129285D01*
X155831476Y-110081666D01*
X155783857Y-110081666D01*
X155688619Y-110129285D01*
X155641000Y-110176904D01*
X155593380Y-110272142D01*
X155593380Y-110462619D01*
X155641000Y-110557857D01*
X155688619Y-110605476D01*
X155783857Y-110653095D01*
X155831476Y-110653095D01*
X155926714Y-110605476D01*
X155974333Y-110557857D01*
X156021952Y-110462619D01*
X156021952Y-110272142D01*
X156069571Y-110176904D01*
X156117190Y-110129285D01*
X156212428Y-110081666D01*
X156402904Y-110081666D01*
X156498142Y-110129285D01*
X156545761Y-110176904D01*
X156593380Y-110272142D01*
X156593380Y-110462619D01*
X156545761Y-110557857D01*
X156498142Y-110605476D01*
X156402904Y-110653095D01*
X156212428Y-110653095D01*
X156117190Y-110605476D01*
X156069571Y-110557857D01*
X156021952Y-110462619D01*
%TO.C,R109*%
X159498619Y-109756047D02*
X159974809Y-110089380D01*
X159498619Y-110327476D02*
X160498619Y-110327476D01*
X160498619Y-109946523D01*
X160451000Y-109851285D01*
X160403380Y-109803666D01*
X160308142Y-109756047D01*
X160165285Y-109756047D01*
X160070047Y-109803666D01*
X160022428Y-109851285D01*
X159974809Y-109946523D01*
X159974809Y-110327476D01*
X159498619Y-108803666D02*
X159498619Y-109375095D01*
X159498619Y-109089380D02*
X160498619Y-109089380D01*
X160355761Y-109184619D01*
X160260523Y-109279857D01*
X160212904Y-109375095D01*
X160498619Y-108184619D02*
X160498619Y-108089380D01*
X160451000Y-107994142D01*
X160403380Y-107946523D01*
X160308142Y-107898904D01*
X160117666Y-107851285D01*
X159879571Y-107851285D01*
X159689095Y-107898904D01*
X159593857Y-107946523D01*
X159546238Y-107994142D01*
X159498619Y-108089380D01*
X159498619Y-108184619D01*
X159546238Y-108279857D01*
X159593857Y-108327476D01*
X159689095Y-108375095D01*
X159879571Y-108422714D01*
X160117666Y-108422714D01*
X160308142Y-108375095D01*
X160403380Y-108327476D01*
X160451000Y-108279857D01*
X160498619Y-108184619D01*
X159498619Y-107375095D02*
X159498619Y-107184619D01*
X159546238Y-107089380D01*
X159593857Y-107041761D01*
X159736714Y-106946523D01*
X159927190Y-106898904D01*
X160308142Y-106898904D01*
X160403380Y-106946523D01*
X160451000Y-106994142D01*
X160498619Y-107089380D01*
X160498619Y-107279857D01*
X160451000Y-107375095D01*
X160403380Y-107422714D01*
X160308142Y-107470333D01*
X160070047Y-107470333D01*
X159974809Y-107422714D01*
X159927190Y-107375095D01*
X159879571Y-107279857D01*
X159879571Y-107089380D01*
X159927190Y-106994142D01*
X159974809Y-106946523D01*
X160070047Y-106898904D01*
%TO.C,R111*%
X156466380Y-99286952D02*
X155990190Y-98953619D01*
X156466380Y-98715523D02*
X155466380Y-98715523D01*
X155466380Y-99096476D01*
X155514000Y-99191714D01*
X155561619Y-99239333D01*
X155656857Y-99286952D01*
X155799714Y-99286952D01*
X155894952Y-99239333D01*
X155942571Y-99191714D01*
X155990190Y-99096476D01*
X155990190Y-98715523D01*
X156466380Y-100239333D02*
X156466380Y-99667904D01*
X156466380Y-99953619D02*
X155466380Y-99953619D01*
X155609238Y-99858380D01*
X155704476Y-99763142D01*
X155752095Y-99667904D01*
X156466380Y-101191714D02*
X156466380Y-100620285D01*
X156466380Y-100906000D02*
X155466380Y-100906000D01*
X155609238Y-100810761D01*
X155704476Y-100715523D01*
X155752095Y-100620285D01*
X156466380Y-102144095D02*
X156466380Y-101572666D01*
X156466380Y-101858380D02*
X155466380Y-101858380D01*
X155609238Y-101763142D01*
X155704476Y-101667904D01*
X155752095Y-101572666D01*
%TO.C,R112*%
X156466380Y-103096952D02*
X155990190Y-102763619D01*
X156466380Y-102525523D02*
X155466380Y-102525523D01*
X155466380Y-102906476D01*
X155514000Y-103001714D01*
X155561619Y-103049333D01*
X155656857Y-103096952D01*
X155799714Y-103096952D01*
X155894952Y-103049333D01*
X155942571Y-103001714D01*
X155990190Y-102906476D01*
X155990190Y-102525523D01*
X156466380Y-104049333D02*
X156466380Y-103477904D01*
X156466380Y-103763619D02*
X155466380Y-103763619D01*
X155609238Y-103668380D01*
X155704476Y-103573142D01*
X155752095Y-103477904D01*
X156466380Y-105001714D02*
X156466380Y-104430285D01*
X156466380Y-104716000D02*
X155466380Y-104716000D01*
X155609238Y-104620761D01*
X155704476Y-104525523D01*
X155752095Y-104430285D01*
X155561619Y-105382666D02*
X155514000Y-105430285D01*
X155466380Y-105525523D01*
X155466380Y-105763619D01*
X155514000Y-105858857D01*
X155561619Y-105906476D01*
X155656857Y-105954095D01*
X155752095Y-105954095D01*
X155894952Y-105906476D01*
X156466380Y-105335047D01*
X156466380Y-105954095D01*
%TO.C,R113*%
X158897380Y-102643452D02*
X158421190Y-102310119D01*
X158897380Y-102072023D02*
X157897380Y-102072023D01*
X157897380Y-102452976D01*
X157945000Y-102548214D01*
X157992619Y-102595833D01*
X158087857Y-102643452D01*
X158230714Y-102643452D01*
X158325952Y-102595833D01*
X158373571Y-102548214D01*
X158421190Y-102452976D01*
X158421190Y-102072023D01*
X158897380Y-103595833D02*
X158897380Y-103024404D01*
X158897380Y-103310119D02*
X157897380Y-103310119D01*
X158040238Y-103214880D01*
X158135476Y-103119642D01*
X158183095Y-103024404D01*
X158897380Y-104548214D02*
X158897380Y-103976785D01*
X158897380Y-104262500D02*
X157897380Y-104262500D01*
X158040238Y-104167261D01*
X158135476Y-104072023D01*
X158183095Y-103976785D01*
X157897380Y-104881547D02*
X157897380Y-105500595D01*
X158278333Y-105167261D01*
X158278333Y-105310119D01*
X158325952Y-105405357D01*
X158373571Y-105452976D01*
X158468809Y-105500595D01*
X158706904Y-105500595D01*
X158802142Y-105452976D01*
X158849761Y-105405357D01*
X158897380Y-105310119D01*
X158897380Y-105024404D01*
X158849761Y-104929166D01*
X158802142Y-104881547D01*
%TO.C,U101*%
D16*
X185093700Y-86179566D02*
X184693700Y-86179566D01*
X184893700Y-86179566D02*
X184893700Y-85479566D01*
X184827033Y-85579566D01*
X184760366Y-85646233D01*
X184693700Y-85679566D01*
%TO.C,C1*%
D10*
X152604666Y-51614342D02*
X152652285Y-51661961D01*
X152795142Y-51709580D01*
X152890380Y-51709580D01*
X153033238Y-51661961D01*
X153128476Y-51566723D01*
X153176095Y-51471485D01*
X153223714Y-51281009D01*
X153223714Y-51138152D01*
X153176095Y-50947676D01*
X153128476Y-50852438D01*
X153033238Y-50757200D01*
X152890380Y-50709580D01*
X152795142Y-50709580D01*
X152652285Y-50757200D01*
X152604666Y-50804819D01*
X151652285Y-51709580D02*
X152223714Y-51709580D01*
X151938000Y-51709580D02*
X151938000Y-50709580D01*
X152033238Y-50852438D01*
X152128476Y-50947676D01*
X152223714Y-50995295D01*
%TO.C,C2*%
X155449666Y-65127142D02*
X155497285Y-65174761D01*
X155640142Y-65222380D01*
X155735380Y-65222380D01*
X155878238Y-65174761D01*
X155973476Y-65079523D01*
X156021095Y-64984285D01*
X156068714Y-64793809D01*
X156068714Y-64650952D01*
X156021095Y-64460476D01*
X155973476Y-64365238D01*
X155878238Y-64270000D01*
X155735380Y-64222380D01*
X155640142Y-64222380D01*
X155497285Y-64270000D01*
X155449666Y-64317619D01*
X155068714Y-64317619D02*
X155021095Y-64270000D01*
X154925857Y-64222380D01*
X154687761Y-64222380D01*
X154592523Y-64270000D01*
X154544904Y-64317619D01*
X154497285Y-64412857D01*
X154497285Y-64508095D01*
X154544904Y-64650952D01*
X155116333Y-65222380D01*
X154497285Y-65222380D01*
%TO.C,C3*%
X174576142Y-53782933D02*
X174623761Y-53735314D01*
X174671380Y-53592457D01*
X174671380Y-53497219D01*
X174623761Y-53354361D01*
X174528523Y-53259123D01*
X174433285Y-53211504D01*
X174242809Y-53163885D01*
X174099952Y-53163885D01*
X173909476Y-53211504D01*
X173814238Y-53259123D01*
X173719000Y-53354361D01*
X173671380Y-53497219D01*
X173671380Y-53592457D01*
X173719000Y-53735314D01*
X173766619Y-53782933D01*
X173671380Y-54116266D02*
X173671380Y-54735314D01*
X174052333Y-54401980D01*
X174052333Y-54544838D01*
X174099952Y-54640076D01*
X174147571Y-54687695D01*
X174242809Y-54735314D01*
X174480904Y-54735314D01*
X174576142Y-54687695D01*
X174623761Y-54640076D01*
X174671380Y-54544838D01*
X174671380Y-54259123D01*
X174623761Y-54163885D01*
X174576142Y-54116266D01*
%TO.C,C4*%
X178132142Y-53782933D02*
X178179761Y-53735314D01*
X178227380Y-53592457D01*
X178227380Y-53497219D01*
X178179761Y-53354361D01*
X178084523Y-53259123D01*
X177989285Y-53211504D01*
X177798809Y-53163885D01*
X177655952Y-53163885D01*
X177465476Y-53211504D01*
X177370238Y-53259123D01*
X177275000Y-53354361D01*
X177227380Y-53497219D01*
X177227380Y-53592457D01*
X177275000Y-53735314D01*
X177322619Y-53782933D01*
X177560714Y-54640076D02*
X178227380Y-54640076D01*
X177179761Y-54401980D02*
X177894047Y-54163885D01*
X177894047Y-54782933D01*
%TO.C,C5*%
X155462666Y-67311542D02*
X155510285Y-67359161D01*
X155653142Y-67406780D01*
X155748380Y-67406780D01*
X155891238Y-67359161D01*
X155986476Y-67263923D01*
X156034095Y-67168685D01*
X156081714Y-66978209D01*
X156081714Y-66835352D01*
X156034095Y-66644876D01*
X155986476Y-66549638D01*
X155891238Y-66454400D01*
X155748380Y-66406780D01*
X155653142Y-66406780D01*
X155510285Y-66454400D01*
X155462666Y-66502019D01*
X154557904Y-66406780D02*
X155034095Y-66406780D01*
X155081714Y-66882971D01*
X155034095Y-66835352D01*
X154938857Y-66787733D01*
X154700761Y-66787733D01*
X154605523Y-66835352D01*
X154557904Y-66882971D01*
X154510285Y-66978209D01*
X154510285Y-67216304D01*
X154557904Y-67311542D01*
X154605523Y-67359161D01*
X154700761Y-67406780D01*
X154938857Y-67406780D01*
X155034095Y-67359161D01*
X155081714Y-67311542D01*
%TO.C,C6*%
X172798142Y-53782933D02*
X172845761Y-53735314D01*
X172893380Y-53592457D01*
X172893380Y-53497219D01*
X172845761Y-53354361D01*
X172750523Y-53259123D01*
X172655285Y-53211504D01*
X172464809Y-53163885D01*
X172321952Y-53163885D01*
X172131476Y-53211504D01*
X172036238Y-53259123D01*
X171941000Y-53354361D01*
X171893380Y-53497219D01*
X171893380Y-53592457D01*
X171941000Y-53735314D01*
X171988619Y-53782933D01*
X171893380Y-54640076D02*
X171893380Y-54449600D01*
X171941000Y-54354361D01*
X171988619Y-54306742D01*
X172131476Y-54211504D01*
X172321952Y-54163885D01*
X172702904Y-54163885D01*
X172798142Y-54211504D01*
X172845761Y-54259123D01*
X172893380Y-54354361D01*
X172893380Y-54544838D01*
X172845761Y-54640076D01*
X172798142Y-54687695D01*
X172702904Y-54735314D01*
X172464809Y-54735314D01*
X172369571Y-54687695D01*
X172321952Y-54640076D01*
X172274333Y-54544838D01*
X172274333Y-54354361D01*
X172321952Y-54259123D01*
X172369571Y-54211504D01*
X172464809Y-54163885D01*
%TO.C,C7*%
X176354142Y-53782933D02*
X176401761Y-53735314D01*
X176449380Y-53592457D01*
X176449380Y-53497219D01*
X176401761Y-53354361D01*
X176306523Y-53259123D01*
X176211285Y-53211504D01*
X176020809Y-53163885D01*
X175877952Y-53163885D01*
X175687476Y-53211504D01*
X175592238Y-53259123D01*
X175497000Y-53354361D01*
X175449380Y-53497219D01*
X175449380Y-53592457D01*
X175497000Y-53735314D01*
X175544619Y-53782933D01*
X175449380Y-54116266D02*
X175449380Y-54782933D01*
X176449380Y-54354361D01*
%TO.C,D1*%
X150494380Y-126515904D02*
X149494380Y-126515904D01*
X149494380Y-126754000D01*
X149542000Y-126896857D01*
X149637238Y-126992095D01*
X149732476Y-127039714D01*
X149922952Y-127087333D01*
X150065809Y-127087333D01*
X150256285Y-127039714D01*
X150351523Y-126992095D01*
X150446761Y-126896857D01*
X150494380Y-126754000D01*
X150494380Y-126515904D01*
X150494380Y-128039714D02*
X150494380Y-127468285D01*
X150494380Y-127754000D02*
X149494380Y-127754000D01*
X149637238Y-127658761D01*
X149732476Y-127563523D01*
X149780095Y-127468285D01*
%TO.C,D2*%
X157098380Y-126515904D02*
X156098380Y-126515904D01*
X156098380Y-126754000D01*
X156146000Y-126896857D01*
X156241238Y-126992095D01*
X156336476Y-127039714D01*
X156526952Y-127087333D01*
X156669809Y-127087333D01*
X156860285Y-127039714D01*
X156955523Y-126992095D01*
X157050761Y-126896857D01*
X157098380Y-126754000D01*
X157098380Y-126515904D01*
X156193619Y-127468285D02*
X156146000Y-127515904D01*
X156098380Y-127611142D01*
X156098380Y-127849238D01*
X156146000Y-127944476D01*
X156193619Y-127992095D01*
X156288857Y-128039714D01*
X156384095Y-128039714D01*
X156526952Y-127992095D01*
X157098380Y-127420666D01*
X157098380Y-128039714D01*
%TO.C,D3*%
X163702380Y-126515904D02*
X162702380Y-126515904D01*
X162702380Y-126754000D01*
X162750000Y-126896857D01*
X162845238Y-126992095D01*
X162940476Y-127039714D01*
X163130952Y-127087333D01*
X163273809Y-127087333D01*
X163464285Y-127039714D01*
X163559523Y-126992095D01*
X163654761Y-126896857D01*
X163702380Y-126754000D01*
X163702380Y-126515904D01*
X162702380Y-127420666D02*
X162702380Y-128039714D01*
X163083333Y-127706380D01*
X163083333Y-127849238D01*
X163130952Y-127944476D01*
X163178571Y-127992095D01*
X163273809Y-128039714D01*
X163511904Y-128039714D01*
X163607142Y-127992095D01*
X163654761Y-127944476D01*
X163702380Y-127849238D01*
X163702380Y-127563523D01*
X163654761Y-127468285D01*
X163607142Y-127420666D01*
%TO.C,D4*%
X170306380Y-126515904D02*
X169306380Y-126515904D01*
X169306380Y-126754000D01*
X169354000Y-126896857D01*
X169449238Y-126992095D01*
X169544476Y-127039714D01*
X169734952Y-127087333D01*
X169877809Y-127087333D01*
X170068285Y-127039714D01*
X170163523Y-126992095D01*
X170258761Y-126896857D01*
X170306380Y-126754000D01*
X170306380Y-126515904D01*
X169639714Y-127944476D02*
X170306380Y-127944476D01*
X169258761Y-127706380D02*
X169973047Y-127468285D01*
X169973047Y-128087333D01*
%TO.C,D5*%
X176910380Y-126515904D02*
X175910380Y-126515904D01*
X175910380Y-126754000D01*
X175958000Y-126896857D01*
X176053238Y-126992095D01*
X176148476Y-127039714D01*
X176338952Y-127087333D01*
X176481809Y-127087333D01*
X176672285Y-127039714D01*
X176767523Y-126992095D01*
X176862761Y-126896857D01*
X176910380Y-126754000D01*
X176910380Y-126515904D01*
X175910380Y-127992095D02*
X175910380Y-127515904D01*
X176386571Y-127468285D01*
X176338952Y-127515904D01*
X176291333Y-127611142D01*
X176291333Y-127849238D01*
X176338952Y-127944476D01*
X176386571Y-127992095D01*
X176481809Y-128039714D01*
X176719904Y-128039714D01*
X176815142Y-127992095D01*
X176862761Y-127944476D01*
X176910380Y-127849238D01*
X176910380Y-127611142D01*
X176862761Y-127515904D01*
X176815142Y-127468285D01*
%TO.C,D6*%
X183768380Y-126515904D02*
X182768380Y-126515904D01*
X182768380Y-126754000D01*
X182816000Y-126896857D01*
X182911238Y-126992095D01*
X183006476Y-127039714D01*
X183196952Y-127087333D01*
X183339809Y-127087333D01*
X183530285Y-127039714D01*
X183625523Y-126992095D01*
X183720761Y-126896857D01*
X183768380Y-126754000D01*
X183768380Y-126515904D01*
X182768380Y-127944476D02*
X182768380Y-127754000D01*
X182816000Y-127658761D01*
X182863619Y-127611142D01*
X183006476Y-127515904D01*
X183196952Y-127468285D01*
X183577904Y-127468285D01*
X183673142Y-127515904D01*
X183720761Y-127563523D01*
X183768380Y-127658761D01*
X183768380Y-127849238D01*
X183720761Y-127944476D01*
X183673142Y-127992095D01*
X183577904Y-128039714D01*
X183339809Y-128039714D01*
X183244571Y-127992095D01*
X183196952Y-127944476D01*
X183149333Y-127849238D01*
X183149333Y-127658761D01*
X183196952Y-127563523D01*
X183244571Y-127515904D01*
X183339809Y-127468285D01*
%TO.C,D7*%
X190372380Y-126515904D02*
X189372380Y-126515904D01*
X189372380Y-126754000D01*
X189420000Y-126896857D01*
X189515238Y-126992095D01*
X189610476Y-127039714D01*
X189800952Y-127087333D01*
X189943809Y-127087333D01*
X190134285Y-127039714D01*
X190229523Y-126992095D01*
X190324761Y-126896857D01*
X190372380Y-126754000D01*
X190372380Y-126515904D01*
X189372380Y-127420666D02*
X189372380Y-128087333D01*
X190372380Y-127658761D01*
%TO.C,D8*%
X196976380Y-126515904D02*
X195976380Y-126515904D01*
X195976380Y-126754000D01*
X196024000Y-126896857D01*
X196119238Y-126992095D01*
X196214476Y-127039714D01*
X196404952Y-127087333D01*
X196547809Y-127087333D01*
X196738285Y-127039714D01*
X196833523Y-126992095D01*
X196928761Y-126896857D01*
X196976380Y-126754000D01*
X196976380Y-126515904D01*
X196404952Y-127658761D02*
X196357333Y-127563523D01*
X196309714Y-127515904D01*
X196214476Y-127468285D01*
X196166857Y-127468285D01*
X196071619Y-127515904D01*
X196024000Y-127563523D01*
X195976380Y-127658761D01*
X195976380Y-127849238D01*
X196024000Y-127944476D01*
X196071619Y-127992095D01*
X196166857Y-128039714D01*
X196214476Y-128039714D01*
X196309714Y-127992095D01*
X196357333Y-127944476D01*
X196404952Y-127849238D01*
X196404952Y-127658761D01*
X196452571Y-127563523D01*
X196500190Y-127515904D01*
X196595428Y-127468285D01*
X196785904Y-127468285D01*
X196881142Y-127515904D01*
X196928761Y-127563523D01*
X196976380Y-127658761D01*
X196976380Y-127849238D01*
X196928761Y-127944476D01*
X196881142Y-127992095D01*
X196785904Y-128039714D01*
X196595428Y-128039714D01*
X196500190Y-127992095D01*
X196452571Y-127944476D01*
X196404952Y-127849238D01*
%TO.C,D9*%
X203580380Y-126515904D02*
X202580380Y-126515904D01*
X202580380Y-126754000D01*
X202628000Y-126896857D01*
X202723238Y-126992095D01*
X202818476Y-127039714D01*
X203008952Y-127087333D01*
X203151809Y-127087333D01*
X203342285Y-127039714D01*
X203437523Y-126992095D01*
X203532761Y-126896857D01*
X203580380Y-126754000D01*
X203580380Y-126515904D01*
X203580380Y-127563523D02*
X203580380Y-127754000D01*
X203532761Y-127849238D01*
X203485142Y-127896857D01*
X203342285Y-127992095D01*
X203151809Y-128039714D01*
X202770857Y-128039714D01*
X202675619Y-127992095D01*
X202628000Y-127944476D01*
X202580380Y-127849238D01*
X202580380Y-127658761D01*
X202628000Y-127563523D01*
X202675619Y-127515904D01*
X202770857Y-127468285D01*
X203008952Y-127468285D01*
X203104190Y-127515904D01*
X203151809Y-127563523D01*
X203199428Y-127658761D01*
X203199428Y-127849238D01*
X203151809Y-127944476D01*
X203104190Y-127992095D01*
X203008952Y-128039714D01*
%TO.C,D10*%
X210184380Y-126059714D02*
X209184380Y-126059714D01*
X209184380Y-126297809D01*
X209232000Y-126440666D01*
X209327238Y-126535904D01*
X209422476Y-126583523D01*
X209612952Y-126631142D01*
X209755809Y-126631142D01*
X209946285Y-126583523D01*
X210041523Y-126535904D01*
X210136761Y-126440666D01*
X210184380Y-126297809D01*
X210184380Y-126059714D01*
X210184380Y-127583523D02*
X210184380Y-127012095D01*
X210184380Y-127297809D02*
X209184380Y-127297809D01*
X209327238Y-127202571D01*
X209422476Y-127107333D01*
X209470095Y-127012095D01*
X209184380Y-128202571D02*
X209184380Y-128297809D01*
X209232000Y-128393047D01*
X209279619Y-128440666D01*
X209374857Y-128488285D01*
X209565333Y-128535904D01*
X209803428Y-128535904D01*
X209993904Y-128488285D01*
X210089142Y-128440666D01*
X210136761Y-128393047D01*
X210184380Y-128297809D01*
X210184380Y-128202571D01*
X210136761Y-128107333D01*
X210089142Y-128059714D01*
X209993904Y-128012095D01*
X209803428Y-127964476D01*
X209565333Y-127964476D01*
X209374857Y-128012095D01*
X209279619Y-128059714D01*
X209232000Y-128107333D01*
X209184380Y-128202571D01*
%TO.C,D11*%
X205683980Y-113644714D02*
X204683980Y-113644714D01*
X204683980Y-113882809D01*
X204731600Y-114025666D01*
X204826838Y-114120904D01*
X204922076Y-114168523D01*
X205112552Y-114216142D01*
X205255409Y-114216142D01*
X205445885Y-114168523D01*
X205541123Y-114120904D01*
X205636361Y-114025666D01*
X205683980Y-113882809D01*
X205683980Y-113644714D01*
X205683980Y-115168523D02*
X205683980Y-114597095D01*
X205683980Y-114882809D02*
X204683980Y-114882809D01*
X204826838Y-114787571D01*
X204922076Y-114692333D01*
X204969695Y-114597095D01*
X205683980Y-116120904D02*
X205683980Y-115549476D01*
X205683980Y-115835190D02*
X204683980Y-115835190D01*
X204826838Y-115739952D01*
X204922076Y-115644714D01*
X204969695Y-115549476D01*
%TO.C,D12*%
X202056380Y-112176714D02*
X201056380Y-112176714D01*
X201056380Y-112414809D01*
X201104000Y-112557666D01*
X201199238Y-112652904D01*
X201294476Y-112700523D01*
X201484952Y-112748142D01*
X201627809Y-112748142D01*
X201818285Y-112700523D01*
X201913523Y-112652904D01*
X202008761Y-112557666D01*
X202056380Y-112414809D01*
X202056380Y-112176714D01*
X202056380Y-113700523D02*
X202056380Y-113129095D01*
X202056380Y-113414809D02*
X201056380Y-113414809D01*
X201199238Y-113319571D01*
X201294476Y-113224333D01*
X201342095Y-113129095D01*
X201151619Y-114081476D02*
X201104000Y-114129095D01*
X201056380Y-114224333D01*
X201056380Y-114462428D01*
X201104000Y-114557666D01*
X201151619Y-114605285D01*
X201246857Y-114652904D01*
X201342095Y-114652904D01*
X201484952Y-114605285D01*
X202056380Y-114033857D01*
X202056380Y-114652904D01*
%TO.C,D13*%
X150494380Y-133659714D02*
X149494380Y-133659714D01*
X149494380Y-133897809D01*
X149542000Y-134040666D01*
X149637238Y-134135904D01*
X149732476Y-134183523D01*
X149922952Y-134231142D01*
X150065809Y-134231142D01*
X150256285Y-134183523D01*
X150351523Y-134135904D01*
X150446761Y-134040666D01*
X150494380Y-133897809D01*
X150494380Y-133659714D01*
X150494380Y-135183523D02*
X150494380Y-134612095D01*
X150494380Y-134897809D02*
X149494380Y-134897809D01*
X149637238Y-134802571D01*
X149732476Y-134707333D01*
X149780095Y-134612095D01*
X149494380Y-135516857D02*
X149494380Y-136135904D01*
X149875333Y-135802571D01*
X149875333Y-135945428D01*
X149922952Y-136040666D01*
X149970571Y-136088285D01*
X150065809Y-136135904D01*
X150303904Y-136135904D01*
X150399142Y-136088285D01*
X150446761Y-136040666D01*
X150494380Y-135945428D01*
X150494380Y-135659714D01*
X150446761Y-135564476D01*
X150399142Y-135516857D01*
%TO.C,D14*%
X157098380Y-133659714D02*
X156098380Y-133659714D01*
X156098380Y-133897809D01*
X156146000Y-134040666D01*
X156241238Y-134135904D01*
X156336476Y-134183523D01*
X156526952Y-134231142D01*
X156669809Y-134231142D01*
X156860285Y-134183523D01*
X156955523Y-134135904D01*
X157050761Y-134040666D01*
X157098380Y-133897809D01*
X157098380Y-133659714D01*
X157098380Y-135183523D02*
X157098380Y-134612095D01*
X157098380Y-134897809D02*
X156098380Y-134897809D01*
X156241238Y-134802571D01*
X156336476Y-134707333D01*
X156384095Y-134612095D01*
X156431714Y-136040666D02*
X157098380Y-136040666D01*
X156050761Y-135802571D02*
X156765047Y-135564476D01*
X156765047Y-136183523D01*
%TO.C,D15*%
X163702380Y-133659714D02*
X162702380Y-133659714D01*
X162702380Y-133897809D01*
X162750000Y-134040666D01*
X162845238Y-134135904D01*
X162940476Y-134183523D01*
X163130952Y-134231142D01*
X163273809Y-134231142D01*
X163464285Y-134183523D01*
X163559523Y-134135904D01*
X163654761Y-134040666D01*
X163702380Y-133897809D01*
X163702380Y-133659714D01*
X163702380Y-135183523D02*
X163702380Y-134612095D01*
X163702380Y-134897809D02*
X162702380Y-134897809D01*
X162845238Y-134802571D01*
X162940476Y-134707333D01*
X162988095Y-134612095D01*
X162702380Y-136088285D02*
X162702380Y-135612095D01*
X163178571Y-135564476D01*
X163130952Y-135612095D01*
X163083333Y-135707333D01*
X163083333Y-135945428D01*
X163130952Y-136040666D01*
X163178571Y-136088285D01*
X163273809Y-136135904D01*
X163511904Y-136135904D01*
X163607142Y-136088285D01*
X163654761Y-136040666D01*
X163702380Y-135945428D01*
X163702380Y-135707333D01*
X163654761Y-135612095D01*
X163607142Y-135564476D01*
%TO.C,D16*%
X170306380Y-133659714D02*
X169306380Y-133659714D01*
X169306380Y-133897809D01*
X169354000Y-134040666D01*
X169449238Y-134135904D01*
X169544476Y-134183523D01*
X169734952Y-134231142D01*
X169877809Y-134231142D01*
X170068285Y-134183523D01*
X170163523Y-134135904D01*
X170258761Y-134040666D01*
X170306380Y-133897809D01*
X170306380Y-133659714D01*
X170306380Y-135183523D02*
X170306380Y-134612095D01*
X170306380Y-134897809D02*
X169306380Y-134897809D01*
X169449238Y-134802571D01*
X169544476Y-134707333D01*
X169592095Y-134612095D01*
X169306380Y-136040666D02*
X169306380Y-135850190D01*
X169354000Y-135754952D01*
X169401619Y-135707333D01*
X169544476Y-135612095D01*
X169734952Y-135564476D01*
X170115904Y-135564476D01*
X170211142Y-135612095D01*
X170258761Y-135659714D01*
X170306380Y-135754952D01*
X170306380Y-135945428D01*
X170258761Y-136040666D01*
X170211142Y-136088285D01*
X170115904Y-136135904D01*
X169877809Y-136135904D01*
X169782571Y-136088285D01*
X169734952Y-136040666D01*
X169687333Y-135945428D01*
X169687333Y-135754952D01*
X169734952Y-135659714D01*
X169782571Y-135612095D01*
X169877809Y-135564476D01*
%TO.C,D17*%
X177164380Y-133659714D02*
X176164380Y-133659714D01*
X176164380Y-133897809D01*
X176212000Y-134040666D01*
X176307238Y-134135904D01*
X176402476Y-134183523D01*
X176592952Y-134231142D01*
X176735809Y-134231142D01*
X176926285Y-134183523D01*
X177021523Y-134135904D01*
X177116761Y-134040666D01*
X177164380Y-133897809D01*
X177164380Y-133659714D01*
X177164380Y-135183523D02*
X177164380Y-134612095D01*
X177164380Y-134897809D02*
X176164380Y-134897809D01*
X176307238Y-134802571D01*
X176402476Y-134707333D01*
X176450095Y-134612095D01*
X176164380Y-135516857D02*
X176164380Y-136183523D01*
X177164380Y-135754952D01*
%TO.C,D18*%
X183768380Y-133659714D02*
X182768380Y-133659714D01*
X182768380Y-133897809D01*
X182816000Y-134040666D01*
X182911238Y-134135904D01*
X183006476Y-134183523D01*
X183196952Y-134231142D01*
X183339809Y-134231142D01*
X183530285Y-134183523D01*
X183625523Y-134135904D01*
X183720761Y-134040666D01*
X183768380Y-133897809D01*
X183768380Y-133659714D01*
X183768380Y-135183523D02*
X183768380Y-134612095D01*
X183768380Y-134897809D02*
X182768380Y-134897809D01*
X182911238Y-134802571D01*
X183006476Y-134707333D01*
X183054095Y-134612095D01*
X183196952Y-135754952D02*
X183149333Y-135659714D01*
X183101714Y-135612095D01*
X183006476Y-135564476D01*
X182958857Y-135564476D01*
X182863619Y-135612095D01*
X182816000Y-135659714D01*
X182768380Y-135754952D01*
X182768380Y-135945428D01*
X182816000Y-136040666D01*
X182863619Y-136088285D01*
X182958857Y-136135904D01*
X183006476Y-136135904D01*
X183101714Y-136088285D01*
X183149333Y-136040666D01*
X183196952Y-135945428D01*
X183196952Y-135754952D01*
X183244571Y-135659714D01*
X183292190Y-135612095D01*
X183387428Y-135564476D01*
X183577904Y-135564476D01*
X183673142Y-135612095D01*
X183720761Y-135659714D01*
X183768380Y-135754952D01*
X183768380Y-135945428D01*
X183720761Y-136040666D01*
X183673142Y-136088285D01*
X183577904Y-136135904D01*
X183387428Y-136135904D01*
X183292190Y-136088285D01*
X183244571Y-136040666D01*
X183196952Y-135945428D01*
%TO.C,D19*%
X190118380Y-133659714D02*
X189118380Y-133659714D01*
X189118380Y-133897809D01*
X189166000Y-134040666D01*
X189261238Y-134135904D01*
X189356476Y-134183523D01*
X189546952Y-134231142D01*
X189689809Y-134231142D01*
X189880285Y-134183523D01*
X189975523Y-134135904D01*
X190070761Y-134040666D01*
X190118380Y-133897809D01*
X190118380Y-133659714D01*
X190118380Y-135183523D02*
X190118380Y-134612095D01*
X190118380Y-134897809D02*
X189118380Y-134897809D01*
X189261238Y-134802571D01*
X189356476Y-134707333D01*
X189404095Y-134612095D01*
X190118380Y-135659714D02*
X190118380Y-135850190D01*
X190070761Y-135945428D01*
X190023142Y-135993047D01*
X189880285Y-136088285D01*
X189689809Y-136135904D01*
X189308857Y-136135904D01*
X189213619Y-136088285D01*
X189166000Y-136040666D01*
X189118380Y-135945428D01*
X189118380Y-135754952D01*
X189166000Y-135659714D01*
X189213619Y-135612095D01*
X189308857Y-135564476D01*
X189546952Y-135564476D01*
X189642190Y-135612095D01*
X189689809Y-135659714D01*
X189737428Y-135754952D01*
X189737428Y-135945428D01*
X189689809Y-136040666D01*
X189642190Y-136088285D01*
X189546952Y-136135904D01*
%TO.C,D20*%
X196976380Y-133659714D02*
X195976380Y-133659714D01*
X195976380Y-133897809D01*
X196024000Y-134040666D01*
X196119238Y-134135904D01*
X196214476Y-134183523D01*
X196404952Y-134231142D01*
X196547809Y-134231142D01*
X196738285Y-134183523D01*
X196833523Y-134135904D01*
X196928761Y-134040666D01*
X196976380Y-133897809D01*
X196976380Y-133659714D01*
X196071619Y-134612095D02*
X196024000Y-134659714D01*
X195976380Y-134754952D01*
X195976380Y-134993047D01*
X196024000Y-135088285D01*
X196071619Y-135135904D01*
X196166857Y-135183523D01*
X196262095Y-135183523D01*
X196404952Y-135135904D01*
X196976380Y-134564476D01*
X196976380Y-135183523D01*
X195976380Y-135802571D02*
X195976380Y-135897809D01*
X196024000Y-135993047D01*
X196071619Y-136040666D01*
X196166857Y-136088285D01*
X196357333Y-136135904D01*
X196595428Y-136135904D01*
X196785904Y-136088285D01*
X196881142Y-136040666D01*
X196928761Y-135993047D01*
X196976380Y-135897809D01*
X196976380Y-135802571D01*
X196928761Y-135707333D01*
X196881142Y-135659714D01*
X196785904Y-135612095D01*
X196595428Y-135564476D01*
X196357333Y-135564476D01*
X196166857Y-135612095D01*
X196071619Y-135659714D01*
X196024000Y-135707333D01*
X195976380Y-135802571D01*
%TO.C,D21*%
X203580380Y-133659714D02*
X202580380Y-133659714D01*
X202580380Y-133897809D01*
X202628000Y-134040666D01*
X202723238Y-134135904D01*
X202818476Y-134183523D01*
X203008952Y-134231142D01*
X203151809Y-134231142D01*
X203342285Y-134183523D01*
X203437523Y-134135904D01*
X203532761Y-134040666D01*
X203580380Y-133897809D01*
X203580380Y-133659714D01*
X202675619Y-134612095D02*
X202628000Y-134659714D01*
X202580380Y-134754952D01*
X202580380Y-134993047D01*
X202628000Y-135088285D01*
X202675619Y-135135904D01*
X202770857Y-135183523D01*
X202866095Y-135183523D01*
X203008952Y-135135904D01*
X203580380Y-134564476D01*
X203580380Y-135183523D01*
X203580380Y-136135904D02*
X203580380Y-135564476D01*
X203580380Y-135850190D02*
X202580380Y-135850190D01*
X202723238Y-135754952D01*
X202818476Y-135659714D01*
X202866095Y-135564476D01*
%TO.C,D22*%
X210184380Y-133659714D02*
X209184380Y-133659714D01*
X209184380Y-133897809D01*
X209232000Y-134040666D01*
X209327238Y-134135904D01*
X209422476Y-134183523D01*
X209612952Y-134231142D01*
X209755809Y-134231142D01*
X209946285Y-134183523D01*
X210041523Y-134135904D01*
X210136761Y-134040666D01*
X210184380Y-133897809D01*
X210184380Y-133659714D01*
X209279619Y-134612095D02*
X209232000Y-134659714D01*
X209184380Y-134754952D01*
X209184380Y-134993047D01*
X209232000Y-135088285D01*
X209279619Y-135135904D01*
X209374857Y-135183523D01*
X209470095Y-135183523D01*
X209612952Y-135135904D01*
X210184380Y-134564476D01*
X210184380Y-135183523D01*
X209279619Y-135564476D02*
X209232000Y-135612095D01*
X209184380Y-135707333D01*
X209184380Y-135945428D01*
X209232000Y-136040666D01*
X209279619Y-136088285D01*
X209374857Y-136135904D01*
X209470095Y-136135904D01*
X209612952Y-136088285D01*
X210184380Y-135516857D01*
X210184380Y-136135904D01*
%TO.C,D23*%
X196849380Y-111962714D02*
X195849380Y-111962714D01*
X195849380Y-112200809D01*
X195897000Y-112343666D01*
X195992238Y-112438904D01*
X196087476Y-112486523D01*
X196277952Y-112534142D01*
X196420809Y-112534142D01*
X196611285Y-112486523D01*
X196706523Y-112438904D01*
X196801761Y-112343666D01*
X196849380Y-112200809D01*
X196849380Y-111962714D01*
X195944619Y-112915095D02*
X195897000Y-112962714D01*
X195849380Y-113057952D01*
X195849380Y-113296047D01*
X195897000Y-113391285D01*
X195944619Y-113438904D01*
X196039857Y-113486523D01*
X196135095Y-113486523D01*
X196277952Y-113438904D01*
X196849380Y-112867476D01*
X196849380Y-113486523D01*
X195849380Y-113819857D02*
X195849380Y-114438904D01*
X196230333Y-114105571D01*
X196230333Y-114248428D01*
X196277952Y-114343666D01*
X196325571Y-114391285D01*
X196420809Y-114438904D01*
X196658904Y-114438904D01*
X196754142Y-114391285D01*
X196801761Y-114343666D01*
X196849380Y-114248428D01*
X196849380Y-113962714D01*
X196801761Y-113867476D01*
X196754142Y-113819857D01*
%TO.C,D24*%
X194762380Y-112450714D02*
X193762380Y-112450714D01*
X193762380Y-112688809D01*
X193810000Y-112831666D01*
X193905238Y-112926904D01*
X194000476Y-112974523D01*
X194190952Y-113022142D01*
X194333809Y-113022142D01*
X194524285Y-112974523D01*
X194619523Y-112926904D01*
X194714761Y-112831666D01*
X194762380Y-112688809D01*
X194762380Y-112450714D01*
X193857619Y-113403095D02*
X193810000Y-113450714D01*
X193762380Y-113545952D01*
X193762380Y-113784047D01*
X193810000Y-113879285D01*
X193857619Y-113926904D01*
X193952857Y-113974523D01*
X194048095Y-113974523D01*
X194190952Y-113926904D01*
X194762380Y-113355476D01*
X194762380Y-113974523D01*
X194095714Y-114831666D02*
X194762380Y-114831666D01*
X193714761Y-114593571D02*
X194429047Y-114355476D01*
X194429047Y-114974523D01*
%TO.C,D25*%
X150494380Y-141279714D02*
X149494380Y-141279714D01*
X149494380Y-141517809D01*
X149542000Y-141660666D01*
X149637238Y-141755904D01*
X149732476Y-141803523D01*
X149922952Y-141851142D01*
X150065809Y-141851142D01*
X150256285Y-141803523D01*
X150351523Y-141755904D01*
X150446761Y-141660666D01*
X150494380Y-141517809D01*
X150494380Y-141279714D01*
X149589619Y-142232095D02*
X149542000Y-142279714D01*
X149494380Y-142374952D01*
X149494380Y-142613047D01*
X149542000Y-142708285D01*
X149589619Y-142755904D01*
X149684857Y-142803523D01*
X149780095Y-142803523D01*
X149922952Y-142755904D01*
X150494380Y-142184476D01*
X150494380Y-142803523D01*
X149494380Y-143708285D02*
X149494380Y-143232095D01*
X149970571Y-143184476D01*
X149922952Y-143232095D01*
X149875333Y-143327333D01*
X149875333Y-143565428D01*
X149922952Y-143660666D01*
X149970571Y-143708285D01*
X150065809Y-143755904D01*
X150303904Y-143755904D01*
X150399142Y-143708285D01*
X150446761Y-143660666D01*
X150494380Y-143565428D01*
X150494380Y-143327333D01*
X150446761Y-143232095D01*
X150399142Y-143184476D01*
%TO.C,D26*%
X157098380Y-141279714D02*
X156098380Y-141279714D01*
X156098380Y-141517809D01*
X156146000Y-141660666D01*
X156241238Y-141755904D01*
X156336476Y-141803523D01*
X156526952Y-141851142D01*
X156669809Y-141851142D01*
X156860285Y-141803523D01*
X156955523Y-141755904D01*
X157050761Y-141660666D01*
X157098380Y-141517809D01*
X157098380Y-141279714D01*
X156193619Y-142232095D02*
X156146000Y-142279714D01*
X156098380Y-142374952D01*
X156098380Y-142613047D01*
X156146000Y-142708285D01*
X156193619Y-142755904D01*
X156288857Y-142803523D01*
X156384095Y-142803523D01*
X156526952Y-142755904D01*
X157098380Y-142184476D01*
X157098380Y-142803523D01*
X156098380Y-143660666D02*
X156098380Y-143470190D01*
X156146000Y-143374952D01*
X156193619Y-143327333D01*
X156336476Y-143232095D01*
X156526952Y-143184476D01*
X156907904Y-143184476D01*
X157003142Y-143232095D01*
X157050761Y-143279714D01*
X157098380Y-143374952D01*
X157098380Y-143565428D01*
X157050761Y-143660666D01*
X157003142Y-143708285D01*
X156907904Y-143755904D01*
X156669809Y-143755904D01*
X156574571Y-143708285D01*
X156526952Y-143660666D01*
X156479333Y-143565428D01*
X156479333Y-143374952D01*
X156526952Y-143279714D01*
X156574571Y-143232095D01*
X156669809Y-143184476D01*
%TO.C,D27*%
X163702380Y-141279714D02*
X162702380Y-141279714D01*
X162702380Y-141517809D01*
X162750000Y-141660666D01*
X162845238Y-141755904D01*
X162940476Y-141803523D01*
X163130952Y-141851142D01*
X163273809Y-141851142D01*
X163464285Y-141803523D01*
X163559523Y-141755904D01*
X163654761Y-141660666D01*
X163702380Y-141517809D01*
X163702380Y-141279714D01*
X162797619Y-142232095D02*
X162750000Y-142279714D01*
X162702380Y-142374952D01*
X162702380Y-142613047D01*
X162750000Y-142708285D01*
X162797619Y-142755904D01*
X162892857Y-142803523D01*
X162988095Y-142803523D01*
X163130952Y-142755904D01*
X163702380Y-142184476D01*
X163702380Y-142803523D01*
X162702380Y-143136857D02*
X162702380Y-143803523D01*
X163702380Y-143374952D01*
%TO.C,D28*%
X170306380Y-141279714D02*
X169306380Y-141279714D01*
X169306380Y-141517809D01*
X169354000Y-141660666D01*
X169449238Y-141755904D01*
X169544476Y-141803523D01*
X169734952Y-141851142D01*
X169877809Y-141851142D01*
X170068285Y-141803523D01*
X170163523Y-141755904D01*
X170258761Y-141660666D01*
X170306380Y-141517809D01*
X170306380Y-141279714D01*
X169401619Y-142232095D02*
X169354000Y-142279714D01*
X169306380Y-142374952D01*
X169306380Y-142613047D01*
X169354000Y-142708285D01*
X169401619Y-142755904D01*
X169496857Y-142803523D01*
X169592095Y-142803523D01*
X169734952Y-142755904D01*
X170306380Y-142184476D01*
X170306380Y-142803523D01*
X169734952Y-143374952D02*
X169687333Y-143279714D01*
X169639714Y-143232095D01*
X169544476Y-143184476D01*
X169496857Y-143184476D01*
X169401619Y-143232095D01*
X169354000Y-143279714D01*
X169306380Y-143374952D01*
X169306380Y-143565428D01*
X169354000Y-143660666D01*
X169401619Y-143708285D01*
X169496857Y-143755904D01*
X169544476Y-143755904D01*
X169639714Y-143708285D01*
X169687333Y-143660666D01*
X169734952Y-143565428D01*
X169734952Y-143374952D01*
X169782571Y-143279714D01*
X169830190Y-143232095D01*
X169925428Y-143184476D01*
X170115904Y-143184476D01*
X170211142Y-143232095D01*
X170258761Y-143279714D01*
X170306380Y-143374952D01*
X170306380Y-143565428D01*
X170258761Y-143660666D01*
X170211142Y-143708285D01*
X170115904Y-143755904D01*
X169925428Y-143755904D01*
X169830190Y-143708285D01*
X169782571Y-143660666D01*
X169734952Y-143565428D01*
%TO.C,D29*%
X177164380Y-141279714D02*
X176164380Y-141279714D01*
X176164380Y-141517809D01*
X176212000Y-141660666D01*
X176307238Y-141755904D01*
X176402476Y-141803523D01*
X176592952Y-141851142D01*
X176735809Y-141851142D01*
X176926285Y-141803523D01*
X177021523Y-141755904D01*
X177116761Y-141660666D01*
X177164380Y-141517809D01*
X177164380Y-141279714D01*
X176259619Y-142232095D02*
X176212000Y-142279714D01*
X176164380Y-142374952D01*
X176164380Y-142613047D01*
X176212000Y-142708285D01*
X176259619Y-142755904D01*
X176354857Y-142803523D01*
X176450095Y-142803523D01*
X176592952Y-142755904D01*
X177164380Y-142184476D01*
X177164380Y-142803523D01*
X177164380Y-143279714D02*
X177164380Y-143470190D01*
X177116761Y-143565428D01*
X177069142Y-143613047D01*
X176926285Y-143708285D01*
X176735809Y-143755904D01*
X176354857Y-143755904D01*
X176259619Y-143708285D01*
X176212000Y-143660666D01*
X176164380Y-143565428D01*
X176164380Y-143374952D01*
X176212000Y-143279714D01*
X176259619Y-143232095D01*
X176354857Y-143184476D01*
X176592952Y-143184476D01*
X176688190Y-143232095D01*
X176735809Y-143279714D01*
X176783428Y-143374952D01*
X176783428Y-143565428D01*
X176735809Y-143660666D01*
X176688190Y-143708285D01*
X176592952Y-143755904D01*
%TO.C,D30*%
X183514380Y-141279714D02*
X182514380Y-141279714D01*
X182514380Y-141517809D01*
X182562000Y-141660666D01*
X182657238Y-141755904D01*
X182752476Y-141803523D01*
X182942952Y-141851142D01*
X183085809Y-141851142D01*
X183276285Y-141803523D01*
X183371523Y-141755904D01*
X183466761Y-141660666D01*
X183514380Y-141517809D01*
X183514380Y-141279714D01*
X182514380Y-142184476D02*
X182514380Y-142803523D01*
X182895333Y-142470190D01*
X182895333Y-142613047D01*
X182942952Y-142708285D01*
X182990571Y-142755904D01*
X183085809Y-142803523D01*
X183323904Y-142803523D01*
X183419142Y-142755904D01*
X183466761Y-142708285D01*
X183514380Y-142613047D01*
X183514380Y-142327333D01*
X183466761Y-142232095D01*
X183419142Y-142184476D01*
X182514380Y-143422571D02*
X182514380Y-143517809D01*
X182562000Y-143613047D01*
X182609619Y-143660666D01*
X182704857Y-143708285D01*
X182895333Y-143755904D01*
X183133428Y-143755904D01*
X183323904Y-143708285D01*
X183419142Y-143660666D01*
X183466761Y-143613047D01*
X183514380Y-143517809D01*
X183514380Y-143422571D01*
X183466761Y-143327333D01*
X183419142Y-143279714D01*
X183323904Y-143232095D01*
X183133428Y-143184476D01*
X182895333Y-143184476D01*
X182704857Y-143232095D01*
X182609619Y-143279714D01*
X182562000Y-143327333D01*
X182514380Y-143422571D01*
%TO.C,D31*%
X190372380Y-141279714D02*
X189372380Y-141279714D01*
X189372380Y-141517809D01*
X189420000Y-141660666D01*
X189515238Y-141755904D01*
X189610476Y-141803523D01*
X189800952Y-141851142D01*
X189943809Y-141851142D01*
X190134285Y-141803523D01*
X190229523Y-141755904D01*
X190324761Y-141660666D01*
X190372380Y-141517809D01*
X190372380Y-141279714D01*
X189372380Y-142184476D02*
X189372380Y-142803523D01*
X189753333Y-142470190D01*
X189753333Y-142613047D01*
X189800952Y-142708285D01*
X189848571Y-142755904D01*
X189943809Y-142803523D01*
X190181904Y-142803523D01*
X190277142Y-142755904D01*
X190324761Y-142708285D01*
X190372380Y-142613047D01*
X190372380Y-142327333D01*
X190324761Y-142232095D01*
X190277142Y-142184476D01*
X190372380Y-143755904D02*
X190372380Y-143184476D01*
X190372380Y-143470190D02*
X189372380Y-143470190D01*
X189515238Y-143374952D01*
X189610476Y-143279714D01*
X189658095Y-143184476D01*
%TO.C,D32*%
X196722380Y-141279714D02*
X195722380Y-141279714D01*
X195722380Y-141517809D01*
X195770000Y-141660666D01*
X195865238Y-141755904D01*
X195960476Y-141803523D01*
X196150952Y-141851142D01*
X196293809Y-141851142D01*
X196484285Y-141803523D01*
X196579523Y-141755904D01*
X196674761Y-141660666D01*
X196722380Y-141517809D01*
X196722380Y-141279714D01*
X195722380Y-142184476D02*
X195722380Y-142803523D01*
X196103333Y-142470190D01*
X196103333Y-142613047D01*
X196150952Y-142708285D01*
X196198571Y-142755904D01*
X196293809Y-142803523D01*
X196531904Y-142803523D01*
X196627142Y-142755904D01*
X196674761Y-142708285D01*
X196722380Y-142613047D01*
X196722380Y-142327333D01*
X196674761Y-142232095D01*
X196627142Y-142184476D01*
X195817619Y-143184476D02*
X195770000Y-143232095D01*
X195722380Y-143327333D01*
X195722380Y-143565428D01*
X195770000Y-143660666D01*
X195817619Y-143708285D01*
X195912857Y-143755904D01*
X196008095Y-143755904D01*
X196150952Y-143708285D01*
X196722380Y-143136857D01*
X196722380Y-143755904D01*
%TO.C,D33*%
X203580380Y-141279714D02*
X202580380Y-141279714D01*
X202580380Y-141517809D01*
X202628000Y-141660666D01*
X202723238Y-141755904D01*
X202818476Y-141803523D01*
X203008952Y-141851142D01*
X203151809Y-141851142D01*
X203342285Y-141803523D01*
X203437523Y-141755904D01*
X203532761Y-141660666D01*
X203580380Y-141517809D01*
X203580380Y-141279714D01*
X202580380Y-142184476D02*
X202580380Y-142803523D01*
X202961333Y-142470190D01*
X202961333Y-142613047D01*
X203008952Y-142708285D01*
X203056571Y-142755904D01*
X203151809Y-142803523D01*
X203389904Y-142803523D01*
X203485142Y-142755904D01*
X203532761Y-142708285D01*
X203580380Y-142613047D01*
X203580380Y-142327333D01*
X203532761Y-142232095D01*
X203485142Y-142184476D01*
X202580380Y-143136857D02*
X202580380Y-143755904D01*
X202961333Y-143422571D01*
X202961333Y-143565428D01*
X203008952Y-143660666D01*
X203056571Y-143708285D01*
X203151809Y-143755904D01*
X203389904Y-143755904D01*
X203485142Y-143708285D01*
X203532761Y-143660666D01*
X203580380Y-143565428D01*
X203580380Y-143279714D01*
X203532761Y-143184476D01*
X203485142Y-143136857D01*
%TO.C,D34*%
X210184380Y-141279714D02*
X209184380Y-141279714D01*
X209184380Y-141517809D01*
X209232000Y-141660666D01*
X209327238Y-141755904D01*
X209422476Y-141803523D01*
X209612952Y-141851142D01*
X209755809Y-141851142D01*
X209946285Y-141803523D01*
X210041523Y-141755904D01*
X210136761Y-141660666D01*
X210184380Y-141517809D01*
X210184380Y-141279714D01*
X209184380Y-142184476D02*
X209184380Y-142803523D01*
X209565333Y-142470190D01*
X209565333Y-142613047D01*
X209612952Y-142708285D01*
X209660571Y-142755904D01*
X209755809Y-142803523D01*
X209993904Y-142803523D01*
X210089142Y-142755904D01*
X210136761Y-142708285D01*
X210184380Y-142613047D01*
X210184380Y-142327333D01*
X210136761Y-142232095D01*
X210089142Y-142184476D01*
X209517714Y-143660666D02*
X210184380Y-143660666D01*
X209136761Y-143422571D02*
X209851047Y-143184476D01*
X209851047Y-143803523D01*
%TO.C,D35*%
X183768380Y-118927714D02*
X182768380Y-118927714D01*
X182768380Y-119165809D01*
X182816000Y-119308666D01*
X182911238Y-119403904D01*
X183006476Y-119451523D01*
X183196952Y-119499142D01*
X183339809Y-119499142D01*
X183530285Y-119451523D01*
X183625523Y-119403904D01*
X183720761Y-119308666D01*
X183768380Y-119165809D01*
X183768380Y-118927714D01*
X182768380Y-119832476D02*
X182768380Y-120451523D01*
X183149333Y-120118190D01*
X183149333Y-120261047D01*
X183196952Y-120356285D01*
X183244571Y-120403904D01*
X183339809Y-120451523D01*
X183577904Y-120451523D01*
X183673142Y-120403904D01*
X183720761Y-120356285D01*
X183768380Y-120261047D01*
X183768380Y-119975333D01*
X183720761Y-119880095D01*
X183673142Y-119832476D01*
X182768380Y-121356285D02*
X182768380Y-120880095D01*
X183244571Y-120832476D01*
X183196952Y-120880095D01*
X183149333Y-120975333D01*
X183149333Y-121213428D01*
X183196952Y-121308666D01*
X183244571Y-121356285D01*
X183339809Y-121403904D01*
X183577904Y-121403904D01*
X183673142Y-121356285D01*
X183720761Y-121308666D01*
X183768380Y-121213428D01*
X183768380Y-120975333D01*
X183720761Y-120880095D01*
X183673142Y-120832476D01*
%TO.C,D36*%
X190372380Y-118927714D02*
X189372380Y-118927714D01*
X189372380Y-119165809D01*
X189420000Y-119308666D01*
X189515238Y-119403904D01*
X189610476Y-119451523D01*
X189800952Y-119499142D01*
X189943809Y-119499142D01*
X190134285Y-119451523D01*
X190229523Y-119403904D01*
X190324761Y-119308666D01*
X190372380Y-119165809D01*
X190372380Y-118927714D01*
X189372380Y-119832476D02*
X189372380Y-120451523D01*
X189753333Y-120118190D01*
X189753333Y-120261047D01*
X189800952Y-120356285D01*
X189848571Y-120403904D01*
X189943809Y-120451523D01*
X190181904Y-120451523D01*
X190277142Y-120403904D01*
X190324761Y-120356285D01*
X190372380Y-120261047D01*
X190372380Y-119975333D01*
X190324761Y-119880095D01*
X190277142Y-119832476D01*
X189372380Y-121308666D02*
X189372380Y-121118190D01*
X189420000Y-121022952D01*
X189467619Y-120975333D01*
X189610476Y-120880095D01*
X189800952Y-120832476D01*
X190181904Y-120832476D01*
X190277142Y-120880095D01*
X190324761Y-120927714D01*
X190372380Y-121022952D01*
X190372380Y-121213428D01*
X190324761Y-121308666D01*
X190277142Y-121356285D01*
X190181904Y-121403904D01*
X189943809Y-121403904D01*
X189848571Y-121356285D01*
X189800952Y-121308666D01*
X189753333Y-121213428D01*
X189753333Y-121022952D01*
X189800952Y-120927714D01*
X189848571Y-120880095D01*
X189943809Y-120832476D01*
%TO.C,D37*%
X150494380Y-148899714D02*
X149494380Y-148899714D01*
X149494380Y-149137809D01*
X149542000Y-149280666D01*
X149637238Y-149375904D01*
X149732476Y-149423523D01*
X149922952Y-149471142D01*
X150065809Y-149471142D01*
X150256285Y-149423523D01*
X150351523Y-149375904D01*
X150446761Y-149280666D01*
X150494380Y-149137809D01*
X150494380Y-148899714D01*
X149494380Y-149804476D02*
X149494380Y-150423523D01*
X149875333Y-150090190D01*
X149875333Y-150233047D01*
X149922952Y-150328285D01*
X149970571Y-150375904D01*
X150065809Y-150423523D01*
X150303904Y-150423523D01*
X150399142Y-150375904D01*
X150446761Y-150328285D01*
X150494380Y-150233047D01*
X150494380Y-149947333D01*
X150446761Y-149852095D01*
X150399142Y-149804476D01*
X149494380Y-150756857D02*
X149494380Y-151423523D01*
X150494380Y-150994952D01*
%TO.C,D38*%
X157352380Y-148899714D02*
X156352380Y-148899714D01*
X156352380Y-149137809D01*
X156400000Y-149280666D01*
X156495238Y-149375904D01*
X156590476Y-149423523D01*
X156780952Y-149471142D01*
X156923809Y-149471142D01*
X157114285Y-149423523D01*
X157209523Y-149375904D01*
X157304761Y-149280666D01*
X157352380Y-149137809D01*
X157352380Y-148899714D01*
X156352380Y-149804476D02*
X156352380Y-150423523D01*
X156733333Y-150090190D01*
X156733333Y-150233047D01*
X156780952Y-150328285D01*
X156828571Y-150375904D01*
X156923809Y-150423523D01*
X157161904Y-150423523D01*
X157257142Y-150375904D01*
X157304761Y-150328285D01*
X157352380Y-150233047D01*
X157352380Y-149947333D01*
X157304761Y-149852095D01*
X157257142Y-149804476D01*
X156780952Y-150994952D02*
X156733333Y-150899714D01*
X156685714Y-150852095D01*
X156590476Y-150804476D01*
X156542857Y-150804476D01*
X156447619Y-150852095D01*
X156400000Y-150899714D01*
X156352380Y-150994952D01*
X156352380Y-151185428D01*
X156400000Y-151280666D01*
X156447619Y-151328285D01*
X156542857Y-151375904D01*
X156590476Y-151375904D01*
X156685714Y-151328285D01*
X156733333Y-151280666D01*
X156780952Y-151185428D01*
X156780952Y-150994952D01*
X156828571Y-150899714D01*
X156876190Y-150852095D01*
X156971428Y-150804476D01*
X157161904Y-150804476D01*
X157257142Y-150852095D01*
X157304761Y-150899714D01*
X157352380Y-150994952D01*
X157352380Y-151185428D01*
X157304761Y-151280666D01*
X157257142Y-151328285D01*
X157161904Y-151375904D01*
X156971428Y-151375904D01*
X156876190Y-151328285D01*
X156828571Y-151280666D01*
X156780952Y-151185428D01*
%TO.C,D39*%
X163702380Y-148899714D02*
X162702380Y-148899714D01*
X162702380Y-149137809D01*
X162750000Y-149280666D01*
X162845238Y-149375904D01*
X162940476Y-149423523D01*
X163130952Y-149471142D01*
X163273809Y-149471142D01*
X163464285Y-149423523D01*
X163559523Y-149375904D01*
X163654761Y-149280666D01*
X163702380Y-149137809D01*
X163702380Y-148899714D01*
X162702380Y-149804476D02*
X162702380Y-150423523D01*
X163083333Y-150090190D01*
X163083333Y-150233047D01*
X163130952Y-150328285D01*
X163178571Y-150375904D01*
X163273809Y-150423523D01*
X163511904Y-150423523D01*
X163607142Y-150375904D01*
X163654761Y-150328285D01*
X163702380Y-150233047D01*
X163702380Y-149947333D01*
X163654761Y-149852095D01*
X163607142Y-149804476D01*
X163702380Y-150899714D02*
X163702380Y-151090190D01*
X163654761Y-151185428D01*
X163607142Y-151233047D01*
X163464285Y-151328285D01*
X163273809Y-151375904D01*
X162892857Y-151375904D01*
X162797619Y-151328285D01*
X162750000Y-151280666D01*
X162702380Y-151185428D01*
X162702380Y-150994952D01*
X162750000Y-150899714D01*
X162797619Y-150852095D01*
X162892857Y-150804476D01*
X163130952Y-150804476D01*
X163226190Y-150852095D01*
X163273809Y-150899714D01*
X163321428Y-150994952D01*
X163321428Y-151185428D01*
X163273809Y-151280666D01*
X163226190Y-151328285D01*
X163130952Y-151375904D01*
%TO.C,D40*%
X170560380Y-148899714D02*
X169560380Y-148899714D01*
X169560380Y-149137809D01*
X169608000Y-149280666D01*
X169703238Y-149375904D01*
X169798476Y-149423523D01*
X169988952Y-149471142D01*
X170131809Y-149471142D01*
X170322285Y-149423523D01*
X170417523Y-149375904D01*
X170512761Y-149280666D01*
X170560380Y-149137809D01*
X170560380Y-148899714D01*
X169893714Y-150328285D02*
X170560380Y-150328285D01*
X169512761Y-150090190D02*
X170227047Y-149852095D01*
X170227047Y-150471142D01*
X169560380Y-151042571D02*
X169560380Y-151137809D01*
X169608000Y-151233047D01*
X169655619Y-151280666D01*
X169750857Y-151328285D01*
X169941333Y-151375904D01*
X170179428Y-151375904D01*
X170369904Y-151328285D01*
X170465142Y-151280666D01*
X170512761Y-151233047D01*
X170560380Y-151137809D01*
X170560380Y-151042571D01*
X170512761Y-150947333D01*
X170465142Y-150899714D01*
X170369904Y-150852095D01*
X170179428Y-150804476D01*
X169941333Y-150804476D01*
X169750857Y-150852095D01*
X169655619Y-150899714D01*
X169608000Y-150947333D01*
X169560380Y-151042571D01*
%TO.C,D41*%
X176910380Y-148899714D02*
X175910380Y-148899714D01*
X175910380Y-149137809D01*
X175958000Y-149280666D01*
X176053238Y-149375904D01*
X176148476Y-149423523D01*
X176338952Y-149471142D01*
X176481809Y-149471142D01*
X176672285Y-149423523D01*
X176767523Y-149375904D01*
X176862761Y-149280666D01*
X176910380Y-149137809D01*
X176910380Y-148899714D01*
X176243714Y-150328285D02*
X176910380Y-150328285D01*
X175862761Y-150090190D02*
X176577047Y-149852095D01*
X176577047Y-150471142D01*
X176910380Y-151375904D02*
X176910380Y-150804476D01*
X176910380Y-151090190D02*
X175910380Y-151090190D01*
X176053238Y-150994952D01*
X176148476Y-150899714D01*
X176196095Y-150804476D01*
%TO.C,D42*%
X183768380Y-148899714D02*
X182768380Y-148899714D01*
X182768380Y-149137809D01*
X182816000Y-149280666D01*
X182911238Y-149375904D01*
X183006476Y-149423523D01*
X183196952Y-149471142D01*
X183339809Y-149471142D01*
X183530285Y-149423523D01*
X183625523Y-149375904D01*
X183720761Y-149280666D01*
X183768380Y-149137809D01*
X183768380Y-148899714D01*
X183101714Y-150328285D02*
X183768380Y-150328285D01*
X182720761Y-150090190D02*
X183435047Y-149852095D01*
X183435047Y-150471142D01*
X182863619Y-150804476D02*
X182816000Y-150852095D01*
X182768380Y-150947333D01*
X182768380Y-151185428D01*
X182816000Y-151280666D01*
X182863619Y-151328285D01*
X182958857Y-151375904D01*
X183054095Y-151375904D01*
X183196952Y-151328285D01*
X183768380Y-150756857D01*
X183768380Y-151375904D01*
%TO.C,D43*%
X190372380Y-148899714D02*
X189372380Y-148899714D01*
X189372380Y-149137809D01*
X189420000Y-149280666D01*
X189515238Y-149375904D01*
X189610476Y-149423523D01*
X189800952Y-149471142D01*
X189943809Y-149471142D01*
X190134285Y-149423523D01*
X190229523Y-149375904D01*
X190324761Y-149280666D01*
X190372380Y-149137809D01*
X190372380Y-148899714D01*
X189705714Y-150328285D02*
X190372380Y-150328285D01*
X189324761Y-150090190D02*
X190039047Y-149852095D01*
X190039047Y-150471142D01*
X189372380Y-150756857D02*
X189372380Y-151375904D01*
X189753333Y-151042571D01*
X189753333Y-151185428D01*
X189800952Y-151280666D01*
X189848571Y-151328285D01*
X189943809Y-151375904D01*
X190181904Y-151375904D01*
X190277142Y-151328285D01*
X190324761Y-151280666D01*
X190372380Y-151185428D01*
X190372380Y-150899714D01*
X190324761Y-150804476D01*
X190277142Y-150756857D01*
%TO.C,D44*%
X196976380Y-148899714D02*
X195976380Y-148899714D01*
X195976380Y-149137809D01*
X196024000Y-149280666D01*
X196119238Y-149375904D01*
X196214476Y-149423523D01*
X196404952Y-149471142D01*
X196547809Y-149471142D01*
X196738285Y-149423523D01*
X196833523Y-149375904D01*
X196928761Y-149280666D01*
X196976380Y-149137809D01*
X196976380Y-148899714D01*
X196309714Y-150328285D02*
X196976380Y-150328285D01*
X195928761Y-150090190D02*
X196643047Y-149852095D01*
X196643047Y-150471142D01*
X196309714Y-151280666D02*
X196976380Y-151280666D01*
X195928761Y-151042571D02*
X196643047Y-150804476D01*
X196643047Y-151423523D01*
%TO.C,D45*%
X203580380Y-148899714D02*
X202580380Y-148899714D01*
X202580380Y-149137809D01*
X202628000Y-149280666D01*
X202723238Y-149375904D01*
X202818476Y-149423523D01*
X203008952Y-149471142D01*
X203151809Y-149471142D01*
X203342285Y-149423523D01*
X203437523Y-149375904D01*
X203532761Y-149280666D01*
X203580380Y-149137809D01*
X203580380Y-148899714D01*
X202913714Y-150328285D02*
X203580380Y-150328285D01*
X202532761Y-150090190D02*
X203247047Y-149852095D01*
X203247047Y-150471142D01*
X202580380Y-151328285D02*
X202580380Y-150852095D01*
X203056571Y-150804476D01*
X203008952Y-150852095D01*
X202961333Y-150947333D01*
X202961333Y-151185428D01*
X203008952Y-151280666D01*
X203056571Y-151328285D01*
X203151809Y-151375904D01*
X203389904Y-151375904D01*
X203485142Y-151328285D01*
X203532761Y-151280666D01*
X203580380Y-151185428D01*
X203580380Y-150947333D01*
X203532761Y-150852095D01*
X203485142Y-150804476D01*
%TO.C,D46*%
X210438380Y-148899714D02*
X209438380Y-148899714D01*
X209438380Y-149137809D01*
X209486000Y-149280666D01*
X209581238Y-149375904D01*
X209676476Y-149423523D01*
X209866952Y-149471142D01*
X210009809Y-149471142D01*
X210200285Y-149423523D01*
X210295523Y-149375904D01*
X210390761Y-149280666D01*
X210438380Y-149137809D01*
X210438380Y-148899714D01*
X209771714Y-150328285D02*
X210438380Y-150328285D01*
X209390761Y-150090190D02*
X210105047Y-149852095D01*
X210105047Y-150471142D01*
X209438380Y-151280666D02*
X209438380Y-151090190D01*
X209486000Y-150994952D01*
X209533619Y-150947333D01*
X209676476Y-150852095D01*
X209866952Y-150804476D01*
X210247904Y-150804476D01*
X210343142Y-150852095D01*
X210390761Y-150899714D01*
X210438380Y-150994952D01*
X210438380Y-151185428D01*
X210390761Y-151280666D01*
X210343142Y-151328285D01*
X210247904Y-151375904D01*
X210009809Y-151375904D01*
X209914571Y-151328285D01*
X209866952Y-151280666D01*
X209819333Y-151185428D01*
X209819333Y-150994952D01*
X209866952Y-150899714D01*
X209914571Y-150852095D01*
X210009809Y-150804476D01*
%TO.C,D47*%
X196976380Y-118927714D02*
X195976380Y-118927714D01*
X195976380Y-119165809D01*
X196024000Y-119308666D01*
X196119238Y-119403904D01*
X196214476Y-119451523D01*
X196404952Y-119499142D01*
X196547809Y-119499142D01*
X196738285Y-119451523D01*
X196833523Y-119403904D01*
X196928761Y-119308666D01*
X196976380Y-119165809D01*
X196976380Y-118927714D01*
X196309714Y-120356285D02*
X196976380Y-120356285D01*
X195928761Y-120118190D02*
X196643047Y-119880095D01*
X196643047Y-120499142D01*
X195976380Y-120784857D02*
X195976380Y-121451523D01*
X196976380Y-121022952D01*
%TO.C,D48*%
X203580380Y-118927714D02*
X202580380Y-118927714D01*
X202580380Y-119165809D01*
X202628000Y-119308666D01*
X202723238Y-119403904D01*
X202818476Y-119451523D01*
X203008952Y-119499142D01*
X203151809Y-119499142D01*
X203342285Y-119451523D01*
X203437523Y-119403904D01*
X203532761Y-119308666D01*
X203580380Y-119165809D01*
X203580380Y-118927714D01*
X202913714Y-120356285D02*
X203580380Y-120356285D01*
X202532761Y-120118190D02*
X203247047Y-119880095D01*
X203247047Y-120499142D01*
X203008952Y-121022952D02*
X202961333Y-120927714D01*
X202913714Y-120880095D01*
X202818476Y-120832476D01*
X202770857Y-120832476D01*
X202675619Y-120880095D01*
X202628000Y-120927714D01*
X202580380Y-121022952D01*
X202580380Y-121213428D01*
X202628000Y-121308666D01*
X202675619Y-121356285D01*
X202770857Y-121403904D01*
X202818476Y-121403904D01*
X202913714Y-121356285D01*
X202961333Y-121308666D01*
X203008952Y-121213428D01*
X203008952Y-121022952D01*
X203056571Y-120927714D01*
X203104190Y-120880095D01*
X203199428Y-120832476D01*
X203389904Y-120832476D01*
X203485142Y-120880095D01*
X203532761Y-120927714D01*
X203580380Y-121022952D01*
X203580380Y-121213428D01*
X203532761Y-121308666D01*
X203485142Y-121356285D01*
X203389904Y-121403904D01*
X203199428Y-121403904D01*
X203104190Y-121356285D01*
X203056571Y-121308666D01*
X203008952Y-121213428D01*
%TO.C,D49*%
X150494380Y-156519714D02*
X149494380Y-156519714D01*
X149494380Y-156757809D01*
X149542000Y-156900666D01*
X149637238Y-156995904D01*
X149732476Y-157043523D01*
X149922952Y-157091142D01*
X150065809Y-157091142D01*
X150256285Y-157043523D01*
X150351523Y-156995904D01*
X150446761Y-156900666D01*
X150494380Y-156757809D01*
X150494380Y-156519714D01*
X149827714Y-157948285D02*
X150494380Y-157948285D01*
X149446761Y-157710190D02*
X150161047Y-157472095D01*
X150161047Y-158091142D01*
X150494380Y-158519714D02*
X150494380Y-158710190D01*
X150446761Y-158805428D01*
X150399142Y-158853047D01*
X150256285Y-158948285D01*
X150065809Y-158995904D01*
X149684857Y-158995904D01*
X149589619Y-158948285D01*
X149542000Y-158900666D01*
X149494380Y-158805428D01*
X149494380Y-158614952D01*
X149542000Y-158519714D01*
X149589619Y-158472095D01*
X149684857Y-158424476D01*
X149922952Y-158424476D01*
X150018190Y-158472095D01*
X150065809Y-158519714D01*
X150113428Y-158614952D01*
X150113428Y-158805428D01*
X150065809Y-158900666D01*
X150018190Y-158948285D01*
X149922952Y-158995904D01*
%TO.C,D50*%
X157352380Y-156519714D02*
X156352380Y-156519714D01*
X156352380Y-156757809D01*
X156400000Y-156900666D01*
X156495238Y-156995904D01*
X156590476Y-157043523D01*
X156780952Y-157091142D01*
X156923809Y-157091142D01*
X157114285Y-157043523D01*
X157209523Y-156995904D01*
X157304761Y-156900666D01*
X157352380Y-156757809D01*
X157352380Y-156519714D01*
X156352380Y-157995904D02*
X156352380Y-157519714D01*
X156828571Y-157472095D01*
X156780952Y-157519714D01*
X156733333Y-157614952D01*
X156733333Y-157853047D01*
X156780952Y-157948285D01*
X156828571Y-157995904D01*
X156923809Y-158043523D01*
X157161904Y-158043523D01*
X157257142Y-157995904D01*
X157304761Y-157948285D01*
X157352380Y-157853047D01*
X157352380Y-157614952D01*
X157304761Y-157519714D01*
X157257142Y-157472095D01*
X156352380Y-158662571D02*
X156352380Y-158757809D01*
X156400000Y-158853047D01*
X156447619Y-158900666D01*
X156542857Y-158948285D01*
X156733333Y-158995904D01*
X156971428Y-158995904D01*
X157161904Y-158948285D01*
X157257142Y-158900666D01*
X157304761Y-158853047D01*
X157352380Y-158757809D01*
X157352380Y-158662571D01*
X157304761Y-158567333D01*
X157257142Y-158519714D01*
X157161904Y-158472095D01*
X156971428Y-158424476D01*
X156733333Y-158424476D01*
X156542857Y-158472095D01*
X156447619Y-158519714D01*
X156400000Y-158567333D01*
X156352380Y-158662571D01*
%TO.C,D51*%
X163702380Y-156519714D02*
X162702380Y-156519714D01*
X162702380Y-156757809D01*
X162750000Y-156900666D01*
X162845238Y-156995904D01*
X162940476Y-157043523D01*
X163130952Y-157091142D01*
X163273809Y-157091142D01*
X163464285Y-157043523D01*
X163559523Y-156995904D01*
X163654761Y-156900666D01*
X163702380Y-156757809D01*
X163702380Y-156519714D01*
X162702380Y-157995904D02*
X162702380Y-157519714D01*
X163178571Y-157472095D01*
X163130952Y-157519714D01*
X163083333Y-157614952D01*
X163083333Y-157853047D01*
X163130952Y-157948285D01*
X163178571Y-157995904D01*
X163273809Y-158043523D01*
X163511904Y-158043523D01*
X163607142Y-157995904D01*
X163654761Y-157948285D01*
X163702380Y-157853047D01*
X163702380Y-157614952D01*
X163654761Y-157519714D01*
X163607142Y-157472095D01*
X163702380Y-158995904D02*
X163702380Y-158424476D01*
X163702380Y-158710190D02*
X162702380Y-158710190D01*
X162845238Y-158614952D01*
X162940476Y-158519714D01*
X162988095Y-158424476D01*
%TO.C,D52*%
X177164380Y-156519714D02*
X176164380Y-156519714D01*
X176164380Y-156757809D01*
X176212000Y-156900666D01*
X176307238Y-156995904D01*
X176402476Y-157043523D01*
X176592952Y-157091142D01*
X176735809Y-157091142D01*
X176926285Y-157043523D01*
X177021523Y-156995904D01*
X177116761Y-156900666D01*
X177164380Y-156757809D01*
X177164380Y-156519714D01*
X176164380Y-157995904D02*
X176164380Y-157519714D01*
X176640571Y-157472095D01*
X176592952Y-157519714D01*
X176545333Y-157614952D01*
X176545333Y-157853047D01*
X176592952Y-157948285D01*
X176640571Y-157995904D01*
X176735809Y-158043523D01*
X176973904Y-158043523D01*
X177069142Y-157995904D01*
X177116761Y-157948285D01*
X177164380Y-157853047D01*
X177164380Y-157614952D01*
X177116761Y-157519714D01*
X177069142Y-157472095D01*
X176259619Y-158424476D02*
X176212000Y-158472095D01*
X176164380Y-158567333D01*
X176164380Y-158805428D01*
X176212000Y-158900666D01*
X176259619Y-158948285D01*
X176354857Y-158995904D01*
X176450095Y-158995904D01*
X176592952Y-158948285D01*
X177164380Y-158376857D01*
X177164380Y-158995904D01*
%TO.C,D55*%
X203580380Y-156519714D02*
X202580380Y-156519714D01*
X202580380Y-156757809D01*
X202628000Y-156900666D01*
X202723238Y-156995904D01*
X202818476Y-157043523D01*
X203008952Y-157091142D01*
X203151809Y-157091142D01*
X203342285Y-157043523D01*
X203437523Y-156995904D01*
X203532761Y-156900666D01*
X203580380Y-156757809D01*
X203580380Y-156519714D01*
X202580380Y-157995904D02*
X202580380Y-157519714D01*
X203056571Y-157472095D01*
X203008952Y-157519714D01*
X202961333Y-157614952D01*
X202961333Y-157853047D01*
X203008952Y-157948285D01*
X203056571Y-157995904D01*
X203151809Y-158043523D01*
X203389904Y-158043523D01*
X203485142Y-157995904D01*
X203532761Y-157948285D01*
X203580380Y-157853047D01*
X203580380Y-157614952D01*
X203532761Y-157519714D01*
X203485142Y-157472095D01*
X202580380Y-158948285D02*
X202580380Y-158472095D01*
X203056571Y-158424476D01*
X203008952Y-158472095D01*
X202961333Y-158567333D01*
X202961333Y-158805428D01*
X203008952Y-158900666D01*
X203056571Y-158948285D01*
X203151809Y-158995904D01*
X203389904Y-158995904D01*
X203485142Y-158948285D01*
X203532761Y-158900666D01*
X203580380Y-158805428D01*
X203580380Y-158567333D01*
X203532761Y-158472095D01*
X203485142Y-158424476D01*
%TO.C,D56*%
X210184380Y-156519714D02*
X209184380Y-156519714D01*
X209184380Y-156757809D01*
X209232000Y-156900666D01*
X209327238Y-156995904D01*
X209422476Y-157043523D01*
X209612952Y-157091142D01*
X209755809Y-157091142D01*
X209946285Y-157043523D01*
X210041523Y-156995904D01*
X210136761Y-156900666D01*
X210184380Y-156757809D01*
X210184380Y-156519714D01*
X209184380Y-157995904D02*
X209184380Y-157519714D01*
X209660571Y-157472095D01*
X209612952Y-157519714D01*
X209565333Y-157614952D01*
X209565333Y-157853047D01*
X209612952Y-157948285D01*
X209660571Y-157995904D01*
X209755809Y-158043523D01*
X209993904Y-158043523D01*
X210089142Y-157995904D01*
X210136761Y-157948285D01*
X210184380Y-157853047D01*
X210184380Y-157614952D01*
X210136761Y-157519714D01*
X210089142Y-157472095D01*
X209184380Y-158900666D02*
X209184380Y-158710190D01*
X209232000Y-158614952D01*
X209279619Y-158567333D01*
X209422476Y-158472095D01*
X209612952Y-158424476D01*
X209993904Y-158424476D01*
X210089142Y-158472095D01*
X210136761Y-158519714D01*
X210184380Y-158614952D01*
X210184380Y-158805428D01*
X210136761Y-158900666D01*
X210089142Y-158948285D01*
X209993904Y-158995904D01*
X209755809Y-158995904D01*
X209660571Y-158948285D01*
X209612952Y-158900666D01*
X209565333Y-158805428D01*
X209565333Y-158614952D01*
X209612952Y-158519714D01*
X209660571Y-158472095D01*
X209755809Y-158424476D01*
%TO.C,D57*%
X210184380Y-118927714D02*
X209184380Y-118927714D01*
X209184380Y-119165809D01*
X209232000Y-119308666D01*
X209327238Y-119403904D01*
X209422476Y-119451523D01*
X209612952Y-119499142D01*
X209755809Y-119499142D01*
X209946285Y-119451523D01*
X210041523Y-119403904D01*
X210136761Y-119308666D01*
X210184380Y-119165809D01*
X210184380Y-118927714D01*
X209184380Y-120403904D02*
X209184380Y-119927714D01*
X209660571Y-119880095D01*
X209612952Y-119927714D01*
X209565333Y-120022952D01*
X209565333Y-120261047D01*
X209612952Y-120356285D01*
X209660571Y-120403904D01*
X209755809Y-120451523D01*
X209993904Y-120451523D01*
X210089142Y-120403904D01*
X210136761Y-120356285D01*
X210184380Y-120261047D01*
X210184380Y-120022952D01*
X210136761Y-119927714D01*
X210089142Y-119880095D01*
X209184380Y-120784857D02*
X209184380Y-121451523D01*
X210184380Y-121022952D01*
%TO.C,D58*%
X150748380Y-118927714D02*
X149748380Y-118927714D01*
X149748380Y-119165809D01*
X149796000Y-119308666D01*
X149891238Y-119403904D01*
X149986476Y-119451523D01*
X150176952Y-119499142D01*
X150319809Y-119499142D01*
X150510285Y-119451523D01*
X150605523Y-119403904D01*
X150700761Y-119308666D01*
X150748380Y-119165809D01*
X150748380Y-118927714D01*
X149748380Y-120403904D02*
X149748380Y-119927714D01*
X150224571Y-119880095D01*
X150176952Y-119927714D01*
X150129333Y-120022952D01*
X150129333Y-120261047D01*
X150176952Y-120356285D01*
X150224571Y-120403904D01*
X150319809Y-120451523D01*
X150557904Y-120451523D01*
X150653142Y-120403904D01*
X150700761Y-120356285D01*
X150748380Y-120261047D01*
X150748380Y-120022952D01*
X150700761Y-119927714D01*
X150653142Y-119880095D01*
X150176952Y-121022952D02*
X150129333Y-120927714D01*
X150081714Y-120880095D01*
X149986476Y-120832476D01*
X149938857Y-120832476D01*
X149843619Y-120880095D01*
X149796000Y-120927714D01*
X149748380Y-121022952D01*
X149748380Y-121213428D01*
X149796000Y-121308666D01*
X149843619Y-121356285D01*
X149938857Y-121403904D01*
X149986476Y-121403904D01*
X150081714Y-121356285D01*
X150129333Y-121308666D01*
X150176952Y-121213428D01*
X150176952Y-121022952D01*
X150224571Y-120927714D01*
X150272190Y-120880095D01*
X150367428Y-120832476D01*
X150557904Y-120832476D01*
X150653142Y-120880095D01*
X150700761Y-120927714D01*
X150748380Y-121022952D01*
X150748380Y-121213428D01*
X150700761Y-121308666D01*
X150653142Y-121356285D01*
X150557904Y-121403904D01*
X150367428Y-121403904D01*
X150272190Y-121356285D01*
X150224571Y-121308666D01*
X150176952Y-121213428D01*
%TO.C,D59*%
X157352380Y-118927714D02*
X156352380Y-118927714D01*
X156352380Y-119165809D01*
X156400000Y-119308666D01*
X156495238Y-119403904D01*
X156590476Y-119451523D01*
X156780952Y-119499142D01*
X156923809Y-119499142D01*
X157114285Y-119451523D01*
X157209523Y-119403904D01*
X157304761Y-119308666D01*
X157352380Y-119165809D01*
X157352380Y-118927714D01*
X156352380Y-120403904D02*
X156352380Y-119927714D01*
X156828571Y-119880095D01*
X156780952Y-119927714D01*
X156733333Y-120022952D01*
X156733333Y-120261047D01*
X156780952Y-120356285D01*
X156828571Y-120403904D01*
X156923809Y-120451523D01*
X157161904Y-120451523D01*
X157257142Y-120403904D01*
X157304761Y-120356285D01*
X157352380Y-120261047D01*
X157352380Y-120022952D01*
X157304761Y-119927714D01*
X157257142Y-119880095D01*
X157352380Y-120927714D02*
X157352380Y-121118190D01*
X157304761Y-121213428D01*
X157257142Y-121261047D01*
X157114285Y-121356285D01*
X156923809Y-121403904D01*
X156542857Y-121403904D01*
X156447619Y-121356285D01*
X156400000Y-121308666D01*
X156352380Y-121213428D01*
X156352380Y-121022952D01*
X156400000Y-120927714D01*
X156447619Y-120880095D01*
X156542857Y-120832476D01*
X156780952Y-120832476D01*
X156876190Y-120880095D01*
X156923809Y-120927714D01*
X156971428Y-121022952D01*
X156971428Y-121213428D01*
X156923809Y-121308666D01*
X156876190Y-121356285D01*
X156780952Y-121403904D01*
%TO.C,D60*%
X163956380Y-118927714D02*
X162956380Y-118927714D01*
X162956380Y-119165809D01*
X163004000Y-119308666D01*
X163099238Y-119403904D01*
X163194476Y-119451523D01*
X163384952Y-119499142D01*
X163527809Y-119499142D01*
X163718285Y-119451523D01*
X163813523Y-119403904D01*
X163908761Y-119308666D01*
X163956380Y-119165809D01*
X163956380Y-118927714D01*
X162956380Y-120356285D02*
X162956380Y-120165809D01*
X163004000Y-120070571D01*
X163051619Y-120022952D01*
X163194476Y-119927714D01*
X163384952Y-119880095D01*
X163765904Y-119880095D01*
X163861142Y-119927714D01*
X163908761Y-119975333D01*
X163956380Y-120070571D01*
X163956380Y-120261047D01*
X163908761Y-120356285D01*
X163861142Y-120403904D01*
X163765904Y-120451523D01*
X163527809Y-120451523D01*
X163432571Y-120403904D01*
X163384952Y-120356285D01*
X163337333Y-120261047D01*
X163337333Y-120070571D01*
X163384952Y-119975333D01*
X163432571Y-119927714D01*
X163527809Y-119880095D01*
X162956380Y-121070571D02*
X162956380Y-121165809D01*
X163004000Y-121261047D01*
X163051619Y-121308666D01*
X163146857Y-121356285D01*
X163337333Y-121403904D01*
X163575428Y-121403904D01*
X163765904Y-121356285D01*
X163861142Y-121308666D01*
X163908761Y-121261047D01*
X163956380Y-121165809D01*
X163956380Y-121070571D01*
X163908761Y-120975333D01*
X163861142Y-120927714D01*
X163765904Y-120880095D01*
X163575428Y-120832476D01*
X163337333Y-120832476D01*
X163146857Y-120880095D01*
X163051619Y-120927714D01*
X163004000Y-120975333D01*
X162956380Y-121070571D01*
%TO.C,D61*%
X170560380Y-118927714D02*
X169560380Y-118927714D01*
X169560380Y-119165809D01*
X169608000Y-119308666D01*
X169703238Y-119403904D01*
X169798476Y-119451523D01*
X169988952Y-119499142D01*
X170131809Y-119499142D01*
X170322285Y-119451523D01*
X170417523Y-119403904D01*
X170512761Y-119308666D01*
X170560380Y-119165809D01*
X170560380Y-118927714D01*
X169560380Y-120356285D02*
X169560380Y-120165809D01*
X169608000Y-120070571D01*
X169655619Y-120022952D01*
X169798476Y-119927714D01*
X169988952Y-119880095D01*
X170369904Y-119880095D01*
X170465142Y-119927714D01*
X170512761Y-119975333D01*
X170560380Y-120070571D01*
X170560380Y-120261047D01*
X170512761Y-120356285D01*
X170465142Y-120403904D01*
X170369904Y-120451523D01*
X170131809Y-120451523D01*
X170036571Y-120403904D01*
X169988952Y-120356285D01*
X169941333Y-120261047D01*
X169941333Y-120070571D01*
X169988952Y-119975333D01*
X170036571Y-119927714D01*
X170131809Y-119880095D01*
X170560380Y-121403904D02*
X170560380Y-120832476D01*
X170560380Y-121118190D02*
X169560380Y-121118190D01*
X169703238Y-121022952D01*
X169798476Y-120927714D01*
X169846095Y-120832476D01*
%TO.C,D62*%
X177164380Y-118927714D02*
X176164380Y-118927714D01*
X176164380Y-119165809D01*
X176212000Y-119308666D01*
X176307238Y-119403904D01*
X176402476Y-119451523D01*
X176592952Y-119499142D01*
X176735809Y-119499142D01*
X176926285Y-119451523D01*
X177021523Y-119403904D01*
X177116761Y-119308666D01*
X177164380Y-119165809D01*
X177164380Y-118927714D01*
X176164380Y-120356285D02*
X176164380Y-120165809D01*
X176212000Y-120070571D01*
X176259619Y-120022952D01*
X176402476Y-119927714D01*
X176592952Y-119880095D01*
X176973904Y-119880095D01*
X177069142Y-119927714D01*
X177116761Y-119975333D01*
X177164380Y-120070571D01*
X177164380Y-120261047D01*
X177116761Y-120356285D01*
X177069142Y-120403904D01*
X176973904Y-120451523D01*
X176735809Y-120451523D01*
X176640571Y-120403904D01*
X176592952Y-120356285D01*
X176545333Y-120261047D01*
X176545333Y-120070571D01*
X176592952Y-119975333D01*
X176640571Y-119927714D01*
X176735809Y-119880095D01*
X176259619Y-120832476D02*
X176212000Y-120880095D01*
X176164380Y-120975333D01*
X176164380Y-121213428D01*
X176212000Y-121308666D01*
X176259619Y-121356285D01*
X176354857Y-121403904D01*
X176450095Y-121403904D01*
X176592952Y-121356285D01*
X177164380Y-120784857D01*
X177164380Y-121403904D01*
%TO.C,J4*%
X209383380Y-106092666D02*
X210097666Y-106092666D01*
X210240523Y-106045047D01*
X210335761Y-105949809D01*
X210383380Y-105806952D01*
X210383380Y-105711714D01*
X209716714Y-106997428D02*
X210383380Y-106997428D01*
X209335761Y-106759333D02*
X210050047Y-106521238D01*
X210050047Y-107140285D01*
%TO.C,R1*%
X183719666Y-58981580D02*
X184053000Y-58505390D01*
X184291095Y-58981580D02*
X184291095Y-57981580D01*
X183910142Y-57981580D01*
X183814904Y-58029200D01*
X183767285Y-58076819D01*
X183719666Y-58172057D01*
X183719666Y-58314914D01*
X183767285Y-58410152D01*
X183814904Y-58457771D01*
X183910142Y-58505390D01*
X184291095Y-58505390D01*
X182767285Y-58981580D02*
X183338714Y-58981580D01*
X183053000Y-58981580D02*
X183053000Y-57981580D01*
X183148238Y-58124438D01*
X183243476Y-58219676D01*
X183338714Y-58267295D01*
%TO.C,R2*%
X180988666Y-60472580D02*
X181322000Y-59996390D01*
X181560095Y-60472580D02*
X181560095Y-59472580D01*
X181179142Y-59472580D01*
X181083904Y-59520200D01*
X181036285Y-59567819D01*
X180988666Y-59663057D01*
X180988666Y-59805914D01*
X181036285Y-59901152D01*
X181083904Y-59948771D01*
X181179142Y-59996390D01*
X181560095Y-59996390D01*
X180607714Y-59567819D02*
X180560095Y-59520200D01*
X180464857Y-59472580D01*
X180226761Y-59472580D01*
X180131523Y-59520200D01*
X180083904Y-59567819D01*
X180036285Y-59663057D01*
X180036285Y-59758295D01*
X180083904Y-59901152D01*
X180655333Y-60472580D01*
X180036285Y-60472580D01*
%TO.C,R3*%
X204153666Y-101188380D02*
X204487000Y-100712190D01*
X204725095Y-101188380D02*
X204725095Y-100188380D01*
X204344142Y-100188380D01*
X204248904Y-100236000D01*
X204201285Y-100283619D01*
X204153666Y-100378857D01*
X204153666Y-100521714D01*
X204201285Y-100616952D01*
X204248904Y-100664571D01*
X204344142Y-100712190D01*
X204725095Y-100712190D01*
X203820333Y-100188380D02*
X203201285Y-100188380D01*
X203534619Y-100569333D01*
X203391761Y-100569333D01*
X203296523Y-100616952D01*
X203248904Y-100664571D01*
X203201285Y-100759809D01*
X203201285Y-100997904D01*
X203248904Y-101093142D01*
X203296523Y-101140761D01*
X203391761Y-101188380D01*
X203677476Y-101188380D01*
X203772714Y-101140761D01*
X203820333Y-101093142D01*
%TO.C,R4*%
X203962666Y-106014380D02*
X204296000Y-105538190D01*
X204534095Y-106014380D02*
X204534095Y-105014380D01*
X204153142Y-105014380D01*
X204057904Y-105062000D01*
X204010285Y-105109619D01*
X203962666Y-105204857D01*
X203962666Y-105347714D01*
X204010285Y-105442952D01*
X204057904Y-105490571D01*
X204153142Y-105538190D01*
X204534095Y-105538190D01*
X203105523Y-105347714D02*
X203105523Y-106014380D01*
X203343619Y-104966761D02*
X203581714Y-105681047D01*
X202962666Y-105681047D01*
%TO.C,R65*%
X202204380Y-107306142D02*
X201728190Y-106972809D01*
X202204380Y-106734714D02*
X201204380Y-106734714D01*
X201204380Y-107115666D01*
X201252000Y-107210904D01*
X201299619Y-107258523D01*
X201394857Y-107306142D01*
X201537714Y-107306142D01*
X201632952Y-107258523D01*
X201680571Y-107210904D01*
X201728190Y-107115666D01*
X201728190Y-106734714D01*
X201204380Y-108163285D02*
X201204380Y-107972809D01*
X201252000Y-107877571D01*
X201299619Y-107829952D01*
X201442476Y-107734714D01*
X201632952Y-107687095D01*
X202013904Y-107687095D01*
X202109142Y-107734714D01*
X202156761Y-107782333D01*
X202204380Y-107877571D01*
X202204380Y-108068047D01*
X202156761Y-108163285D01*
X202109142Y-108210904D01*
X202013904Y-108258523D01*
X201775809Y-108258523D01*
X201680571Y-108210904D01*
X201632952Y-108163285D01*
X201585333Y-108068047D01*
X201585333Y-107877571D01*
X201632952Y-107782333D01*
X201680571Y-107734714D01*
X201775809Y-107687095D01*
X201204380Y-109163285D02*
X201204380Y-108687095D01*
X201680571Y-108639476D01*
X201632952Y-108687095D01*
X201585333Y-108782333D01*
X201585333Y-109020428D01*
X201632952Y-109115666D01*
X201680571Y-109163285D01*
X201775809Y-109210904D01*
X202013904Y-109210904D01*
X202109142Y-109163285D01*
X202156761Y-109115666D01*
X202204380Y-109020428D01*
X202204380Y-108782333D01*
X202156761Y-108687095D01*
X202109142Y-108639476D01*
%TO.C,R66*%
X193390980Y-98835342D02*
X192914790Y-98502009D01*
X193390980Y-98263914D02*
X192390980Y-98263914D01*
X192390980Y-98644866D01*
X192438600Y-98740104D01*
X192486219Y-98787723D01*
X192581457Y-98835342D01*
X192724314Y-98835342D01*
X192819552Y-98787723D01*
X192867171Y-98740104D01*
X192914790Y-98644866D01*
X192914790Y-98263914D01*
X192390980Y-99692485D02*
X192390980Y-99502009D01*
X192438600Y-99406771D01*
X192486219Y-99359152D01*
X192629076Y-99263914D01*
X192819552Y-99216295D01*
X193200504Y-99216295D01*
X193295742Y-99263914D01*
X193343361Y-99311533D01*
X193390980Y-99406771D01*
X193390980Y-99597247D01*
X193343361Y-99692485D01*
X193295742Y-99740104D01*
X193200504Y-99787723D01*
X192962409Y-99787723D01*
X192867171Y-99740104D01*
X192819552Y-99692485D01*
X192771933Y-99597247D01*
X192771933Y-99406771D01*
X192819552Y-99311533D01*
X192867171Y-99263914D01*
X192962409Y-99216295D01*
X192390980Y-100644866D02*
X192390980Y-100454390D01*
X192438600Y-100359152D01*
X192486219Y-100311533D01*
X192629076Y-100216295D01*
X192819552Y-100168676D01*
X193200504Y-100168676D01*
X193295742Y-100216295D01*
X193343361Y-100263914D01*
X193390980Y-100359152D01*
X193390980Y-100549628D01*
X193343361Y-100644866D01*
X193295742Y-100692485D01*
X193200504Y-100740104D01*
X192962409Y-100740104D01*
X192867171Y-100692485D01*
X192819552Y-100644866D01*
X192771933Y-100549628D01*
X192771933Y-100359152D01*
X192819552Y-100263914D01*
X192867171Y-100216295D01*
X192962409Y-100168676D01*
%TO.C,U2*%
X200264780Y-57454895D02*
X201074304Y-57454895D01*
X201169542Y-57502514D01*
X201217161Y-57550133D01*
X201264780Y-57645371D01*
X201264780Y-57835847D01*
X201217161Y-57931085D01*
X201169542Y-57978704D01*
X201074304Y-58026323D01*
X200264780Y-58026323D01*
X200360019Y-58454895D02*
X200312400Y-58502514D01*
X200264780Y-58597752D01*
X200264780Y-58835847D01*
X200312400Y-58931085D01*
X200360019Y-58978704D01*
X200455257Y-59026323D01*
X200550495Y-59026323D01*
X200693352Y-58978704D01*
X201264780Y-58407276D01*
X201264780Y-59026323D01*
%TO.C,U3*%
X167754404Y-100950380D02*
X167754404Y-101759904D01*
X167706785Y-101855142D01*
X167659166Y-101902761D01*
X167563928Y-101950380D01*
X167373452Y-101950380D01*
X167278214Y-101902761D01*
X167230595Y-101855142D01*
X167182976Y-101759904D01*
X167182976Y-100950380D01*
X166802023Y-100950380D02*
X166182976Y-100950380D01*
X166516309Y-101331333D01*
X166373452Y-101331333D01*
X166278214Y-101378952D01*
X166230595Y-101426571D01*
X166182976Y-101521809D01*
X166182976Y-101759904D01*
X166230595Y-101855142D01*
X166278214Y-101902761D01*
X166373452Y-101950380D01*
X166659166Y-101950380D01*
X166754404Y-101902761D01*
X166802023Y-101855142D01*
%TO.C,U1*%
X173672043Y-65434833D02*
X174244463Y-66007253D01*
X174278135Y-66108268D01*
X174278135Y-66175612D01*
X174244463Y-66276627D01*
X174109776Y-66411314D01*
X174008761Y-66444986D01*
X173941417Y-66444986D01*
X173840402Y-66411314D01*
X173267982Y-65838894D01*
X173267982Y-67253108D02*
X173672043Y-66849047D01*
X173470013Y-67051077D02*
X172762906Y-66343971D01*
X172931265Y-66377642D01*
X173065952Y-66377642D01*
X173166967Y-66343971D01*
%TO.C,Y1*%
X156730414Y-55444010D02*
X157067914Y-55781510D01*
X156595414Y-54836510D02*
X156730414Y-55444010D01*
X156122915Y-55309010D01*
X156224165Y-56625259D02*
X156629164Y-56220259D01*
X156426664Y-56422759D02*
X155717915Y-55714010D01*
X155886665Y-55747760D01*
X156021665Y-55747760D01*
X156122915Y-55714010D01*
%TD*%
M02*
