%TF.GenerationSoftware,KiCad,Pcbnew,(5.1.12)-1*%
%TF.CreationDate,2022-02-12T22:16:26+01:00*%
%TF.ProjectId,MemoryBrakout,4d656d6f-7279-4427-9261-6b6f75742e6b,rev?*%
%TF.SameCoordinates,Original*%
%TF.FileFunction,Copper,L2,Inr*%
%TF.FilePolarity,Positive*%
%FSLAX46Y46*%
G04 Gerber Fmt 4.6, Leading zero omitted, Abs format (unit mm)*
G04 Created by KiCad (PCBNEW (5.1.12)-1) date 2022-02-12 22:16:26*
%MOMM*%
%LPD*%
G01*
G04 APERTURE LIST*
%TA.AperFunction,ComponentPad*%
%ADD10O,1.700000X1.700000*%
%TD*%
%TA.AperFunction,ComponentPad*%
%ADD11R,1.700000X1.700000*%
%TD*%
%TA.AperFunction,ComponentPad*%
%ADD12O,1.600000X1.000000*%
%TD*%
%TA.AperFunction,ComponentPad*%
%ADD13O,2.100000X0.900000*%
%TD*%
%TA.AperFunction,ComponentPad*%
%ADD14C,1.524000*%
%TD*%
%TA.AperFunction,ViaPad*%
%ADD15C,0.800000*%
%TD*%
%TA.AperFunction,Conductor*%
%ADD16C,0.250000*%
%TD*%
G04 APERTURE END LIST*
D10*
%TO.N,/SCL*%
%TO.C,J104*%
X159258000Y-95631000D03*
%TO.N,/SDA*%
X156718000Y-95631000D03*
%TO.N,/RXD*%
X154178000Y-95631000D03*
D11*
%TO.N,/TXD*%
X151638000Y-95631000D03*
%TD*%
%TO.N,+3V3*%
%TO.C,J105*%
X204470000Y-95250000D03*
D10*
X207010000Y-95250000D03*
%TO.N,GND*%
X209550000Y-95250000D03*
X212090000Y-95250000D03*
%TD*%
D11*
%TO.N,MISOA*%
%TO.C,J3*%
X192430000Y-60452000D03*
D10*
%TO.N,5volts*%
X189890000Y-60452000D03*
%TO.N,SCKA*%
X192430000Y-62992000D03*
%TO.N,MOSIA*%
X189890000Y-62992000D03*
%TO.N,RESETA*%
X192430000Y-65532000D03*
%TO.N,GND*%
X189890000Y-65532000D03*
%TD*%
D12*
%TO.N,GND*%
%TO.C,J4*%
X212690000Y-102360000D03*
X212690000Y-111000000D03*
D13*
X208510000Y-102360000D03*
X208510000Y-111000000D03*
%TD*%
D11*
%TO.N,5volts*%
%TO.C,J2*%
X212217000Y-90424000D03*
D10*
%TO.N,D+*%
X209677000Y-90424000D03*
%TO.N,D-*%
X207137000Y-90424000D03*
%TO.N,GND*%
X204597000Y-90424000D03*
%TD*%
D11*
%TO.N,5volts*%
%TO.C,J6*%
X212217000Y-84963000D03*
D10*
%TO.N,/BAT-*%
X209677000Y-84963000D03*
%TO.N,/BAT+*%
X207137000Y-84963000D03*
%TO.N,GND*%
X204597000Y-84963000D03*
%TD*%
D11*
%TO.N,Net-(J8-Pad1)*%
%TO.C,J8*%
X208686000Y-99517200D03*
D10*
%TO.N,5volts*%
X211226000Y-99517200D03*
%TD*%
D14*
%TO.N,Net-(J8-Pad1)*%
%TO.C,U3*%
X187388700Y-114629800D03*
%TO.N,GND*%
X187388700Y-112089800D03*
%TO.N,/BAT+*%
X187388700Y-109549800D03*
%TO.N,GND*%
X187388700Y-107009800D03*
X187388700Y-104469800D03*
%TO.N,/VBUS5v*%
X187388700Y-101929800D03*
%TD*%
D15*
%TO.N,/DISPON*%
X185420000Y-84323700D03*
X182832000Y-88034400D03*
%TO.N,GND*%
X179679600Y-81229200D03*
X183413400Y-75996800D03*
X185445400Y-81026000D03*
X181584600Y-81178400D03*
X197053200Y-67157600D03*
X170738800Y-75895200D03*
X165557200Y-75946000D03*
X195884800Y-72847200D03*
X200964800Y-76530200D03*
X190525400Y-76606400D03*
X184835800Y-107416600D03*
X175387000Y-72834500D03*
X154356000Y-52628800D03*
X163441000Y-57878600D03*
X184378000Y-60147200D03*
X184201000Y-62788800D03*
X181483000Y-89941400D03*
X181229000Y-92938600D03*
X160477200Y-106375200D03*
X160172400Y-103936800D03*
X159969200Y-102082600D03*
X156972000Y-101701600D03*
X165811200Y-102565200D03*
X166527603Y-100680397D03*
X175361600Y-85953600D03*
X175006000Y-90449400D03*
X175387000Y-81229200D03*
X162102800Y-61163200D03*
X159588200Y-63423800D03*
X188518800Y-124739400D03*
X188518800Y-122656600D03*
X195249800Y-122478800D03*
X208356200Y-116992400D03*
X208000600Y-119126000D03*
X175082200Y-145872200D03*
X175006000Y-150444200D03*
X174447200Y-140284200D03*
X173913800Y-131089400D03*
%TO.N,+3V3*%
X180209400Y-84551600D03*
X170794100Y-84379600D03*
X165476900Y-98147500D03*
%TO.N,/SDA*%
X203072800Y-70684200D03*
%TO.N,/SCL*%
X200805000Y-70676000D03*
%TO.N,/TXD*%
X198163700Y-78800900D03*
%TO.N,/RXD*%
X195969000Y-78791100D03*
%TO.N,/BUT1*%
X193185000Y-78799500D03*
X156259000Y-85608300D03*
%TO.N,/BUT2*%
X166656100Y-84876300D03*
X190055400Y-105993100D03*
%TO.N,/EXTMODE*%
X166591400Y-89290500D03*
X170643200Y-89545300D03*
X180265100Y-87387600D03*
%TO.N,/LEDYellow*%
X181385700Y-100717300D03*
%TO.N,/LEDPink*%
X162750500Y-70718900D03*
X163430600Y-101822200D03*
X181230800Y-103760300D03*
%TO.N,/LEDYellow2*%
X161195100Y-70700400D03*
X161265000Y-97001200D03*
X185039900Y-100694400D03*
%TO.N,/LEDPink2*%
X166066500Y-79474500D03*
X166614900Y-97877100D03*
X183807700Y-101610500D03*
%TO.N,XTAL1*%
X160128000Y-52978400D03*
X156820000Y-51333400D03*
X162636000Y-55016400D03*
X164236000Y-56351000D03*
%TO.N,5volts*%
X172136000Y-69418200D03*
X182091000Y-62001400D03*
X174600000Y-69494400D03*
X157099000Y-56362600D03*
X157328000Y-59170400D03*
X172441000Y-50393600D03*
X173355000Y-53187600D03*
%TO.N,ROW0*%
X175921000Y-126216800D03*
X174117000Y-125463500D03*
%TO.N,Net-(D1-Pad2)*%
X152850300Y-127164700D03*
%TO.N,Net-(D2-Pad2)*%
X159012800Y-127164700D03*
%TO.N,Net-(D3-Pad2)*%
X167275300Y-128695200D03*
%TO.N,Net-(D4-Pad2)*%
X173855800Y-128695200D03*
%TO.N,Net-(D5-Pad2)*%
X181700800Y-129817100D03*
%TO.N,Net-(D6-Pad2)*%
X185020500Y-127164700D03*
%TO.N,Net-(D7-Pad2)*%
X194177500Y-128695200D03*
%TO.N,Net-(D8-Pad2)*%
X201390500Y-129817100D03*
%TO.N,Net-(D9-Pad2)*%
X204775000Y-127164700D03*
%TO.N,Net-(D10-Pad2)*%
X213812000Y-128695200D03*
%TO.N,Net-(D11-Pad2)*%
X201355000Y-116908400D03*
%TO.N,Net-(D12-Pad2)*%
X201876300Y-114534500D03*
%TO.N,ROW1*%
X173814400Y-133082400D03*
X189742500Y-133800500D03*
X191475400Y-111465300D03*
X190500000Y-68910200D03*
%TO.N,Net-(D13-Pad2)*%
X152850300Y-134874000D03*
%TO.N,Net-(D14-Pad2)*%
X158876200Y-134874000D03*
%TO.N,Net-(D15-Pad2)*%
X165039000Y-134874000D03*
%TO.N,Net-(D16-Pad2)*%
X173352300Y-134756100D03*
%TO.N,Net-(D17-Pad2)*%
X178627500Y-134874000D03*
%TO.N,Net-(D18-Pad2)*%
X185020500Y-134874000D03*
%TO.N,Net-(D19-Pad2)*%
X192229300Y-134874000D03*
%TO.N,Net-(D20-Pad2)*%
X198292300Y-134874000D03*
%TO.N,Net-(D21-Pad2)*%
X204381500Y-134874000D03*
%TO.N,Net-(D22-Pad2)*%
X211493000Y-134874000D03*
%TO.N,Net-(D23-Pad2)*%
X195050600Y-114109500D03*
%TO.N,Net-(D24-Pad2)*%
X205867900Y-111249900D03*
%TO.N,Net-(D25-Pad2)*%
X151889300Y-142494000D03*
%TO.N,Net-(D26-Pad2)*%
X158912800Y-142494000D03*
%TO.N,Net-(D27-Pad2)*%
X166786300Y-142547500D03*
%TO.N,Net-(D28-Pad2)*%
X173352300Y-142547500D03*
%TO.N,Net-(D29-Pad2)*%
X178422500Y-142494000D03*
%TO.N,Net-(D30-Pad2)*%
X186433500Y-142547500D03*
%TO.N,Net-(D31-Pad2)*%
X193759000Y-142547500D03*
%TO.N,Net-(D32-Pad2)*%
X198292300Y-142494000D03*
%TO.N,Net-(D33-Pad2)*%
X205604800Y-142494000D03*
%TO.N,Net-(D34-Pad2)*%
X213351000Y-142547500D03*
%TO.N,Net-(D35-Pad2)*%
X185086000Y-122743800D03*
%TO.N,Net-(D36-Pad2)*%
X193759000Y-120387700D03*
%TO.N,Net-(D37-Pad2)*%
X151700300Y-150114000D03*
%TO.N,ROW3*%
X176201400Y-124208300D03*
X176429300Y-148351200D03*
X177292000Y-69672200D03*
%TO.N,Net-(D38-Pad2)*%
X158912800Y-150114000D03*
%TO.N,Net-(D39-Pad2)*%
X166786300Y-150167500D03*
%TO.N,Net-(D40-Pad2)*%
X172540000Y-150114000D03*
%TO.N,Net-(D41-Pad2)*%
X178500500Y-150114000D03*
%TO.N,Net-(D42-Pad2)*%
X185020500Y-150114000D03*
%TO.N,Net-(D43-Pad2)*%
X193759000Y-150167500D03*
%TO.N,Net-(D44-Pad2)*%
X198292300Y-150114000D03*
%TO.N,Net-(D45-Pad2)*%
X206329800Y-150167500D03*
%TO.N,Net-(D46-Pad2)*%
X211620000Y-150114000D03*
%TO.N,Net-(D47-Pad2)*%
X198294000Y-122867000D03*
%TO.N,Net-(D48-Pad2)*%
X204898000Y-122867000D03*
%TO.N,ROW4*%
X173460900Y-155855300D03*
X170064500Y-119532100D03*
X176497000Y-119074200D03*
X192380000Y-69469000D03*
%TO.N,Net-(D49-Pad2)*%
X151889300Y-157734000D03*
%TO.N,Net-(D50-Pad2)*%
X158962300Y-157734000D03*
%TO.N,Net-(D51-Pad2)*%
X166786300Y-157787500D03*
%TO.N,Net-(D52-Pad2)*%
X186136000Y-157787500D03*
X178673000Y-157734000D03*
%TO.N,Net-(D55-Pad2)*%
X206280300Y-157787500D03*
%TO.N,Net-(D56-Pad2)*%
X213351000Y-157787500D03*
%TO.N,Net-(D57-Pad2)*%
X211530500Y-122867000D03*
%TO.N,Net-(D58-Pad2)*%
X153283000Y-120630800D03*
%TO.N,Net-(D59-Pad2)*%
X158670000Y-122743800D03*
%TO.N,Net-(D60-Pad2)*%
X166553300Y-120700000D03*
%TO.N,Net-(D61-Pad2)*%
X173237500Y-120423300D03*
%TO.N,Net-(D62-Pad2)*%
X178482000Y-122867000D03*
%TO.N,COL0*%
X151165500Y-124446000D03*
X176479000Y-55270400D03*
%TO.N,COL1*%
X168509100Y-111952400D03*
X179070000Y-54914800D03*
%TO.N,COL2*%
X164277000Y-124446000D03*
X181381000Y-55753000D03*
%TO.N,COL3*%
X171029300Y-124446000D03*
X186360000Y-55854600D03*
%TO.N,COL4*%
X177418000Y-153034100D03*
X202997700Y-155204700D03*
X177418000Y-124446000D03*
X181305000Y-58064400D03*
%TO.N,COL5*%
X184586400Y-153057100D03*
X210579000Y-157787500D03*
X183966800Y-124446000D03*
X184201000Y-65786000D03*
%TO.N,COL6*%
X207822700Y-122778300D03*
X190854300Y-124446000D03*
X186512000Y-65430400D03*
%TO.N,COL7*%
X197315000Y-124446000D03*
X152959300Y-123081400D03*
X159923000Y-66109600D03*
%TO.N,COL8*%
X203656500Y-124446000D03*
X157620000Y-117334600D03*
X157988000Y-57378600D03*
%TO.N,COL9*%
X210544000Y-124446000D03*
X164224000Y-117316200D03*
X166446000Y-53746400D03*
%TO.N,COL10*%
X169173900Y-117197200D03*
X167767000Y-51739800D03*
%TO.N,COL11*%
X190640000Y-117312100D03*
X177432000Y-117294700D03*
X169212700Y-110081200D03*
X174727000Y-53695600D03*
%TO.N,D+*%
X205408800Y-99485700D03*
X173126000Y-97586800D03*
%TO.N,D-*%
X203797000Y-103085000D03*
X172847000Y-91236800D03*
%TO.N,Net-(R102-Pad1)*%
X195280000Y-96615600D03*
X196190000Y-104867000D03*
%TO.N,Net-(R104-Pad1)*%
X155671500Y-103726200D03*
%TO.N,Net-(R108-Pad1)*%
X163115000Y-108830100D03*
%TO.N,Net-(R110-Pad1)*%
X163115000Y-103402500D03*
%TO.N,Net-(R111-Pad1)*%
X163115000Y-99714900D03*
%TO.N,/BAT+*%
X158951200Y-84189900D03*
%TO.N,/BAT-*%
X155401900Y-86403000D03*
%TO.N,/DIO0W*%
X206929700Y-53707800D03*
X199774800Y-70352600D03*
%TO.N,/LRESET*%
X170662600Y-73634600D03*
X200914000Y-65709800D03*
%TO.N,/NSS*%
X165453300Y-70158800D03*
X202024700Y-69631200D03*
%TO.N,/MOSI*%
X184200300Y-82375800D03*
X203343500Y-79241900D03*
X206070300Y-65408800D03*
%TO.N,/SCK*%
X188677600Y-61722000D03*
X182680900Y-79449400D03*
X183855700Y-84292100D03*
%TO.N,MISOA*%
X162433000Y-65024000D03*
%TO.N,SCKA*%
X177973000Y-66771900D03*
X163169600Y-66243200D03*
%TO.N,MOSIA*%
X178773000Y-65971800D03*
X163491000Y-64665700D03*
%TO.N,RESETA*%
X155575000Y-62255400D03*
%TD*%
D16*
%TO.N,+3V3*%
X203294700Y-95250000D02*
X191073400Y-95250000D01*
X191073400Y-95250000D02*
X180375000Y-84551600D01*
X180375000Y-84551600D02*
X180209400Y-84551600D01*
X170794100Y-84379600D02*
X170525100Y-84110600D01*
X170525100Y-84110600D02*
X166316900Y-84110600D01*
X166316900Y-84110600D02*
X165476900Y-84950600D01*
X165476900Y-84950600D02*
X165476900Y-98147500D01*
X180209400Y-84551600D02*
X180037400Y-84379600D01*
X180037400Y-84379600D02*
X170794100Y-84379600D01*
X204470000Y-95250000D02*
X203294700Y-95250000D01*
X207010000Y-95250000D02*
X204470000Y-95250000D01*
%TO.N,/SDA*%
X155542700Y-95631000D02*
X155542700Y-95998300D01*
X155542700Y-95998300D02*
X154734600Y-96806400D01*
X154734600Y-96806400D02*
X150595400Y-96806400D01*
X150595400Y-96806400D02*
X150462600Y-96673600D01*
X150462600Y-96673600D02*
X150462600Y-88928800D01*
X150462600Y-88928800D02*
X167863200Y-71528200D01*
X167863200Y-71528200D02*
X202228800Y-71528200D01*
X202228800Y-71528200D02*
X203072800Y-70684200D01*
X156718000Y-95631000D02*
X155542700Y-95631000D01*
%TO.N,/SCL*%
X158082700Y-95631000D02*
X158082700Y-95998300D01*
X158082700Y-95998300D02*
X156800000Y-97281000D01*
X156800000Y-97281000D02*
X150367100Y-97281000D01*
X150367100Y-97281000D02*
X150012200Y-96926100D01*
X150012200Y-96926100D02*
X150012200Y-88740700D01*
X150012200Y-88740700D02*
X167675000Y-71077900D01*
X167675000Y-71077900D02*
X200403100Y-71077900D01*
X200403100Y-71077900D02*
X200805000Y-70676000D01*
X159258000Y-95631000D02*
X158082700Y-95631000D01*
%TO.N,/TXD*%
X151638000Y-95631000D02*
X151638000Y-88410800D01*
X151638000Y-88410800D02*
X162492900Y-77555900D01*
X162492900Y-77555900D02*
X196918700Y-77555900D01*
X196918700Y-77555900D02*
X198163700Y-78800900D01*
%TO.N,/RXD*%
X154178000Y-94455700D02*
X154178000Y-86553200D01*
X154178000Y-86553200D02*
X162725000Y-78006200D01*
X162725000Y-78006200D02*
X195184100Y-78006200D01*
X195184100Y-78006200D02*
X195969000Y-78791100D01*
X154178000Y-95631000D02*
X154178000Y-94455700D01*
%TO.N,/BUT1*%
X193185000Y-78799500D02*
X193109600Y-78724100D01*
X193109600Y-78724100D02*
X162754100Y-78724100D01*
X162754100Y-78724100D02*
X156259000Y-85219200D01*
X156259000Y-85219200D02*
X156259000Y-85608300D01*
%TO.N,/BUT2*%
X166656100Y-84876300D02*
X166884700Y-85104900D01*
X166884700Y-85104900D02*
X179042100Y-85104900D01*
X179042100Y-85104900D02*
X182106700Y-88169500D01*
X182106700Y-88169500D02*
X182106700Y-88334800D01*
X182106700Y-88334800D02*
X190055400Y-96283500D01*
X190055400Y-96283500D02*
X190055400Y-105993100D01*
%TO.N,/EXTMODE*%
X170643200Y-89545300D02*
X170388400Y-89290500D01*
X170388400Y-89290500D02*
X166591400Y-89290500D01*
X180265100Y-87387600D02*
X178107400Y-89545300D01*
X178107400Y-89545300D02*
X170643200Y-89545300D01*
%TO.N,/LEDPink*%
X181230800Y-103760300D02*
X165368700Y-103760300D01*
X165368700Y-103760300D02*
X163430600Y-101822200D01*
%TO.N,/LEDYellow2*%
X161265000Y-97001200D02*
X162516900Y-98253100D01*
X162516900Y-98253100D02*
X162516900Y-98253200D01*
X162516900Y-98253200D02*
X163075100Y-98253200D01*
X163075100Y-98253200D02*
X167157700Y-102335800D01*
X167157700Y-102335800D02*
X184108200Y-102335800D01*
X184108200Y-102335800D02*
X185039900Y-101404100D01*
X185039900Y-101404100D02*
X185039900Y-100694400D01*
%TO.N,/LEDPink2*%
X183807700Y-101610500D02*
X170348300Y-101610500D01*
X170348300Y-101610500D02*
X166614900Y-97877100D01*
%TO.N,5volts*%
X189890000Y-60452000D02*
X191065300Y-60452000D01*
X212217000Y-84963000D02*
X212217000Y-78751400D01*
X212217000Y-78751400D02*
X195092900Y-61627300D01*
X195092900Y-61627300D02*
X191432500Y-61627300D01*
X191432500Y-61627300D02*
X191065300Y-61260100D01*
X191065300Y-61260100D02*
X191065300Y-60452000D01*
X182091000Y-62001400D02*
X181990400Y-62001400D01*
X181990400Y-62001400D02*
X173355000Y-53366000D01*
X173355000Y-53366000D02*
X173355000Y-53187600D01*
%TO.N,ROW0*%
X175921000Y-126216800D02*
X175167700Y-125463500D01*
X175167700Y-125463500D02*
X174117000Y-125463500D01*
%TO.N,ROW1*%
X189742500Y-133800500D02*
X174532500Y-133800500D01*
X174532500Y-133800500D02*
X173814400Y-133082400D01*
%TO.N,ROW4*%
X170064500Y-119532100D02*
X176039100Y-119532100D01*
X176039100Y-119532100D02*
X176497000Y-119074200D01*
%TO.N,Net-(D52-Pad2)*%
X178673000Y-157734000D02*
X186082500Y-157734000D01*
X186082500Y-157734000D02*
X186136000Y-157787500D01*
%TO.N,COL4*%
X177418000Y-153034100D02*
X179588600Y-155204700D01*
X179588600Y-155204700D02*
X202997700Y-155204700D01*
%TO.N,COL5*%
X184586400Y-153057100D02*
X205848600Y-153057100D01*
X205848600Y-153057100D02*
X210579000Y-157787500D01*
%TO.N,COL6*%
X190854300Y-124446000D02*
X191605400Y-125197100D01*
X191605400Y-125197100D02*
X205403900Y-125197100D01*
X205403900Y-125197100D02*
X207822700Y-122778300D01*
%TO.N,COL7*%
X197315000Y-124446000D02*
X196589700Y-123720700D01*
X196589700Y-123720700D02*
X176739600Y-123720700D01*
X176739600Y-123720700D02*
X176501900Y-123483000D01*
X176501900Y-123483000D02*
X153360900Y-123483000D01*
X153360900Y-123483000D02*
X152959300Y-123081400D01*
%TO.N,COL8*%
X157620000Y-117334600D02*
X161996400Y-121711000D01*
X161996400Y-121711000D02*
X200921500Y-121711000D01*
X200921500Y-121711000D02*
X203656500Y-124446000D01*
%TO.N,COL9*%
X164224000Y-117316200D02*
X168056400Y-121148600D01*
X168056400Y-121148600D02*
X207246600Y-121148600D01*
X207246600Y-121148600D02*
X210544000Y-124446000D01*
%TO.N,COL11*%
X177432000Y-117294700D02*
X190622600Y-117294700D01*
X190622600Y-117294700D02*
X190640000Y-117312100D01*
X169212700Y-110081200D02*
X170218500Y-110081200D01*
X170218500Y-110081200D02*
X177432000Y-117294700D01*
%TO.N,/BAT+*%
X205961700Y-84963000D02*
X205961700Y-84661700D01*
X205961700Y-84661700D02*
X204866800Y-83566800D01*
X204866800Y-83566800D02*
X159574300Y-83566800D01*
X159574300Y-83566800D02*
X158951200Y-84189900D01*
X207137000Y-84963000D02*
X207137000Y-86138300D01*
X187388700Y-109549800D02*
X190123600Y-109549800D01*
X190123600Y-109549800D02*
X202662700Y-97010700D01*
X202662700Y-97010700D02*
X206983700Y-97010700D01*
X206983700Y-97010700D02*
X208312300Y-95682100D01*
X208312300Y-95682100D02*
X208312300Y-87313600D01*
X208312300Y-87313600D02*
X207137000Y-86138300D01*
X207137000Y-84963000D02*
X205961700Y-84963000D01*
%TO.N,/BAT-*%
X208501700Y-84963000D02*
X208501700Y-84595600D01*
X208501700Y-84595600D02*
X207022600Y-83116500D01*
X207022600Y-83116500D02*
X158998600Y-83116500D01*
X158998600Y-83116500D02*
X156984300Y-85130800D01*
X156984300Y-85130800D02*
X156984300Y-85908800D01*
X156984300Y-85908800D02*
X156490100Y-86403000D01*
X156490100Y-86403000D02*
X155401900Y-86403000D01*
X209677000Y-84963000D02*
X208501700Y-84963000D01*
%TO.N,/NSS*%
X202024700Y-69631200D02*
X202020800Y-69627300D01*
X202020800Y-69627300D02*
X195439900Y-69627300D01*
X195439900Y-69627300D02*
X194664400Y-70402800D01*
X194664400Y-70402800D02*
X165697300Y-70402800D01*
X165697300Y-70402800D02*
X165453300Y-70158800D01*
%TO.N,/MOSI*%
X203343500Y-79241900D02*
X200209600Y-82375800D01*
X200209600Y-82375800D02*
X184200300Y-82375800D01*
%TO.N,RESETA*%
X192430000Y-65532000D02*
X191254700Y-65532000D01*
X155575000Y-62255400D02*
X162304400Y-62255400D01*
X162304400Y-62255400D02*
X164405700Y-64356700D01*
X164405700Y-64356700D02*
X190446800Y-64356700D01*
X190446800Y-64356700D02*
X191254700Y-65164600D01*
X191254700Y-65164600D02*
X191254700Y-65532000D01*
%TO.N,Net-(J8-Pad1)*%
X187388700Y-114629800D02*
X187388700Y-114473100D01*
X187388700Y-114473100D02*
X196269500Y-105592300D01*
X196269500Y-105592300D02*
X196490500Y-105592300D01*
X196490500Y-105592300D02*
X203347400Y-98735400D01*
X203347400Y-98735400D02*
X206728900Y-98735400D01*
X206728900Y-98735400D02*
X207510700Y-99517200D01*
X208686000Y-99517200D02*
X207510700Y-99517200D01*
%TD*%
M02*
